<?xml version="1.0" standalone="no"?>
  <!DOCTYPE svg PUBLIC "-//W3C//DTD SVG 1.1//EN" "http://www.w3.org/Graphics/SVG/1.1/DTD/svg11.dtd" >
  <svg>
  <metadata>
  Created by font-carrier
  </metadata>
  <defs>
  <font id="BaronNeueBold" horiz-adv-x="2101" vert-adv-y="2101" >
    <font-face
      
      font-family="Baron Neue Bold"
      
      font-weight="400"
      
      font-stretch="normal"
      
      units-per-em="2048"
      
      ascent="1536"
      
      descent="-512"
      
    />
      <missing-glyph />

      

      
      <glyph glyph-name="uni21" unicode="&#x21;" d="M125 133Q125 193 170 238Q215 283 276 283Q341 283 386.50 238.50Q432 194 432 133Q432 71 387 27.50Q342-16 276-16Q214-16 169.50 28Q125 72 125 133M141 424L141 1417Q141 1423 147 1428.50Q153 1434 162 1434L395 1434Q404 1434 410 1428.50Q416 1423 416 1417L416 424Q416 418 410 413Q404 408 395 408L162 408Q153 408 147 413Q141 418 141 424Z"  horiz-adv-x="565" vert-adv-y="2048"  />

      
      <glyph glyph-name="uni22" unicode="&#x22;" d="M45 971L45 1417Q45 1423 51 1428.50Q57 1434 66 1434L258 1434Q267 1434 273 1428.50Q279 1423 279 1417L279 971Q279 965 273 959.50Q267 954 258 954L66 954Q57 954 51 959.50Q45 965 45 971M367 971L367 1417Q367 1423 372.50 1428.50Q378 1434 387 1434L578 1434Q587 1434 592.50 1428.50Q598 1423 598 1417L598 971Q598 965 592.50 959.50Q587 954 578 954L387 954Q378 954 372.50 959.50Q367 965 367 971Z"  horiz-adv-x="651" vert-adv-y="2048"  />

      
      <glyph glyph-name="uni23" unicode="&#x23;" d="M-4 311L53 514Q57 526 74 526L250 526Q264 580 344 852L172 852Q162 852 155.50 858Q149 864 152 872L207 1071Q211 1083 227 1083L406 1083L502 1421Q504 1426 510 1430Q516 1434 522 1434L733 1434Q744 1434 750.50 1427.50Q757 1421 754 1413L659 1083L852 1083L948 1421Q950 1426 956.50 1430Q963 1434 969 1434L1180 1434Q1190 1434 1196.50 1427.50Q1203 1421 1200 1413L1106 1083L1257 1083Q1268 1083 1274.50 1076.50Q1281 1070 1278 1063L1223 864Q1219 852 1202 852L1044 852Q1034 819 1013.50 750Q993 681 978 629.50Q963 578 950 526L1102 526Q1112 526 1118.50 520Q1125 514 1122 506L1065 303Q1061 291 1044 291L885 291L805 10Q801-2 786-2L573-2Q563-2 557 4Q551 10 553 18L631 291L438 291L360 10Q356-2 340-2L129-2Q120-2 114 4.50Q108 11 111 18L184 291L14 291Q5 291-1 297.50Q-7 304-4 311M475 500L709 500L819 879L586 879L475 500Z"  horiz-adv-x="1339" vert-adv-y="2048"  />

      
      <glyph glyph-name="uni24" unicode="&#x24;" d="M96 403Q96 418 117 418L348 418Q356 418 362.50 413.50Q369 409 369 403Q372 327 424 286.50Q476 246 551 246Q626 246 679.50 290.50Q733 335 733 408Q733 485 676 535Q619 585 551 588Q438 588 334 635Q219 689 157.50 784Q96 879 96 1006Q96 1173 193 1287.50Q290 1402 438 1436L438 1593Q438 1599 444 1604.50Q450 1610 459 1610L653 1610Q662 1610 668 1604.50Q674 1599 674 1593L674 1436Q817 1400 906.50 1292Q996 1184 999 1034Q999 1016 979 1016L750 1016Q742 1016 735.50 1021.50Q729 1027 729 1034Q726 1107 676 1146.50Q626 1186 551 1186Q471 1186 420 1140Q369 1094 369 1006Q369 932 422.50 889Q476 846 551 846Q662 846 764 799Q879 744 941.50 640.50Q1004 537 1004 408Q1004 244 911.50 136Q819 28 674-6L674-154Q674-159 668-163.50Q662-168 653-168L459-168Q450-168 444-163.50Q438-159 438-154L438-6Q284 24 190.50 129.50Q97 235 96 403Z"  horiz-adv-x="1112" vert-adv-y="2048"  />

      
      <glyph glyph-name="uni25" unicode="&#x25;" d="M8 4Q-5 4-10.50 13Q-16 22-8 31L1079 1427Q1086 1434 1096 1434L1317 1434Q1330 1434 1335.50 1425Q1341 1416 1333 1407L246 10Q240 4 229 4L8 4M29 1149Q29 1275 120.50 1364.50Q212 1454 338 1454Q464 1454 555.50 1364.50Q647 1275 647 1149Q647 1025 555.50 935.50Q464 846 338 846Q212 846 120.50 935.50Q29 1025 29 1149M225 1149Q225 1100 258.50 1067Q292 1034 338 1034Q384 1034 417.50 1067Q451 1100 451 1149Q451 1199 417.50 1233.50Q384 1268 338 1268Q292 1268 258.50 1233.50Q225 1199 225 1149M779 72Q779 72 733.50 117Q688 162 688 289Q688 416 779 506Q870 596 999 596Q1129 596 1220 506.50Q1311 417 1311 289Q1311 161 1220 71.50Q1129-18 999-18Q870-18 779 72M919.50 372Q919.50 372 903.25 355Q887 338 887 289Q887 240 919.50 206Q952 172 999 172Q1045 172 1079.50 206Q1114 240 1114 289Q1114 338 1079.50 372Q1045 406 999 406Q952 406 919.50 372Z"  horiz-adv-x="1359" vert-adv-y="2048"  />

      
      <glyph glyph-name="uni26" unicode="&#x26;" d="M150 180Q50 332 73 504.50Q96 677 233 809Q174 858 145.50 929Q117 1000 117 1077Q117 1228 225.50 1336Q334 1444 485 1444Q640 1444 748 1336Q856 1228 856 1077Q856 989 809.50 907.50Q763 826 690 770L874 578L874 823Q874 829 880 834.50Q886 840 895 840L1247 840Q1256 840 1262 834.50Q1268 829 1268 823L1268 633Q1268 627 1262 621.50Q1256 616 1247 616L1092 616L1092 494Q1092 457 1077 403L1075 399L1282 195Q1286 190 1286 182Q1286 174 1282 170L1114 4Q1100-6 1087 4L936 154Q863 72 765 28Q667-16 561-16Q428-16 322.50 35Q217 86 150 180M366 571.50Q366 571.50 353.50 549.25Q341 527 337 483Q333 439 347.50 397Q362 355 391.50 323Q421 291 467.50 271.50Q514 252 571 252Q680 252 756 340L436 651Q391 616 366 571.50M399.50 1167Q399.50 1167 382.25 1148.50Q365 1130 365 1077Q365 1024 399.50 986Q434 948 485 948Q537 948 572.50 986Q608 1024 608 1077Q608 1130 572.50 1167Q537 1204 485 1204Q434 1204 399.50 1167Z"  horiz-adv-x="1337" vert-adv-y="2048"  />

      
      <glyph glyph-name="uni27" unicode="&#x27;" d="M43 971L43 1417Q43 1423 48.50 1428.50Q54 1434 63 1434L276 1434Q285 1434 291 1428.50Q297 1423 297 1417L297 971Q297 965 291 959.50Q285 954 276 954L63 954Q54 954 48.50 959.50Q43 965 43 971Z"  horiz-adv-x="339" vert-adv-y="2048"  />

      
      <glyph glyph-name="uni28" unicode="&#x28;" d="M106 721Q106 1084 289 1423Q294 1432 307 1432L578 1432Q590 1432 594.50 1424Q599 1416 592 1407Q379 1079 379 723Q379 349 590 25Q597 16 592 8Q587 0 575 0L305 0L287 8Q106 346 106 721Z"  horiz-adv-x="636" vert-adv-y="2048"  />

      
      <glyph glyph-name="uni29" unicode="&#x29;" d="M51 0Q38 0 32.50 8Q27 16 35 25Q250 351 250 709Q250 857 209 1012Q156 1224 37 1407Q29 1416 34.50 1424Q40 1432 53 1432L324 1432L342 1423Q429 1256 475 1077Q522 899 522 713Q522 350 340 8Q336 0 322 0L51 0Z"  horiz-adv-x="630" vert-adv-y="2048"  />

      
      <glyph glyph-name="uni2a" unicode="&#x2a;" d="M59 1061L59 1163Q59 1169 65 1174.50Q71 1180 80 1180L221 1180L106 1294Q100 1297 100 1304.50Q100 1312 106 1317L178 1389Q192 1400 207 1389L315 1282L315 1417Q315 1423 321 1428.50Q327 1434 334 1434L436 1434Q445 1434 451 1428.50Q457 1423 457 1417L457 1282L563 1389Q578 1400 592 1389L664 1317Q670 1312 670 1304.50Q670 1297 664 1294L549 1180L688 1180Q697 1180 703 1174.50Q709 1169 709 1163L709 1061Q709 1055 703 1049.50Q697 1044 688 1044L549 1044L664 932Q670 927 670 919.50Q670 912 664 907L592 838Q578 827 563 838L457 942L457 807Q457 801 451 796Q445 791 436 791L334 791Q327 791 321 796Q315 801 315 807L315 942L207 838Q192 827 178 838L106 907Q100 912 100 919.50Q100 927 106 932L221 1044L80 1044Q71 1044 65 1049.50Q59 1055 59 1061Z"  horiz-adv-x="784" vert-adv-y="2048"  />

      
      <glyph glyph-name="uni2b" unicode="&#x2b;" d="M39 614L39 817Q39 823 44.50 828.50Q50 834 59 834L330 834L330 1120Q330 1126 335.50 1131.50Q341 1137 350 1137L553 1137Q562 1137 567.50 1131.50Q573 1126 573 1120L573 834L858 834Q867 834 873 828.50Q879 823 879 817L879 614Q879 608 873 603Q867 598 858 598L573 598L573 307Q573 301 567.50 296Q562 291 553 291L350 291Q341 291 335.50 296Q330 301 330 307L330 598L59 598Q50 598 44.50 603Q39 608 39 614Z"  horiz-adv-x="956" vert-adv-y="2048"  />

      
      <glyph glyph-name="uni2c" unicode="&#x2c;" d="M23 125Q23 182 65 223Q107 264 166 264Q249 264 288.50 220Q328 176 328 106Q328 26 282.50-61Q237-148 176-186Q166-192 155.50-187.50Q145-183 145-172L145-16Q93-10 58 30.50Q23 71 23 125Z"  horiz-adv-x="380" vert-adv-y="2048"  />

      
      <glyph glyph-name="uni2d" unicode="&#x2d;" d="M68 614L68 827Q68 833 73.50 838.50Q79 844 88 844L793 844Q811 844 811 827L811 614Q811 598 793 598L88 598Q79 598 73.50 603Q68 608 68 614Z"  horiz-adv-x="907" vert-adv-y="2048"  />

      
      <glyph glyph-name="uni2e" unicode="&#x2e;" d="M35 129Q35 188 77.50 230Q120 272 178 272Q240 272 283 230Q326 188 326 129Q326 70 283.50 29Q241-12 178-12Q119-12 77 29.50Q35 71 35 129Z"  horiz-adv-x="368" vert-adv-y="2048"  />

      
      <glyph glyph-name="uni2f" unicode="&#x2f;" d="M-12 20L637 1423Q639 1426 645 1430Q651 1434 655 1434L895 1434Q906 1434 910.50 1427Q915 1420 911 1411L256 8Q251-2 238-2L4-2Q-7-2-11.50 4.50Q-16 11-12 20Z"  horiz-adv-x="925" vert-adv-y="2048"  />

      
      <glyph glyph-name="uni30" unicode="&#x30;" d="M143 393L143 1040Q143 1138 179.50 1218.50Q216 1299 276.50 1349.50Q337 1400 413 1427Q489 1454 571 1454Q652 1454 728 1427Q804 1400 865 1349.50Q926 1299 962.50 1218.50Q999 1138 999 1040L999 393Q999 313 975 245Q951 177 909.50 129Q868 81 813.50 47Q759 13 697.50-3.50Q636-20 571-20Q489-20 413.50 6.50Q338 33 277 83Q216 133 179.50 213.50Q143 294 143 393M418 383Q418 309 463.50 267Q509 225 571 225Q634 225 679.50 267Q725 309 725 383L725 1057Q725 1130 679 1171Q633 1212 571 1212Q508 1212 463 1171.50Q418 1131 418 1057L418 383Z"  horiz-adv-x="1157" vert-adv-y="2048"  />

      
      <glyph glyph-name="uni31" unicode="&#x31;" d="M-25 1237Q-32 1251-16 1257L309 1434L514 1434Q532 1434 532 1417L532 16Q532 0 514 0L279 0Q260 0 260 16L260 1126Q205 1109 78 1059Q60 1055 53 1069L-25 1237Z"  horiz-adv-x="679" vert-adv-y="2048"  />

      
      <glyph glyph-name="uni32" unicode="&#x32;" d="M57 16L57 231L563 930Q612 996 612 1059Q612 1114 575.50 1150Q539 1186 485 1186Q423 1186 377.50 1147Q332 1108 332 1032Q332 1027 326 1022.50Q320 1018 311 1018L92 1018Q84 1018 78 1022.50Q72 1027 72 1032Q72 1152 114.50 1244.50Q157 1337 252 1394.50Q347 1452 485 1452Q592 1452 686 1404Q780 1356 838.50 1268Q897 1180 897 1073Q897 935 795 795L395 266L895 266Q904 266 909.50 261Q915 256 915 250L915 16Q915 10 909.50 5Q904 0 895 0L78 0Q69 0 63 5Q57 10 57 16Z"  horiz-adv-x="1003" vert-adv-y="2048"  />

      
      <glyph glyph-name="uni33" unicode="&#x33;" d="M43 403Q43 409 48.50 414.50Q54 420 63 420L295 420Q302 420 307.50 414.50Q313 409 313 403Q313 332 364 288Q415 244 483 244Q570 244 620 303Q670 362 670 442Q670 536 617.50 597.50Q565 659 477 666L285 666Q273 666 266.50 673.50Q260 681 266 690L551 1176L111 1176Q102 1176 96 1181Q90 1186 90 1192L90 1417Q90 1423 96 1428.50Q102 1434 111 1434L934 1434Q946 1434 952 1426Q958 1418 952 1409L649 877Q791 836 868.50 717.50Q946 599 946 426Q946 334 920.50 259Q895 184 851 133Q807 82 747.50 47Q688 12 622-4Q556-20 483-20Q300-20 171.50 97Q43 214 43 403Z"  horiz-adv-x="1009" vert-adv-y="2048"  />

      
      <glyph glyph-name="uni34" unicode="&#x34;" d="M49 440L49 666L633 1427Q640 1434 647 1434L881 1434Q890 1434 895.50 1428.50Q901 1423 901 1417L901 16Q901 10 895.50 5Q890 0 881 0L647 0Q640 0 634.50 5Q629 10 629 16L629 424L70 424Q61 424 55 429Q49 434 49 440M322 662L631 662L631 1051L322 662Z"  horiz-adv-x="1054" vert-adv-y="2048"  />

      
      <glyph glyph-name="uni35" unicode="&#x35;" d="M72 410Q72 416 77.50 421Q83 426 92 426L324 426Q333 426 338.50 421Q344 416 344 410Q344 332 388 291Q432 250 500 250Q582 250 629 306.50Q676 363 676 442Q676 539 631.50 600.50Q587 662 500 668L102 668Q93 668 87.50 673Q82 678 82 684L82 1417Q82 1423 87.50 1428.50Q93 1434 102 1434L854 1434Q863 1434 868.50 1428.50Q874 1423 874 1417L874 1200Q874 1194 868.50 1189Q863 1184 854 1184L356 1184L356 907L500 907Q726 907 837 780Q948 653 948 428Q948 293 884.50 190.50Q821 88 720.50 37Q620-14 500-14Q314-14 193 98Q72 210 72 410Z"  horiz-adv-x="1026" vert-adv-y="2048"  />

      
      <glyph glyph-name="uni36" unicode="&#x36;" d="M47 414Q47 485 68 559L371 1423Q375 1434 387 1434L637 1434Q646 1434 651 1427Q656 1420 653 1411L446 823Q464 829 520 829Q632 829 720 768Q808 707 852.50 612Q897 517 897 408Q897 233 770.50 108.50Q644-16 467-16Q343-16 246 43Q149 102 98 199.50Q47 297 47 414M351 530Q351 530 326 504Q301 478 301 406Q301 334 350.50 282.50Q400 231 469 231Q540 231 590.50 282.50Q641 334 641 406Q641 478 590 530Q539 582 469 582Q401 582 351 530Z"  horiz-adv-x="966" vert-adv-y="2048"  />

      
      <glyph glyph-name="uni37" unicode="&#x37;" d="M20 1192L20 1417Q20 1423 26 1428.50Q32 1434 41 1434L879 1434Q890 1434 895.50 1427Q901 1420 897 1411L369 10Q366 0 352 0L102 0Q93 0 87.50 7Q82 14 86 23L520 1176L41 1176Q32 1176 26 1181Q20 1186 20 1192Z"  horiz-adv-x="892" vert-adv-y="2048"  />

      
      <glyph glyph-name="uni38" unicode="&#x38;" d="M59 416Q59 497 99.50 581Q140 665 201 719Q138 774 98.50 855.50Q59 937 59 1018Q59 1102 83 1173.50Q107 1245 148.50 1295.50Q190 1346 244.50 1381.50Q299 1417 360.50 1434.50Q422 1452 487 1452Q552 1452 614.50 1434.50Q677 1417 732.50 1381.50Q788 1346 829.50 1295.50Q871 1245 895.50 1173.50Q920 1102 920 1018Q920 933 879 850.50Q838 768 770 717Q839 660 879.50 579.50Q920 499 920 416Q920 311 883 226Q846 141 784 88.50Q722 36 645.50 8Q569-20 487-20Q405-20 330 8Q255 36 193.50 88.50Q132 141 95.50 226Q59 311 59 416M322 1018Q322 946 370 896Q418 846 487 846Q556 846 605.50 896Q655 946 655 1018Q655 1104 605 1152Q555 1200 487 1200Q419 1200 370.50 1152Q322 1104 322 1018M328 416Q328 332 375 285Q422 238 487 238Q552 238 600.50 285Q649 332 649 416Q649 486 601.50 538Q554 590 487 590Q422 590 375 538Q328 486 328 416Z"  horiz-adv-x="997" vert-adv-y="2048"  />

      
      <glyph glyph-name="uni39" unicode="&#x39;" d="M49 1026Q49 1200 175.50 1325Q302 1450 477 1450Q664 1450 781.50 1325Q899 1200 899 1020Q899 948 877 872L575 10Q572 0 557 0L309 0Q299 0 293.50 7Q288 14 291 23L500 610Q480 604 426 604Q314 604 226 665Q138 726 93.50 821.50Q49 917 49 1026M357.50 1148.50Q357.50 1148.50 333.25 1123.75Q309 1099 309 1028Q309 957 357.50 906.50Q406 856 475 856Q542 856 591.50 906.50Q641 957 641 1028Q641 1098 592 1148Q543 1198 475 1198Q406 1198 357.50 1148.50Z"  horiz-adv-x="995" vert-adv-y="2048"  />

      
      <glyph glyph-name="uni3a" unicode="&#x3a;" d="M35 129Q35 188 77.50 230Q120 272 178 272Q240 272 283 230Q326 188 326 129Q326 70 283.50 29Q241-12 178-12Q119-12 77 29.50Q35 71 35 129M35 713Q35 772 77.50 814Q120 856 178 856Q240 856 283 814Q326 772 326 713Q326 654 283.50 612.50Q241 571 178 571Q119 571 77 613Q35 655 35 713Z"  horiz-adv-x="368" vert-adv-y="2048"  />

      
      <glyph glyph-name="uni3b" unicode="&#x3b;" d="M23 125Q23 182 65 223Q107 264 166 264Q249 264 288.50 220Q328 176 328 106Q328 26 282.50-61Q237-148 176-186Q166-192 155.50-187.50Q145-183 145-172L145-16Q93-10 58 30.50Q23 71 23 125M35 713Q35 772 77.50 814Q120 856 178 856Q240 856 283 814Q326 772 326 713Q326 654 283.50 612.50Q241 571 178 571Q119 571 77 613Q35 655 35 713Z"  horiz-adv-x="370" vert-adv-y="2048"  />

      
      <glyph glyph-name="uni3c" unicode="&#x3c;" d="M33 688Q27 692 27 700Q27 708 33 713L473 1180Q486 1190 500 1180L635 1040Q648 1030 635 1020L334 700L635 387Q641 382 641 376Q641 370 635 365L500 223Q486 216 473 223L33 688Z"  horiz-adv-x="714" vert-adv-y="2048"  />

      
      <glyph glyph-name="uni3d" unicode="&#x3d;" d="M59 317L59 520Q59 526 65 531.50Q71 537 80 537L780 537Q788 537 793.50 531.50Q799 526 799 520L799 317Q799 312 793.50 307.50Q788 303 780 303L80 303Q71 303 65 307.50Q59 312 59 317M59 674L59 874Q59 880 65 885.50Q71 891 80 891L780 891Q788 891 793.50 885.50Q799 880 799 874L799 674Q799 669 793.50 664Q788 659 780 659L80 659Q72 659 65.50 664Q59 669 59 674Z"  horiz-adv-x="874" vert-adv-y="2048"  />

      
      <glyph glyph-name="uni3e" unicode="&#x3e;" d="M66 365Q60 370 60 376Q60 382 66 387L367 700L66 1020Q53 1030 66 1040L201 1180Q215 1190 229 1180L670 713Q676 708 676 700Q676 692 670 688L229 223Q215 216 201 223L66 365Z"  horiz-adv-x="708" vert-adv-y="2048"  />

      
      <glyph glyph-name="uni3f" unicode="&#x3f;" d="M43 1051Q43 1226 166.50 1340Q290 1454 471 1454Q666 1454 789.50 1339Q913 1224 913 1016Q913 888 817.50 781.50Q722 675 588 637L588 403Q588 398 582 393.50Q576 389 567 389L356 389Q348 389 342 393.50Q336 398 336 403L336 827Q336 844 358 844Q422 840 472.50 849Q523 858 553.50 875.50Q584 893 604 918Q624 943 631.50 967Q639 991 639 1016Q639 1188 471 1188Q404 1188 359.50 1151Q315 1114 315 1051Q315 1045 309.50 1039.50Q304 1034 295 1034L63 1034Q54 1034 48.50 1039.50Q43 1045 43 1051M358 30.50Q358 30.50 335.50 49.75Q313 69 313 137Q313 205 359.50 245Q406 285 469 285Q532 285 577.50 246Q623 207 623 137Q623 70 576 31Q529-8 465-8Q403-8 358 30.50Z"  horiz-adv-x="1003" vert-adv-y="2048"  />

      
      <glyph glyph-name="uni40" unicode="&#x40;" d="M20 436Q20 436-6.50 502.50Q-33 569-33 717Q-33 865 20 999Q73 1133 167.50 1234Q262 1335 403 1394.50Q544 1454 709 1454Q858 1454 992 1403Q1126 1352 1228 1259.50Q1330 1167 1390 1026.50Q1450 886 1450 717L1450 367Q1450 361 1444.50 355.50Q1439 350 1430 350L709 350Q554 350 446 457Q338 564 338 717Q338 868 446 975.50Q554 1083 709 1083Q861 1083 970 975.50Q1079 868 1079 717Q1079 627 1051 575L1180 575L1180 717Q1180 863 1113.50 974.50Q1047 1086 941 1142Q835 1198 709 1198Q598 1198 506 1158Q414 1118 354 1051Q294 984 261.50 897.50Q229 811 229 717Q229 590 285 481Q341 372 452.50 302.50Q564 233 709 233L1409 233Q1418 233 1424 228Q1430 223 1430 217L1430 0Q1430-6 1424-11Q1418-16 1409-16L709-16Q543-16 402.50 43Q262 102 167.50 202.50Q73 303 20 436M621 808.50Q621 808.50 602.50 789.75Q584 771 584 717Q584 663 621 625.50Q658 588 709 588Q760 588 797 625.50Q834 663 834 717Q834 771 797 808.50Q760 846 709 846Q658 846 621 808.50Z"  horiz-adv-x="1832" vert-adv-y="2048"  />

      
      <glyph glyph-name="uni41" unicode="&#x41;" d="M6 23L565 1464Q570 1474 584 1474Q598 1474 602 1464L1161 23Q1163 19 1163 15Q1162 11 1160 7Q1156 0 1145 0L891 0Q877 0 874 10L815 162L350 162L295 10Q292 0 276 0L25 0Q13 0 7 7Q4 11 4 15Q4 19 6 23M438 403L727 403L584 834L438 403Z"  horiz-adv-x="1167" vert-adv-y="2048"  />

      
      <glyph glyph-name="uni42" unicode="&#x42;" d="M145 16L145 1417Q145 1423 151 1428.50Q157 1434 166 1434L633 1434Q643 1434 660.50 1433.50Q678 1433 728.50 1426Q779 1419 824.50 1405.50Q870 1392 926 1361.50Q982 1331 1022.50 1289.50Q1063 1248 1090.50 1179Q1118 1110 1118 1024Q1118 906 1063.50 830Q1009 754 920 717Q984 695 1029.50 656Q1075 617 1095.50 577.50Q1116 538 1127 501Q1138 464 1138 441L1139 418Q1139 336 1115.50 269.50Q1092 203 1056 160.50Q1020 118 969.50 86.50Q919 55 873 39Q827 23 774.50 13.50Q722 4 692 2Q662 0 633 0L166 0Q157 0 151 5Q145 10 145 16M418 262L633 262Q672 262 708 268.50Q744 275 781.50 291Q819 307 841.50 341.50Q864 376 864 424Q864 472 840 505.50Q816 539 782 553.50Q748 568 714.50 575Q681 582 657 582L633 582L418 582L418 262M418 850L633 850Q637 850 645 850.50Q653 851 674.50 854Q696 857 716 862.50Q736 868 760.50 879.50Q785 891 802.50 907Q820 923 832 949.50Q844 976 844 1008Q844 1043 832.50 1071.50Q821 1100 802.50 1117Q784 1134 761 1147Q738 1160 715.50 1165.50Q693 1171 674.50 1174Q656 1177 644 1178L633 1178L418 1178L418 850Z"  horiz-adv-x="1234" vert-adv-y="2048"  />

      
      <glyph glyph-name="uni43" unicode="&#x43;" d="M98 717Q98 877 152 1014Q206 1151 301 1247.50Q396 1344 530.50 1399Q665 1454 821 1454Q969 1454 1100.50 1398.50Q1232 1343 1329 1243Q1335 1238 1335 1231Q1335 1224 1329 1219L1165 1055Q1151 1044 1137 1055Q1004 1188 821 1188Q617 1188 497 1056.50Q377 925 377 717Q377 504 504 375Q631 246 821 246Q1004 246 1137 379Q1151 389 1165 379L1329 213Q1335 208 1335 200.50Q1335 193 1329 188Q1232 90 1100.50 35Q969-20 821-20Q673-20 541 32.50Q409 85 310.50 179Q212 273 155 412.50Q98 552 98 717Z"  horiz-adv-x="1421" vert-adv-y="2048"  />

      
      <glyph glyph-name="uni44" unicode="&#x44;" d="M145 16L145 1417Q145 1423 151 1428.50Q157 1434 166 1434L399 1434Q463 1434 520.50 1430.50Q578 1427 646 1417Q714 1407 772.50 1390Q831 1373 893 1344.50Q955 1316 1004.50 1278Q1054 1240 1099 1185.50Q1144 1131 1174 1064.50Q1204 998 1221.50 909.50Q1239 821 1239 717Q1239 590 1210.50 485Q1182 380 1135 307Q1088 234 1020 178Q952 122 879.50 89Q807 56 720.50 35.50Q634 15 558 7.50Q482 0 399 0L166 0Q157 0 151 5Q145 10 145 16M420 264Q448 264 484 262Q491 262 499 262Q528 262 559 267Q598 273 638 280Q678 287 718 304.50Q758 322 794 344Q830 366 861 401.50Q892 437 914.50 480.50Q937 524 950 584.50Q963 645 963 717Q963 841 922.50 933Q882 1025 808 1078Q734 1131 636 1154Q559 1172 468 1172Q444 1172 420 1171L420 264Z"  horiz-adv-x="1355" vert-adv-y="2048"  />

      
      <glyph glyph-name="uni45" unicode="&#x45;" d="M145 16L145 1417Q145 1423 151 1428.50Q157 1434 166 1434L1081 1434Q1090 1434 1096 1428.50Q1102 1423 1102 1417L1102 1190Q1102 1184 1096 1179Q1090 1174 1081 1174L420 1174L420 850L983 850Q990 850 995.50 845Q1001 840 1001 834L1001 606Q1001 600 995.50 595Q990 590 983 590L420 590L420 266L1100 266Q1109 266 1114.50 261Q1120 256 1120 250L1120 16Q1120 10 1114.50 5Q1109 0 1100 0L166 0Q157 0 151 5Q145 10 145 16Z"  horiz-adv-x="1204" vert-adv-y="2048"  />

      
      <glyph glyph-name="uni46" unicode="&#x46;" d="M145 16L145 1417Q145 1423 151 1428.50Q157 1434 166 1434L1100 1434Q1109 1434 1114.50 1428.50Q1120 1423 1120 1417L1120 1184Q1120 1178 1114.50 1172.50Q1109 1167 1100 1167L420 1167L420 844L983 844Q990 844 995.50 838.50Q1001 833 1001 827L1001 600Q1001 594 995.50 589Q990 584 983 584L420 584L420 16Q420 10 414 5Q408 0 399 0L166 0Q157 0 151 5Q145 10 145 16Z"  horiz-adv-x="1187" vert-adv-y="2048"  />

      
      <glyph glyph-name="uni47" unicode="&#x47;" d="M104 717Q104 874 161 1011.50Q218 1149 315 1245.50Q412 1342 545 1398Q678 1454 825 1454Q973 1454 1104.50 1398.50Q1236 1343 1333 1243Q1339 1238 1339 1231Q1339 1224 1333 1219L1169 1055Q1154 1044 1143 1055Q1080 1118 998 1153Q916 1188 825 1188Q634 1188 506.50 1060.50Q379 933 379 717Q379 597 413.50 505Q448 413 510 357.50Q572 302 651 274Q730 246 825 246Q1019 246 1155 395L1155 582L924 582Q903 582 903 596L903 813Q903 819 909 824Q915 829 924 829L1411 829Q1418 829 1424 824Q1430 819 1430 813L1430 10Q1430 4 1424-1Q1418-6 1411-6L1206-6Q1198-6 1192-2Q1186 2 1186 8L1178 141Q1038-20 795-20Q649-20 523.50 30Q398 80 304.50 172Q211 264 157.50 404.50Q104 545 104 717Z"  horiz-adv-x="1583" vert-adv-y="2048"  />

      
      <glyph glyph-name="uni48" unicode="&#x48;" d="M150 16L150 1417Q150 1423 155.50 1428.50Q161 1434 170 1434L403 1434Q412 1434 418 1428.50Q424 1423 424 1417L424 852L967 852L967 1417Q967 1423 972.50 1428.50Q978 1434 987 1434L1221 1434Q1230 1434 1235.50 1428.50Q1241 1423 1241 1417L1241 16Q1241 10 1235.50 5Q1230 0 1221 0L987 0Q978 0 972.50 5Q967 10 967 16L967 584L424 584L424 16Q424 10 418 5Q412 0 403 0L170 0Q161 0 155.50 5Q150 10 150 16Z"  horiz-adv-x="1404" vert-adv-y="2048"  />

      
      <glyph glyph-name="uni49" unicode="&#x49;" d="M49 16L49 229Q49 235 55 240.50Q61 246 70 246L215 246L215 1188L78 1188Q69 1188 63 1193Q57 1198 57 1204L57 1417Q57 1423 63 1428.50Q69 1434 78 1434L625 1434Q634 1434 639.50 1428.50Q645 1423 645 1417L645 1204Q645 1198 639.50 1193Q634 1188 625 1188L489 1188L489 246L633 246Q642 246 647.50 240.50Q653 235 653 229L653 16Q653 10 647.50 5Q642 0 633 0L70 0Q61 0 55 5Q49 10 49 16Z"  horiz-adv-x="716" vert-adv-y="2048"  />

      
      <glyph glyph-name="uni4a" unicode="&#x4a;" d="M51 16L51 250Q51 256 57 261Q63 266 72 266L248 266Q292 266 324.50 282.50Q357 299 372 322Q387 345 395.50 368Q404 391 405 408L406 424L406 1190L172 1190Q163 1190 157.50 1195Q152 1200 152 1206L152 1419Q152 1425 157.50 1430.50Q163 1436 172 1436L659 1436Q668 1436 673 1431Q678 1426 678 1419L678 424Q678 337 654.50 267Q631 197 593 154Q555 111 509 79.50Q463 48 417 33.50Q371 19 333 10.50Q295 2 272 1L248 0L72 0Q63 0 57 5Q51 10 51 16Z"  horiz-adv-x="831" vert-adv-y="2048"  />

      
      <glyph glyph-name="uni4b" unicode="&#x4b;" d="M145 16L145 1417Q145 1423 151 1428.50Q157 1434 166 1434L401 1434Q408 1434 414 1428.50Q420 1423 420 1417L420 766L958 1427Q965 1434 975 1434L1268 1434Q1282 1434 1287.50 1425Q1293 1416 1284 1407L713 705L1288 27Q1294 21 1294 16Q1294 13 1292 9Q1286 0 1272 0L965 0Q954 0 948 6L530 522Q522 513 482.50 466.50Q443 420 420 397L420 16Q420 10 414 5Q408 0 401 0L166 0Q157 0 151 5Q145 10 145 16Z"  horiz-adv-x="1323" vert-adv-y="2048"  />

      
      <glyph glyph-name="uni4c" unicode="&#x4c;" d="M143 16L143 1417Q143 1423 149 1428.50Q155 1434 164 1434L399 1434Q406 1434 412 1428.50Q418 1423 418 1417L418 266L918 266Q927 266 932.50 261Q938 256 938 250L938 16Q938 10 932.50 5Q927 0 918 0L164 0Q155 0 149 5Q143 10 143 16Z"  horiz-adv-x="1026" vert-adv-y="2048"  />

      
      <glyph glyph-name="uni4d" unicode="&#x4d;" d="M147 16L147 1419Q147 1426 152.50 1431Q158 1436 166 1436L406 1436Q418 1436 424 1425L938 373L1430 1425Q1436 1436 1448 1436L1686 1436Q1695 1436 1700.50 1430.50Q1706 1425 1706 1419L1706 16Q1706 10 1700.50 5Q1695 0 1686 0L1452 0Q1443 0 1437.50 5Q1432 10 1432 16L1432 803L1067 68Q1065 65 1059.50 61Q1054 57 1051 57L829 57Q825 57 819 61Q813 65 811 68L422 821L422 16Q422 10 416 5Q410 0 401 0L166 0Q147 0 147 16Z"  horiz-adv-x="1875" vert-adv-y="2048"  />

      
      <glyph glyph-name="uni4e" unicode="&#x4e;" d="M147 16L147 1417Q147 1423 153 1428.50Q159 1434 166 1434L403 1434Q416 1434 420 1427L1081 483L1081 1417Q1081 1423 1087 1428.50Q1093 1434 1102 1434L1333 1434Q1342 1434 1348 1428.50Q1354 1423 1354 1417L1354 16Q1354 10 1348 5Q1342 0 1333 0L1098 0Q1084 0 1081 6L422 950L422 16Q422 10 416 5Q410 0 401 0L166 0Q159 0 153 5Q147 10 147 16Z"  horiz-adv-x="1519" vert-adv-y="2048"  />

      
      <glyph glyph-name="uni4f" unicode="&#x4f;" d="M100 918Q100 1062 172.50 1185.50Q245 1309 370 1381.50Q495 1454 641 1454Q787 1454 912 1381.50Q1037 1309 1109.50 1185.50Q1182 1062 1182 918Q1182 773 1109 649Q1036 525 911.50 453Q787 381 641 381Q495 381 370.50 453Q246 525 173 649Q100 773 100 918M154 16L154 248Q154 254 159.50 259Q165 264 174 264L1098 264Q1107 264 1112.50 259Q1118 254 1118 248L1118 16Q1118 10 1112.50 5Q1107 0 1098 0L174 0Q165 0 159.50 5Q154 10 154 16M373 918Q373 803 451.50 724Q530 645 641 645Q754 645 831.50 724Q909 803 909 918Q909 1032 831 1111Q753 1190 641 1190Q530 1190 451.50 1111Q373 1032 373 918Z"  horiz-adv-x="1306" vert-adv-y="2048"  />

      
      <glyph glyph-name="uni50" unicode="&#x50;" d="M145 16L145 834Q145 840 151 845Q157 850 166 850L356 850Q315 912 242 1028.50Q169 1145 145 1182L145 1417Q145 1423 151 1428.50Q157 1434 166 1434L633 1434Q643 1434 660.50 1433Q678 1432 728.50 1423.50Q779 1415 824.50 1400.50Q870 1386 926 1354.50Q982 1323 1022.50 1280Q1063 1237 1090.50 1167Q1118 1097 1118 1010Q1118 923 1091.50 852.50Q1065 782 1022 739Q979 696 927.50 664Q876 632 824 617.50Q772 603 729 594.50Q686 586 660 585L633 584L420 584L420 16Q420 10 414 5Q408 0 399 0L166 0Q157 0 151 5Q145 10 145 16M453 1167L651 852Q693 852 735 866Q777 880 811.50 918Q846 956 846 1010Q846 1167 633 1167L453 1167Z"  horiz-adv-x="1193" vert-adv-y="2048"  />

      
      <glyph glyph-name="uni51" unicode="&#x51;" d="M102 721Q102 869 155.50 1003Q209 1137 303 1236.50Q397 1336 533 1395Q669 1454 825 1454Q980 1454 1116 1395Q1252 1336 1346 1236.50Q1440 1137 1494 1003Q1548 869 1548 721Q1548 612 1516 501.50Q1484 391 1427 305L1567 156Q1573 152 1573 144Q1573 136 1567 133L1397-29Q1390-34 1382.50-34Q1375-34 1368-29L1235 111Q1051-18 825-18Q677-18 543.50 38.50Q410 95 313 192.50Q216 290 159 428Q102 566 102 721M377 721Q377 514 506.50 381Q636 248 825 248Q939 248 1051 311Q949 423 748 643.50Q547 864 444 977Q413 925 395 855.50Q377 786 377 721M649 1151L1231 510Q1274 607 1274 721Q1274 844 1214 951.50Q1154 1059 1050 1123.50Q946 1188 825 1188Q734 1188 649 1151Z"  horiz-adv-x="1683" vert-adv-y="2048"  />

      
      <glyph glyph-name="uni52" unicode="&#x52;" d="M147 16L147 834Q147 840 153 845Q159 850 168 850L358 850Q323 905 252.50 1016.50Q182 1128 147 1182L147 1417Q147 1423 153 1428.50Q159 1434 168 1434L635 1434Q641 1434 652 1433.50Q663 1433 696 1429Q729 1425 761.50 1418.50Q794 1412 838 1397Q882 1382 919.50 1361.50Q957 1341 995.50 1308Q1034 1275 1061 1234.50Q1088 1194 1105 1136Q1122 1078 1122 1010Q1122 707 821 614L1190 25Q1193 20 1193 15Q1194 11 1192 8Q1188 0 1176 0L901 0Q887 0 883 8L522 584L422 584L422 16Q422 10 416 5Q410 0 401 0L168 0Q159 0 153 5Q147 10 147 16M463 1167L662 852Q694 853 724.50 860.50Q755 868 784 885Q813 902 830.50 934Q848 966 848 1010Q848 1167 635 1167L463 1167Z"  horiz-adv-x="1253" vert-adv-y="2048"  />

      
      <glyph glyph-name="uni53" unicode="&#x53;" d="M94 403Q94 409 100 414.50Q106 420 115 420L348 420Q355 420 362 414.50Q369 409 369 403Q372 329 425 287.50Q478 246 553 246Q629 246 683 292Q737 338 737 410Q737 487 679.50 536Q622 585 553 588Q440 588 334 637Q218 691 156 786.50Q94 882 94 1010Q94 1110 132.50 1195Q171 1280 235 1336Q299 1392 381.50 1423Q464 1454 553 1454Q744 1454 873.50 1336.50Q1003 1219 1006 1034Q1006 1029 1000 1024.50Q994 1020 985 1020L754 1020Q747 1020 740 1024.50Q733 1029 733 1034Q730 1109 679.50 1148.50Q629 1188 553 1188Q474 1188 421.50 1141.50Q369 1095 369 1010Q369 934 423.50 891Q478 848 553 848Q666 848 770 799Q886 746 948 643.50Q1010 541 1010 410Q1010 310 972 227Q934 144 870 91Q806 38 724 9Q642-20 553-20Q355-15 226 96Q97 207 94 403Z"  horiz-adv-x="1112" vert-adv-y="2048"  />

      
      <glyph glyph-name="uni54" unicode="&#x54;" d="M25 1204L25 1417Q25 1423 30.50 1428.50Q36 1434 45 1434L866 1434Q875 1434 881 1428.50Q887 1423 887 1417L887 1204Q887 1198 881 1193Q875 1188 866 1188L592 1188L592 16Q592 10 586 5Q580 0 571 0L340 0Q331 0 325 5Q319 10 319 16L319 1188L45 1188Q36 1188 30.50 1193Q25 1198 25 1204Z"  horiz-adv-x="917" vert-adv-y="2048"  />

      
      <glyph glyph-name="uni55" unicode="&#x55;" d="M147 580L147 1417Q147 1423 153 1428.50Q159 1434 166 1434L1331 1434Q1340 1434 1346 1428.50Q1352 1423 1352 1417L1352 580Q1352 559 1349.50 527.50Q1347 496 1329 422.50Q1311 349 1280 287Q1205 139 1068.50 59.50Q932-20 750-20Q567-20 429.50 59Q292 138 219 287Q188 349 170 422.50Q152 496 149.50 527.50Q147 559 147 580M420 580Q422 487 467 401Q549 246 750 246Q950 246 1032 401Q1052 439 1063.50 486Q1075 533 1077 553Q1079 573 1079 582L1079 1188L420 1188L420 580Z"  horiz-adv-x="1515" vert-adv-y="2048"  />

      
      <glyph glyph-name="uni56" unicode="&#x56;" d="M10 1411Q8 1415 8 1418Q8 1423 12 1427Q18 1434 29 1434L1149 1434Q1158 1434 1164 1427Q1167 1423 1167 1418Q1167 1415 1165 1411L608-47Q604-58 590-58Q576-58 571-47L10 1411M381 1180L590 606L797 1180L381 1180Z"  horiz-adv-x="1177" vert-adv-y="2048"  />

      
      <glyph glyph-name="uni57" unicode="&#x57;" d="M25 1411Q23 1415 23 1418Q22 1423 26 1427Q32 1434 43 1434L295 1434Q309 1434 313 1423L600 647L895 1423Q899 1434 913 1434L1165 1434Q1180 1434 1184 1423L1479 647L1767 1423Q1771 1434 1786 1434L2038 1434Q2050 1434 2056 1427Q2059 1423 2058 1419Q2058 1415 2056 1411L1495-45Q1490-56 1477-56Q1464-56 1460-45L1038 1059L618-45Q614-56 600.50-56Q587-56 584-45L25 1411Z"  horiz-adv-x="2076" vert-adv-y="2048"  />

      
      <glyph glyph-name="uni58" unicode="&#x58;" d="M24 9Q22 13 23 16Q23 21 27 27L518 717Q436 831 272.50 1062Q109 1293 27 1407Q23 1412 23 1418Q22 1422 24 1425Q28 1434 41 1434L328 1434Q340 1434 344 1427L686 950L1026 1427Q1030 1434 1042 1434L1329 1434Q1342 1434 1348 1425Q1351 1421 1351 1417Q1351 1412 1346 1407L852 717Q944 591 1111.50 355Q1279 119 1346 27Q1351 22 1351 17Q1351 13 1348 9Q1342 0 1329 0L1042 0Q1029 0 1026 6L686 483L344 6Q341 0 328 0L41 0Q28 0 24 9Z"  horiz-adv-x="1380" vert-adv-y="2048"  />

      
      <glyph glyph-name="uni59" unicode="&#x59;" d="M-10 1425Q-5 1434 8 1434L293 1434Q306 1434 309 1427L651 950L993 1427Q996 1434 1008 1434L1294 1434Q1307 1434 1313 1425Q1316 1421 1316 1417Q1316 1412 1311 1407L788 674L788 16Q788 10 782.50 5Q777 0 768 0L535 0Q526 0 520 5Q514 10 514 16L514 674Q421 807 244.50 1053.50Q68 1300-8 1407Q-13 1412-13 1418Q-13 1421-10 1425Z"  horiz-adv-x="1320" vert-adv-y="2048"  />

      
      <glyph glyph-name="uni5a" unicode="&#x5a;" d="M49 1184L49 1417Q49 1423 55 1428.50Q61 1434 70 1434L885 1434Q897 1434 902.50 1427Q908 1420 903 1411L444 266L887 266Q896 266 901.50 261Q907 256 907 250L907 16Q907 10 901.50 5Q896 0 887 0L72 0Q60 0 54 7Q48 14 53 23L512 1167L70 1167Q61 1167 55 1172.50Q49 1178 49 1184Z"  horiz-adv-x="972" vert-adv-y="2048"  />

      
      <glyph glyph-name="uni5b" unicode="&#x5b;" d="M141 16L141 1417Q141 1423 147 1428.50Q153 1434 160 1434L627 1434Q636 1434 641.50 1428.50Q647 1423 647 1417L647 1184Q647 1178 641.50 1172.50Q636 1167 627 1167L416 1167L416 266L627 266Q636 266 641.50 261Q647 256 647 250L647 16Q647 10 641.50 5Q636 0 627 0L160 0Q153 0 147 5Q141 10 141 16Z"  horiz-adv-x="704" vert-adv-y="2048"  />

      
      <glyph glyph-name="uni5c" unicode="&#x5c;" d="M-12 1411Q-16 1420-11.50 1427Q-7 1434 4 1434L244 1434Q256 1434 262 1423L911 20Q915 11 910.50 4.50Q906-2 895-2L655-2Q642-2 637 8L-12 1411Z"  horiz-adv-x="929" vert-adv-y="2048"  />

      
      <glyph glyph-name="uni5d" unicode="&#x5d;" d="M63 16L63 250Q63 256 69 261Q75 266 84 266L297 266L297 1167L84 1167Q75 1167 69 1172.50Q63 1178 63 1184L63 1417Q63 1423 69 1428.50Q75 1434 84 1434L551 1434Q569 1434 569 1417L569 16Q569 0 551 0L84 0Q75 0 69 5Q63 10 63 16Z"  horiz-adv-x="720" vert-adv-y="2048"  />

      
      <glyph glyph-name="uni5e" unicode="&#x5e;" d="M-8 997Q-14 1002-14 1009.50Q-14 1017-8 1022L422 1430Q428 1434 436 1434Q444 1434 449 1430L881 1022Q887 1017 887 1009.50Q887 1002 881 997L750 874Q736 863 721 874L436 1149Q387 1103 293 1011.50Q199 920 150 874Q136 863 121 874L-8 997Z"  horiz-adv-x="1216" vert-adv-y="2048"  />

      
      <glyph glyph-name="uni5f" unicode="&#x5f;" d="M66 14Q66 20 71.50 25.50Q77 31 86 31L1012 31Q1021 31 1026.50 25.50Q1032 20 1032 14L1032-178Q1032-184 1026.50-189.50Q1021-195 1012-195L86-195Q77-195 71.50-189.50Q66-184 66-178L66 14Z"  horiz-adv-x="1103" vert-adv-y="2048"  />

      
      <glyph glyph-name="uni60" unicode="&#x60;" d="M31 1298Q24 1299 21 1306Q18 1313 23 1319L129 1489Q139 1503 158 1495L516 1288Q524 1285 526 1278.50Q528 1272 524 1266L428 1104Q418 1090 399 1098L31 1298Z"  horiz-adv-x="542" vert-adv-y="2048"  />

      
      <glyph glyph-name="uni61" unicode="&#x61;" d="M6 23L565 1464Q570 1474 584 1474Q598 1474 602 1464L1161 23Q1163 19 1163 15Q1162 11 1160 7Q1156 0 1145 0L891 0Q877 0 874 10L815 162L350 162L295 10Q292 0 276 0L25 0Q13 0 7 7Q4 11 4 15Q4 19 6 23M438 403L727 403L584 834L438 403Z"  horiz-adv-x="1169" vert-adv-y="2048"  />

      
      <glyph glyph-name="uni62" unicode="&#x62;" d="M147 16L147 1417Q147 1423 153 1428.50Q159 1434 166 1434L629 1434Q639 1434 656.50 1433.50Q674 1433 724 1426Q774 1419 819.50 1406Q865 1393 921 1363Q977 1333 1017 1291.50Q1057 1250 1084.50 1181.50Q1112 1113 1112 1028Q1112 913 1057.50 839Q1003 765 915 729Q977 707 1022.50 667Q1068 627 1087.50 585Q1107 543 1118 504Q1129 465 1130 440L1130 416Q1130 334 1107 268Q1084 202 1048.50 159.50Q1013 117 963 85.50Q913 54 868 38.50Q823 23 770.50 13.50Q718 4 688 2Q658 0 629 0L166 0Q159 0 153 5Q147 10 147 16M418 262L629 262Q668 262 704 269Q740 276 777.50 292Q815 308 837.50 342Q860 376 860 424Q860 459 849 487Q838 515 822.50 532.50Q807 550 783 562.50Q759 575 739.50 581Q720 587 694 590Q668 593 656.50 593.50Q645 594 629 594L418 594L418 262M418 844L629 844Q646 844 666.50 846.50Q687 849 719.50 859.50Q752 870 777.50 886.50Q803 903 821.50 936.50Q840 970 840 1014Q840 1062 818.50 1095.50Q797 1129 765.50 1143Q734 1157 703 1164.50Q672 1172 650 1172L629 1171L418 1171L418 844Z"  horiz-adv-x="1234" vert-adv-y="2048"  />

      
      <glyph glyph-name="uni63" unicode="&#x63;" d="M100 711Q100 923 191 1092.50Q282 1262 446 1358Q610 1454 817 1454Q964 1454 1094 1399.50Q1224 1345 1321 1247Q1327 1242 1327 1235Q1327 1228 1321 1223L1159 1061Q1144 1050 1130 1061Q996 1192 817 1192Q683 1192 582 1128Q481 1064 429 955.50Q377 847 377 711Q377 605 411.50 516.50Q446 428 505.50 368.50Q565 309 645.50 276.50Q726 244 817 244Q999 244 1130 375Q1144 386 1159 375L1321 211Q1327 206 1327 198Q1327 190 1321 186Q1224 89 1093.50 34.50Q963-20 817-20Q670-20 539 32Q408 84 311 177.50Q214 271 157 409.50Q100 548 100 711Z"  horiz-adv-x="1421" vert-adv-y="2048"  />

      
      <glyph glyph-name="uni64" unicode="&#x64;" d="M147 16L147 1417Q147 1423 153 1428.50Q159 1434 168 1434L399 1434Q482 1434 555 1428Q628 1422 715 1403Q802 1384 872.50 1352.50Q943 1321 1012 1266Q1081 1211 1127.50 1138.50Q1174 1066 1202.50 959Q1231 852 1231 721Q1231 595 1203 490Q1175 385 1128.50 312Q1082 239 1014.50 182.50Q947 126 875.50 92Q804 58 718.50 37Q633 16 557 8Q481 0 399 0L168 0Q159 0 153 5Q147 10 147 16M420 256Q442 255 463 255Q484 255 504 256Q546 258 601.50 268Q657 278 704.50 296.50Q752 315 800 351Q848 387 882 435Q916 483 937 556.50Q958 630 958 721Q958 832 931.50 915.50Q905 999 858.50 1051Q812 1103 742.50 1134Q673 1165 595 1175Q543 1182 483 1182Q453 1182 420 1180L420 256Z"  horiz-adv-x="1355" vert-adv-y="2048"  />

      
      <glyph glyph-name="uni65" unicode="&#x65;" d="M147 16L147 1417Q147 1423 153 1428.50Q159 1434 166 1434L1094 1434Q1103 1434 1108.50 1428.50Q1114 1423 1114 1417L1114 1190Q1114 1184 1108.50 1179Q1103 1174 1094 1174L418 1174L418 842L977 842Q995 842 995 825L995 602Q995 586 977 586L418 586L418 258L1094 258Q1103 258 1108.50 253Q1114 248 1114 242L1114 16Q1114 10 1108.50 5Q1103 0 1094 0L166 0Q159 0 153 5Q147 10 147 16Z"  horiz-adv-x="1204" vert-adv-y="2048"  />

      
      <glyph glyph-name="uni66" unicode="&#x66;" d="M147 16L147 1405Q147 1411 153 1416Q159 1421 166 1421L1094 1421Q1103 1421 1108.50 1416Q1114 1411 1114 1405L1114 1174Q1114 1168 1108.50 1162.50Q1103 1157 1094 1157L418 1157L418 842L977 842Q995 842 995 825L995 596Q995 580 977 580L418 580L418 16Q418 0 399 0L166 0Q159 0 153 5Q147 10 147 16Z"  horiz-adv-x="1187" vert-adv-y="2048"  />

      
      <glyph glyph-name="uni67" unicode="&#x67;" d="M106 717Q106 874 163 1011.50Q220 1149 316.50 1245.50Q413 1342 545.50 1398Q678 1454 825 1454Q974 1454 1104.50 1399.50Q1235 1345 1333 1245Q1339 1240 1339 1233Q1339 1226 1333 1221L1169 1057Q1155 1046 1141 1057Q1079 1119 997 1154.50Q915 1190 825 1190Q635 1190 508 1062Q381 934 381 717Q381 596 415.50 503.50Q450 411 511 355.50Q572 300 651 272Q730 244 825 244Q922 244 1009.50 283.50Q1097 323 1161 393L1161 590L805 590Q796 590 790 595Q784 600 784 606L784 813Q784 819 790 824Q796 829 805 829L1409 829Q1418 829 1424 824Q1430 819 1430 813L1430 12Q1430 6 1424 1Q1418-4 1409-4L1204-4Q1186-4 1186 10L1178 135Q1020-23 797-23Q651-23 525.50 27Q400 77 306.50 169.50Q213 262 159.50 403Q106 544 106 717Z"  horiz-adv-x="1583" vert-adv-y="2048"  />

      
      <glyph glyph-name="uni68" unicode="&#x68;" d="M152 16L152 1417Q152 1423 157.50 1428.50Q163 1434 172 1434L403 1434Q412 1434 418 1428.50Q424 1423 424 1417L424 858L961 858L961 1417Q961 1423 966.50 1428.50Q972 1434 981 1434L1214 1434Q1221 1434 1227 1428.50Q1233 1423 1233 1417L1233 16Q1233 10 1227 5Q1221 0 1214 0L981 0Q972 0 966.50 5Q961 10 961 16L961 598L424 598L424 16Q424 10 418 5Q412 0 403 0L172 0Q163 0 157.50 5Q152 10 152 16Z"  horiz-adv-x="1404" vert-adv-y="2048"  />

      
      <glyph glyph-name="uni69" unicode="&#x69;" d="M147 16L147 1417Q147 1423 153 1428.50Q159 1434 168 1434L399 1434Q408 1434 414 1428.50Q420 1423 420 1417L420 16Q420 10 414 5Q408 0 399 0L168 0Q159 0 153 5Q147 10 147 16Z"  horiz-adv-x="573" vert-adv-y="2048"  />

      
      <glyph glyph-name="uni6a" unicode="&#x6a;" d="M53 16L53 248Q53 254 59 259Q65 264 74 264L248 264Q292 264 324 280Q356 296 370.50 319Q385 342 393 365Q401 388 402 404L403 420L403 1417Q403 1424 408.50 1429Q414 1434 422 1434L655 1434Q662 1434 668 1428.50Q674 1423 674 1417L674 420Q674 334 650.50 264.50Q627 195 589.50 152.50Q552 110 506.50 78.50Q461 47 415.50 32.50Q370 18 332.50 10Q295 2 272 1L248 0L74 0Q65 0 59 5Q53 10 53 16Z"  horiz-adv-x="831" vert-adv-y="2048"  />

      
      <glyph glyph-name="uni6b" unicode="&#x6b;" d="M147 16L147 1417Q147 1423 153 1428.50Q159 1434 168 1434L401 1434Q410 1434 416 1428.50Q422 1423 422 1417L422 754L958 1427Q965 1434 975 1434L1266 1434Q1280 1434 1285.50 1425Q1291 1416 1282 1407L713 705L1286 27Q1292 21 1292 16Q1292 13 1290 9Q1284 0 1270 0L965 0Q954 0 948 6L530 522Q519 509 481.50 464Q444 419 422 397L422 16Q422 10 416 5Q410 0 401 0L168 0Q159 0 153 5Q147 10 147 16Z"  horiz-adv-x="1323" vert-adv-y="2048"  />

      
      <glyph glyph-name="uni6c" unicode="&#x6c;" d="M145 16L145 1417Q145 1423 151 1428.50Q157 1434 166 1434L397 1434Q406 1434 412 1428.50Q418 1423 418 1417L418 264L911 264Q920 264 926 259Q932 254 932 248L932 16Q932 10 926 5Q920 0 911 0L166 0Q157 0 151 5Q145 10 145 16Z"  horiz-adv-x="1026" vert-adv-y="2048"  />

      
      <glyph glyph-name="uni6d" unicode="&#x6d;" d="M150 16L150 1417Q150 1423 155.50 1428.50Q161 1434 170 1434L406 1434Q418 1434 424 1423L934 369L1421 1423Q1423 1426 1429.50 1430Q1436 1434 1440 1434L1675 1434Q1684 1434 1690 1428.50Q1696 1423 1696 1417L1696 16Q1696 10 1690 5Q1684 0 1675 0L1444 0Q1435 0 1429 5Q1423 10 1423 16L1423 823L1063 66Q1061 63 1054.50 59Q1048 55 1044 55L825 55Q814 55 809 66L422 840L422 16Q422 10 416 5Q410 0 401 0L170 0Q161 0 155.50 5Q150 10 150 16Z"  horiz-adv-x="1875" vert-adv-y="2048"  />

      
      <glyph glyph-name="uni6e" unicode="&#x6e;" d="M150 16L150 1419Q150 1436 168 1436L403 1436Q415 1436 418 1430L1075 467L1075 1419Q1075 1425 1081 1430.50Q1087 1436 1096 1436L1325 1436Q1334 1436 1340 1430.50Q1346 1425 1346 1419L1346 16Q1346 10 1340 5Q1334 0 1325 0L1092 0Q1078 0 1075 6L420 961L420 16Q420 10 414 5Q408 0 401 0L168 0Q150 0 150 16Z"  horiz-adv-x="1519" vert-adv-y="2048"  />

      
      <glyph glyph-name="uni6f" unicode="&#x6f;" d="M121.50 501.50Q121.50 501.50 107.75 554.25Q94 607 94 719Q94 831 121.50 936.50Q149 1042 207.50 1136Q266 1230 348.50 1301Q431 1372 548.50 1413Q666 1454 805 1454Q942 1454 1058 1413Q1174 1372 1256.50 1301Q1339 1230 1397 1136Q1455 1042 1483 936.50Q1511 831 1511 719Q1511 607 1483 501Q1455 395 1397 301Q1339 207 1256.50 136Q1174 65 1058 23.50Q942-18 805-18Q666-18 548.50 23.50Q431 65 348.50 136Q266 207 207.50 301.50Q149 396 121.50 501.50M373 715Q373 624 400.50 540Q428 456 480 388.50Q532 321 616 280.50Q700 240 805 240Q908 240 991.50 280.50Q1075 321 1127.50 388.50Q1180 456 1207.50 540Q1235 624 1235 715Q1235 807 1207.50 891.50Q1180 976 1127.50 1044Q1075 1112 991.50 1153Q908 1194 805 1194Q700 1194 616 1153Q532 1112 480 1044Q428 976 400.50 891.50Q373 807 373 715Z"  horiz-adv-x="1632" vert-adv-y="2048"  />

      
      <glyph glyph-name="uni70" unicode="&#x70;" d="M147 12L147 1417Q147 1423 153 1428.50Q159 1434 166 1434L631 1434Q646 1434 663 1433Q680 1432 715 1428Q750 1424 782.50 1416.50Q815 1409 856.50 1393Q898 1377 933 1356Q968 1335 1003 1301.50Q1038 1268 1062 1227Q1086 1186 1101 1127.50Q1116 1069 1116 1001Q1116 933 1100 875.50Q1084 818 1059 777Q1034 736 997.50 703Q961 670 925.50 649.50Q890 629 847.50 614Q805 599 773 591.50Q741 584 706 580Q671 576 657 575.50Q643 575 631 575L418 575L418 12Q418-4 399-4L166-4Q159-4 153 1Q147 6 147 12M418 840L631 840Q646 840 660 841Q674 842 702 846.50Q730 851 752 861.50Q774 872 796.50 888.50Q819 905 831.50 934Q844 963 844 1001Q844 1046 824.50 1079.50Q805 1113 779.50 1129.50Q754 1146 720 1155.50Q686 1165 666.50 1167Q647 1169 631 1169L418 1169L418 840Z"  horiz-adv-x="1187" vert-adv-y="2048"  />

      
      <glyph glyph-name="uni71" unicode="&#x71;" d="M152 437.50Q152 437.50 126 504.75Q100 572 100 719Q100 866 150.50 999Q201 1132 291 1233Q381 1334 517.50 1394Q654 1454 815 1454Q970 1454 1105 1394Q1240 1334 1332 1233.50Q1424 1133 1477 999Q1530 865 1530 719Q1530 610 1497 494Q1464 378 1407 291L1544 154Q1550 149 1550 141.50Q1550 134 1544 129L1382-33Q1375-38 1368-38L1354-33L1219 102Q1031-20 815-20Q658-20 522.50 40.50Q387 101 295.50 202Q204 303 152 437.50M373 719Q373 594 426.50 486Q480 378 582.50 310Q685 242 815 242Q918 242 1024 295Q1000 318 956.50 362.50Q913 407 891 428Q885 432 885 440Q885 448 891 453L1055 616Q1069 626 1083 616L1210 489Q1260 591 1260 719Q1260 813 1230.50 897.50Q1201 982 1146.50 1048Q1092 1114 1006 1153Q920 1192 815 1192Q713 1192 628 1153Q543 1114 488 1048.50Q433 983 403 898Q373 813 373 719Z"  horiz-adv-x="1693" vert-adv-y="2048"  />

      
      <glyph glyph-name="uni72" unicode="&#x72;" d="M145 16L145 1417Q145 1423 151 1428.50Q157 1434 164 1434L627 1434Q648 1434 665.50 1433.50Q683 1433 720.50 1429Q758 1425 789.50 1417.50Q821 1410 862.50 1395Q904 1380 937 1359.50Q970 1339 1004 1306Q1038 1273 1060.50 1232Q1083 1191 1097.50 1133.50Q1112 1076 1112 1008Q1112 854 1039 759.50Q966 665 848 623Q895 517 988.50 317.50Q1082 118 1124 23Q1126 19 1126 15Q1126 11 1124 7Q1120 0 1108 0L852 0Q839 0 834 10L571 580L418 580L418 16Q418 10 412 5Q406 0 397 0L164 0Q157 0 151 5Q145 10 145 16M418 842L627 842Q651 842 672.50 844Q694 846 727 855.50Q760 865 783 881Q806 897 823 930Q840 963 840 1008Q840 1053 821.50 1086Q803 1119 778 1135Q753 1151 719.50 1160.50Q686 1170 666 1172Q646 1174 627 1174L418 1174L418 842Z"  horiz-adv-x="1226" vert-adv-y="2048"  />

      
      <glyph glyph-name="uni73" unicode="&#x73;" d="M96 401Q96 416 117 416L348 416Q356 416 362.50 411.50Q369 407 369 401Q372 325 424 284.50Q476 244 551 244Q626 244 679.50 288.50Q733 333 733 406Q733 481 675.50 531Q618 581 551 584Q438 584 334 631Q220 685 158 784.50Q96 884 96 1012Q96 1112 134 1196Q172 1280 235 1335.50Q298 1391 380 1421.50Q462 1452 551 1452Q741 1452 868.50 1336.50Q996 1221 999 1038Q999 1032 993.50 1027Q988 1022 979 1022L750 1022Q742 1022 735.50 1027Q729 1032 729 1038Q726 1111 676 1150.50Q626 1190 551 1190Q472 1190 420.50 1144.50Q369 1099 369 1012Q369 937 423.50 888.50Q478 840 551 840Q662 840 764 793Q879 740 941.50 637Q1004 534 1004 406Q1004 306 966 223.50Q928 141 864.50 89Q801 37 720 8.50Q639-20 551-20Q354-15 226.50 95Q99 205 96 401Z"  horiz-adv-x="1112" vert-adv-y="2048"  />

      
      <glyph glyph-name="uni74" unicode="&#x74;" d="M27 1192L27 1405Q27 1411 32.50 1416Q38 1421 47 1421L860 1421Q869 1421 875 1416Q881 1411 881 1405L881 1192Q881 1178 860 1178L588 1178L588 16Q588 0 569 0L338 0Q319 0 319 16L319 1178L47 1178Q27 1178 27 1192Z"  horiz-adv-x="917" vert-adv-y="2048"  />

      
      <glyph glyph-name="uni75" unicode="&#x75;" d="M147 461L147 1405Q147 1411 153 1416Q159 1421 168 1421L399 1421Q408 1421 414 1416Q420 1411 420 1405L420 463Q432 360 507.50 302Q583 244 688 244Q758 244 817.50 267Q877 290 916.50 341Q956 392 956 461L956 1405Q956 1411 962 1416Q968 1421 977 1421L1210 1421Q1217 1421 1223 1416Q1229 1411 1229 1405L1229 461Q1229 312 1157.50 202Q1086 92 964.50 36Q843-20 688-20Q539-20 416.50 37.50Q294 95 220.50 206Q147 317 147 461Z"  horiz-adv-x="1398" vert-adv-y="2048"  />

      
      <glyph glyph-name="uni76" unicode="&#x76;" d="M14 1411Q12 1415 12 1419Q12 1424 15 1427Q20 1434 31 1434L281 1434Q295 1434 299 1423L586 623L872 1423Q876 1434 891 1434L1141 1434Q1152 1434 1158 1427Q1161 1423 1161 1419Q1161 1415 1159 1411L602-27Q598-36 585-36Q572-36 567-27L14 1411Z"  horiz-adv-x="1169" vert-adv-y="2048"  />

      
      <glyph glyph-name="uni77" unicode="&#x77;" d="M20 1411Q18 1415 18 1418Q18 1423 22 1427Q28 1434 39 1434L289 1434Q303 1434 307 1423L592 625L881 1423Q885 1434 897 1434L1155 1434Q1170 1434 1174 1423L1460 625L1749 1423Q1753 1434 1767 1434L2017 1434Q2029 1434 2034 1427Q2036 1423 2036 1419.50Q2036 1416 2034 1411L1479-45Q1474-56 1461-56Q1448-56 1444-45L1026 1063L610-45Q606-56 592-56Q578-56 573-45L20 1411Z"  horiz-adv-x="2058" vert-adv-y="2048"  />

      
      <glyph glyph-name="uni78" unicode="&#x78;" d="M26 9Q24 13 24 16Q24 21 29 27L516 711Q435 824 272.50 1059.50Q110 1295 29 1407Q24 1412 24 1418Q24 1422 26 1425Q32 1434 45 1434L328 1434Q340 1434 344 1427L684 942L1020 1427Q1024 1434 1036 1434L1321 1434Q1333 1434 1338 1425Q1340 1421 1340 1417Q1340 1412 1337 1407L848 711Q920 611 1084 380Q1248 149 1337 27Q1340 22 1340 17Q1340 13 1338 9Q1333 0 1321 0L1036 0Q1023 0 1020 6L684 479L344 6Q341 0 328 0L45 0Q32 0 26 9Z"  horiz-adv-x="1380" vert-adv-y="2048"  />

      
      <glyph glyph-name="uni79" unicode="&#x79;" d="M12 1425Q18 1434 31 1434L315 1434Q326 1434 330 1427L670 942L1008 1427Q1012 1434 1022 1434L1307 1434Q1320 1434 1326 1425Q1328 1421 1328 1418Q1328 1412 1323 1407L805 670L805 16Q805 10 799 5Q793 0 784 0L553 0Q544 0 538 5Q532 10 532 16L532 670Q37 1374 14 1407Q9 1412 9 1417Q9 1421 12 1425Z"  horiz-adv-x="1341" vert-adv-y="2048"  />

      
      <glyph glyph-name="uni7a" unicode="&#x7a;" d="M-8 8Q-11 12-11 16Q-11 20-8 25L690 1169L68 1169Q61 1169 55 1174.50Q49 1180 49 1186L49 1417Q49 1423 55 1428.50Q61 1434 68 1434L1135 1434Q1146 1434 1152 1426Q1155 1422 1155 1417Q1155 1413 1153 1409L455 264L1135 264Q1153 264 1153 248L1153 16Q1153 0 1135 0L8 0Q-2 0-8 8Z"  horiz-adv-x="1193" vert-adv-y="2048"  />

      
      <glyph glyph-name="uni7b" unicode="&#x7b;" d="M-35 702Q-47 706-47 716Q-47 726-35 731L213 854L213 1417Q213 1423 218.50 1428.50Q224 1434 233 1434L625 1434Q643 1434 643 1417L643 1184Q643 1167 625 1167L487 1167L487 266L625 266Q643 266 643 250L643 16Q643 0 625 0L233 0Q224 0 218.50 5Q213 10 213 16L213 580Q192 590 103 634.50Q14 679-35 702Z"  horiz-adv-x="708" vert-adv-y="2048"  />

      
      <glyph glyph-name="uni7c" unicode="&#x7c;" d="M127 16L127 1417Q127 1423 132.50 1428.50Q138 1434 147 1434L381 1434Q390 1434 395.50 1428.50Q401 1423 401 1417L401 16Q401 10 395.50 5Q390 0 381 0L147 0Q138 0 132.50 5Q127 10 127 16Z"  horiz-adv-x="575" vert-adv-y="2048"  />

      
      <glyph glyph-name="uni7d" unicode="&#x7d;" d="M66 16L66 250Q66 266 84 266L221 266L221 1167L84 1167Q66 1167 66 1184L66 1417Q66 1434 84 1434L475 1434Q484 1434 490 1428.50Q496 1423 496 1417L496 854Q526 839 610.50 796Q695 753 743 731Q755 726 755 716Q755 706 743 702L496 580L496 16Q496 10 490 5Q484 0 475 0L84 0Q66 0 66 16Z"  horiz-adv-x="737" vert-adv-y="2048"  />

      
      <glyph glyph-name="uni7e" unicode="&#x7e;" d="M41 596Q59 713 129 771Q199 829 303 829Q402 829 506 780L504 780Q506 778 512 778Q572 754 594 754Q636 754 662 809Q665 814 672.50 817Q680 820 686 819L881 762Q888 762 893 755.50Q898 749 895 743Q858 624 794 571Q730 518 639 518Q544 518 432 565L401 578Q391 581 375 586.50Q359 592 347.50 595Q336 598 326 598Q292 598 276 539Q273 533 265 529Q257 525 250 526L57 580Q38 584 41 596Z"  horiz-adv-x="950" vert-adv-y="2048"  />

      
      <glyph glyph-name="unia2" unicode="&#xa2;" d="M88 717Q88 919 216.50 1077.50Q345 1236 543 1286L543 1446Q543 1452 548.50 1457Q554 1462 563 1462L743 1462Q752 1462 758 1457Q764 1452 764 1446L764 1298Q955 1275 1102 1135Q1109 1124 1110 1108.50Q1111 1093 1104 1085L975 956Q961 943 943.50 944.50Q926 946 915 961Q850 1023 764 1042L764 389Q851 410 918 477Q944 500 983 469L1102 348Q1109 336 1110 322Q1111 308 1104 299Q964 159 764 135L764 14Q764 8 758 3Q752-2 743-2L563-2Q554-2 548.50 3Q543 8 543 14L543 145Q345 195 216.50 354Q88 513 88 717M362 717Q362 614 410 533Q458 452 543 412L543 1022Q462 978 412 896.50Q362 815 362 717Z"  horiz-adv-x="1187" vert-adv-y="2048"  />

      
      <glyph glyph-name="unia3" unicode="&#xa3;" d="M-2 502L-2 748Q-2 762 18 762L215 762Q245 843 258 868Q315 987 403 1089Q491 1191 598 1266Q666 1309 743 1342Q820 1375 878.50 1392Q937 1409 993 1419Q1049 1429 1074 1431.50Q1099 1434 1108 1434Q1117 1434 1122.50 1428.50Q1128 1423 1128 1417L1128 1174Q1128 1168 1122.50 1162.50Q1117 1157 1108 1157Q1102 1157 1087 1156Q1072 1155 1032.50 1147.50Q993 1140 952.50 1128Q912 1116 856.50 1090Q801 1064 752 1030Q608 928 520 762L715 762Q735 762 735 748L735 502Q735 487 715 487L426 487Q403 354 399 276L1106 276Q1115 276 1120.50 271Q1126 266 1126 260L1126 16Q1126 10 1120.50 5Q1115 0 1106 0L131 0Q122 0 116.50 5Q111 10 111 16L111 137Q111 322 139 487L18 487Q-2 487-2 502Z"  horiz-adv-x="1212" vert-adv-y="2048"  />

      
      <glyph glyph-name="unia5" unicode="&#xa5;" d="M-8 1407Q-16 1416-10.50 1425Q-5 1434 8 1434L293 1434Q306 1434 309 1427L651 942L993 1427Q996 1434 1008 1434L1294 1434Q1307 1434 1313 1425Q1319 1416 1311 1407L879 803L1024 803Q1033 803 1038.50 797.50Q1044 792 1044 786L1044 600Q1044 594 1038.50 589Q1033 584 1024 584L788 584L788 498L1024 498Q1033 498 1038.50 492.50Q1044 487 1044 481L1044 301Q1044 295 1038.50 290Q1033 285 1024 285L788 285L788 16Q788 10 782.50 5Q777 0 768 0L535 0Q526 0 520 5Q514 10 514 16L514 285L270 285Q261 285 255.50 290Q250 295 250 301L250 481Q250 487 255.50 492.50Q261 498 270 498L514 498L514 584L268 584Q259 584 253.50 589Q248 594 248 600L248 786Q248 792 253.50 797.50Q259 803 268 803L418 803Q349 900 205 1105.50Q61 1311-8 1407Z"  horiz-adv-x="1310" vert-adv-y="2048"  />

      
      <glyph glyph-name="unia8" unicode="&#xa8;" d="M61 1194.50Q61 1194.50 38.50 1216.25Q16 1238 16 1298Q16 1358 61 1402Q106 1446 166 1446Q228 1446 273.50 1402Q319 1358 319 1298Q319 1238 273.50 1194.50Q228 1151 166 1151Q106 1151 61 1194.50M479 1194.50Q479 1194.50 456.50 1216.25Q434 1238 434 1298Q434 1358 479 1402Q524 1446 586 1446Q647 1446 692 1402Q737 1358 737 1298Q737 1238 692.50 1194.50Q648 1151 586 1151Q524 1151 479 1194.50Z"  horiz-adv-x="770" vert-adv-y="2048"  />

      
      <glyph glyph-name="unia9" unicode="&#xa9;" d="M78 815Q78 983 160 1125Q242 1267 384.50 1350.50Q527 1434 696 1434Q866 1434 1009 1350.50Q1152 1267 1234.50 1125Q1317 983 1317 815Q1317 649 1234.50 508Q1152 367 1009 285Q866 203 696 203Q527 203 384.50 285Q242 367 160 508Q78 649 78 815M272 815Q272 640 397.50 514.50Q523 389 696 389Q872 389 996 514.50Q1120 640 1120 815Q1120 994 996.50 1119.50Q873 1245 696 1245Q522 1245 397 1119Q272 993 272 815M410 817Q410 940 499.50 1029Q589 1118 711 1118Q837 1118 928 1030Q932 1026 932 1018Q932 1010 928 1006L858 940Q844 930 831 940Q777 991 711 991Q642 991 593.50 940.50Q545 890 545 817Q545 746 593.50 696.50Q642 647 711 647Q775 647 831 696Q844 706 858 696L928 633Q932 628 932 620Q932 612 928 608Q837 520 711 520Q589 520 499.50 608.50Q410 697 410 817Z"  horiz-adv-x="1417" vert-adv-y="2048"  />

      
      <glyph glyph-name="uniab" unicode="&#xab;" d="M18 647Q8 658 18 668L383 1133Q388 1138 397 1138.50Q406 1139 412 1135L561 1016Q576 1004 565 993L303 657L573 354Q584 343 569 332L418 207Q405 197 389 209L18 647M430 647Q420 658 430 668L791 1133Q804 1146 819 1135L969 1016Q984 1004 973 993L731 657L981 354Q992 343 977 332L825 207Q812 198 797 209L430 647Z"  horiz-adv-x="1032" vert-adv-y="2048"  />

      
      <glyph glyph-name="uniad" unicode="&#xad;" d="M68 614L68 827Q68 833 73.50 838.50Q79 844 88 844L793 844Q811 844 811 827L811 614Q811 598 793 598L88 598Q79 598 73.50 603Q68 608 68 614Z"  horiz-adv-x="907" vert-adv-y="2048"  />

      
      <glyph glyph-name="uniae" unicode="&#xae;" d="M68 815Q68 983 150 1125Q232 1267 374.50 1350.50Q517 1434 686 1434Q856 1434 999 1350.50Q1142 1267 1224.50 1125Q1307 983 1307 815Q1307 649 1224.50 508Q1142 367 999 285Q856 203 686 203Q517 203 374.50 285Q232 367 150 508Q68 649 68 815M279 815Q279 645 399 524Q519 403 686 403Q856 403 976 524Q1096 645 1096 815Q1096 987 976.50 1108Q857 1229 686 1229Q518 1229 398.50 1107.50Q279 986 279 815M477 524L477 1098Q477 1114 496 1114L694 1114Q795 1114 856.50 1061.50Q918 1009 918 928Q918 883 889.50 840.50Q861 798 805 770L920 530Q924 521 918.50 514.50Q913 508 901 508L793 508Q779 508 774 518L664 756L616 756L616 524Q616 518 610.50 513Q605 508 596 508L496 508Q477 508 477 524M616 872L694 872Q733 872 753.50 889Q774 906 774 930Q774 954 752.50 971Q731 988 694 989L616 989L616 872Z"  horiz-adv-x="1382" vert-adv-y="2048"  />

      
      <glyph glyph-name="unib4" unicode="&#xb4;" d="M23 1280Q19 1286 21 1292.50Q23 1299 31 1300L412 1509Q430 1516 440 1503L547 1335Q554 1321 539 1313L150 1110Q131 1102 121 1116L23 1280Z"  horiz-adv-x="569" vert-adv-y="2048"  />

      
      <glyph glyph-name="unib8" unicode="&#xb8;" d="M61-127Q61-121 67-116Q73-111 80-111L270-111Q279-111 285-116Q291-121 291-127Q291-181 327.50-218.50Q364-256 418-256Q469-256 505-218.50Q541-181 541-127Q541-72 505-35Q469 2 418 2Q409 2 403 7Q397 12 397 18L397 211Q397 225 418 225Q564 225 669 121.50Q774 18 774-127Q774-272 669-376.50Q564-481 418-481Q270-481 165.50-376.50Q61-272 61-127Z"  horiz-adv-x="878" vert-adv-y="2048"  />

      
      <glyph glyph-name="unibb" unicode="&#xbb;" d="M37 354L289 657L45 993Q34 1004 49 1016L201 1135Q215 1145 227 1133L594 668Q604 658 594 647L221 209Q207 198 195 207L41 332Q30 343 37 354M424 354L674 657L432 993Q421 1004 436 1016L586 1135Q601 1146 614 1133L981 668Q992 658 981 647L608 209Q593 198 580 207L428 332Q413 343 424 354Z"  horiz-adv-x="1021" vert-adv-y="2048"  />

      
      <glyph glyph-name="uni02C6" unicode="&#x02C6;" d="M45 1268Q40 1274 42 1281.50Q44 1289 51 1292L391 1489Q394 1490 401.50 1490Q409 1490 412 1489L758 1303Q776 1296 766 1282L676 1126Q666 1116 647 1120L401 1260L166 1120Q152 1115 141 1126L45 1268Z"  horiz-adv-x="802" vert-adv-y="2048"  />

      
      <glyph glyph-name="uni02DA" unicode="&#x02DA;" d="M127 976Q127 976 84 1018.50Q41 1061 41 1178Q41 1295 127 1379.50Q213 1464 332 1464Q451 1464 537 1379.50Q623 1295 623 1178Q623 1061 537 976Q451 891 332 891Q213 891 127 976M240 1178Q240 1137 267.50 1109Q295 1081 332 1081Q370 1081 397 1109Q424 1137 424 1178Q424 1218 397 1247Q370 1276 332 1276Q295 1276 267.50 1247Q240 1218 240 1178Z"  horiz-adv-x="698" vert-adv-y="2048"  />

      
      <glyph glyph-name="uni02DC" unicode="&#x02DC;" d="M41 1237Q56 1344 116 1398Q176 1452 266 1452Q353 1452 436 1407L430 1407Q431 1407 435 1406Q439 1405 440 1405Q482 1384 512 1384Q544 1384 565 1432Q574 1445 590 1442L752 1391Q760 1389 764.50 1383.50Q769 1378 766 1372Q733 1262 679 1213.50Q625 1165 545 1165Q471 1165 371 1208L342 1219Q302 1237 283 1237Q257 1237 244 1186Q236 1170 217 1174L55 1219Q37 1223 41 1237Z"  horiz-adv-x="802" vert-adv-y="2048"  />

      
      <glyph glyph-name="uni0401" unicode="&#x0401;" d="M145 16L145 1417Q145 1423 151 1428.50Q157 1434 166 1434L1081 1434Q1090 1434 1096 1428.50Q1102 1423 1102 1417L1102 1190Q1102 1184 1096 1179Q1090 1174 1081 1174L420 1174L420 850L983 850Q990 850 995.50 845Q1001 840 1001 834L1001 606Q1001 600 995.50 595Q990 590 983 590L420 590L420 266L1100 266Q1109 266 1114.50 261Q1120 256 1120 250L1120 16Q1120 10 1114.50 5Q1109 0 1100 0L166 0Q157 0 151 5Q145 10 145 16M335.50 1561.50Q335.50 1561.50 313.25 1583.25Q291 1605 291 1665Q291 1725 335.50 1768.50Q380 1812 440 1812Q502 1812 548 1768.50Q594 1725 594 1665Q594 1605 548 1561.50Q502 1518 440 1518Q380 1518 335.50 1561.50M753.50 1561.50Q753.50 1561.50 731.25 1583.25Q709 1605 709 1665Q709 1725 753.50 1768.50Q798 1812 860 1812Q922 1812 967 1768.50Q1012 1725 1012 1665Q1012 1605 967 1561.50Q922 1518 860 1518Q798 1518 753.50 1561.50Z"  horiz-adv-x="1204" vert-adv-y="2048"  />

      
      <glyph glyph-name="uni0410" unicode="&#x0410;" d="M145 16L145 950Q145 968 147.50 993.50Q150 1019 167.50 1080.50Q185 1142 215 1194Q354 1434 690 1434Q1028 1434 1167 1194Q1197 1143 1214.50 1081.50Q1232 1020 1234.50 994Q1237 968 1237 950L1237 16Q1237 10 1231.50 5Q1226 0 1217 0L983 0Q974 0 968.50 5Q963 10 963 16L963 254L420 254L420 16Q420 10 414 5Q408 0 399 0L166 0Q157 0 151 5Q145 10 145 16M420 498L963 498L963 948Q963 1013 930 1065Q862 1167 690 1167Q518 1167 453 1059Q439 1035 431 1008Q423 981 422 966L420 950L420 498Z"  horiz-adv-x="1398" vert-adv-y="2048"  />

      
      <glyph glyph-name="uni0411" unicode="&#x0411;" d="M145 16L145 1417Q145 1423 151 1428.50Q157 1434 166 1434L1034 1434Q1043 1434 1049 1428.50Q1055 1423 1055 1417L1055 1192Q1055 1186 1049 1181Q1043 1176 1034 1176L418 1176L418 868L633 868Q888 868 1013.50 756Q1139 644 1139 440Q1139 358 1115.50 290.50Q1092 223 1055.50 179Q1019 135 969.50 100.50Q920 66 872.50 48Q825 30 774.50 18.50Q724 7 691.50 3.50Q659 0 633 0L166 0Q157 0 151 5Q145 10 145 16M418 264L633 264Q672 264 708 271Q744 278 781.50 295.50Q819 313 841.50 350Q864 387 864 440Q864 491 842 527Q820 563 783 580Q746 597 710 603.50Q674 610 633 610L418 610L418 264Z"  horiz-adv-x="1234" vert-adv-y="2048"  />

      
      <glyph glyph-name="uni0412" unicode="&#x0412;" d="M145 16L145 1417Q145 1423 151 1428.50Q157 1434 166 1434L633 1434Q643 1434 660.50 1433.50Q678 1433 728.50 1426Q779 1419 824.50 1405.50Q870 1392 926 1361.50Q982 1331 1022.50 1289.50Q1063 1248 1090.50 1179Q1118 1110 1118 1024Q1118 906 1063.50 830Q1009 754 920 717Q984 695 1029.50 656Q1075 617 1095.50 577.50Q1116 538 1127 501Q1138 464 1138 441L1139 418Q1139 336 1115.50 269.50Q1092 203 1056 160.50Q1020 118 969.50 86.50Q919 55 873 39Q827 23 774.50 13.50Q722 4 692 2Q662 0 633 0L166 0Q157 0 151 5Q145 10 145 16M418 262L633 262Q672 262 708 268.50Q744 275 781.50 291Q819 307 841.50 341.50Q864 376 864 424Q864 472 840 505.50Q816 539 782 553.50Q748 568 714.50 575Q681 582 657 582L633 582L418 582L418 262M418 850L633 850Q637 850 645 850.50Q653 851 674.50 854Q696 857 716 862.50Q736 868 760.50 879.50Q785 891 802.50 907Q820 923 832 949.50Q844 976 844 1008Q844 1043 832.50 1071.50Q821 1100 802.50 1117Q784 1134 761 1147Q738 1160 715.50 1165.50Q693 1171 674.50 1174Q656 1177 644 1178L633 1178L418 1178L418 850Z"  horiz-adv-x="1234" vert-adv-y="2048"  />

      
      <glyph glyph-name="uni0413" unicode="&#x0413;" d="M145 16L145 1417Q145 1423 151 1428.50Q157 1434 166 1434L1034 1434Q1043 1434 1049 1428.50Q1055 1423 1055 1417L1055 1192Q1055 1186 1049 1181Q1043 1176 1034 1176L418 1176L418 16Q418 10 412 5Q406 0 397 0L166 0Q157 0 151 5Q145 10 145 16Z"  horiz-adv-x="1122" vert-adv-y="2048"  />

      
      <glyph glyph-name="uni0414" unicode="&#x0414;" d="M23-199L23 229Q23 235 28.50 240.50Q34 246 41 246L115 246Q201 255 201 360L201 950Q201 1173 335 1303.50Q469 1434 690 1434L1190 1434Q1208 1434 1208 1417L1208 246L1352 246Q1361 246 1366.50 240.50Q1372 235 1372 229L1372-199Q1372-205 1366.50-210Q1361-215 1352-215L1133-215Q1114-215 1114-199L1114 0L281 0L281-199Q281-205 275-210Q269-215 260-215L41-215Q34-215 28.50-210Q23-205 23-199M444 246L930 246L930 1176L698 1176Q594 1176 534.50 1117.50Q475 1059 475 950L475 360Q475 317 444 246Z"  horiz-adv-x="1462" vert-adv-y="2048"  />

      
      <glyph glyph-name="uni0415" unicode="&#x0415;" d="M143 16L143 1417Q143 1423 149 1428.50Q155 1434 164 1434L1077 1434Q1086 1434 1092 1428.50Q1098 1423 1098 1417L1098 1184Q1098 1178 1092 1172.50Q1086 1167 1077 1167L418 1167L418 1010L1059 1010Q1077 1010 1077 993L1077 799Q1077 782 1059 782L418 782L418 659L1059 659Q1077 659 1077 645L1077 444Q1077 428 1059 428L418 428L418 266L1077 266Q1086 266 1092 261Q1098 256 1098 250L1098 16Q1098 10 1092 5Q1086 0 1077 0L164 0Q155 0 149 5Q143 10 143 16Z"  horiz-adv-x="1218" vert-adv-y="2048"  />

      
      <glyph glyph-name="uni0416" unicode="&#x0416;" d="M8 0Q-5 0-10.50 9Q-16 18-8 27L489 760L2 1407Q-6 1416-0.50 1425Q5 1434 18 1434L301 1434Q308 1434 315 1427L631 1012L745 834L745 1417Q745 1423 751 1428.50Q757 1434 764 1434L999 1434Q1008 1434 1014 1428.50Q1020 1423 1020 1417L1020 825Q1040 857 1080 922Q1120 987 1139 1018L1448 1427Q1455 1434 1464 1434L1745 1434Q1758 1434 1763.50 1425Q1769 1416 1761 1407L1274 760L1772 27Q1780 18 1774 9Q1768 0 1755 0L1466 0Q1454 0 1450 8L1087 547Q1074 530 1053 501Q1032 472 1020 455L1020 16Q1020 10 1014 5Q1008 0 999 0L764 0Q757 0 751 5Q745 10 745 16L745 457Q736 469 712.50 498Q689 527 672 549Q604 445 475.50 252Q347 59 313 8Q309 0 299 0L8 0Z"  horiz-adv-x="1781" vert-adv-y="2048"  />

      
      <glyph glyph-name="uni0417" unicode="&#x0417;" d="M43 403Q43 409 48.50 414.50Q54 420 63 420L293 420Q300 420 306.50 414.50Q313 409 313 403Q316 321 368.50 279.50Q421 238 494 238Q562 238 610.50 293Q659 348 659 426Q659 512 609.50 560Q560 608 483 608L379 608Q370 608 364 613.50Q358 619 358 625L358 834Q358 840 364 845Q370 850 379 850L483 850Q545 850 586 895.50Q627 941 627 1024Q627 1101 583 1148.50Q539 1196 469 1196Q397 1196 350 1154Q303 1112 303 1047Q303 1041 297.50 1035.50Q292 1030 285 1030L70 1030Q61 1030 55 1035.50Q49 1041 49 1047Q49 1225 165 1339.50Q281 1454 469 1454Q662 1454 781.50 1338Q901 1222 901 1022Q901 936 862.50 858.50Q824 781 752 737Q833 688 885.50 604Q938 520 938 426Q938 334 913.50 259Q889 184 846.50 133Q804 82 746.50 47Q689 12 624.50-4Q560-20 489-20Q290-20 166.50 95Q43 210 43 403Z"  horiz-adv-x="1009" vert-adv-y="2048"  />

      
      <glyph glyph-name="uni0418" unicode="&#x0418;" d="M152 16L152 1417Q152 1423 157.50 1428.50Q163 1434 170 1434L408 1434Q417 1434 422.50 1428.50Q428 1423 428 1417L428 463Q645 778 1090 1427Q1094 1434 1106 1434L1346 1434Q1355 1434 1360.50 1428.50Q1366 1423 1366 1417L1366 16Q1366 10 1360.50 5Q1355 0 1346 0L1108 0Q1099 0 1093 5Q1087 10 1087 16L1087 989L428 8Q424 0 412 0L170 0Q163 0 157.50 5Q152 10 152 16Z"  horiz-adv-x="1519" vert-adv-y="2048"  />

      
      <glyph glyph-name="uni0419" unicode="&#x0419;" d="M152 16L152 1417Q152 1423 157.50 1428.50Q163 1434 170 1434L408 1434Q417 1434 422.50 1428.50Q428 1423 428 1417L428 463Q645 778 1090 1427Q1094 1434 1106 1434L1346 1434Q1355 1434 1360.50 1428.50Q1366 1423 1366 1417L1366 16Q1366 10 1360.50 5Q1355 0 1346 0L1108 0Q1099 0 1093 5Q1087 10 1087 16L1087 989L428 8Q424 0 412 0L170 0Q163 0 157.50 5Q152 10 152 16M449 1812Q449 1818 454.50 1823.50Q460 1829 467 1829L649 1829Q656 1829 663 1823.50Q670 1818 670 1812Q671 1757 702 1726.50Q733 1696 774 1696Q815 1696 846.50 1726.50Q878 1757 881 1812Q881 1818 887.50 1823.50Q894 1829 901 1829L1083 1829Q1090 1829 1096 1823.50Q1102 1818 1102 1812Q1102 1649 1014 1572Q926 1495 786 1495Q719 1495 660.50 1512.50Q602 1530 553.50 1566.50Q505 1603 477 1666Q449 1729 449 1812Z"  horiz-adv-x="1523" vert-adv-y="2048"  />

      
      <glyph glyph-name="uni041A" unicode="&#x041A;" d="M145 16L145 1417Q145 1423 151 1428.50Q157 1434 166 1434L401 1434Q408 1434 414 1428.50Q420 1423 420 1417L420 766L958 1427Q965 1434 975 1434L1268 1434Q1282 1434 1287.50 1425Q1293 1416 1284 1407L713 705L1288 27Q1297 18 1291.50 9Q1286 0 1272 0L965 0Q954 0 948 6L530 522Q522 513 482.50 466.50Q443 420 420 397L420 16Q420 10 414 5Q408 0 401 0L166 0Q157 0 151 5Q145 10 145 16Z"  horiz-adv-x="1323" vert-adv-y="2048"  />

      
      <glyph glyph-name="uni041B" unicode="&#x041B;" d="M20 6L20 238Q20 246 27 250.50Q34 255 43 254Q186 234 186 365L186 950Q186 1174 313.50 1304Q441 1434 662 1434L1159 1434Q1168 1434 1174 1428.50Q1180 1423 1180 1417L1180 16Q1180 10 1174 5Q1168 0 1159 0L920 0Q911 0 905 5Q899 10 899 16L899 1176L670 1176Q567 1176 514 1118Q461 1060 461 950L461 365Q461 332 459 304Q457 276 447 233Q437 190 420.50 156.50Q404 123 372 87Q340 51 297 29Q254 7 187.50-4.50Q121-16 39-10Q32-10 26-5Q20 0 20 6Z"  horiz-adv-x="1343" vert-adv-y="2048"  />

      
      <glyph glyph-name="uni041C" unicode="&#x041C;" d="M-6 23L578 1425Q582 1436 596 1436L848 1436Q862 1436 866 1425L1034 1020L1202 1425Q1208 1436 1221 1436L1475 1436Q1489 1436 1493 1425L2079 23Q2084 14 2078 7Q2072 0 2060 0L1808 0Q1793 0 1790 10L1350 1067L1184 670Q1223 576 1313 357Q1403 138 1452 23Q1457 14 1451.50 7Q1446 0 1434 0L1182 0Q1168 0 1163 10L1034 313L909 10Q906 0 891 0L637 0Q625 0 619 7Q613 14 618 23L889 670Q797 890 723 1067L283 10Q280 0 264 0L12 0Q0 0-5.50 7Q-11 14-6 23Z"  horiz-adv-x="2093" vert-adv-y="2048"  />

      
      <glyph glyph-name="uni041D" unicode="&#x041D;" d="M145 16L145 1417Q145 1423 151 1428.50Q157 1434 166 1434L399 1434Q408 1434 414 1428.50Q420 1423 420 1417L420 1083L963 1083L963 1417Q963 1423 968.50 1428.50Q974 1434 983 1434L1217 1434Q1226 1434 1231.50 1428.50Q1237 1423 1237 1417L1237 16Q1237 10 1231.50 5Q1226 0 1217 0L983 0Q974 0 968.50 5Q963 10 963 16L963 350L420 350L420 16Q420 10 414 5Q408 0 399 0L166 0Q157 0 151 5Q145 10 145 16M420 616L963 616L963 817L420 817L420 616Z"  horiz-adv-x="1394" vert-adv-y="2048"  />

      
      <glyph glyph-name="uni041E" unicode="&#x041E;" d="M100 918Q100 1062 172.50 1185.50Q245 1309 370 1381.50Q495 1454 641 1454Q787 1454 912 1381.50Q1037 1309 1109.50 1185.50Q1182 1062 1182 918Q1182 773 1109 649Q1036 525 911.50 453Q787 381 641 381Q495 381 370.50 453Q246 525 173 649Q100 773 100 918M154 16L154 248Q154 254 159.50 259Q165 264 174 264L1098 264Q1107 264 1112.50 259Q1118 254 1118 248L1118 16Q1118 10 1112.50 5Q1107 0 1098 0L174 0Q165 0 159.50 5Q154 10 154 16M373 918Q373 803 451.50 724Q530 645 641 645Q754 645 831.50 724Q909 803 909 918Q909 1032 831 1111Q753 1190 641 1190Q530 1190 451.50 1111Q373 1032 373 918Z"  horiz-adv-x="1306" vert-adv-y="2048"  />

      
      <glyph glyph-name="uni041F" unicode="&#x041F;" d="M150 16L150 1417Q150 1423 155.50 1428.50Q161 1434 170 1434L1221 1434Q1230 1434 1235.50 1428.50Q1241 1423 1241 1417L1241 16Q1241 10 1235.50 5Q1230 0 1221 0L987 0Q978 0 972.50 5Q967 10 967 16L967 1171L424 1171L424 16Q424 10 418 5Q412 0 403 0L170 0Q161 0 155.50 5Q150 10 150 16Z"  horiz-adv-x="1404" vert-adv-y="2048"  />

      
      <glyph glyph-name="uni0420" unicode="&#x0420;" d="M145 16L145 834Q145 840 151 845Q157 850 166 850L356 850Q315 912 242 1028.50Q169 1145 145 1182L145 1417Q145 1423 151 1428.50Q157 1434 166 1434L633 1434Q643 1434 660.50 1433Q678 1432 728.50 1423.50Q779 1415 824.50 1400.50Q870 1386 926 1354.50Q982 1323 1022.50 1280Q1063 1237 1090.50 1167Q1118 1097 1118 1010Q1118 923 1091.50 852.50Q1065 782 1022 739Q979 696 927.50 664Q876 632 824 617.50Q772 603 729 594.50Q686 586 660 585L633 584L420 584L420 16Q420 10 414 5Q408 0 399 0L166 0Q157 0 151 5Q145 10 145 16M453 1167L651 852Q693 852 735 866Q777 880 811.50 918Q846 956 846 1010Q846 1167 633 1167L453 1167Z"  horiz-adv-x="1193" vert-adv-y="2048"  />

      
      <glyph glyph-name="uni0421" unicode="&#x0421;" d="M151 438.50Q151 438.50 122.50 504.75Q94 571 94 717Q94 863 151 995.50Q208 1128 304.50 1224Q401 1320 534.50 1377Q668 1434 815 1434Q963 1434 1094.50 1378.50Q1226 1323 1323 1223Q1329 1218 1329 1211Q1329 1204 1323 1200L1159 1034Q1144 1027 1130 1034Q1000 1167 815 1167Q630 1167 499.50 1035.50Q369 904 369 717Q369 530 499.50 398Q630 266 815 266Q1000 266 1130 399Q1144 406 1159 399L1323 231Q1329 226 1329 219.50Q1329 213 1323 209Q1226 110 1094.50 55Q963 0 815 0Q668 0 534.50 57Q401 114 304.50 210Q208 306 151 438.50M616 717Q616 634 673.50 575Q731 516 813 516Q895 516 952.50 575Q1010 634 1010 717Q1010 801 952.50 859.50Q895 918 813 918Q731 918 673.50 859.50Q616 801 616 717Z"  horiz-adv-x="1406" vert-adv-y="2048"  />

      
      <glyph glyph-name="uni0422" unicode="&#x0422;" d="M27 1192L27 1405Q27 1411 32.50 1416Q38 1421 47 1421L860 1421Q869 1421 875 1416Q881 1411 881 1405L881 1192Q881 1178 860 1178L588 1178L588 16Q588 0 569 0L338 0Q319 0 319 16L319 1178L47 1178Q27 1178 27 1192Z"  horiz-adv-x="917" vert-adv-y="2048"  />

      
      <glyph glyph-name="uni0423" unicode="&#x0423;" d="M0 1411Q-5 1420 0.50 1427Q6 1434 18 1434L287 1434Q301 1434 305 1423L520 809L752 1423Q756 1434 768 1434L1018 1434Q1029 1434 1033.50 1427Q1038 1420 1034 1411L489 10Q486 0 473 0L231 0Q220 0 215.50 7Q211 14 215 23L377 453L0 1411Z"  horiz-adv-x="1040" vert-adv-y="2048"  />

      
      <glyph glyph-name="uni0424" unicode="&#x0424;" d="M59 707Q59 811 94.50 908Q130 1005 197 1084Q264 1163 371.50 1212Q479 1261 612 1264L612 1417Q612 1423 618 1428.50Q624 1434 633 1434L868 1434Q875 1434 881 1428.50Q887 1423 887 1417L887 1264Q1023 1261 1132.50 1212.50Q1242 1164 1310 1085Q1378 1006 1414 909.50Q1450 813 1450 709Q1450 605 1414.50 510Q1379 415 1311.50 337.50Q1244 260 1134 212.50Q1024 165 887 162L887-4Q887-10 881-15Q875-20 868-20L633-20Q624-20 618-15Q612-10 612-4L612 162Q503 164 411.50 195.50Q320 227 256 279.50Q192 332 147 401Q102 470 80.50 547.50Q59 625 59 707M326 723Q326 599 403 504Q480 409 612 403L612 1020Q473 1014 399.50 928Q326 842 326 723M887 403Q1019 409 1095 503Q1171 597 1171 721Q1171 840 1098 927Q1025 1014 887 1020L887 403Z"  horiz-adv-x="1527" vert-adv-y="2048"  />

      
      <glyph glyph-name="uni0425" unicode="&#x0425;" d="M41 0Q29 0 24.50 9Q20 18 27 27L518 717Q436 831 272.50 1062Q109 1293 27 1407Q20 1416 24.50 1425Q29 1434 41 1434L328 1434Q340 1434 344 1427L686 950L1026 1427Q1030 1434 1042 1434L1329 1434Q1342 1434 1348 1425Q1354 1416 1346 1407L852 717Q944 591 1111.50 355Q1279 119 1346 27Q1354 18 1348 9Q1342 0 1329 0L1042 0Q1029 0 1026 6L686 483L344 6Q341 0 328 0L41 0Z"  horiz-adv-x="1380" vert-adv-y="2048"  />

      
      <glyph glyph-name="uni0426" unicode="&#x0426;" d="M150 16L150 1417Q150 1423 155.50 1428.50Q161 1434 168 1434L403 1434Q412 1434 418 1428.50Q424 1423 424 1417L424 262L967 262L967 1417Q967 1434 985 1434L1221 1434Q1239 1434 1239 1417L1239 246L1358 246Q1367 246 1372.50 240.50Q1378 235 1378 229L1378-203Q1378-209 1372.50-214Q1367-219 1358-219L1141-219Q1132-219 1126-214Q1120-209 1120-203L1120 0L168 0Q161 0 155.50 5Q150 10 150 16Z"  horiz-adv-x="1433" vert-adv-y="2048"  />

      
      <glyph glyph-name="uni0427" unicode="&#x0427;" d="M92 954L92 1417Q92 1423 98 1428.50Q104 1434 113 1434L348 1434Q355 1434 361 1428.50Q367 1423 367 1417L367 956Q380 851 454.50 792Q529 733 629 733Q690 733 753.50 755.50Q817 778 864 817L864 1417Q864 1423 870 1428.50Q876 1434 885 1434L1118 1434Q1127 1434 1133 1428.50Q1139 1423 1139 1417L1139 16Q1139 10 1133 5Q1127 0 1118 0L885 0Q876 0 870 5Q864 10 864 16L864 537Q744 471 596 471Q377 471 234.50 604.50Q92 738 92 954Z"  horiz-adv-x="1298" vert-adv-y="2048"  />

      
      <glyph glyph-name="uni0428" unicode="&#x0428;" d="M152 16L152 1417Q152 1423 157.50 1428.50Q163 1434 172 1434L406 1434Q415 1434 420.50 1428.50Q426 1423 426 1417L426 262L889 262L889 1417Q889 1423 894.50 1428.50Q900 1434 909 1434L1139 1434Q1148 1434 1153.50 1428.50Q1159 1423 1159 1417L1159 262L1622 262L1622 1417Q1622 1423 1627.50 1428.50Q1633 1434 1640 1434L1876 1434Q1885 1434 1890.50 1428.50Q1896 1423 1896 1417L1896 16Q1896 10 1890.50 5Q1885 0 1876 0L172 0Q163 0 157.50 5Q152 10 152 16Z"  horiz-adv-x="2068" vert-adv-y="2048"  />

      
      <glyph glyph-name="uni0429" unicode="&#x0429;" d="M152 16L152 1417Q152 1423 157.50 1428.50Q163 1434 172 1434L408 1434Q415 1434 420.50 1428.50Q426 1423 426 1417L426 262L889 262L889 1417Q889 1423 894.50 1428.50Q900 1434 909 1434L1139 1434Q1148 1434 1153.50 1428.50Q1159 1423 1159 1417L1159 262L1622 262L1622 1417Q1622 1423 1627.50 1428.50Q1633 1434 1642 1434L1876 1434Q1885 1434 1890.50 1428.50Q1896 1423 1896 1417L1896 246L2015 246Q2024 246 2029 241Q2034 236 2034 229L2034-203Q2034-219 2015-219L1796-219Q1787-219 1781.50-214Q1776-209 1776-203L1776 0L172 0Q163 0 157.50 5Q152 10 152 16Z"  horiz-adv-x="2101" vert-adv-y="2048"  />

      
      <glyph glyph-name="uni042A" unicode="&#x042A;" d="M0 1208L0 1417Q0 1423 5.50 1428.50Q11 1434 20 1434L500 1434Q509 1434 514.50 1428.50Q520 1423 520 1417L520 852L733 852Q755 852 776.50 851Q798 850 851.50 841.50Q905 833 949 818.50Q993 804 1047 772Q1101 740 1138.50 697Q1176 654 1201.50 583.50Q1227 513 1227 426Q1227 339 1200.50 268.50Q1174 198 1135 155Q1096 112 1041 80Q986 48 940.50 33.50Q895 19 842.50 10.50Q790 2 770 1Q750 0 733 0L266 0Q257 0 251.50 5Q246 10 246 16L246 1192L20 1192Q11 1192 5.50 1197Q0 1202 0 1208M520 266L733 266Q745 266 755 266.50Q765 267 788.50 270Q812 273 831 278.50Q850 284 873 296Q896 308 911.50 324.50Q927 341 937.50 367Q948 393 948 426Q948 471 929.50 504Q911 537 887 553Q863 569 828.50 578Q794 587 774.50 588.50Q755 590 733 590L520 590L520 266Z"  horiz-adv-x="1277" vert-adv-y="2048"  />

      
      <glyph glyph-name="uni042B" unicode="&#x042B;" d="M147 16L147 1417Q147 1423 153 1428.50Q159 1434 168 1434L401 1434Q410 1434 416 1428.50Q422 1423 422 1417L422 852L637 852Q652 852 666.50 851.50Q681 851 717.50 847Q754 843 785.50 836Q817 829 860.50 814Q904 799 939 779Q974 759 1010.50 726Q1047 693 1072 652Q1097 611 1112.50 553Q1128 495 1128 426Q1128 339 1101.50 268.50Q1075 198 1036.50 155Q998 112 942.50 80Q887 48 842 33.50Q797 19 745 10.50Q693 2 673.50 1Q654 0 637 0L168 0Q159 0 153 5Q147 10 147 16M422 266L637 266Q648 266 658 266.50Q668 267 691.50 270Q715 273 733.50 278.50Q752 284 775 296Q798 308 813.50 324.50Q829 341 839.50 367Q850 393 850 426Q850 471 831.50 504Q813 537 789 553Q765 569 730.50 578Q696 587 677 588.50Q658 590 637 590L422 590L422 266M1294 16L1294 1417Q1294 1423 1300 1428.50Q1306 1434 1315 1434L1550 1434Q1557 1434 1563 1428.50Q1569 1423 1569 1417L1569 16Q1569 10 1563 5Q1557 0 1550 0L1315 0Q1306 0 1300 5Q1294 10 1294 16Z"  horiz-adv-x="1736" vert-adv-y="2048"  />

      
      <glyph glyph-name="uni042C" unicode="&#x042C;" d="M145 16L145 1417Q145 1423 151 1428.50Q157 1434 166 1434L399 1434Q408 1434 414 1428.50Q420 1423 420 1417L420 852L635 852Q650 852 664.50 851.50Q679 851 715.50 847Q752 843 783.50 836Q815 829 858.50 814Q902 799 937 779Q972 759 1008.50 726Q1045 693 1070 652Q1095 611 1110.50 553Q1126 495 1126 426Q1126 339 1099.50 268.50Q1073 198 1034.50 155Q996 112 940.50 80Q885 48 840 33.50Q795 19 743 10.50Q691 2 671.50 1Q652 0 635 0L166 0Q157 0 151 5Q145 10 145 16M420 266L635 266Q646 266 656 266.50Q666 267 689.50 270Q713 273 731.50 278.50Q750 284 773 296Q796 308 811.50 324.50Q827 341 837.50 367Q848 393 848 426Q848 471 829.50 504Q811 537 787 553Q763 569 728.50 578Q694 587 675 588.50Q656 590 635 590L420 590L420 266Z"  horiz-adv-x="1187" vert-adv-y="2048"  />

      
      <glyph glyph-name="uni042D" unicode="&#x042D;" d="M100 190Q94 194 94 202Q94 210 100 215L264 381Q278 392 293 381Q426 248 608 248Q759 248 877 345Q995 442 1034 590L475 590Q466 590 460.50 595Q455 600 455 606L455 836Q455 842 460.50 847Q466 852 475 852L1040 852Q1001 1008 882.50 1098Q764 1188 608 1188Q426 1188 293 1055Q278 1044 264 1055L100 1219Q94 1224 94 1231Q94 1238 100 1243Q197 1343 328.50 1398.50Q460 1454 608 1454Q757 1454 889 1400.50Q1021 1347 1118.50 1252.50Q1216 1158 1272.50 1019Q1329 880 1329 717Q1329 563 1272 425.50Q1215 288 1118.50 191.50Q1022 95 889 38.50Q756-18 608-18Q460-18 328.50 37Q197 92 100 190Z"  horiz-adv-x="1421" vert-adv-y="2048"  />

      
      <glyph glyph-name="uni042E" unicode="&#x042E;" d="M154 16L154 1417Q154 1423 159.50 1428.50Q165 1434 174 1434L408 1434Q417 1434 422.50 1428.50Q428 1423 428 1417L428 852L608 852Q624 949 658.50 1035.50Q693 1122 749.50 1199Q806 1276 880 1331.50Q954 1387 1055 1419.50Q1156 1452 1274 1452Q1408 1452 1522 1411Q1636 1370 1716.50 1299Q1797 1228 1853.50 1134Q1910 1040 1937 934.50Q1964 829 1964 717Q1964 605 1937 499.50Q1910 394 1853.50 300.50Q1797 207 1716.50 136.50Q1636 66 1522 25Q1408-16 1274-16Q1157-16 1055.50 16.50Q954 49 880 105Q806 161 749.50 238Q693 315 658.50 401.50Q624 488 608 584L428 584L428 16Q428 10 422.50 5Q417 0 408 0L174 0Q165 0 159.50 5Q154 10 154 16M866 717Q866 627 892.50 543Q919 459 968.50 391Q1018 323 1097 282.50Q1176 242 1274 242Q1373 242 1453.50 282.50Q1534 323 1583.50 390.50Q1633 458 1659.50 542Q1686 626 1686 717Q1686 789 1670 857Q1654 925 1620 986Q1586 1047 1538 1093Q1490 1139 1422 1165.50Q1354 1192 1274 1192Q1176 1192 1097 1151.50Q1018 1111 968.50 1043.50Q919 976 892.50 892Q866 808 866 717Z"  horiz-adv-x="2060" vert-adv-y="2048"  />

      
      <glyph glyph-name="uni042F" unicode="&#x042F;" d="M76 0Q65 0 59.50 8Q54 16 61 25L430 614Q129 707 129 1010Q129 1097 156 1167Q183 1237 226 1280Q269 1323 320.50 1354.50Q372 1386 424 1400.50Q476 1415 519 1423.50Q562 1432 589 1433L616 1434L1083 1434Q1092 1434 1098 1428.50Q1104 1423 1104 1417L1104 1182L893 850L1083 850Q1092 850 1098 845Q1104 840 1104 834L1104 16Q1104 10 1098 5Q1092 0 1083 0L850 0Q841 0 835 5Q829 10 829 16L829 584L729 584L369 8Q365 0 350 0L76 0M403 1010Q403 969 421 937.50Q439 906 468.50 889.50Q498 873 524 864.50Q550 856 578 852L776 1167L616 1167Q612 1167 604 1166.50Q596 1166 574 1163Q552 1160 532 1155Q512 1150 487.50 1138Q463 1126 445 1110Q427 1094 415 1068Q403 1042 403 1010Z"  horiz-adv-x="1265" vert-adv-y="2048"  />

      
      <glyph glyph-name="uni0430" unicode="&#x0430;" d="M-12 23L547 1464Q552 1474 566 1474Q580 1474 584 1464L1143 23Q1147 14 1142 7Q1137 0 1126 0L872 0Q859 0 856 10L797 162L332 162L276 10Q273 0 258 0L6 0Q-6 0-11.50 7Q-17 14-12 23M420 403L709 403L565 834L420 403Z"  horiz-adv-x="1144" vert-adv-y="2048"  />

      
      <glyph glyph-name="uni0431" unicode="&#x0431;" d="M147 16L147 1417Q147 1423 153 1428.50Q159 1434 166 1434L1028 1434Q1037 1434 1043 1428.50Q1049 1423 1049 1417L1049 1194Q1049 1188 1043 1183Q1037 1178 1028 1178L418 1178L418 862L629 862Q882 862 1006 750.50Q1130 639 1130 436Q1130 355 1107 288Q1084 221 1048 177Q1012 133 963 99Q914 65 867.50 47Q821 29 771 17.50Q721 6 688 3Q655 0 629 0L166 0Q159 0 153 5Q147 10 147 16M418 262L629 262Q668 262 704 269Q740 276 777.50 293.50Q815 311 837.50 347.50Q860 384 860 436Q860 487 838.50 523Q817 559 779.50 576Q742 593 706.50 599.50Q671 606 629 606L418 606L418 262Z"  horiz-adv-x="1234" vert-adv-y="2048"  />

      
      <glyph glyph-name="uni0432" unicode="&#x0432;" d="M145 16L145 1417Q145 1423 151 1428.50Q157 1434 166 1434L633 1434Q643 1434 660.50 1433.50Q678 1433 728.50 1426Q779 1419 824.50 1405.50Q870 1392 926 1361.50Q982 1331 1022.50 1289.50Q1063 1248 1090.50 1179Q1118 1110 1118 1024Q1118 906 1063.50 830Q1009 754 920 717Q984 695 1029.50 656Q1075 617 1095.50 577.50Q1116 538 1127 501Q1138 464 1138 441L1139 418Q1139 336 1115.50 269.50Q1092 203 1056 160.50Q1020 118 969.50 86.50Q919 55 873 39Q827 23 774.50 13.50Q722 4 692 2Q662 0 633 0L166 0Q157 0 151 5Q145 10 145 16M418 262L633 262Q672 262 708 268.50Q744 275 781.50 291Q819 307 841.50 341.50Q864 376 864 424Q864 472 840 505.50Q816 539 782 553.50Q748 568 714.50 575Q681 582 657 582L633 582L418 582L418 262M418 850L633 850Q637 850 645 850.50Q653 851 674.50 854Q696 857 716 862.50Q736 868 760.50 879.50Q785 891 802.50 907Q820 923 832 949.50Q844 976 844 1008Q844 1043 832.50 1071.50Q821 1100 802.50 1117Q784 1134 761 1147Q738 1160 715.50 1165.50Q693 1171 674.50 1174Q656 1177 644 1178L633 1178L418 1178L418 850Z"  horiz-adv-x="1234" vert-adv-y="2048"  />

      
      <glyph glyph-name="uni0433" unicode="&#x0433;" d="M145 16L145 1417Q145 1423 151 1428.50Q157 1434 166 1434L1028 1434Q1035 1434 1041 1428.50Q1047 1423 1047 1417L1047 1194Q1047 1188 1041 1183Q1035 1178 1028 1178L416 1178L416 16Q416 10 410 5Q404 0 397 0L166 0Q157 0 151 5Q145 10 145 16Z"  horiz-adv-x="1122" vert-adv-y="2048"  />

      
      <glyph glyph-name="uni0434" unicode="&#x0434;" d="M-4-197L-4 223Q-4 229 1.50 234.50Q7 240 16 240L135 240Q220 461 380 874.50Q540 1288 604 1456Q608 1466 622.50 1466Q637 1466 641 1456L1112 240L1233 240Q1251 240 1251 223L1251-197Q1251-213 1233-213L1020-213Q1011-213 1005-208Q999-203 999-197L999 0L250 0L250-197Q250-203 244-208Q238-213 229-213L16-213Q7-213 1.50-208Q-4-203-4-197M420 240L827 240Q790 343 725 521.50Q660 700 623 803L420 240Z"  horiz-adv-x="1263" vert-adv-y="2048"  />

      
      <glyph glyph-name="uni0435" unicode="&#x0435;" d="M147 16L147 1417Q147 1423 153 1428.50Q159 1434 166 1434L1094 1434Q1103 1434 1108.50 1428.50Q1114 1423 1114 1417L1114 1190Q1114 1184 1108.50 1179Q1103 1174 1094 1174L418 1174L418 842L977 842Q995 842 995 825L995 602Q995 586 977 586L418 586L418 258L1094 258Q1103 258 1108.50 253Q1114 248 1114 242L1114 16Q1114 10 1108.50 5Q1103 0 1094 0L166 0Q159 0 153 5Q147 10 147 16Z"  horiz-adv-x="1204" vert-adv-y="2048"  />

      
      <glyph glyph-name="uni0436" unicode="&#x0436;" d="M12 0Q-1 0-6.50 9Q-12 18-4 27L489 752L6 1407Q-2 1416 4 1425Q10 1434 23 1434L301 1434Q310 1434 317 1427L629 1014L741 825L741 1417Q741 1423 747 1428.50Q753 1434 762 1434L993 1434Q1002 1434 1008 1428.50Q1014 1423 1014 1417L1014 817Q1032 846 1072 917Q1112 988 1133 1020L1438 1427Q1445 1434 1454 1434L1735 1434Q1748 1434 1752.50 1425Q1757 1416 1751 1407L1266 752L1759 27Q1766 18 1761.50 9Q1757 0 1745 0L1456 0Q1444 0 1440 8L1081 543Q1073 532 1051 500.50Q1029 469 1014 451L1014 16Q1014 10 1008 5Q1002 0 993 0L762 0Q753 0 747 5Q741 10 741 16L741 453Q727 472 705.50 499Q684 526 670 545Q604 444 481.50 259.50Q359 75 315 8Q311 0 299 0L12 0Z"  horiz-adv-x="1792" vert-adv-y="2048"  />

      
      <glyph glyph-name="uni0437" unicode="&#x0437;" d="M45 403Q45 418 66 418L297 418Q305 418 311 413.50Q317 409 317 403Q320 321 373.50 279.50Q427 238 500 238Q569 238 619.50 293Q670 348 670 426Q670 512 618.50 560Q567 608 489 608L383 608Q362 608 362 623L362 831Q362 837 368 842.50Q374 848 383 848L489 848Q551 848 592 893.50Q633 939 633 1022Q633 1100 590 1146Q547 1192 475 1192Q402 1192 354.50 1151Q307 1110 307 1047Q307 1041 301.50 1035.50Q296 1030 287 1030L72 1030Q63 1030 57 1035.50Q51 1041 51 1047Q51 1222 168.50 1336Q286 1450 475 1450Q670 1450 790.50 1334Q911 1218 911 1020Q911 934 872.50 857.50Q834 781 760 737Q842 688 895 603.50Q948 519 948 426Q948 311 910.50 223Q873 135 808.50 83.50Q744 32 665 6Q586-20 496-20Q296-20 170.50 95.50Q45 211 45 403Z"  horiz-adv-x="1024" vert-adv-y="2048"  />

      
      <glyph glyph-name="uni0438" unicode="&#x0438;" d="M154 16L154 1417Q154 1434 172 1434L408 1434Q415 1434 420.50 1428.50Q426 1423 426 1417L426 459Q539 621 765 957.50Q991 1294 1083 1427Q1086 1434 1100 1434L1337 1434Q1346 1434 1352 1428.50Q1358 1423 1358 1417L1358 16Q1358 10 1352 5Q1346 0 1337 0L1102 0Q1093 0 1087 5Q1081 10 1081 16L1081 993L426 8Q422 0 412 0L172 0Q154 0 154 16Z"  horiz-adv-x="1523" vert-adv-y="2048"  />

      
      <glyph glyph-name="uni0439" unicode="&#x0439;" d="M154 16L154 1417Q154 1434 172 1434L408 1434Q415 1434 420.50 1428.50Q426 1423 426 1417L426 459Q539 621 765 957.50Q991 1294 1083 1427Q1086 1434 1100 1434L1337 1434Q1346 1434 1352 1428.50Q1358 1423 1358 1417L1358 16Q1358 10 1352 5Q1346 0 1337 0L1102 0Q1093 0 1087 5Q1081 10 1081 16L1081 993L426 8Q422 0 412 0L172 0Q154 0 154 16M446 1808Q446 1814 452 1819.50Q458 1825 465 1825L647 1825Q654 1825 661 1819.50Q668 1814 668 1808Q669 1753 700 1722.50Q731 1692 772 1692Q813 1692 844.50 1722.50Q876 1753 879 1808Q879 1814 885.50 1819.50Q892 1825 899 1825L1081 1825Q1088 1825 1094 1819.50Q1100 1814 1100 1808Q1100 1645 1012 1568Q924 1491 784 1491Q731 1491 683 1501.50Q635 1512 591 1536Q547 1560 515.50 1596Q484 1632 465 1686.50Q446 1741 446 1808Z"  horiz-adv-x="1529" vert-adv-y="2048"  />

      
      <glyph glyph-name="uni043A" unicode="&#x043A;" d="M147 16L147 1417Q147 1423 153 1428.50Q159 1434 168 1434L401 1434Q410 1434 416 1428.50Q422 1423 422 1417L422 754L958 1427Q965 1434 975 1434L1266 1434Q1280 1434 1285.50 1425Q1291 1416 1282 1407L713 705L1286 27Q1295 18 1289.50 9Q1284 0 1270 0L965 0Q954 0 948 6L530 522Q519 509 481.50 464Q444 419 422 397L422 16Q422 10 416 5Q410 0 401 0L168 0Q159 0 153 5Q147 10 147 16Z"  horiz-adv-x="1323" vert-adv-y="2048"  />

      
      <glyph glyph-name="uni043B" unicode="&#x043B;" d="M-8 23L545 1454Q550 1464 563 1464Q576 1464 580 1454L1137 23Q1142 14 1136 7Q1130 0 1118 0L868 0Q853 0 850 10L563 805L276 10Q273 0 258 0L8 0Q-3 0-7.50 7Q-12 14-8 23Z"  horiz-adv-x="1144" vert-adv-y="2048"  />

      
      <glyph glyph-name="uni043C" unicode="&#x043C;" d="M150 16L150 1417Q150 1423 155.50 1428.50Q161 1434 170 1434L406 1434Q418 1434 424 1423L934 369L1421 1423Q1423 1426 1429.50 1430Q1436 1434 1440 1434L1675 1434Q1684 1434 1690 1428.50Q1696 1423 1696 1417L1696 16Q1696 10 1690 5Q1684 0 1675 0L1444 0Q1435 0 1429 5Q1423 10 1423 16L1423 823L1063 66Q1061 63 1054.50 59Q1048 55 1044 55L825 55Q814 55 809 66L422 840L422 16Q422 10 416 5Q410 0 401 0L170 0Q161 0 155.50 5Q150 10 150 16Z"  horiz-adv-x="1875" vert-adv-y="2048"  />

      
      <glyph glyph-name="uni043D" unicode="&#x043D;" d="M150 16L150 1417Q150 1423 155.50 1428.50Q161 1434 170 1434L403 1434Q412 1434 418 1428.50Q424 1423 424 1417L424 852L967 852L967 1417Q967 1423 972.50 1428.50Q978 1434 987 1434L1221 1434Q1230 1434 1235.50 1428.50Q1241 1423 1241 1417L1241 16Q1241 10 1235.50 5Q1230 0 1221 0L987 0Q978 0 972.50 5Q967 10 967 16L967 584L424 584L424 16Q424 10 418 5Q412 0 403 0L170 0Q161 0 155.50 5Q150 10 150 16Z"  horiz-adv-x="1404" vert-adv-y="2048"  />

      
      <glyph glyph-name="uni043E" unicode="&#x043E;" d="M121.50 501.50Q121.50 501.50 107.75 554.25Q94 607 94 719Q94 831 121.50 936.50Q149 1042 207.50 1136Q266 1230 348.50 1301Q431 1372 548.50 1413Q666 1454 805 1454Q942 1454 1058 1413Q1174 1372 1256.50 1301Q1339 1230 1397 1136Q1455 1042 1483 936.50Q1511 831 1511 719Q1511 607 1483 501Q1455 395 1397 301Q1339 207 1256.50 136Q1174 65 1058 23.50Q942-18 805-18Q666-18 548.50 23.50Q431 65 348.50 136Q266 207 207.50 301.50Q149 396 121.50 501.50M373 715Q373 624 400.50 540Q428 456 480 388.50Q532 321 616 280.50Q700 240 805 240Q908 240 991.50 280.50Q1075 321 1127.50 388.50Q1180 456 1207.50 540Q1235 624 1235 715Q1235 807 1207.50 891.50Q1180 976 1127.50 1044Q1075 1112 991.50 1153Q908 1194 805 1194Q700 1194 616 1153Q532 1112 480 1044Q428 976 400.50 891.50Q373 807 373 715Z"  horiz-adv-x="1632" vert-adv-y="2048"  />

      
      <glyph glyph-name="uni043F" unicode="&#x043F;" d="M152 16L152 1417Q152 1423 157.50 1428.50Q163 1434 172 1434L1214 1434Q1221 1434 1227 1428.50Q1233 1423 1233 1417L1233 16Q1233 10 1227 5Q1221 0 1214 0L981 0Q972 0 966.50 5Q961 10 961 16L961 1171L424 1171L424 16Q424 10 418 5Q412 0 403 0L172 0Q163 0 157.50 5Q152 10 152 16Z"  horiz-adv-x="1404" vert-adv-y="2048"  />

      
      <glyph glyph-name="uni0440" unicode="&#x0440;" d="M147 12L147 1417Q147 1423 153 1428.50Q159 1434 166 1434L631 1434Q646 1434 663 1433Q680 1432 715 1428Q750 1424 782.50 1416.50Q815 1409 856.50 1393Q898 1377 933 1356Q968 1335 1003 1301.50Q1038 1268 1062 1227Q1086 1186 1101 1127.50Q1116 1069 1116 1001Q1116 933 1100 875.50Q1084 818 1059 777Q1034 736 997.50 703Q961 670 925.50 649.50Q890 629 847.50 614Q805 599 773 591.50Q741 584 706 580Q671 576 657 575.50Q643 575 631 575L418 575L418 12Q418-4 399-4L166-4Q159-4 153 1Q147 6 147 12M418 840L631 840Q646 840 660 841Q674 842 702 846.50Q730 851 752 861.50Q774 872 796.50 888.50Q819 905 831.50 934Q844 963 844 1001Q844 1046 824.50 1079.50Q805 1113 779.50 1129.50Q754 1146 720 1155.50Q686 1165 666.50 1167Q647 1169 631 1169L418 1169L418 840Z"  horiz-adv-x="1187" vert-adv-y="2048"  />

      
      <glyph glyph-name="uni0441" unicode="&#x0441;" d="M100 711Q100 923 191 1092.50Q282 1262 446 1358Q610 1454 817 1454Q964 1454 1094 1399.50Q1224 1345 1321 1247Q1327 1242 1327 1235Q1327 1228 1321 1223L1159 1061Q1144 1050 1130 1061Q996 1192 817 1192Q683 1192 582 1128Q481 1064 429 955.50Q377 847 377 711Q377 605 411.50 516.50Q446 428 505.50 368.50Q565 309 645.50 276.50Q726 244 817 244Q999 244 1130 375Q1144 386 1159 375L1321 211Q1327 206 1327 198Q1327 190 1321 186Q1224 89 1093.50 34.50Q963-20 817-20Q670-20 539 32Q408 84 311 177.50Q214 271 157 409.50Q100 548 100 711Z"  horiz-adv-x="1421" vert-adv-y="2048"  />

      
      <glyph glyph-name="uni0442" unicode="&#x0442;" d="M27 1192L27 1405Q27 1411 32.50 1416Q38 1421 47 1421L860 1421Q869 1421 875 1416Q881 1411 881 1405L881 1192Q881 1178 860 1178L588 1178L588 16Q588 0 569 0L338 0Q319 0 319 16L319 1178L47 1178Q27 1178 27 1192Z"  horiz-adv-x="917" vert-adv-y="2048"  />

      
      <glyph glyph-name="uni0443" unicode="&#x0443;" d="M2 1411Q-3 1420 2.50 1427Q8 1434 20 1434L287 1434Q299 1434 303 1423L518 801L745 1423Q749 1434 764 1434L1010 1434Q1022 1434 1027.50 1427Q1033 1420 1028 1411L487 10Q484 0 471 0L231 0Q222 0 216.50 7Q211 14 215 23L375 449L2 1411Z"  horiz-adv-x="1046" vert-adv-y="2048"  />

      
      <glyph glyph-name="uni0444" unicode="&#x0444;" d="M82 541.50Q82 541.50 71.50 579.75Q61 618 61 700Q61 782 82.50 861.50Q104 941 149.50 1013.50Q195 1086 258.50 1141Q322 1196 413 1229Q504 1262 610 1264L610 1417Q610 1423 616 1428.50Q622 1434 631 1434L862 1434Q871 1434 877 1428.50Q883 1423 883 1417L883 1264Q1017 1262 1125.50 1212Q1234 1162 1301.50 1081.50Q1369 1001 1404.50 903.50Q1440 806 1440 702Q1440 599 1405 505Q1370 411 1303 334Q1236 257 1127.50 210Q1019 163 883 160L883-4Q883-10 877-15Q871-20 862-20L631-20Q622-20 616-15Q610-10 610-4L610 160Q502 162 411 193.50Q320 225 256 276.50Q192 328 147.50 396.50Q103 465 82 541.50M326 717Q326 638 357.50 568.50Q389 499 455 451.50Q521 404 610 399L610 1022Q472 1016 399 926.50Q326 837 326 717M883 399Q1014 406 1089.50 499Q1165 592 1165 715Q1165 771 1147.50 823.50Q1130 876 1096.50 920Q1063 964 1008 991.50Q953 1019 883 1022L883 399Z"  horiz-adv-x="1527" vert-adv-y="2048"  />

      
      <glyph glyph-name="uni0445" unicode="&#x0445;" d="M45 0Q32 0 26.50 9Q21 18 29 27L516 711Q435 824 272.50 1059.50Q110 1295 29 1407Q21 1416 26.50 1425Q32 1434 45 1434L328 1434Q340 1434 344 1427L684 942L1020 1427Q1024 1434 1036 1434L1321 1434Q1333 1434 1338 1425Q1343 1416 1337 1407L848 711Q920 611 1084 380Q1248 149 1337 27Q1343 18 1338 9Q1333 0 1321 0L1036 0Q1023 0 1020 6L684 479L344 6Q341 0 328 0L45 0Z"  horiz-adv-x="1380" vert-adv-y="2048"  />

      
      <glyph glyph-name="uni0446" unicode="&#x0446;" d="M152 16L152 1417Q152 1423 157.50 1428.50Q163 1434 170 1434L403 1434Q412 1434 417 1429Q422 1424 422 1417L422 260L961 260L961 1417Q961 1423 966.50 1428.50Q972 1434 981 1434L1212 1434Q1221 1434 1227 1428.50Q1233 1423 1233 1417L1233 244L1350 244Q1359 244 1364.50 238.50Q1370 233 1370 227L1370-201Q1370-207 1364.50-212Q1359-217 1350-217L1133-217Q1126-217 1120-212Q1114-207 1114-201L1114 0L170 0Q163 0 157.50 5Q152 10 152 16Z"  horiz-adv-x="1433" vert-adv-y="2048"  />

      
      <glyph glyph-name="uni0447" unicode="&#x0447;" d="M94 946L94 1417Q94 1423 100 1428.50Q106 1434 115 1434L346 1434Q355 1434 361 1428.50Q367 1423 367 1417L367 948Q380 843 453.50 785Q527 727 627 727Q686 727 748.50 749Q811 771 858 809L858 1417Q858 1423 864 1428.50Q870 1434 879 1434L1112 1434Q1119 1434 1124.50 1428.50Q1130 1423 1130 1417L1130 16Q1130 10 1124.50 5Q1119 0 1112 0L879 0Q870 0 864 5Q858 10 858 16L858 532Q743 467 594 467Q376 467 235 599.50Q94 732 94 946Z"  horiz-adv-x="1298" vert-adv-y="2048"  />

      
      <glyph glyph-name="uni0448" unicode="&#x0448;" d="M156 16L156 1417Q156 1423 161.50 1428.50Q167 1434 174 1434L408 1434Q426 1434 426 1417L426 260L885 260L885 1417Q885 1423 890.50 1428.50Q896 1434 905 1434L1133 1434Q1142 1434 1147.50 1428.50Q1153 1423 1153 1417L1153 260L1612 260L1612 1417Q1612 1423 1617.50 1428.50Q1623 1434 1632 1434L1864 1434Q1873 1434 1878.50 1428.50Q1884 1423 1884 1417L1884 16Q1884 10 1878.50 5Q1873 0 1864 0L174 0Q167 0 161.50 5Q156 10 156 16Z"  horiz-adv-x="2070" vert-adv-y="2048"  />

      
      <glyph glyph-name="uni0449" unicode="&#x0449;" d="M156 16L156 1417Q156 1423 161.50 1428.50Q167 1434 176 1434L408 1434Q417 1434 422.50 1428.50Q428 1423 428 1417L428 260L887 260L887 1417Q887 1423 892.50 1428.50Q898 1434 905 1434L1135 1434Q1144 1434 1149.50 1428.50Q1155 1423 1155 1417L1155 260L1612 260L1612 1417Q1612 1423 1617.50 1428.50Q1623 1434 1632 1434L1866 1434Q1873 1434 1878.50 1428.50Q1884 1423 1884 1417L1884 244L2001 244Q2010 244 2015.50 238.50Q2021 233 2021 227L2021-201Q2021-207 2015.50-212Q2010-217 2001-217L1786-217Q1777-217 1771-212Q1765-207 1765-201L1765 0L176 0Q167 0 161.50 5Q156 10 156 16Z"  horiz-adv-x="2101" vert-adv-y="2048"  />

      
      <glyph glyph-name="uni044A" unicode="&#x044A;" d="M4 1208L4 1417Q4 1423 10 1428.50Q16 1434 23 1434L498 1434Q507 1434 512.50 1428.50Q518 1423 518 1417L518 846L729 846Q751 846 772.50 845Q794 844 847 836Q900 828 943.50 813Q987 798 1040.50 766.50Q1094 735 1131 692Q1168 649 1193.50 579Q1219 509 1219 422Q1219 336 1192.50 266Q1166 196 1127.50 153.50Q1089 111 1034.50 79Q980 47 935 32.50Q890 18 838 10Q786 2 766 1Q746 0 729 0L266 0Q257 0 251.50 5Q246 10 246 16L246 1194L23 1194Q4 1194 4 1208M518 264L729 264Q744 264 756.50 265Q769 266 797.50 269.50Q826 273 848 283.50Q870 294 893 310.50Q916 327 929 356Q942 385 942 422Q942 467 923.50 500Q905 533 881.50 549Q858 565 823.50 574Q789 583 770 584.50Q751 586 729 586L518 586L518 264Z"  horiz-adv-x="1277" vert-adv-y="2048"  />

      
      <glyph glyph-name="uni044B" unicode="&#x044B;" d="M150 16L150 1417Q150 1423 155.50 1428.50Q161 1434 170 1434L401 1434Q410 1434 416 1428.50Q422 1423 422 1417L422 846L635 846Q656 846 677.50 845Q699 844 751.50 836Q804 828 847.50 813Q891 798 944.50 766.50Q998 735 1034.50 692Q1071 649 1096.50 579Q1122 509 1122 422Q1122 336 1095.50 266Q1069 196 1031 153.50Q993 111 938 79Q883 47 838.50 32.50Q794 18 742.50 10Q691 2 671.50 1Q652 0 635 0L170 0Q161 0 155.50 5Q150 10 150 16M422 264L635 264Q649 264 661.50 265Q674 266 702.50 269.50Q731 273 753 283.50Q775 294 798.50 310.50Q822 327 835 356Q848 385 848 422Q848 467 829.50 500Q811 533 787 549Q763 565 728.50 574Q694 583 675 584.50Q656 586 635 586L422 586L422 264M1288 16L1288 1417Q1288 1423 1294 1428.50Q1300 1434 1307 1434L1540 1434Q1548 1434 1553.50 1429Q1559 1424 1559 1417L1559 16Q1559 0 1540 0L1307 0Q1300 0 1294 5Q1288 10 1288 16Z"  horiz-adv-x="1736" vert-adv-y="2048"  />

      
      <glyph glyph-name="uni044C" unicode="&#x044C;" d="M147 16L147 1417Q147 1423 153 1428.50Q159 1434 166 1434L399 1434Q408 1434 413 1429Q418 1424 418 1417L418 846L631 846Q652 846 673.50 845Q695 844 747.50 836Q800 828 844 813Q888 798 941.50 766.50Q995 735 1032 692Q1069 649 1094.50 579Q1120 509 1120 422Q1120 336 1093.50 266Q1067 196 1029 153.50Q991 111 936 79Q881 47 836.50 32.50Q792 18 740 10Q688 2 668 1Q648 0 631 0L166 0Q159 0 153 5Q147 10 147 16M418 264L631 264Q646 264 658.50 265Q671 266 699.50 269.50Q728 273 750 283.50Q772 294 795 310.50Q818 327 831 356Q844 385 844 422Q844 467 825.50 500Q807 533 783 549Q759 565 724.50 574Q690 583 671 584.50Q652 586 631 586L418 586L418 264Z"  horiz-adv-x="1187" vert-adv-y="2048"  />

      
      <glyph glyph-name="uni044D" unicode="&#x044D;" d="M102 188Q96 192 96 200Q96 208 102 213L264 377Q278 388 293 377Q424 246 606 246Q756 246 872.50 342Q989 438 1030 586L473 586Q455 586 455 602L455 827Q455 844 473 844L1034 844Q995 1001 877 1094.50Q759 1188 606 1188Q427 1188 293 1057Q278 1046 264 1057L102 1219Q96 1224 96 1231Q96 1238 102 1243Q199 1341 329 1395.50Q459 1450 606 1450Q753 1450 884 1396Q1015 1342 1111.50 1246.50Q1208 1151 1264.50 1011.50Q1321 872 1321 711Q1321 557 1264.50 421Q1208 285 1112 189Q1016 93 884 37.50Q752-18 606-18Q460-18 329.50 36.50Q199 91 102 188Z"  horiz-adv-x="1421" vert-adv-y="2048"  />

      
      <glyph glyph-name="uni044E" unicode="&#x044E;" d="M156 16L156 1419Q156 1425 161.50 1430.50Q167 1436 176 1436L408 1436Q417 1436 422.50 1430.50Q428 1425 428 1419L428 846L596 846Q612 942 645 1029Q678 1116 734 1194.50Q790 1273 862.50 1330Q935 1387 1035 1420.50Q1135 1454 1251 1454Q1384 1454 1497 1411.50Q1610 1369 1689.50 1297Q1769 1225 1825.50 1129Q1882 1033 1908.50 927Q1935 821 1935 711Q1935 601 1908 496.50Q1881 392 1825 299Q1769 206 1689.50 136Q1610 66 1497 25Q1384-16 1251-16Q1135-16 1035 16.50Q935 49 862.50 104Q790 159 734 236Q678 313 645 398.50Q612 484 596 580L428 580L428 16Q428 10 422.50 5Q417 0 408 0L176 0Q167 0 161.50 5Q156 10 156 16M852 711Q852 622 877.50 539Q903 456 950.50 388.50Q998 321 1076 280.50Q1154 240 1251 240Q1349 240 1428.50 280Q1508 320 1557.50 387Q1607 454 1633 537.50Q1659 621 1659 711Q1659 782 1643 851Q1627 920 1593.50 982.50Q1560 1045 1512.50 1092.50Q1465 1140 1397.50 1168Q1330 1196 1251 1196Q1173 1196 1107 1168Q1041 1140 994.50 1093Q948 1046 915.50 983.50Q883 921 867.50 852Q852 783 852 711Z"  horiz-adv-x="2033" vert-adv-y="2048"  />

      
      <glyph glyph-name="uni044F" unicode="&#x044F;" d="M68 23L346 623Q82 731 82 999Q82 1086 104.50 1156Q127 1226 160.50 1270Q194 1314 243 1347Q292 1380 334.50 1396Q377 1412 428.50 1421.50Q480 1431 508.50 1432.50Q537 1434 567 1434L1028 1434Q1037 1434 1043 1428.50Q1049 1423 1049 1417L1049 16Q1049 10 1043 5Q1037 0 1028 0L797 0Q788 0 782 5Q776 10 776 16L776 580L623 580L360 10Q355 0 342 0L86 0Q74 0 68.50 7Q63 14 68 23M372 1078Q372 1078 363 1061Q354 1044 354 999Q354 954 369.50 919.50Q385 885 408 865.50Q431 846 461.50 833.50Q492 821 517 817Q542 813 567 813L776 813L776 1176L567 1176Q548 1176 525.50 1173Q503 1170 471 1159Q439 1148 414.50 1130Q390 1112 372 1078Z"  horiz-adv-x="1214" vert-adv-y="2048"  />

      
      <glyph glyph-name="uni0451" unicode="&#x0451;" d="M147 16L147 1417Q147 1423 153 1428.50Q159 1434 166 1434L1094 1434Q1103 1434 1108.50 1428.50Q1114 1423 1114 1417L1114 1190Q1114 1184 1108.50 1179Q1103 1174 1094 1174L418 1174L418 842L977 842Q995 842 995 825L995 602Q995 586 977 586L418 586L418 258L1094 258Q1103 258 1108.50 253Q1114 248 1114 242L1114 16Q1114 10 1108.50 5Q1103 0 1094 0L166 0Q159 0 153 5Q147 10 147 16M331.50 1565Q331.50 1565 309.25 1585.50Q287 1606 287 1663Q287 1720 331.50 1761Q376 1802 436 1802Q498 1802 544 1761Q590 1720 590 1663Q590 1606 544 1565Q498 1524 436 1524Q376 1524 331.50 1565M749.50 1565Q749.50 1565 727.25 1585.50Q705 1606 705 1663Q705 1720 749.50 1761Q794 1802 856 1802Q918 1802 963 1761Q1008 1720 1008 1663Q1008 1606 963 1565Q918 1524 856 1524Q794 1524 749.50 1565Z"  horiz-adv-x="1204" vert-adv-y="2048"  />

      
      <glyph glyph-name="uni2010" unicode="&#x2010;" d="M68 614L68 827Q68 833 73.50 838.50Q79 844 88 844L793 844Q811 844 811 827L811 614Q811 598 793 598L88 598Q79 598 73.50 603Q68 608 68 614Z"  horiz-adv-x="907" vert-adv-y="2048"  />

      
      <glyph glyph-name="uni2011" unicode="&#x2011;" d="M68 614L68 827Q68 833 73.50 838.50Q79 844 88 844L793 844Q811 844 811 827L811 614Q811 598 793 598L88 598Q79 598 73.50 603Q68 608 68 614Z"  horiz-adv-x="907" vert-adv-y="2048"  />

      
      <glyph glyph-name="uni2012" unicode="&#x2012;" d="M68 614L68 827Q68 833 73.50 838.50Q79 844 88 844L793 844Q811 844 811 827L811 614Q811 598 793 598L88 598Q79 598 73.50 603Q68 608 68 614Z"  horiz-adv-x="907" vert-adv-y="2048"  />

      
      <glyph glyph-name="uni2013" unicode="&#x2013;" d="M63 586L63 809Q63 815 69 820Q75 825 84 825L930 825Q939 825 944.50 820Q950 815 950 809L950 586Q950 581 944 576Q938 571 930 571L84 571Q76 571 69.50 576Q63 581 63 586Z"  horiz-adv-x="1042" vert-adv-y="2048"  />

      
      </font>
</defs>
</svg>
