<?xml version="1.0" standalone="no"?>
  <!DOCTYPE svg PUBLIC "-//W3C//DTD SVG 1.1//EN" "http://www.w3.org/Graphics/SVG/1.1/DTD/svg11.dtd" >
  <svg>
  <metadata>
  Created by font-carrier
  </metadata>
  <defs>
  <font id="Roboto-Regular" horiz-adv-x="2252" vert-adv-y="2252" >
    <font-face
      
      font-family="Roboto"
      
      font-weight="400"
      
      font-stretch="normal"
      
      units-per-em="2048"
      
      ascent="2146"
      
      descent="-555"
      
    />
      <missing-glyph />

      

      
      <glyph glyph-name="uni21" unicode="&#x21;" d="M368 478L171 478L171 1456L368 1456L368 478M369 0L171 0L171 204L369 204L369 0Z"  horiz-adv-x="539" vert-adv-y="2048"  />

      
      <glyph glyph-name="uni22" unicode="&#x22;" d="M278 1290L177 1040L80 1040L81 1280L81 1560L278 1560L278 1290M587 1290L486 1040L389 1040L390 1288L390 1560L587 1560L587 1290Z"  horiz-adv-x="668" vert-adv-y="2048"  />

      
      <glyph glyph-name="uni23" unicode="&#x23;" d="M712 410L457 410L377 0L226 0L306 410L70 410L70 550L334 550L402 898L146 898L146 1040L430 1040L512 1456L663 1456L581 1040L836 1040L918 1456L1069 1456L987 1040L1186 1040L1186 898L960 898L892 550L1111 550L1111 410L864 410L784 0L632 0L712 410M485 550L740 550L808 898L553 898L485 550Z"  horiz-adv-x="1276" vert-adv-y="2048"  />

      
      <glyph glyph-name="uni24" unicode="&#x24;" d="M848 376Q848 465 784 529Q720 593 574 643Q372 704 269 806Q166 908 166 1078Q166 1243 260.50 1347Q355 1451 521 1472L521 1693L679 1693L679 1471Q847 1447 939.50 1327.50Q1032 1208 1032 1007L836 1007Q836 1143 773 1227Q710 1311 598 1311Q480 1311 421.50 1249.50Q363 1188 363 1081Q363 984 423.50 924Q484 864 642 810Q847 744 946 645.50Q1045 547 1045 378Q1045 206 942 104.50Q839 3 659-16L659-208L502-208L502-17Q330 1 220 108.50Q110 216 114 424L116 429L306 429Q306 275 383.50 209.50Q461 144 574 144Q703 144 775.50 205.50Q848 267 848 376Z"  horiz-adv-x="1153" vert-adv-y="2048"  />

      
      <glyph glyph-name="uni25" unicode="&#x25;" d="M104 1176Q104 1303 186 1390Q268 1477 405 1477Q542 1477 624 1390.50Q706 1304 706 1176L706 1099Q706 972 624.50 886Q543 800 407 800Q269 800 186.50 886Q104 972 104 1099L104 1176M250 1099Q250 1025 290.50 973.50Q331 922 407 922Q480 922 520 973Q560 1024 560 1099L560 1176Q560 1250 519.50 1302.50Q479 1355 405 1355Q330 1355 290 1302.50Q250 1250 250 1176L250 1099M809 357Q809 484 891 570.50Q973 657 1110 657Q1246 657 1328.50 570.50Q1411 484 1411 357L1411 279Q1411 151 1329 65Q1247-21 1112-21Q974-21 891.50 65Q809 151 809 279L809 357M955 279Q955 204 995.50 152.50Q1036 101 1112 101Q1185 101 1225 152.50Q1265 204 1265 279L1265 357Q1265 431 1224 483Q1183 535 1110 535Q1036 535 995.50 483Q955 431 955 357L955 279M458 110L349 177L1060 1315L1169 1248L458 110Z"  horiz-adv-x="1498" vert-adv-y="2048"  />

      
      <glyph glyph-name="uni26" unicode="&#x26;" d="M64 392Q64 514 134.50 605.50Q205 697 345 789Q267 888 229 965.50Q191 1043 191 1125Q191 1294 288.50 1385.50Q386 1477 557 1477Q715 1477 814 1386Q913 1295 913 1167Q913 1069 860.50 997.50Q808 926 705 851L596 771L936 362Q977 427 1000 506Q1023 585 1023 673L1199 673Q1199 541 1160 429Q1121 317 1047 228L1232 5L1230 0L1001 0L916 102Q836 42 739 10.50Q642-21 538-21Q321-21 192.50 94Q64 209 64 392M538 133Q610 133 680 157.50Q750 182 812 228L451 663L411 634Q320 566 290.50 504Q261 442 261 392Q261 279 332 206Q403 133 538 133M388 1127Q388 1074 415 1016.50Q442 959 496 891L634 986Q691 1024 711.50 1068.50Q732 1113 732 1167Q732 1228 683.50 1275Q635 1322 557 1322Q476 1322 432 1265.50Q388 1209 388 1127Z"  horiz-adv-x="1276" vert-adv-y="2048"  />

      
      <glyph glyph-name="uni27" unicode="&#x27;" d="M278 1337L177 1055L80 1055L81 1320L81 1560L278 1560L278 1337Z"  horiz-adv-x="359" vert-adv-y="2048"  />

      
      <glyph glyph-name="uni28" unicode="&#x28;" d="M132 591Q132 985 291 1264Q450 1543 625 1636L631 1635L669 1519Q532 1412 430.50 1176Q329 940 329 593L329 580Q329 233 430-3Q531-239 669-355L631-463L625-463Q450-370 291-91.50Q132 187 132 582L132 591Z"  horiz-adv-x="679" vert-adv-y="2048"  />

      
      <glyph glyph-name="uni29" unicode="&#x29;" d="M543 582Q543 187 383.50-91.50Q224-370 50-463L44-463L6-355Q141-250 243.50-9.50Q346 231 346 580L346 593Q346 935 240.50 1176.50Q135 1418 6 1528L44 1636L50 1636Q224 1543 383.50 1264Q543 985 543 591L543 582Z"  horiz-adv-x="687" vert-adv-y="2048"  />

      
      <glyph glyph-name="uni2a" unicode="&#x2a;" d="M324 982L28 1071L77 1225L373 1114L363 1456L524 1456L514 1108L807 1218L855 1062L553 973L746 703L615 607L434 894L258 615L126 708L324 982Z"  horiz-adv-x="884" vert-adv-y="2048"  />

      
      <glyph glyph-name="uni2b" unicode="&#x2b;" d="M677 783L1076 783L1076 605L677 605L677 146L480 146L480 605L78 605L78 783L480 783L480 1206L677 1206L677 783Z"  horiz-adv-x="1162" vert-adv-y="2048"  />

      
      <glyph glyph-name="uni2c" unicode="&#x2c;" d="M315 48L165-258L48-258L118 58L118 221L315 221L315 48Z"  horiz-adv-x="404" vert-adv-y="2048"  />

      
      <glyph glyph-name="uni2d" unicode="&#x2d;" d="M525 538L35 538L35 692L525 692L525 538Z"  horiz-adv-x="561" vert-adv-y="2048"  />

      
      <glyph glyph-name="uni2e" unicode="&#x2e;" d="M358 0L161 0L161 202L358 202L358 0Z"  horiz-adv-x="548" vert-adv-y="2048"  />

      
      <glyph glyph-name="uni2f" unicode="&#x2f;" d="M184-125L16-125L624 1456L791 1456L184-125Z"  horiz-adv-x="850" vert-adv-y="2048"  />

      
      <glyph glyph-name="uni30" unicode="&#x30;" d="M1040 555Q1040 276 916.50 127.50Q793-21 578-21Q363-21 238 128Q113 277 113 555L113 900Q113 1178 237.50 1327.50Q362 1477 576 1477Q791 1477 915.50 1327.50Q1040 1178 1040 900L1040 555M843 942Q843 1131 774.50 1226.50Q706 1322 576 1322Q446 1322 378 1226.50Q310 1131 310 942L310 515Q310 326 379 229.50Q448 133 578 133Q708 133 775.50 229Q843 325 843 515L843 942Z"  horiz-adv-x="1154" vert-adv-y="2048"  />

      
      <glyph glyph-name="uni31" unicode="&#x31;" d="M681 0L484 0L484 1264L186 1260L186 1402L681 1456L681 0Z"  horiz-adv-x="1153" vert-adv-y="2048"  />

      
      <glyph glyph-name="uni32" unicode="&#x32;" d="M1062 0L118 0L118 135L595 665Q723 808 768.50 892Q814 976 814 1064Q814 1173 750.50 1247.50Q687 1322 582 1322Q431 1322 359.50 1244.50Q288 1167 288 1027L99 1027L97 1033Q92 1221 222 1349Q352 1477 582 1477Q778 1477 894.50 1362.50Q1011 1248 1011 1071Q1011 952 940.50 832.50Q870 713 743 576L360 159L362 154L1062 154L1062 0Z"  horiz-adv-x="1153" vert-adv-y="2048"  />

      
      <glyph glyph-name="uni33" unicode="&#x33;" d="M388 819L560 819Q691 819 745.50 884.50Q800 950 800 1067Q800 1192 738 1257Q676 1322 555 1322Q440 1322 370.50 1254.50Q301 1187 301 1075L112 1075L110 1081Q105 1246 229.50 1361.50Q354 1477 555 1477Q757 1477 877 1369.50Q997 1262 997 1063Q997 973 942.50 883.50Q888 794 779 747Q910 704 964.50 612Q1019 520 1019 406Q1019 207 888.50 93Q758-21 555-21Q356-21 225.50 86.50Q95 194 100 378L103 384L291 384Q291 269 361.50 201Q432 133 555 133Q680 133 751 201Q822 269 822 402Q822 537 759 601Q696 665 560 665L388 665L388 819Z"  horiz-adv-x="1153" vert-adv-y="2048"  />

      
      <glyph glyph-name="uni34" unicode="&#x34;" d="M905 490L1106 490L1106 336L905 336L905 0L709 0L709 336L55 336L55 447L697 1456L905 1456L905 490M265 490L709 490L709 1173L703 1174L684 1124L265 490Z"  horiz-adv-x="1153" vert-adv-y="2048"  />

      
      <glyph glyph-name="uni35" unicode="&#x35;" d="M175 657L259 1456L988 1456L988 1281L426 1281L378 872Q424 906 480.50 928.50Q537 951 611 953Q812 955 927.50 822Q1043 689 1043 464Q1043 245 925.50 112Q808-21 583-21Q398-21 275 80Q152 181 157 377L159 383L337 383Q337 264 405.50 198.50Q474 133 583 133Q708 133 777 221Q846 309 846 462Q846 602 776 692Q706 782 583 782Q467 782 415 747Q363 712 339 640L175 657Z"  horiz-adv-x="1153" vert-adv-y="2048"  />

      
      <glyph glyph-name="uni36" unicode="&#x36;" d="M675 1477Q750 1477 823.50 1460Q897 1443 945 1417L903 1266Q854 1291 800.50 1306.50Q747 1322 675 1322Q519 1322 423.50 1197Q328 1072 328 871L328 848Q392 904 474.50 935.50Q557 967 652 967Q847 967 963 832Q1079 697 1079 490Q1079 264 955.50 121.50Q832-21 626-21Q412-21 272 134Q132 289 132 571L132 849Q132 1129 288 1303Q444 1477 675 1477M608 820Q507 820 436 779Q365 738 328 670L328 552Q328 351 413 242Q498 133 626 133Q747 133 814.50 235.50Q882 338 882 490Q882 634 809.50 727Q737 820 608 820Z"  horiz-adv-x="1153" vert-adv-y="2048"  />

      
      <glyph glyph-name="uni37" unicode="&#x37;" d="M1062 1301Q798 987 705.50 744.50Q613 502 572 157L556 0L359 0L375 157Q417 501 538 772Q659 1043 869 1301L77 1301L77 1456L1062 1456L1062 1301Z"  horiz-adv-x="1153" vert-adv-y="2048"  />

      
      <glyph glyph-name="uni38" unicode="&#x38;" d="M1010 1076Q1010 962 946 876.50Q882 791 773 749Q899 705 974.50 611Q1050 517 1050 394Q1050 192 918.50 85.50Q787-21 577-21Q363-21 232.50 85.50Q102 192 102 394Q102 517 176 611Q250 705 376 749Q267 791 205 876.50Q143 962 143 1076Q143 1268 261.50 1372.50Q380 1477 575 1477Q767 1477 888.50 1372.50Q1010 1268 1010 1076M854 398Q854 518 775 595Q696 672 575 672Q452 672 375.50 595Q299 518 299 398Q299 274 375 203.50Q451 133 577 133Q700 133 777 204Q854 275 854 398M813 1072Q813 1180 745.50 1251Q678 1322 575 1322Q470 1322 405 1253.50Q340 1185 340 1072Q340 961 405.50 894Q471 827 577 827Q681 827 747 894Q813 961 813 1072Z"  horiz-adv-x="1153" vert-adv-y="2048"  />

      
      <glyph glyph-name="uni39" unicode="&#x39;" d="M511 133Q655 133 741.50 242Q828 351 828 566L828 632Q779 561 705.50 524.50Q632 488 542 488Q331 488 207 618.50Q83 749 83 978Q83 1197 214.50 1337Q346 1477 534 1477Q762 1477 893.50 1334.50Q1025 1192 1025 915L1025 568Q1025 283 882.50 131Q740-21 511-21Q434-21 354.50-6.50Q275 8 212 38L242 189Q301 158 364.50 145.50Q428 133 511 133M542 642Q651 642 723.50 689Q796 736 828 809L828 935Q828 1126 754.50 1224Q681 1322 540 1322Q432 1322 356 1225.50Q280 1129 280 978Q280 828 350.50 735Q421 642 542 642Z"  horiz-adv-x="1153" vert-adv-y="2048"  />

      
      <glyph glyph-name="uni3a" unicode="&#x3a;" d="M358 0L161 0L161 202L358 202L358 0M358 876L161 876L161 1078L358 1078L358 876Z"  horiz-adv-x="517" vert-adv-y="2048"  />

      
      <glyph glyph-name="uni3b" unicode="&#x3b;" d="M359 876L162 876L162 1078L359 1078L359 876M366 48L216-258L99-258L169 58L169 221L366 221L366 48Z"  horiz-adv-x="525" vert-adv-y="2048"  />

      
      <glyph glyph-name="uni3c" unicode="&#x3c;" d="M328 559L243 541L243 535L328 516L887 288L887 87L71 466L71 615L887 993L887 792L328 559Z"  horiz-adv-x="1040" vert-adv-y="2048"  />

      
      <glyph glyph-name="uni3d" unicode="&#x3d;" d="M986 823L152 823L152 987L986 987L986 823M986 407L152 407L152 571L986 571L986 407Z"  horiz-adv-x="1153" vert-adv-y="2048"  />

      
      <glyph glyph-name="uni3e" unicode="&#x3e;" d="M136 798L136 993L992 615L992 466L136 87L136 283L734 521L819 538L819 544L734 564L136 798Z"  horiz-adv-x="1072" vert-adv-y="2048"  />

      
      <glyph glyph-name="uni3f" unicode="&#x3f;" d="M355 410Q356 555 380 611Q404 667 506 759Q605 876 647 939Q689 1002 689 1091Q689 1197 632.50 1254Q576 1311 471 1311Q380 1311 316 1261.50Q252 1212 252 1116L64 1116L61 1122Q58 1283 174.50 1380Q291 1477 471 1477Q668 1477 777 1376.50Q886 1276 886 1096Q886 967 815.50 860Q745 753 629 641Q575 587 563.50 544Q552 501 552 410L355 410M559 0L353 0L353 208L559 208L559 0Z"  horiz-adv-x="974" vert-adv-y="2048"  />

      
      <glyph glyph-name="uni40" unicode="&#x40;" d="M1732 502Q1723 288 1612 133.50Q1501-21 1280-21Q1207-21 1154 20.50Q1101 62 1078 138Q1028 58 956 18.50Q884-21 788-21Q663-21 594 99.50Q525 220 543 416Q566 675 680.50 831.50Q795 988 960 988Q1065 988 1129 962Q1193 936 1268 882L1264 878L1270 878L1219 293Q1210 183 1240.50 141.50Q1271 100 1322 100Q1445 100 1519 213.50Q1593 327 1601 502Q1617 884 1457 1097.50Q1297 1311 961 1311Q653 1311 465.50 1080Q278 849 263 478Q245 102 413-116.50Q581-335 895-335Q983-335 1073.50-313.50Q1164-292 1226-257L1264-364Q1197-406 1093.50-429.50Q990-453 891-453Q511-453 303.50-203.50Q96 46 114 478Q133 901 363 1166Q593 1431 965 1431Q1344 1431 1546.50 1181Q1749 931 1732 502M720 416Q709 274 741.50 200Q774 126 848 126Q912 126 965 150.50Q1018 175 1062 238Q1061 250 1061.50 263.50Q1062 277 1064 293L1111 831Q1085 843 1056.50 850Q1028 857 997 857Q872 857 806 747.50Q740 638 720 416Z"  horiz-adv-x="1833" vert-adv-y="2048"  />

      
      <glyph glyph-name="uni41" unicode="&#x41;" d="M969 375L359 375L221 0L20 0L583 1456L752 1456L1306 0L1105 0L969 375M420 540L910 540L670 1203L664 1203L420 540Z"  horiz-adv-x="1326" vert-adv-y="2048"  />

      
      <glyph glyph-name="uni42" unicode="&#x42;" d="M180 0L180 1456L655 1456Q883 1456 1012 1357.50Q1141 1259 1141 1062Q1141 965 1079 888.50Q1017 812 916 775Q1048 747 1123.50 646Q1199 545 1199 411Q1199 211 1069.50 105.50Q940 0 718 0L180 0M377 683L377 154L718 154Q852 154 927 220.50Q1002 287 1002 409Q1002 537 939.50 610Q877 683 747 683L377 683M377 837L696 837Q806 837 875 897.50Q944 958 944 1066Q944 1184 869.50 1242.50Q795 1301 655 1301L377 1301L377 837Z"  horiz-adv-x="1309" vert-adv-y="2048"  />

      
      <glyph glyph-name="uni43" unicode="&#x43;" d="M1209 466L1211 460Q1215 255 1067 117Q919-21 676-21Q429-21 273.50 154Q118 329 118 598L118 857Q118 1126 273.50 1301.50Q429 1477 676 1477Q923 1477 1069 1345.50Q1215 1214 1211 997L1209 991L1020 991Q1020 1144 930 1233Q840 1322 676 1322Q511 1322 413 1189Q315 1056 315 859L315 598Q315 399 413 266Q511 133 676 133Q840 133 930 221.50Q1020 310 1020 466L1209 466Z"  horiz-adv-x="1297" vert-adv-y="2048"  />

      
      <glyph glyph-name="uni44" unicode="&#x44;" d="M180 0L180 1456L627 1456Q913 1456 1086 1280.50Q1259 1105 1259 827L1259 628Q1259 349 1086 174.50Q913 0 627 0L180 0M377 1301L377 154L627 154Q829 154 945.50 287Q1062 420 1062 628L1062 829Q1062 1035 945.50 1168Q829 1301 627 1301L377 1301Z"  horiz-adv-x="1349" vert-adv-y="2048"  />

      
      <glyph glyph-name="uni45" unicode="&#x45;" d="M1044 675L377 675L377 154L1146 154L1146 0L180 0L180 1456L1135 1456L1135 1301L377 1301L377 830L1044 830L1044 675Z"  horiz-adv-x="1197" vert-adv-y="2048"  />

      
      <glyph glyph-name="uni46" unicode="&#x46;" d="M1041 644L377 644L377 0L180 0L180 1456L1143 1456L1143 1301L377 1301L377 799L1041 799L1041 644Z"  horiz-adv-x="1193" vert-adv-y="2048"  />

      
      <glyph glyph-name="uni47" unicode="&#x47;" d="M1235 193Q1183 113 1054.50 46Q926-21 722-21Q461-21 290.50 146Q120 313 120 578L120 878Q120 1143 279 1310Q438 1477 689 1477Q939 1477 1082 1354Q1225 1231 1228 1037L1226 1031L1038 1031Q1029 1158 941.50 1240Q854 1322 689 1322Q522 1322 420 1197Q318 1072 318 880L318 578Q318 384 432 258.50Q546 133 722 133Q846 133 925 166Q1004 199 1038 241L1038 572L719 572L719 727L1235 727L1235 193Z"  horiz-adv-x="1396" vert-adv-y="2048"  />

      
      <glyph glyph-name="uni48" unicode="&#x48;" d="M1281 0L1084 0L1084 643L377 643L377 0L180 0L180 1456L377 1456L377 798L1084 798L1084 1456L1281 1456L1281 0Z"  horiz-adv-x="1461" vert-adv-y="2048"  />

      
      <glyph glyph-name="uni49" unicode="&#x49;" d="M388 0L190 0L190 1456L388 1456L388 0Z"  horiz-adv-x="579" vert-adv-y="2048"  />

      
      <glyph glyph-name="uni4a" unicode="&#x4a;" d="M766 1456L963 1456L963 403Q963 208 839.50 93.50Q716-21 519-21Q309-21 185 85.50Q61 192 66 395L68 401L257 401Q257 266 325.50 199.50Q394 133 519 133Q628 133 697 206.50Q766 280 766 403L766 1456Z"  horiz-adv-x="1130" vert-adv-y="2048"  />

      
      <glyph glyph-name="uni4b" unicode="&#x4b;" d="M547 657L377 657L377 0L180 0L180 1456L377 1456L377 812L529 812L1050 1456L1268 1456L1271 1451L706 752L1312 5L1309 0L1074 0L547 657Z"  horiz-adv-x="1317" vert-adv-y="2048"  />

      
      <glyph glyph-name="uni4c" unicode="&#x4c;" d="M377 154L1066 154L1066 0L180 0L180 1456L377 1456L377 154Z"  horiz-adv-x="1106" vert-adv-y="2048"  />

      
      <glyph glyph-name="uni4d" unicode="&#x4d;" d="M432 1456L896 273L902 273L1366 1456L1618 1456L1618 0L1421 0L1421 576L1441 1168L1436 1169L964 0L833 0L363 1166L358 1165L377 576L377 0L180 0L180 1456L432 1456Z"  horiz-adv-x="1799" vert-adv-y="2048"  />

      
      <glyph glyph-name="uni4e" unicode="&#x4e;" d="M1281 0L1084 0L383 1126L377 1124L377 0L180 0L180 1456L377 1456L1078 332L1084 334L1084 1456L1281 1456L1281 0Z"  horiz-adv-x="1461" vert-adv-y="2048"  />

      
      <glyph glyph-name="uni4f" unicode="&#x4f;" d="M1282 598Q1282 331 1116.50 155Q951-21 687-21Q432-21 272.50 155Q113 331 113 598L113 857Q113 1123 272.50 1300Q432 1477 687 1477Q951 1477 1116.50 1300.50Q1282 1124 1282 857L1282 598M1085 859Q1085 1059 977 1187Q869 1315 687 1315Q515 1315 412.50 1187Q310 1059 310 859L310 598Q310 396 412.50 268Q515 140 687 140Q870 140 977.50 267.50Q1085 395 1085 598L1085 859Z"  horiz-adv-x="1396" vert-adv-y="2048"  />

      
      <glyph glyph-name="uni50" unicode="&#x50;" d="M377 584L377 0L180 0L180 1456L737 1456Q970 1456 1099 1336Q1228 1216 1228 1020Q1228 821 1099 702.50Q970 584 737 584L377 584M377 738L737 738Q885 738 958 817.50Q1031 897 1031 1018Q1031 1139 957.50 1220Q884 1301 737 1301L377 1301L377 738Z"  horiz-adv-x="1312" vert-adv-y="2048"  />

      
      <glyph glyph-name="uni51" unicode="&#x51;" d="M1282 598Q1282 456 1232 335Q1182 214 1092 130L1339-103L1204-232L928 25Q872 2 811.50-9.50Q751-21 687-21Q432-21 272.50 155Q113 331 113 598L113 857Q113 1123 272.50 1300Q432 1477 687 1477Q951 1477 1116.50 1300.50Q1282 1124 1282 857L1282 598M1085 859Q1085 1059 977 1187Q869 1315 687 1315Q515 1315 412.50 1187Q310 1059 310 859L310 598Q310 396 412.50 268Q515 140 687 140Q870 140 977.50 267.50Q1085 395 1085 598L1085 859Z"  horiz-adv-x="1396" vert-adv-y="2048"  />

      
      <glyph glyph-name="uni52" unicode="&#x52;" d="M377 631L377 0L180 0L180 1455L707 1455Q946 1455 1072 1349Q1198 1243 1198 1041Q1198 929 1139.50 846Q1081 763 969 714Q1089 675 1141.50 587.50Q1194 500 1194 371L1194 234Q1194 166 1209 112Q1224 58 1261 24L1261 0L1058 0Q1019 34 1008 100Q997 166 997 236L997 369Q997 487 928 559Q859 631 743 631L377 631M377 786L687 786Q854 786 927.50 849.50Q1001 913 1001 1043Q1001 1166 929.50 1233.50Q858 1301 707 1301L377 1301L377 786Z"  horiz-adv-x="1357" vert-adv-y="2048"  />

      
      <glyph glyph-name="uni53" unicode="&#x53;" d="M973 367Q973 467 898 534.50Q823 602 632 648Q401 703 271.50 810Q142 917 142 1079Q142 1249 281.50 1363Q421 1477 643 1477Q882 1477 1023.50 1346Q1165 1215 1160 1042L1158 1036L970 1036Q970 1164 885.50 1243Q801 1322 643 1322Q496 1322 417.50 1255.50Q339 1189 339 1082Q339 987 424 923.50Q509 860 700 812Q930 755 1050 644Q1170 533 1170 369Q1170 193 1026 86Q882-21 650-21Q432-21 264.50 97Q97 215 102 413L104 419L292 419Q292 279 395 206Q498 133 650 133Q799 133 886 196Q973 259 973 367Z"  horiz-adv-x="1277" vert-adv-y="2048"  />

      
      <glyph glyph-name="uni54" unicode="&#x54;" d="M1166 1301L698 1301L698 0L501 0L501 1301L34 1301L34 1456L1166 1456L1166 1301Z"  horiz-adv-x="1200" vert-adv-y="2048"  />

      
      <glyph glyph-name="uni55" unicode="&#x55;" d="M1244 1456L1244 469Q1244 231 1089.50 105Q935-21 686-21Q446-21 296.50 105.50Q147 232 147 469L147 1456L344 1456L344 469Q344 304 438 218.50Q532 133 686 133Q848 133 947.50 218.50Q1047 304 1047 469L1047 1456L1244 1456Z"  horiz-adv-x="1386" vert-adv-y="2048"  />

      
      <glyph glyph-name="uni56" unicode="&#x56;" d="M612 362L645 247L651 247L684 362L1060 1456L1273 1456L732 0L563 0L22 1456L236 1456L612 362Z"  horiz-adv-x="1295" vert-adv-y="2048"  />

      
      <glyph glyph-name="uni57" unicode="&#x57;" d="M472 504L499 322L505 321L544 504L811 1456L985 1456L1254 504L1294 317L1300 317L1329 504L1546 1456L1743 1456L1392 0L1216 0L929 1010L903 1141L897 1141L872 1010L580 0L404 0L54 1456L250 1456L472 504Z"  horiz-adv-x="1809" vert-adv-y="2048"  />

      
      <glyph glyph-name="uni58" unicode="&#x58;" d="M650 888L990 1456L1228 1456L766 734L1238 0L1003 0L654 578L304 0L66 0L538 734L76 1456L312 1456L650 888Z"  horiz-adv-x="1295" vert-adv-y="2048"  />

      
      <glyph glyph-name="uni59" unicode="&#x59;" d="M625 716L1005 1456L1230 1456L719 512L719 0L523 0L523 525L20 1456L245 1456L625 716Z"  horiz-adv-x="1250" vert-adv-y="2048"  />

      
      <glyph glyph-name="uni5a" unicode="&#x5a;" d="M319 154L1133 154L1133 0L97 0L97 146L875 1301L108 1301L108 1456L1100 1456L1100 1315L319 154Z"  horiz-adv-x="1225" vert-adv-y="2048"  />

      
      <glyph glyph-name="uni5b" unicode="&#x5b;" d="M528 1509L340 1509L340-157L528-157L528-312L143-312L143 1664L528 1664L528 1509Z"  horiz-adv-x="552" vert-adv-y="2048"  />

      
      <glyph glyph-name="uni5c" unicode="&#x5c;" d="M39 1456L225 1456L833-125L647-125L39 1456Z"  horiz-adv-x="846" vert-adv-y="2048"  />

      
      <glyph glyph-name="uni5d" unicode="&#x5d;" d="M11 1664L397 1664L397-312L11-312L11-157L200-157L200 1509L11 1509L11 1664Z"  horiz-adv-x="552" vert-adv-y="2048"  />

      
      <glyph glyph-name="uni5e" unicode="&#x5e;" d="M244 729L61 729L360 1456L494 1456L792 729L611 729L445 1148L429 1218L423 1218L407 1148L244 729Z"  horiz-adv-x="856" vert-adv-y="2048"  />

      
      <glyph glyph-name="uni5f" unicode="&#x5f;" d="M927-154L4-154L4 0L927 0L927-154Z"  horiz-adv-x="931" vert-adv-y="2048"  />

      
      <glyph glyph-name="uni60" unicode="&#x60;" d="M490 1211L332 1211L82 1471L85 1477L315 1477L490 1211Z"  horiz-adv-x="641" vert-adv-y="2048"  />

      
      <glyph glyph-name="uni61" unicode="&#x61;" d="M808 0Q798 49 792.50 86.50Q787 124 786 162Q731 84 642.50 31.50Q554-21 452-21Q283-21 194.50 65.50Q106 152 106 304Q106 459 231.50 546.50Q357 634 572 634L786 634L786 741Q786 836 728 891.50Q670 947 564 947Q469 947 409.50 898.50Q350 850 350 782L162 782L160 788Q154 906 271.50 1004Q389 1102 575 1102Q759 1102 871 1008.50Q983 915 983 739L983 218Q983 160 989 106Q995 52 1011 0L808 0M481 144Q588 144 674 199Q760 254 786 325L786 501L565 501Q446 501 374.50 441Q303 381 303 300Q303 228 348 186Q393 144 481 144Z"  horiz-adv-x="1126" vert-adv-y="2048"  />

      
      <glyph glyph-name="uni62" unicode="&#x62;" d="M1067 500Q1067 266 954.50 122.50Q842-21 645-21Q538-21 459 20.50Q380 62 328 143L304 0L143 0L143 1560L340 1560L340 954Q391 1026 466.50 1064Q542 1102 643 1102Q843 1102 955 942Q1067 782 1067 521L1067 500M870 521Q870 707 801.50 824.50Q733 942 593 942Q502 942 439.50 897.50Q377 853 340 778L340 309Q378 229 439.50 184Q501 139 595 139Q734 139 802 238Q870 337 870 500L870 521Z"  horiz-adv-x="1164" vert-adv-y="2048"  />

      
      <glyph glyph-name="uni63" unicode="&#x63;" d="M583 133Q681 133 755.50 193.50Q830 254 830 342L1007 342L1009 336Q1014 196 884.50 87.50Q755-21 583-21Q347-21 222 133Q97 287 97 520L97 562Q97 793 222.50 947.50Q348 1102 583 1102Q773 1102 893.50 990Q1014 878 1010 715L1008 709L830 709Q830 808 760 877.50Q690 947 583 947Q428 947 361.50 835.50Q295 724 295 562L295 520Q295 354 361 243.50Q427 133 583 133Z"  horiz-adv-x="1087" vert-adv-y="2048"  />

      
      <glyph glyph-name="uni64" unicode="&#x64;" d="M98 521Q98 782 209.50 942Q321 1102 522 1102Q617 1102 690.50 1067Q764 1032 816 965L816 1560L1013 1560L1013 0L852 0L829 133Q776 57 699 18Q622-21 520-21Q322-21 210 122.50Q98 266 98 500L98 521M295 500Q295 336 362 237.50Q429 139 570 139Q658 139 718 179Q778 219 816 291L816 796Q778 863 717.50 902.50Q657 942 572 942Q430 942 362.50 825Q295 708 295 521L295 500Z"  horiz-adv-x="1164" vert-adv-y="2048"  />

      
      <glyph glyph-name="uni65" unicode="&#x65;" d="M592-21Q366-21 232.50 129.50Q99 280 99 520L99 564Q99 795 236.50 948.50Q374 1102 562 1102Q781 1102 893 970Q1005 838 1005 618L1005 495L303 495L300 490Q303 334 379 233.50Q455 133 592 133Q692 133 767.50 161.50Q843 190 898 240L975 112Q917 55 822 17Q727-21 592-21M562 947Q463 947 393 863.50Q323 780 307 654L309 649L808 649L808 675Q808 791 746 869Q684 947 562 947Z"  horiz-adv-x="1083" vert-adv-y="2048"  />

      
      <glyph glyph-name="uni66" unicode="&#x66;" d="M225 0L225 936L56 936L56 1082L225 1082L225 1219Q225 1392 315.50 1486.50Q406 1581 568 1581Q602 1581 636.50 1575.50Q671 1570 713 1560L689 1410Q671 1414 645.50 1417Q620 1420 592 1420Q506 1420 464 1368.50Q422 1317 422 1219L422 1082L647 1082L647 936L422 936L422 0L225 0Z"  horiz-adv-x="707" vert-adv-y="2048"  />

      
      <glyph glyph-name="uni67" unicode="&#x67;" d="M100 521Q100 782 214 942Q328 1102 529 1102Q632 1102 710 1060.50Q788 1019 840 941L864 1082L1021 1082L1021-6Q1021-214 900-325.50Q779-437 551-437Q473-437 382.50-415.50Q292-394 223-357L273-204Q326-234 401-252.50Q476-271 549-271Q693-271 758.50-205.50Q824-140 824-6L824 116Q771 48 697 13.50Q623-21 527-21Q328-21 214 123Q100 267 100 500L100 521M297 500Q297 337 366 238Q435 139 576 139Q665 139 725 179.50Q785 220 824 294L824 792Q786 861 725 901.50Q664 942 578 942Q437 942 367 824Q297 706 297 521L297 500Z"  horiz-adv-x="1164" vert-adv-y="2048"  />

      
      <glyph glyph-name="uni68" unicode="&#x68;" d="M340 937Q396 1015 477.50 1058.50Q559 1102 658 1102Q831 1102 927.50 998Q1024 894 1024 678L1024 0L827 0L827 680Q827 814 769.50 878Q712 942 598 942Q516 942 449.50 903.50Q383 865 340 799L340 0L143 0L143 1560L340 1560L340 937Z"  horiz-adv-x="1164" vert-adv-y="2048"  />

      
      <glyph glyph-name="uni69" unicode="&#x69;" d="M356 0L159 0L159 1082L356 1082L356 0M356 1359L159 1359L159 1560L356 1560L356 1359Z"  horiz-adv-x="516" vert-adv-y="2048"  />

      
      <glyph glyph-name="uni6a" unicode="&#x6a;" d="M370 1082L370-89Q370-256 284-346.50Q198-437 45-437Q14-437-11.50-432.50Q-37-428-66-419L-52-264Q-38-269-12-272.50Q14-276 31-276Q96-276 134.50-232Q173-188 173-89L173 1082L370 1082M364 1363L167 1363L167 1560L364 1560L364 1363Z"  horiz-adv-x="530" vert-adv-y="2048"  />

      
      <glyph glyph-name="uni6b" unicode="&#x6b;" d="M469 499L341 499L341 0L144 0L144 1560L341 1560L341 656L467 656L763 1082L999 1082L629 590L1052 0L820 0L469 499Z"  horiz-adv-x="1050" vert-adv-y="2048"  />

      
      <glyph glyph-name="uni6c" unicode="&#x6c;" d="M356 0L159 0L159 1560L356 1560L356 0Z"  horiz-adv-x="516" vert-adv-y="2048"  />

      
      <glyph glyph-name="uni6d" unicode="&#x6d;" d="M319 1082L333 940Q386 1017 467.50 1059.50Q549 1102 657 1102Q765 1102 842.50 1052Q920 1002 959 902Q1010 994 1094 1048Q1178 1102 1290 1102Q1455 1102 1551 988.50Q1647 875 1647 647L1647 0L1450 0L1450 649Q1450 809 1395 875.50Q1340 942 1231 942Q1130 942 1067.50 872Q1005 802 994 695L994 687L994 0L796 0L796 649Q796 801 739.50 871.50Q683 942 577 942Q487 942 429 905Q371 868 340 801L340 0L143 0L143 1082L319 1082Z"  horiz-adv-x="1790" vert-adv-y="2048"  />

      
      <glyph glyph-name="uni6e" unicode="&#x6e;" d="M319 1082L333 921Q387 1007 468.50 1054.50Q550 1102 654 1102Q829 1102 925 999.50Q1021 897 1021 683L1021 0L824 0L824 679Q824 822 767.50 882Q711 942 595 942Q510 942 444.50 901Q379 860 340 789L340 0L143 0L143 1082L319 1082Z"  horiz-adv-x="1164" vert-adv-y="2048"  />

      
      <glyph glyph-name="uni6f" unicode="&#x6f;" d="M97 551Q97 791 227 946.50Q357 1102 580 1102Q805 1102 935.50 947Q1066 792 1066 551L1066 529Q1066 287 936 133Q806-21 582-21Q358-21 227.50 133.50Q97 288 97 529L97 551M294 529Q294 357 366.50 245Q439 133 582 133Q723 133 796 245Q869 357 869 529L869 551Q869 721 795.50 834Q722 947 580 947Q439 947 366.50 834Q294 721 294 551L294 529Z"  horiz-adv-x="1164" vert-adv-y="2048"  />

      
      <glyph glyph-name="uni70" unicode="&#x70;" d="M1065 500Q1065 266 953 122.50Q841-21 644-21Q544-21 468.50 12.50Q393 46 340 113L340-416L143-416L143 1082L294 1082L325 942Q378 1020 457 1061Q536 1102 641 1102Q842 1102 953.50 942.50Q1065 783 1065 521L1065 500M868 521Q868 705 795.50 823.50Q723 942 582 942Q497 942 437 903.50Q377 865 340 798L340 275Q377 208 437 170.50Q497 133 584 133Q724 133 796 235.50Q868 338 868 500L868 521Z"  horiz-adv-x="1164" vert-adv-y="2048"  />

      
      <glyph glyph-name="uni71" unicode="&#x71;" d="M98 521Q98 782 209.50 942Q321 1102 522 1102Q621 1102 696 1064.50Q771 1027 823 955L852 1082L1002 1082L1002-416L805-416L805 102Q753 41 682 10Q611-21 520-21Q322-21 210 122.50Q98 266 98 500L98 521M295 500Q295 336 362.50 234.50Q430 133 570 133Q651 133 708.50 169Q766 205 805 270L805 816Q766 877 708.50 912Q651 947 572 947Q431 947 363 827.50Q295 708 295 521L295 500Z"  horiz-adv-x="1164" vert-adv-y="2048"  />

      
      <glyph glyph-name="uni72" unicode="&#x72;" d="M655 908L554 914Q476 914 422.50 877Q369 840 340 773L340 0L143 0L143 1082L319 1082L338 924Q384 1008 451.50 1055Q519 1102 607 1102Q629 1102 649 1098.50Q669 1095 682 1091L655 908Z"  horiz-adv-x="702" vert-adv-y="2048"  />

      
      <glyph glyph-name="uni73" unicode="&#x73;" d="M772 287Q772 352 722.50 394Q673 436 535 467Q338 510 238.50 583.50Q139 657 139 784Q139 916 251 1009Q363 1102 543 1102Q732 1102 843.50 1005Q955 908 950 769L948 763L760 763Q760 834 700.50 890.50Q641 947 543 947Q438 947 387 901Q336 855 336 790Q336 726 381 689Q426 652 564 623Q769 579 869 503.50Q969 428 969 301Q969 157 852.50 68Q736-21 548-21Q341-21 222 84Q103 189 109 329L111 335L299 335Q304 230 377 181.50Q450 133 548 133Q653 133 712.50 175.50Q772 218 772 287Z"  horiz-adv-x="1071" vert-adv-y="2048"  />

      
      <glyph glyph-name="uni74" unicode="&#x74;" d="M403 1343L403 1082L608 1082L608 936L403 936L403 279Q403 203 434.50 172Q466 141 518 141Q535 141 555.50 145Q576 149 592 155L618 20Q596 2 553.50-9.50Q511-21 468-21Q348-21 277 51.50Q206 124 206 279L206 936L34 936L34 1082L206 1082L206 1343L403 1343Z"  horiz-adv-x="708" vert-adv-y="2048"  />

      
      <glyph glyph-name="uni75" unicode="&#x75;" d="M830 160Q779 73 699 26Q619-21 514-21Q337-21 238 92Q139 205 139 444L139 1082L336 1082L336 442Q336 269 387 204Q438 139 546 139Q651 139 719.50 181.50Q788 224 823 302L823 1082L1020 1082L1020 0L843 0L830 160Z"  horiz-adv-x="1164" vert-adv-y="2048"  />

      
      <glyph glyph-name="uni76" unicode="&#x76;" d="M504 319L521 243L527 243L546 319L795 1082L996 1082L598 0L449 0L46 1082L248 1082L504 319Z"  horiz-adv-x="1030" vert-adv-y="2048"  />

      
      <glyph glyph-name="uni77" unicode="&#x77;" d="M420 394L443 263L449 263L477 394L693 1082L851 1082L1068 394L1099 248L1105 248L1134 394L1304 1082L1500 1082L1186 0L1027 0L818 659L773 843L767 842L724 659L518 0L359 0L45 1082L241 1082L420 394Z"  horiz-adv-x="1550" vert-adv-y="2048"  />

      
      <glyph glyph-name="uni78" unicode="&#x78;" d="M510 683L740 1082L970 1082L619 547L980 0L754 0L514 409L274 0L46 0L407 547L56 1082L283 1082L510 683Z"  horiz-adv-x="1030" vert-adv-y="2048"  />

      
      <glyph glyph-name="uni79" unicode="&#x79;" d="M474 401L509 265L515 265L781 1082L1000 1082L545-166Q504-275 427.50-356Q351-437 221-437Q197-437 160-431.50Q123-426 103-421L123-266Q117-265 158.50-268Q200-271 211-271Q274-271 314-215Q354-159 381-91L428 22L26 1082L246 1082L474 401Z"  horiz-adv-x="1030" vert-adv-y="2048"  />

      
      <glyph glyph-name="uni7a" unicode="&#x7a;" d="M329 154L954 154L954 0L94 0L94 138L679 926L101 926L101 1082L920 1082L920 948L329 154Z"  horiz-adv-x="1030" vert-adv-y="2048"  />

      
      <glyph glyph-name="uni7b" unicode="&#x7b;" d="M631-364Q436-309 354-189Q272-69 272 101L272 306Q272 418 220.50 480.50Q169 543 63 543L63 690Q169 690 220.50 751.50Q272 813 272 926L272 1132Q272 1303 354 1422.50Q436 1542 631 1597L671 1480Q561 1445 515 1354.50Q469 1264 469 1132L469 926Q469 821 426.50 741Q384 661 299 616Q384 570 426.50 489.50Q469 409 469 306L469 101Q469-31 515-120.50Q561-210 671-246L631-364Z"  horiz-adv-x="696" vert-adv-y="2048"  />

      
      <glyph glyph-name="uni7c" unicode="&#x7c;" d="M333-270L175-270L175 1456L333 1456L333-270Z"  horiz-adv-x="507" vert-adv-y="2048"  />

      
      <glyph glyph-name="uni7d" unicode="&#x7d;" d="M21-246Q130-210 177-120.50Q224-31 224 101L224 306Q224 413 269 493Q314 573 408 616Q314 657 269 737Q224 817 224 926L224 1132Q224 1264 177 1354.50Q130 1445 21 1480L62 1597Q256 1542 338.50 1422.50Q421 1303 421 1132L421 926Q421 813 471.50 751.50Q522 690 630 690L630 543Q522 543 471.50 480.50Q421 418 421 306L421 101Q421-69 338.50-189Q256-309 62-364L21-246Z"  horiz-adv-x="696" vert-adv-y="2048"  />

      
      <glyph glyph-name="uni7e" unicode="&#x7e;" d="M1264 740Q1264 603 1177 502Q1090 401 960 401Q870 401 796.50 434Q723 467 638 541Q579 589 530 613Q481 637 431 637Q364 637 316.50 584Q269 531 269 456L128 474Q128 610 213.50 706.50Q299 803 431 803Q519 803 594 768.50Q669 734 754 664Q812 613 860 590Q908 567 960 567Q1026 567 1074.50 624Q1123 681 1123 758L1264 740Z"  horiz-adv-x="1391" vert-adv-y="2048"  />

      
      <glyph glyph-name="unia1" unicode="&#xa1;" d="M341-374L144-374L144 604L341 604L341-374M341 876L144 876L144 1082L341 1082L341 876Z"  horiz-adv-x="507" vert-adv-y="2048"  />

      
      <glyph glyph-name="unia2" unicode="&#xa2;" d="M593 133Q691 133 765.50 193.50Q840 254 840 342L1018 342L1021 336Q1024 214 923 113Q822 12 676-13L676-245L478-245L478-9Q296 27 201.50 173Q107 319 107 520L107 562Q107 761 202 906.50Q297 1052 478 1090L478 1318L676 1318L676 1095Q833 1071 928.50 964.50Q1024 858 1021 714L1019 709L840 709Q840 808 770 877.50Q700 947 593 947Q438 947 371.50 835.50Q305 724 305 562L305 520Q305 354 371 243.50Q437 133 593 133Z"  horiz-adv-x="1122" vert-adv-y="2048"  />

      
      <glyph glyph-name="unia3" unicode="&#xa3;" d="M430 615L436 466Q436 376 420.50 294.50Q405 213 376 154L1111 154L1110 0L134 0L134 154L144 154Q192 167 216 265Q240 363 240 466L234 615L70 615L70 770L228 770L218 1040Q218 1244 330 1360.50Q442 1477 630 1477Q830 1477 940 1372.50Q1050 1268 1046 1096L1044 1090L854 1090Q854 1208 791 1265Q728 1322 630 1322Q531 1322 473 1247.50Q415 1173 415 1040L425 770L843 770L843 615L430 615Z"  horiz-adv-x="1194" vert-adv-y="2048"  />

      
      <glyph glyph-name="unia4" unicode="&#xa4;" d="M1097 108Q1020 46 927.50 13Q835-20 734-20Q633-20 540.50 12.50Q448 45 373 106L243-26L104 112L242 252Q192 328 165.50 418.50Q139 509 139 608Q139 710 167.50 804Q196 898 250 976L104 1125L243 1264L386 1118Q460 1173 549 1203.50Q638 1234 734 1234Q831 1234 920 1203Q1009 1172 1084 1116L1230 1265L1370 1125L1220 972Q1272 894 1300.50 801.50Q1329 709 1329 608Q1329 510 1302.50 420.50Q1276 331 1228 255L1370 112L1230-27L1097 108M321 608Q321 420 441.50 287.50Q562 155 734 155Q904 155 1024.50 287.50Q1145 420 1145 608Q1145 794 1024.50 926Q904 1058 734 1058Q562 1058 441.50 926Q321 794 321 608Z"  horiz-adv-x="1456" vert-adv-y="2048"  />

      
      <glyph glyph-name="unia5" unicode="&#xa5;" d="M615 793L975 1456L1199 1456L781 738L1093 738L1093 583L710 583L710 448L1093 448L1093 293L710 293L710 0L513 0L513 293L138 293L138 448L513 448L513 583L138 583L138 738L449 738L30 1456L256 1456L615 793Z"  horiz-adv-x="1243" vert-adv-y="2048"  />

      
      <glyph glyph-name="unia6" unicode="&#xa6;" d="M145-270L145 522L342 522L342-270L145-270M342 698L145 698L145 1456L342 1456L342 698Z"  horiz-adv-x="499" vert-adv-y="2048"  />

      
      <glyph glyph-name="unia7" unicode="&#xa7;" d="M1148 431Q1148 337 1100 267Q1052 197 965 157Q1034 106 1069 38Q1104-30 1104-128Q1104-300 971-397.50Q838-495 613-495Q392-495 241-392.50Q90-290 95-70L97-64L285-62Q285-205 381.50-272.50Q478-340 613-340Q750-340 828.50-280.50Q907-221 907-130Q907-39 835 11.50Q763 62 559 125Q320 188 207 281Q94 374 94 551Q94 642 141 712.50Q188 783 275 824Q207 874 173 943.50Q139 1013 139 1110Q139 1276 273 1376.50Q407 1477 631 1477Q864 1477 994 1365.50Q1124 1254 1120 1052L1117 1046L929 1046Q929 1164 850 1243Q771 1322 631 1322Q486 1322 411 1262.50Q336 1203 336 1112Q336 1013 403 963.50Q470 914 681 856Q925 787 1036.50 696.50Q1148 606 1148 431M603 689Q556 701 514.50 713.50Q473 726 437 741Q364 722 327.50 672Q291 622 291 553Q291 453 359 401.50Q427 350 637 291Q693 274 730 263Q767 252 800 240Q872 260 912 309.50Q952 359 952 428Q952 519 878.50 572.50Q805 626 603 689Z"  horiz-adv-x="1259" vert-adv-y="2048"  />

      
      <glyph glyph-name="unia8" unicode="&#xa8;" d="M859 1256L640 1256L640 1456L859 1456L859 1256M389 1256L170 1256L170 1456L389 1456L389 1256Z"  horiz-adv-x="1021" vert-adv-y="2048"  />

      
      <glyph glyph-name="unia9" unicode="&#xa9;" d="M1111 596L1113 590Q1117 439 1029 360.50Q941 282 784 282Q624 282 530 388.50Q436 495 436 669L436 788Q436 961 530 1068Q624 1175 784 1175Q941 1175 1029.50 1096Q1118 1017 1114 868L1112 862L966 862Q966 957 920.50 1000.50Q875 1044 784 1044Q690 1044 639 973.50Q588 903 588 789L588 669Q588 552 639 482Q690 412 784 412Q875 412 920 455Q965 498 965 596L1111 596M209 729Q209 464 380.50 282Q552 100 798 100Q1043 100 1215 282Q1387 464 1387 729Q1387 992 1215 1173Q1043 1354 798 1354Q552 1354 380.50 1173Q209 992 209 729M88 729Q88 1044 295 1260Q502 1476 798 1476Q1093 1476 1300 1260Q1507 1044 1507 729Q1507 413 1299.50 196Q1092-21 798-21Q502-21 295 196Q88 413 88 729Z"  horiz-adv-x="1604" vert-adv-y="2048"  />

      
      <glyph glyph-name="uniaa" unicode="&#xaa;" d="M613 706Q605 727 600 751Q595 775 592 801Q559 754 502.50 723Q446 692 369 692Q250 692 185 753Q120 814 120 920Q120 1030 204.50 1090Q289 1150 450 1150L589 1150L589 1202Q589 1265 559 1299Q529 1333 471 1333Q404 1333 367.50 1306Q331 1279 331 1230L169 1243L168 1249Q162 1347 246.50 1412Q331 1477 471 1477Q605 1477 683 1406Q761 1335 761 1201L761 887Q761 837 767 793Q773 749 787 706L613 706M411 831Q462 831 516.50 861Q571 891 589 926L589 1036L451 1036Q376 1036 334.50 1003Q293 970 293 924Q293 879 322 855Q351 831 411 831Z"  horiz-adv-x="917" vert-adv-y="2048"  />

      
      <glyph glyph-name="uniab" unicode="&#xab;" d="M286 516L541 118L393 118L98 507L98 526L393 915L541 915L286 516M620 516L875 118L727 118L432 507L432 526L727 915L875 915L620 516Z"  horiz-adv-x="966" vert-adv-y="2048"  />

      
      <glyph glyph-name="uniac" unicode="&#xac;" d="M962 375L764 375L764 637L127 637L127 802L962 802L962 375Z"  horiz-adv-x="1137" vert-adv-y="2048"  />

      
      <glyph glyph-name="uniad" unicode="&#xad;" d="M525 538L35 538L35 692L525 692L525 538Z"  horiz-adv-x="561" vert-adv-y="2048"  />

      
      <glyph glyph-name="uniae" unicode="&#xae;" d="M88 729Q88 1044 295 1260Q502 1476 798 1476Q1093 1476 1300 1260Q1507 1044 1507 729Q1507 413 1299.50 196Q1092-21 798-21Q502-21 295 196Q88 413 88 729M209 729Q209 463 380.50 281.50Q552 100 798 100Q1042 100 1214 282Q1386 464 1386 729Q1386 993 1214.50 1173.50Q1043 1354 798 1354Q552 1354 380.50 1173.50Q209 993 209 729M653 654L653 316L504 316L504 1166L784 1166Q936 1166 1022.50 1100.50Q1109 1035 1109 909Q1109 847 1076 800Q1043 753 980 722Q1046 696 1075.50 643Q1105 590 1105 515L1105 459Q1105 418 1108.50 385.50Q1112 353 1122 332L1122 316L969 316Q960 337 958 377.50Q956 418 956 460L956 514Q956 586 922.50 620Q889 654 812 654L653 654M653 784L805 784Q870 785 915.50 816.50Q961 848 961 904Q961 977 921.50 1006.50Q882 1036 784 1036L653 1036L653 784Z"  horiz-adv-x="1604" vert-adv-y="2048"  />

      
      <glyph glyph-name="uniaf" unicode="&#xaf;" d="M844 1310L123 1310L123 1456L844 1456L844 1310Z"  horiz-adv-x="950" vert-adv-y="2048"  />

      
      <glyph glyph-name="unib0" unicode="&#xb0;" d="M128 1216Q128 1322 204 1399.50Q280 1477 385 1477Q488 1477 562.50 1399.50Q637 1322 637 1216Q637 1108 563 1033.50Q489 959 385 959Q279 959 203.50 1033.50Q128 1108 128 1216M259 1216Q259 1161 295.50 1125Q332 1089 385 1089Q437 1089 472.50 1125Q508 1161 508 1216Q508 1271 472 1308.50Q436 1346 385 1346Q332 1346 295.50 1308.50Q259 1271 259 1216Z"  horiz-adv-x="763" vert-adv-y="2048"  />

      
      <glyph glyph-name="unib1" unicode="&#xb1;" d="M657 856L1015 856L1015 702L657 702L657 289L480 289L480 702L99 702L99 856L480 856L480 1267L657 1267L657 856M971 4L136 4L136 159L971 159L971 4Z"  horiz-adv-x="1097" vert-adv-y="2048"  />

      
      <glyph glyph-name="unib2" unicode="&#xb2;" d="M714 667L122 667L122 797L424 1059Q493 1119 515 1156.50Q537 1194 537 1236Q537 1286 508.50 1317Q480 1348 422 1348Q355 1348 318.50 1316Q282 1284 282 1234L121 1234L119 1240Q113 1339 197 1409Q281 1479 422 1479Q557 1479 633 1415Q709 1351 709 1235Q709 1155 664.50 1099Q620 1043 504 938L351 803L353 797L714 797L714 667Z"  horiz-adv-x="868" vert-adv-y="2048"  />

      
      <glyph glyph-name="unib3" unicode="&#xb3;" d="M424 1137Q491 1137 523.50 1165.50Q556 1194 556 1246Q556 1289 519.50 1318Q483 1347 414 1347Q358 1347 323.50 1323Q289 1299 289 1259L127 1259L125 1265Q119 1359 203.50 1418.50Q288 1478 414 1478Q559 1478 643 1418.50Q727 1359 727 1249Q727 1194 691.50 1148.50Q656 1103 594 1077Q664 1054 702 1006Q740 958 740 890Q740 779 650 717Q560 655 414 655Q287 655 196.50 713Q106 771 112 882L113 888L276 888Q276 842 313.50 813.50Q351 785 414 785Q486 785 528 814.50Q570 844 570 892Q570 954 533.50 982.50Q497 1011 424 1011L292 1011L292 1137L424 1137Z"  horiz-adv-x="876" vert-adv-y="2048"  />

      
      <glyph glyph-name="unib4" unicode="&#xb4;" d="M316 1477L546 1477L548 1471L278 1211L131 1211L316 1477Z"  horiz-adv-x="654" vert-adv-y="2048"  />

      
      <glyph glyph-name="unib5" unicode="&#xb5;" d="M349 1082L349 440Q351 262 406.50 197.50Q462 133 562 133Q660 133 720.50 169Q781 205 813 275L813 1082L1010 1082L1010 0L833 0L824 108Q780 45 716.50 12Q653-21 570-21Q498-21 443.50-4.50Q389 12 349 47L349-416L153-416L153 1082L349 1082Z"  horiz-adv-x="1164" vert-adv-y="2048"  />

      
      <glyph glyph-name="unib6" unicode="&#xb6;" d="M639 0L639 520L555 520Q322 520 192.50 649.50Q63 779 63 988Q63 1195 192.50 1325.50Q322 1456 555 1456L836 1456L836 0L639 0Z"  horiz-adv-x="1006" vert-adv-y="2048"  />

      
      <glyph glyph-name="unib7" unicode="&#xb7;" d="M359 624L161 624L161 836L359 836L359 624Z"  horiz-adv-x="540" vert-adv-y="2048"  />

      
      <glyph glyph-name="unib8" unicode="&#xb8;" d="M292 0L280-52Q345-63 388-104Q431-145 431-225Q431-321 352-378Q273-435 126-435L119-326Q191-326 235-301.50Q279-277 279-228Q279-180 243-161Q207-142 120-135L152 0L292 0Z"  horiz-adv-x="509" vert-adv-y="2048"  />

      
      <glyph glyph-name="unib9" unicode="&#xb9;" d="M396 665L222 665L222 1320L95 1320L95 1454L396 1477L396 665Z"  horiz-adv-x="557" vert-adv-y="2048"  />

      
      <glyph glyph-name="uniba" unicode="&#xba;" d="M120 1142Q120 1290 214 1383.50Q308 1477 465 1477Q623 1477 717 1383.50Q811 1290 811 1142L811 1025Q811 876 717.50 783.50Q624 691 467 691Q309 691 214.50 783.50Q120 876 120 1025L120 1142M293 1025Q293 937 337 884.50Q381 832 467 832Q550 832 594.50 885Q639 938 639 1025L639 1142Q639 1226 594 1279.50Q549 1333 465 1333Q381 1333 337 1279.50Q293 1226 293 1142L293 1025Z"  horiz-adv-x="933" vert-adv-y="2048"  />

      
      <glyph glyph-name="unibb" unicode="&#xbb;" d="M258 949L553 560L553 541L258 152L110 152L365 550L110 949L258 949M604 949L899 560L899 541L604 152L456 152L711 550L456 949L604 949Z"  horiz-adv-x="966" vert-adv-y="2048"  />

      
      <glyph glyph-name="unibc" unicode="&#xbc;" d="M485 664L311 664L311 1319L184 1319L184 1453L485 1476L485 664M448 118L339 185L1050 1323L1159 1256L448 118M1380 282L1506 282L1506 152L1380 152L1380 0L1210 0L1210 152L793 152L785 254L1207 801L1380 801L1380 282M967 282L1210 282L1210 592L1204 593L1191 571L967 282Z"  horiz-adv-x="1595" vert-adv-y="2048"  />

      
      <glyph glyph-name="unibd" unicode="&#xbd;" d="M461 118L352 185L1063 1323L1172 1256L461 118M485 664L311 664L311 1319L184 1319L184 1453L485 1476L485 664M1525 0L933 0L933 130L1235 392Q1304 452 1326 489.50Q1348 527 1348 569Q1348 619 1319.50 650Q1291 681 1233 681Q1166 681 1129.50 649Q1093 617 1093 567L932 567L930 573Q924 672 1008 742Q1092 812 1233 812Q1368 812 1444 748Q1520 684 1520 568Q1520 488 1475.50 432Q1431 376 1315 271L1162 136L1164 130L1525 130L1525 0Z"  horiz-adv-x="1708" vert-adv-y="2048"  />

      
      <glyph glyph-name="unibe" unicode="&#xbe;" d="M631 118L522 185L1233 1323L1342 1256L631 118M1569 282L1695 282L1695 152L1569 152L1569 0L1399 0L1399 152L982 152L974 254L1396 801L1569 801L1569 282M1156 282L1399 282L1399 592L1393 593L1380 571L1156 282M440 1138Q507 1138 539.50 1166.50Q572 1195 572 1247Q572 1290 535.50 1319Q499 1348 430 1348Q374 1348 339.50 1324Q305 1300 305 1260L143 1260L141 1266Q135 1360 219.50 1419.50Q304 1479 430 1479Q575 1479 659 1419.50Q743 1360 743 1250Q743 1195 707.50 1149.50Q672 1104 610 1078Q680 1055 718 1007Q756 959 756 891Q756 780 666 718Q576 656 430 656Q303 656 212.50 714Q122 772 128 883L129 889L292 889Q292 843 329.50 814.50Q367 786 430 786Q502 786 544 815.50Q586 845 586 893Q586 955 549.50 983.50Q513 1012 440 1012L308 1012L308 1138L440 1138Z"  horiz-adv-x="1781" vert-adv-y="2048"  />

      
      <glyph glyph-name="unibf" unicode="&#xbf;" d="M645 672Q643 526 619 470Q595 414 494 323Q394 205 352.50 142Q311 79 311-8Q311-114 367-171Q423-228 529-228Q619-228 683.50-178.50Q748-129 748-33L936-33L939-39Q941-200 824.50-297Q708-394 529-394Q331-394 222.50-293.50Q114-193 114-13Q114 114 184 220.50Q254 327 371 441Q424 494 436 537Q448 580 448 672L645 672M441 1083L647 1083L647 874L441 874L441 1083Z"  horiz-adv-x="1013" vert-adv-y="2048"  />

      
      <glyph glyph-name="unic0" unicode="&#xc0;" d="M969 375L359 375L221 0L20 0L583 1456L752 1456L1306 0L1105 0L969 375M420 540L910 540L670 1203L664 1203L420 540M786 1560L628 1560L378 1820L381 1826L611 1826L786 1560Z"  horiz-adv-x="1326" vert-adv-y="2048"  />

      
      <glyph glyph-name="unic1" unicode="&#xc1;" d="M969 375L359 375L221 0L20 0L583 1456L752 1456L1306 0L1105 0L969 375M420 540L910 540L670 1203L664 1203L420 540M798 1822L1028 1822L1030 1816L760 1556L613 1556L798 1822Z"  horiz-adv-x="1326" vert-adv-y="2048"  />

      
      <glyph glyph-name="unic2" unicode="&#xc2;" d="M969 375L359 375L221 0L20 0L583 1456L752 1456L1306 0L1105 0L969 375M420 540L910 540L670 1203L664 1203L420 540M970 1626L970 1601L809 1601L662 1749L516 1601L356 1601L356 1627L602 1864L722 1864L970 1626Z"  horiz-adv-x="1326" vert-adv-y="2048"  />

      
      <glyph glyph-name="unic3" unicode="&#xc3;" d="M969 375L359 375L221 0L20 0L583 1456L752 1456L1306 0L1105 0L969 375M420 540L910 540L670 1203L664 1203L420 540M1010 1844Q1010 1750 950.50 1685Q891 1620 801 1620Q730 1620 653 1666.50Q576 1713 525 1713Q482 1713 453 1680.50Q424 1648 424 1602L316 1628Q316 1721 375 1789.50Q434 1858 525 1858Q581 1858 665 1811Q749 1764 801 1764Q842 1764 872 1796.50Q902 1829 902 1876L1010 1844Z"  horiz-adv-x="1326" vert-adv-y="2048"  />

      
      <glyph glyph-name="unic4" unicode="&#xc4;" d="M969 375L359 375L221 0L20 0L583 1456L752 1456L1306 0L1105 0L969 375M420 540L910 540L670 1203L664 1203L420 540M1008 1605L789 1605L789 1805L1008 1805L1008 1605M538 1605L319 1605L319 1805L538 1805L538 1605Z"  horiz-adv-x="1326" vert-adv-y="2048"  />

      
      <glyph glyph-name="unic5" unicode="&#xc5;" d="M969 375L359 375L221 0L20 0L583 1456L752 1456L1306 0L1105 0L969 375M420 540L910 540L670 1203L664 1203L420 540M457 1734Q457 1818 517.50 1875Q578 1932 665 1932Q750 1932 810 1875.50Q870 1819 870 1734Q870 1648 810.50 1594Q751 1540 665 1540Q578 1540 517.50 1594Q457 1648 457 1734M560 1734Q560 1691 591 1660.50Q622 1630 665 1630Q707 1630 737 1659.50Q767 1689 767 1734Q767 1779 737 1810Q707 1841 665 1841Q622 1841 591 1810Q560 1779 560 1734Z"  horiz-adv-x="1326" vert-adv-y="2048"  />

      
      <glyph glyph-name="unic6" unicode="&#xc6;" d="M1889 0L994 0L979 350L422 350L220 0L-20 0L860 1456L1827 1456L1827 1301L1136 1301L1156 835L1746 835L1746 680L1162 680L1184 154L1889 154L1889 0M525 529L972 529L941 1239L936 1241L525 529Z"  horiz-adv-x="1922" vert-adv-y="2048"  />

      
      <glyph glyph-name="unic7" unicode="&#xc7;" d="M1209 466L1211 460Q1215 255 1067 117Q919-21 676-21Q429-21 273.50 154Q118 329 118 598L118 857Q118 1126 273.50 1301.50Q429 1477 676 1477Q923 1477 1069 1345.50Q1215 1214 1211 997L1209 991L1020 991Q1020 1144 930 1233Q840 1322 676 1322Q511 1322 413 1189Q315 1056 315 859L315 598Q315 399 413 266Q511 133 676 133Q840 133 930 221.50Q1020 310 1020 466L1209 466M754-8L742-60Q807-71 850-112Q893-153 893-233Q893-329 814-386Q735-443 588-443L581-334Q653-334 697-309.50Q741-285 741-236Q741-188 705-169Q669-150 582-143L614-8L754-8Z"  horiz-adv-x="1297" vert-adv-y="2048"  />

      
      <glyph glyph-name="unic8" unicode="&#xc8;" d="M1044 675L377 675L377 154L1146 154L1146 0L180 0L180 1456L1135 1456L1135 1301L377 1301L377 830L1044 830L1044 675M711 1560L553 1560L303 1820L306 1826L536 1826L711 1560Z"  horiz-adv-x="1197" vert-adv-y="2048"  />

      
      <glyph glyph-name="unic9" unicode="&#xc9;" d="M1044 675L377 675L377 154L1146 154L1146 0L180 0L180 1456L1135 1456L1135 1301L377 1301L377 830L1044 830L1044 675M723 1822L953 1822L955 1816L685 1556L538 1556L723 1822Z"  horiz-adv-x="1197" vert-adv-y="2048"  />

      
      <glyph glyph-name="unica" unicode="&#xca;" d="M1044 675L377 675L377 154L1146 154L1146 0L180 0L180 1456L1135 1456L1135 1301L377 1301L377 830L1044 830L1044 675M936 1626L936 1601L775 1601L628 1749L482 1601L322 1601L322 1627L568 1864L688 1864L936 1626Z"  horiz-adv-x="1197" vert-adv-y="2048"  />

      
      <glyph glyph-name="unicb" unicode="&#xcb;" d="M1044 675L377 675L377 154L1146 154L1146 0L180 0L180 1456L1135 1456L1135 1301L377 1301L377 830L1044 830L1044 675M973 1605L754 1605L754 1805L973 1805L973 1605M503 1605L284 1605L284 1805L503 1805L503 1605Z"  horiz-adv-x="1197" vert-adv-y="2048"  />

      
      <glyph glyph-name="unicc" unicode="&#xcc;" d="M388 0L190 0L190 1456L388 1456L388 0M374 1560L216 1560L-34 1820L-31 1826L199 1826L374 1560Z"  horiz-adv-x="579" vert-adv-y="2048"  />

      
      <glyph glyph-name="unicd" unicode="&#xcd;" d="M388 0L190 0L190 1456L388 1456L388 0M384 1822L614 1822L616 1816L346 1556L199 1556L384 1822Z"  horiz-adv-x="579" vert-adv-y="2048"  />

      
      <glyph glyph-name="unice" unicode="&#xce;" d="M388 0L190 0L190 1456L388 1456L388 0M599 1626L599 1601L438 1601L291 1749L145 1601L-15 1601L-15 1627L231 1864L351 1864L599 1626Z"  horiz-adv-x="579" vert-adv-y="2048"  />

      
      <glyph glyph-name="unicf" unicode="&#xcf;" d="M388 0L190 0L190 1456L388 1456L388 0M636 1605L417 1605L417 1805L636 1805L636 1605M166 1605L-53 1605L-53 1805L166 1805L166 1605Z"  horiz-adv-x="579" vert-adv-y="2048"  />

      
      <glyph glyph-name="unid0" unicode="&#xd0;" d="M210 0L210 663L42 663L42 818L210 818L210 1456L657 1456Q943 1456 1116 1280.50Q1289 1105 1289 827L1289 628Q1289 349 1116 174.50Q943 0 657 0L210 0M683 663L407 663L407 154L657 154Q859 154 975.50 287Q1092 420 1092 628L1092 829Q1092 1035 975.50 1168Q859 1301 657 1301L407 1301L407 818L683 818L683 663Z"  horiz-adv-x="1379" vert-adv-y="2048"  />

      
      <glyph glyph-name="unid1" unicode="&#xd1;" d="M1281 0L1084 0L383 1126L377 1124L377 0L180 0L180 1456L377 1456L1078 332L1084 334L1084 1456L1281 1456L1281 0M1075 1844Q1075 1750 1015.50 1685Q956 1620 866 1620Q795 1620 718 1666.50Q641 1713 590 1713Q547 1713 518 1680.50Q489 1648 489 1602L381 1628Q381 1721 440 1789.50Q499 1858 590 1858Q646 1858 730 1811Q814 1764 866 1764Q907 1764 937 1796.50Q967 1829 967 1876L1075 1844Z"  horiz-adv-x="1461" vert-adv-y="2048"  />

      
      <glyph glyph-name="unid2" unicode="&#xd2;" d="M1282 598Q1282 331 1116.50 155Q951-21 687-21Q432-21 272.50 155Q113 331 113 598L113 857Q113 1123 272.50 1300Q432 1477 687 1477Q951 1477 1116.50 1300.50Q1282 1124 1282 857L1282 598M1085 859Q1085 1059 977 1187Q869 1315 687 1315Q515 1315 412.50 1187Q310 1059 310 859L310 598Q310 396 412.50 268Q515 140 687 140Q870 140 977.50 267.50Q1085 395 1085 598L1085 859M781 1581L623 1581L373 1841L376 1847L606 1847L781 1581Z"  horiz-adv-x="1396" vert-adv-y="2048"  />

      
      <glyph glyph-name="unid3" unicode="&#xd3;" d="M1282 598Q1282 331 1116.50 155Q951-21 687-21Q432-21 272.50 155Q113 331 113 598L113 857Q113 1123 272.50 1300Q432 1477 687 1477Q951 1477 1116.50 1300.50Q1282 1124 1282 857L1282 598M1085 859Q1085 1059 977 1187Q869 1315 687 1315Q515 1315 412.50 1187Q310 1059 310 859L310 598Q310 396 412.50 268Q515 140 687 140Q870 140 977.50 267.50Q1085 395 1085 598L1085 859M793 1843L1023 1843L1025 1837L755 1577L608 1577L793 1843Z"  horiz-adv-x="1396" vert-adv-y="2048"  />

      
      <glyph glyph-name="unid4" unicode="&#xd4;" d="M1282 598Q1282 331 1116.50 155Q951-21 687-21Q432-21 272.50 155Q113 331 113 598L113 857Q113 1123 272.50 1300Q432 1477 687 1477Q951 1477 1116.50 1300.50Q1282 1124 1282 857L1282 598M1085 859Q1085 1059 977 1187Q869 1315 687 1315Q515 1315 412.50 1187Q310 1059 310 859L310 598Q310 396 412.50 268Q515 140 687 140Q870 140 977.50 267.50Q1085 395 1085 598L1085 859M1006 1647L1006 1622L845 1622L698 1770L552 1622L392 1622L392 1648L638 1885L758 1885L1006 1647Z"  horiz-adv-x="1396" vert-adv-y="2048"  />

      
      <glyph glyph-name="unid5" unicode="&#xd5;" d="M1282 598Q1282 331 1116.50 155Q951-21 687-21Q432-21 272.50 155Q113 331 113 598L113 857Q113 1123 272.50 1300Q432 1477 687 1477Q951 1477 1116.50 1300.50Q1282 1124 1282 857L1282 598M1085 859Q1085 1059 977 1187Q869 1315 687 1315Q515 1315 412.50 1187Q310 1059 310 859L310 598Q310 396 412.50 268Q515 140 687 140Q870 140 977.50 267.50Q1085 395 1085 598L1085 859M1045 1865Q1045 1771 985.50 1706Q926 1641 836 1641Q765 1641 688 1687.50Q611 1734 560 1734Q517 1734 488 1701.50Q459 1669 459 1623L351 1649Q351 1742 410 1810.50Q469 1879 560 1879Q616 1879 700 1832Q784 1785 836 1785Q877 1785 907 1817.50Q937 1850 937 1897L1045 1865Z"  horiz-adv-x="1396" vert-adv-y="2048"  />

      
      <glyph glyph-name="unid6" unicode="&#xd6;" d="M1282 598Q1282 331 1116.50 155Q951-21 687-21Q432-21 272.50 155Q113 331 113 598L113 857Q113 1123 272.50 1300Q432 1477 687 1477Q951 1477 1116.50 1300.50Q1282 1124 1282 857L1282 598M1085 859Q1085 1059 977 1187Q869 1315 687 1315Q515 1315 412.50 1187Q310 1059 310 859L310 598Q310 396 412.50 268Q515 140 687 140Q870 140 977.50 267.50Q1085 395 1085 598L1085 859M1043 1626L824 1626L824 1826L1043 1826L1043 1626M573 1626L354 1626L354 1826L573 1826L573 1626Z"  horiz-adv-x="1396" vert-adv-y="2048"  />

      
      <glyph glyph-name="unid7" unicode="&#xd7;" d="M88 351L415 685L88 1019L214 1145L540 812L867 1145L993 1019L665 685L993 351L867 225L540 557L214 225L88 351Z"  horiz-adv-x="1096" vert-adv-y="2048"  />

      
      <glyph glyph-name="unid8" unicode="&#xd8;" d="M1282 598Q1282 331 1116.50 155Q951-21 687-21Q602-21 526.50-0.50Q451 20 387 60L296-94L147-94L286 140Q202 224 157.50 342Q113 460 113 598L113 857Q113 1123 272.50 1300Q432 1477 687 1477Q781 1477 865.50 1451.50Q950 1426 1022 1380L1103 1517L1252 1517L1120 1296Q1197 1212 1239.50 1099Q1282 986 1282 857L1282 598M310 598Q310 513 329 440Q348 367 383 315L389 314L933 1230Q883 1271 821 1293Q759 1315 687 1315Q515 1315 412.50 1187Q310 1059 310 859L310 598M1085 859Q1085 934 1068.50 1001Q1052 1068 1022 1118L1016 1119L475 208Q519 174 572 157Q625 140 687 140Q870 140 977.50 267.50Q1085 395 1085 598L1085 859Z"  horiz-adv-x="1396" vert-adv-y="2048"  />

      
      <glyph glyph-name="unid9" unicode="&#xd9;" d="M1244 1456L1244 469Q1244 231 1089.50 105Q935-21 686-21Q446-21 296.50 105.50Q147 232 147 469L147 1456L344 1456L344 469Q344 304 438 218.50Q532 133 686 133Q848 133 947.50 218.50Q1047 304 1047 469L1047 1456L1244 1456M780 1560L622 1560L372 1820L375 1826L605 1826L780 1560Z"  horiz-adv-x="1386" vert-adv-y="2048"  />

      
      <glyph glyph-name="unida" unicode="&#xda;" d="M1244 1456L1244 469Q1244 231 1089.50 105Q935-21 686-21Q446-21 296.50 105.50Q147 232 147 469L147 1456L344 1456L344 469Q344 304 438 218.50Q532 133 686 133Q848 133 947.50 218.50Q1047 304 1047 469L1047 1456L1244 1456M792 1822L1022 1822L1024 1816L754 1556L607 1556L792 1822Z"  horiz-adv-x="1386" vert-adv-y="2048"  />

      
      <glyph glyph-name="unidb" unicode="&#xdb;" d="M1244 1456L1244 469Q1244 231 1089.50 105Q935-21 686-21Q446-21 296.50 105.50Q147 232 147 469L147 1456L344 1456L344 469Q344 304 438 218.50Q532 133 686 133Q848 133 947.50 218.50Q1047 304 1047 469L1047 1456L1244 1456M1005 1626L1005 1601L844 1601L697 1749L551 1601L391 1601L391 1627L637 1864L757 1864L1005 1626Z"  horiz-adv-x="1386" vert-adv-y="2048"  />

      
      <glyph glyph-name="unidc" unicode="&#xdc;" d="M1244 1456L1244 469Q1244 231 1089.50 105Q935-21 686-21Q446-21 296.50 105.50Q147 232 147 469L147 1456L344 1456L344 469Q344 304 438 218.50Q532 133 686 133Q848 133 947.50 218.50Q1047 304 1047 469L1047 1456L1244 1456M1042 1605L823 1605L823 1805L1042 1805L1042 1605M572 1605L353 1605L353 1805L572 1805L572 1605Z"  horiz-adv-x="1386" vert-adv-y="2048"  />

      
      <glyph glyph-name="unidd" unicode="&#xdd;" d="M625 716L1005 1456L1230 1456L719 512L719 0L523 0L523 525L20 1456L245 1456L625 716M720 1821L950 1821L952 1815L682 1555L535 1555L720 1821Z"  horiz-adv-x="1250" vert-adv-y="2048"  />

      
      <glyph glyph-name="unide" unicode="&#xde;" d="M360 1456L360 1163L629 1163Q861 1163 991 1045Q1121 927 1121 738Q1121 548 991 430.50Q861 313 629 313L360 313L360 0L163 0L163 1456L360 1456M360 1009L360 467L629 467Q776 467 849.50 545Q923 623 923 736Q923 850 849.50 929.50Q776 1009 629 1009L360 1009Z"  horiz-adv-x="1209" vert-adv-y="2048"  />

      
      <glyph glyph-name="unidf" unicode="&#xdf;" d="M333 0L137 0L137 1082Q137 1305 254.50 1430Q372 1555 555 1555Q716 1555 817 1469Q918 1383 918 1216Q918 1098 853.50 988Q789 878 789 821Q789 739 962.50 597Q1136 455 1136 316Q1136 149 1031.50 64Q927-21 749-21Q665-21 576.50-0.50Q488 20 451 50L495 209Q538 181 603 157Q668 133 729 133Q837 133 888 180.50Q939 228 939 306Q939 390 765.50 533.50Q592 677 592 823Q592 903 662.50 1013.50Q733 1124 733 1200Q733 1293 682 1347Q631 1401 565 1401Q461 1401 397 1317.50Q333 1234 333 1082L333 0Z"  horiz-adv-x="1221" vert-adv-y="2048"  />

      
      <glyph glyph-name="unie0" unicode="&#xe0;" d="M808 0Q798 49 792.50 86.50Q787 124 786 162Q731 84 642.50 31.50Q554-21 452-21Q283-21 194.50 65.50Q106 152 106 304Q106 459 231.50 546.50Q357 634 572 634L786 634L786 741Q786 836 728 891.50Q670 947 564 947Q469 947 409.50 898.50Q350 850 350 782L162 782L160 788Q154 906 271.50 1004Q389 1102 575 1102Q759 1102 871 1008.50Q983 915 983 739L983 218Q983 160 989 106Q995 52 1011 0L808 0M481 144Q588 144 674 199Q760 254 786 325L786 501L565 501Q446 501 374.50 441Q303 381 303 300Q303 228 348 186Q393 144 481 144M638 1238L480 1238L230 1498L233 1504L463 1504L638 1238Z"  horiz-adv-x="1126" vert-adv-y="2048"  />

      
      <glyph glyph-name="unie1" unicode="&#xe1;" d="M808 0Q798 49 792.50 86.50Q787 124 786 162Q731 84 642.50 31.50Q554-21 452-21Q283-21 194.50 65.50Q106 152 106 304Q106 459 231.50 546.50Q357 634 572 634L786 634L786 741Q786 836 728 891.50Q670 947 564 947Q469 947 409.50 898.50Q350 850 350 782L162 782L160 788Q154 906 271.50 1004Q389 1102 575 1102Q759 1102 871 1008.50Q983 915 983 739L983 218Q983 160 989 106Q995 52 1011 0L808 0M481 144Q588 144 674 199Q760 254 786 325L786 501L565 501Q446 501 374.50 441Q303 381 303 300Q303 228 348 186Q393 144 481 144M650 1500L880 1500L882 1494L612 1234L465 1234L650 1500Z"  horiz-adv-x="1126" vert-adv-y="2048"  />

      
      <glyph glyph-name="unie2" unicode="&#xe2;" d="M808 0Q798 49 792.50 86.50Q787 124 786 162Q731 84 642.50 31.50Q554-21 452-21Q283-21 194.50 65.50Q106 152 106 304Q106 459 231.50 546.50Q357 634 572 634L786 634L786 741Q786 836 728 891.50Q670 947 564 947Q469 947 409.50 898.50Q350 850 350 782L162 782L160 788Q154 906 271.50 1004Q389 1102 575 1102Q759 1102 871 1008.50Q983 915 983 739L983 218Q983 160 989 106Q995 52 1011 0L808 0M481 144Q588 144 674 199Q760 254 786 325L786 501L565 501Q446 501 374.50 441Q303 381 303 300Q303 228 348 186Q393 144 481 144M863 1304L863 1279L702 1279L555 1427L409 1279L249 1279L249 1305L495 1542L615 1542L863 1304Z"  horiz-adv-x="1126" vert-adv-y="2048"  />

      
      <glyph glyph-name="unie3" unicode="&#xe3;" d="M808 0Q798 49 792.50 86.50Q787 124 786 162Q731 84 642.50 31.50Q554-21 452-21Q283-21 194.50 65.50Q106 152 106 304Q106 459 231.50 546.50Q357 634 572 634L786 634L786 741Q786 836 728 891.50Q670 947 564 947Q469 947 409.50 898.50Q350 850 350 782L162 782L160 788Q154 906 271.50 1004Q389 1102 575 1102Q759 1102 871 1008.50Q983 915 983 739L983 218Q983 160 989 106Q995 52 1011 0L808 0M481 144Q588 144 674 199Q760 254 786 325L786 501L565 501Q446 501 374.50 441Q303 381 303 300Q303 228 348 186Q393 144 481 144M902 1522Q902 1428 842.50 1363Q783 1298 693 1298Q622 1298 545 1344.50Q468 1391 417 1391Q374 1391 345 1358.50Q316 1326 316 1280L208 1306Q208 1399 267 1467.50Q326 1536 417 1536Q473 1536 557 1489Q641 1442 693 1442Q734 1442 764 1474.50Q794 1507 794 1554L902 1522Z"  horiz-adv-x="1126" vert-adv-y="2048"  />

      
      <glyph glyph-name="unie4" unicode="&#xe4;" d="M808 0Q798 49 792.50 86.50Q787 124 786 162Q731 84 642.50 31.50Q554-21 452-21Q283-21 194.50 65.50Q106 152 106 304Q106 459 231.50 546.50Q357 634 572 634L786 634L786 741Q786 836 728 891.50Q670 947 564 947Q469 947 409.50 898.50Q350 850 350 782L162 782L160 788Q154 906 271.50 1004Q389 1102 575 1102Q759 1102 871 1008.50Q983 915 983 739L983 218Q983 160 989 106Q995 52 1011 0L808 0M481 144Q588 144 674 199Q760 254 786 325L786 501L565 501Q446 501 374.50 441Q303 381 303 300Q303 228 348 186Q393 144 481 144M900 1283L681 1283L681 1483L900 1483L900 1283M430 1283L211 1283L211 1483L430 1483L430 1283Z"  horiz-adv-x="1126" vert-adv-y="2048"  />

      
      <glyph glyph-name="unie5" unicode="&#xe5;" d="M808 0Q798 49 792.50 86.50Q787 124 786 162Q731 84 642.50 31.50Q554-21 452-21Q283-21 194.50 65.50Q106 152 106 304Q106 459 231.50 546.50Q357 634 572 634L786 634L786 741Q786 836 728 891.50Q670 947 564 947Q469 947 409.50 898.50Q350 850 350 782L162 782L160 788Q154 906 271.50 1004Q389 1102 575 1102Q759 1102 871 1008.50Q983 915 983 739L983 218Q983 160 989 106Q995 52 1011 0L808 0M481 144Q588 144 674 199Q760 254 786 325L786 501L565 501Q446 501 374.50 441Q303 381 303 300Q303 228 348 186Q393 144 481 144M346 1412Q346 1496 406.50 1553Q467 1610 554 1610Q639 1610 699 1553.50Q759 1497 759 1412Q759 1326 699.50 1272Q640 1218 554 1218Q467 1218 406.50 1272Q346 1326 346 1412M449 1412Q449 1369 480 1338.50Q511 1308 554 1308Q596 1308 626 1337.50Q656 1367 656 1412Q656 1457 626 1488Q596 1519 554 1519Q511 1519 480 1488Q449 1457 449 1412Z"  horiz-adv-x="1126" vert-adv-y="2048"  />

      
      <glyph glyph-name="unie6" unicode="&#xe6;" d="M1262-21Q1126-21 1022 27.50Q918 76 852 166Q796 87 684.50 33Q573-21 413-21Q243-21 150.50 66Q58 153 58 304Q58 462 173 548.50Q288 635 508 635L737 635L737 720Q737 826 685.50 886.50Q634 947 536 947Q433 947 372 892Q311 837 311 759L123 777L121 783Q116 921 230.50 1011.50Q345 1102 536 1102Q650 1102 737.50 1061.50Q825 1021 875 944Q939 1019 1026.50 1060.50Q1114 1102 1215 1102Q1429 1102 1544.50 972Q1660 842 1660 614L1660 495L951 495L949 490Q950 331 1028.50 232Q1107 133 1262 133Q1365 133 1431.50 160.50Q1498 188 1576 239L1643 101Q1590 57 1496 18Q1402-21 1262-21M452 133Q528 133 611 176.50Q694 220 737 277L737 493L510 493Q390 493 322.50 437Q255 381 255 300Q255 226 305 179.50Q355 133 452 133M1215 947Q1102 947 1033 862.50Q964 778 953 645L955 640L1463 640L1463 671Q1463 793 1403 870Q1343 947 1215 947Z"  horiz-adv-x="1729" vert-adv-y="2048"  />

      
      <glyph glyph-name="unie7" unicode="&#xe7;" d="M583 133Q681 133 755.50 193.50Q830 254 830 342L1007 342L1009 336Q1014 196 884.50 87.50Q755-21 583-21Q347-21 222 133Q97 287 97 520L97 562Q97 793 222.50 947.50Q348 1102 583 1102Q773 1102 893.50 990Q1014 878 1010 715L1008 709L830 709Q830 808 760 877.50Q690 947 583 947Q428 947 361.50 835.50Q295 724 295 562L295 520Q295 354 361 243.50Q427 133 583 133M613-8L601-60Q666-71 709-112Q752-153 752-233Q752-329 673-386Q594-443 447-443L440-334Q512-334 556-309.50Q600-285 600-236Q600-188 564-169Q528-150 441-143L473-8L613-8Z"  horiz-adv-x="1087" vert-adv-y="2048"  />

      
      <glyph glyph-name="unie8" unicode="&#xe8;" d="M592-21Q366-21 232.50 129.50Q99 280 99 520L99 564Q99 795 236.50 948.50Q374 1102 562 1102Q781 1102 893 970Q1005 838 1005 618L1005 495L303 495L300 490Q303 334 379 233.50Q455 133 592 133Q692 133 767.50 161.50Q843 190 898 240L975 112Q917 55 822 17Q727-21 592-21M562 947Q463 947 393 863.50Q323 780 307 654L309 649L808 649L808 675Q808 791 746 869Q684 947 562 947M641 1239L483 1239L233 1499L236 1505L466 1505L641 1239Z"  horiz-adv-x="1083" vert-adv-y="2048"  />

      
      <glyph glyph-name="unie9" unicode="&#xe9;" d="M592-21Q366-21 232.50 129.50Q99 280 99 520L99 564Q99 795 236.50 948.50Q374 1102 562 1102Q781 1102 893 970Q1005 838 1005 618L1005 495L303 495L300 490Q303 334 379 233.50Q455 133 592 133Q692 133 767.50 161.50Q843 190 898 240L975 112Q917 55 822 17Q727-21 592-21M562 947Q463 947 393 863.50Q323 780 307 654L309 649L808 649L808 675Q808 791 746 869Q684 947 562 947M653 1501L883 1501L885 1495L615 1235L468 1235L653 1501Z"  horiz-adv-x="1083" vert-adv-y="2048"  />

      
      <glyph glyph-name="uniea" unicode="&#xea;" d="M592-21Q366-21 232.50 129.50Q99 280 99 520L99 564Q99 795 236.50 948.50Q374 1102 562 1102Q781 1102 893 970Q1005 838 1005 618L1005 495L303 495L300 490Q303 334 379 233.50Q455 133 592 133Q692 133 767.50 161.50Q843 190 898 240L975 112Q917 55 822 17Q727-21 592-21M562 947Q463 947 393 863.50Q323 780 307 654L309 649L808 649L808 675Q808 791 746 869Q684 947 562 947M866 1305L866 1280L705 1280L558 1428L412 1280L252 1280L252 1306L498 1543L618 1543L866 1305Z"  horiz-adv-x="1083" vert-adv-y="2048"  />

      
      <glyph glyph-name="unieb" unicode="&#xeb;" d="M592-21Q366-21 232.50 129.50Q99 280 99 520L99 564Q99 795 236.50 948.50Q374 1102 562 1102Q781 1102 893 970Q1005 838 1005 618L1005 495L303 495L300 490Q303 334 379 233.50Q455 133 592 133Q692 133 767.50 161.50Q843 190 898 240L975 112Q917 55 822 17Q727-21 592-21M562 947Q463 947 393 863.50Q323 780 307 654L309 649L808 649L808 675Q808 791 746 869Q684 947 562 947M903 1284L684 1284L684 1484L903 1484L903 1284M433 1284L214 1284L214 1484L433 1484L433 1284Z"  horiz-adv-x="1083" vert-adv-y="2048"  />

      
      <glyph glyph-name="uniec" unicode="&#xec;" d="M350 0L153 0L153 1082L350 1082L350 0M337 1217L179 1217L-71 1477L-68 1483L162 1483L337 1217Z"  horiz-adv-x="515" vert-adv-y="2048"  />

      
      <glyph glyph-name="unied" unicode="&#xed;" d="M350 0L153 0L153 1082L350 1082L350 0M347 1479L577 1479L579 1473L309 1213L162 1213L347 1479Z"  horiz-adv-x="515" vert-adv-y="2048"  />

      
      <glyph glyph-name="uniee" unicode="&#xee;" d="M350 0L153 0L153 1082L350 1082L350 0M562 1283L562 1258L401 1258L254 1406L108 1258L-52 1258L-52 1284L194 1521L314 1521L562 1283Z"  horiz-adv-x="515" vert-adv-y="2048"  />

      
      <glyph glyph-name="unief" unicode="&#xef;" d="M350 0L153 0L153 1082L350 1082L350 0M599 1262L380 1262L380 1462L599 1462L599 1262M129 1262L-90 1262L-90 1462L129 1462L129 1262Z"  horiz-adv-x="515" vert-adv-y="2048"  />

      
      <glyph glyph-name="unif0" unicode="&#xf0;" d="M873 1297Q968 1193 1020 1055.50Q1072 918 1072 755L1072 535Q1072 290 928 134.50Q784-21 569-21Q351-21 211.50 119Q72 259 72 466Q72 694 210 836Q348 978 561 978Q651 978 730.50 941Q810 904 862 844L866 849Q857 958 814.50 1046Q772 1134 704 1200L414 1035L337 1137L593 1283Q554 1305 512.50 1322Q471 1339 427 1353L487 1517Q566 1498 638 1465Q710 1432 773 1386L991 1511L1068 1409L873 1297M573 133Q706 133 790.50 247Q875 361 875 535L875 683Q840 742 759.50 782.50Q679 823 561 823Q430 823 349.50 719Q269 615 269 466Q269 334 351 233.50Q433 133 573 133Z"  horiz-adv-x="1202" vert-adv-y="2048"  />

      
      <glyph glyph-name="unif1" unicode="&#xf1;" d="M319 1082L333 921Q387 1007 468.50 1054.50Q550 1102 654 1102Q829 1102 925 999.50Q1021 897 1021 683L1021 0L824 0L824 679Q824 822 767.50 882Q711 942 595 942Q510 942 444.50 901Q379 860 340 789L340 0L143 0L143 1082L319 1082M925 1522Q925 1428 865.50 1363Q806 1298 716 1298Q645 1298 568 1344.50Q491 1391 440 1391Q397 1391 368 1358.50Q339 1326 339 1280L231 1306Q231 1399 290 1467.50Q349 1536 440 1536Q496 1536 580 1489Q664 1442 716 1442Q757 1442 787 1474.50Q817 1507 817 1554L925 1522Z"  horiz-adv-x="1164" vert-adv-y="2048"  />

      
      <glyph glyph-name="unif2" unicode="&#xf2;" d="M97 551Q97 791 227 946.50Q357 1102 580 1102Q805 1102 935.50 947Q1066 792 1066 551L1066 529Q1066 287 936 133Q806-21 582-21Q358-21 227.50 133.50Q97 288 97 529L97 551M294 529Q294 357 366.50 245Q439 133 582 133Q723 133 796 245Q869 357 869 529L869 551Q869 721 795.50 834Q722 947 580 947Q439 947 366.50 834Q294 721 294 551L294 529M665 1238L507 1238L257 1498L260 1504L490 1504L665 1238Z"  horiz-adv-x="1164" vert-adv-y="2048"  />

      
      <glyph glyph-name="unif3" unicode="&#xf3;" d="M97 551Q97 791 227 946.50Q357 1102 580 1102Q805 1102 935.50 947Q1066 792 1066 551L1066 529Q1066 287 936 133Q806-21 582-21Q358-21 227.50 133.50Q97 288 97 529L97 551M294 529Q294 357 366.50 245Q439 133 582 133Q723 133 796 245Q869 357 869 529L869 551Q869 721 795.50 834Q722 947 580 947Q439 947 366.50 834Q294 721 294 551L294 529M677 1500L907 1500L909 1494L639 1234L492 1234L677 1500Z"  horiz-adv-x="1164" vert-adv-y="2048"  />

      
      <glyph glyph-name="unif4" unicode="&#xf4;" d="M97 551Q97 791 227 946.50Q357 1102 580 1102Q805 1102 935.50 947Q1066 792 1066 551L1066 529Q1066 287 936 133Q806-21 582-21Q358-21 227.50 133.50Q97 288 97 529L97 551M294 529Q294 357 366.50 245Q439 133 582 133Q723 133 796 245Q869 357 869 529L869 551Q869 721 795.50 834Q722 947 580 947Q439 947 366.50 834Q294 721 294 551L294 529M890 1304L890 1279L729 1279L582 1427L436 1279L276 1279L276 1305L522 1542L642 1542L890 1304Z"  horiz-adv-x="1164" vert-adv-y="2048"  />

      
      <glyph glyph-name="unif5" unicode="&#xf5;" d="M97 551Q97 791 227 946.50Q357 1102 580 1102Q805 1102 935.50 947Q1066 792 1066 551L1066 529Q1066 287 936 133Q806-21 582-21Q358-21 227.50 133.50Q97 288 97 529L97 551M294 529Q294 357 366.50 245Q439 133 582 133Q723 133 796 245Q869 357 869 529L869 551Q869 721 795.50 834Q722 947 580 947Q439 947 366.50 834Q294 721 294 551L294 529M929 1522Q929 1428 869.50 1363Q810 1298 720 1298Q649 1298 572 1344.50Q495 1391 444 1391Q401 1391 372 1358.50Q343 1326 343 1280L235 1306Q235 1399 294 1467.50Q353 1536 444 1536Q500 1536 584 1489Q668 1442 720 1442Q761 1442 791 1474.50Q821 1507 821 1554L929 1522Z"  horiz-adv-x="1164" vert-adv-y="2048"  />

      
      <glyph glyph-name="unif6" unicode="&#xf6;" d="M97 551Q97 791 227 946.50Q357 1102 580 1102Q805 1102 935.50 947Q1066 792 1066 551L1066 529Q1066 287 936 133Q806-21 582-21Q358-21 227.50 133.50Q97 288 97 529L97 551M294 529Q294 357 366.50 245Q439 133 582 133Q723 133 796 245Q869 357 869 529L869 551Q869 721 795.50 834Q722 947 580 947Q439 947 366.50 834Q294 721 294 551L294 529M927 1283L708 1283L708 1483L927 1483L927 1283M457 1283L238 1283L238 1483L457 1483L457 1283Z"  horiz-adv-x="1164" vert-adv-y="2048"  />

      
      <glyph glyph-name="unif7" unicode="&#xf7;" d="M1069 597L71 597L71 785L1069 785L1069 597M670 999L472 999L472 1202L670 1202L670 999M670 180L472 180L472 383L670 383L670 180Z"  horiz-adv-x="1170" vert-adv-y="2048"  />

      
      <glyph glyph-name="unif8" unicode="&#xf8;" d="M97 551Q97 791 227 946.50Q357 1102 580 1102Q636 1102 687.50 1091Q739 1080 785 1060L859 1209L988 1209L884 998Q972 924 1019 808Q1066 692 1066 551L1066 529Q1066 287 936 133Q806-21 582-21Q531-21 485-12.50Q439-4 397 12L325-135L196-135L296 69Q200 140 148.50 260Q97 380 97 529L97 551M294 529Q294 438 314 362.50Q334 287 375 239L381 239L713 913Q684 929 650.50 938Q617 947 580 947Q439 947 366.50 834Q294 721 294 551L294 529M869 551Q869 631 851.50 701.50Q834 772 802 819L796 819L469 156Q493 144 521 138.50Q549 133 582 133Q723 133 796 245Q869 357 869 529L869 551Z"  horiz-adv-x="1164" vert-adv-y="2048"  />

      
      <glyph glyph-name="unif9" unicode="&#xf9;" d="M830 160Q779 73 699 26Q619-21 514-21Q337-21 238 92Q139 205 139 444L139 1082L336 1082L336 442Q336 269 387 204Q438 139 546 139Q651 139 719.50 181.50Q788 224 823 302L823 1082L1020 1082L1020 0L843 0L830 160M663 1217L505 1217L255 1477L258 1483L488 1483L663 1217Z"  horiz-adv-x="1164" vert-adv-y="2048"  />

      
      <glyph glyph-name="unifa" unicode="&#xfa;" d="M830 160Q779 73 699 26Q619-21 514-21Q337-21 238 92Q139 205 139 444L139 1082L336 1082L336 442Q336 269 387 204Q438 139 546 139Q651 139 719.50 181.50Q788 224 823 302L823 1082L1020 1082L1020 0L843 0L830 160M675 1479L905 1479L907 1473L637 1213L490 1213L675 1479Z"  horiz-adv-x="1164" vert-adv-y="2048"  />

      
      <glyph glyph-name="unifb" unicode="&#xfb;" d="M830 160Q779 73 699 26Q619-21 514-21Q337-21 238 92Q139 205 139 444L139 1082L336 1082L336 442Q336 269 387 204Q438 139 546 139Q651 139 719.50 181.50Q788 224 823 302L823 1082L1020 1082L1020 0L843 0L830 160M888 1283L888 1258L727 1258L580 1406L434 1258L274 1258L274 1284L520 1521L640 1521L888 1283Z"  horiz-adv-x="1164" vert-adv-y="2048"  />

      
      <glyph glyph-name="unifc" unicode="&#xfc;" d="M830 160Q779 73 699 26Q619-21 514-21Q337-21 238 92Q139 205 139 444L139 1082L336 1082L336 442Q336 269 387 204Q438 139 546 139Q651 139 719.50 181.50Q788 224 823 302L823 1082L1020 1082L1020 0L843 0L830 160M925 1262L706 1262L706 1462L925 1462L925 1262M455 1262L236 1262L236 1462L455 1462L455 1262Z"  horiz-adv-x="1164" vert-adv-y="2048"  />

      
      <glyph glyph-name="unifd" unicode="&#xfd;" d="M474 401L509 265L515 265L781 1082L1000 1082L545-166Q504-275 427.50-356Q351-437 221-437Q197-437 160-431.50Q123-426 103-421L123-266Q117-265 158.50-268Q200-271 211-271Q274-271 314-215Q354-159 381-91L428 22L26 1082L246 1082L474 401M609 1479L839 1479L841 1473L571 1213L424 1213L609 1479Z"  horiz-adv-x="1030" vert-adv-y="2048"  />

      
      <glyph glyph-name="unife" unicode="&#xfe;" d="M1075 500Q1075 266 963 122.50Q851-21 654-21Q554-21 478.50 12.50Q403 46 350 113L350-416L153-416L153 1560L350 1560L350 962Q403 1030 478 1066Q553 1102 651 1102Q852 1102 963.50 942.50Q1075 783 1075 521L1075 500M878 521Q878 705 805.50 823.50Q733 942 592 942Q507 942 447 903.50Q387 865 350 798L350 275Q387 208 447 170.50Q507 133 594 133Q734 133 806 235.50Q878 338 878 500L878 521Z"  horiz-adv-x="1186" vert-adv-y="2048"  />

      
      <glyph glyph-name="uniff" unicode="&#xff;" d="M474 401L509 265L515 265L781 1082L1000 1082L545-166Q504-275 427.50-356Q351-437 221-437Q197-437 160-431.50Q123-426 103-421L123-266Q117-265 158.50-268Q200-271 211-271Q274-271 314-215Q354-159 381-91L428 22L26 1082L246 1082L474 401M859 1262L640 1262L640 1462L859 1462L859 1262M389 1262L170 1262L170 1462L389 1462L389 1262Z"  horiz-adv-x="1030" vert-adv-y="2048"  />

      
      <glyph glyph-name="uni0131" unicode="&#x0131;" d="M350 0L153 0L153 1082L350 1082L350 0Z"  horiz-adv-x="515" vert-adv-y="2048"  />

      
      <glyph glyph-name="uni0152" unicode="&#x0152;" d="M1871 0L953 0Q861-10 796-15.50Q731-21 664-21Q415-21 259.50 145Q104 311 104 576L104 880Q104 1145 258.50 1311Q413 1477 662 1477Q731 1477 802.50 1471Q874 1465 953 1456L1860 1456L1860 1301L1102 1301L1102 830L1769 830L1769 675L1102 675L1102 154L1871 154L1871 0M664 134Q725 134 786 138.50Q847 143 905 152L905 1303Q844 1311 783 1316.50Q722 1322 662 1322Q493 1322 397 1208.50Q301 1095 301 882L301 576Q301 362 398 248Q495 134 664 134Z"  horiz-adv-x="1960" vert-adv-y="2048"  />

      
      <glyph glyph-name="uni0153" unicode="&#x0153;" d="M1370-21Q1239-21 1137.50 31.50Q1036 84 971 180Q907 84 808 31.50Q709-21 582-21Q358-21 227.50 133.50Q97 288 97 529L97 551Q97 791 227 946.50Q357 1102 580 1102Q710 1102 810 1047.50Q910 993 974 895Q1039 992 1135.50 1047Q1232 1102 1340 1102Q1559 1102 1671 970Q1783 838 1783 618L1783 495L1081 495L1078 490Q1081 334 1157 233.50Q1233 133 1370 133Q1470 133 1545.50 161.50Q1621 190 1676 240L1753 112Q1695 55 1600 17Q1505-21 1370-21M294 529Q294 357 366.50 245Q439 133 582 133Q723 133 796 245Q869 357 869 529L869 551Q869 721 795.50 834Q722 947 580 947Q439 947 366.50 834Q294 721 294 551L294 529M1340 947Q1241 947 1171 863.50Q1101 780 1085 654L1087 649L1586 649L1586 675Q1586 791 1524 869Q1462 947 1340 947Z"  horiz-adv-x="1854" vert-adv-y="2048"  />

      
      <glyph glyph-name="uni02C6" unicode="&#x02C6;" d="M785 1277L785 1252L624 1252L477 1400L331 1252L171 1252L171 1278L417 1515L537 1515L785 1277Z"  horiz-adv-x="979" vert-adv-y="2048"  />

      
      <glyph glyph-name="uni02DA" unicode="&#x02DA;" d="M133 1308Q133 1392 193.50 1449Q254 1506 341 1506Q426 1506 486 1449.50Q546 1393 546 1308Q546 1222 486.50 1168Q427 1114 341 1114Q254 1114 193.50 1168Q133 1222 133 1308M236 1308Q236 1265 267 1234.50Q298 1204 341 1204Q383 1204 413 1233.50Q443 1263 443 1308Q443 1353 413 1384Q383 1415 341 1415Q298 1415 267 1384Q236 1353 236 1308Z"  horiz-adv-x="696" vert-adv-y="2048"  />

      
      <glyph glyph-name="uni02DC" unicode="&#x02DC;" d="M829 1491Q829 1397 769.50 1332Q710 1267 620 1267Q549 1267 472 1313.50Q395 1360 344 1360Q301 1360 272 1327.50Q243 1295 243 1249L135 1275Q135 1368 194 1436.50Q253 1505 344 1505Q400 1505 484 1458Q568 1411 620 1411Q661 1411 691 1443.50Q721 1476 721 1523L829 1491Z"  horiz-adv-x="979" vert-adv-y="2048"  />

      
      <glyph glyph-name="uni0400" unicode="&#x0400;" d="M1044 675L377 675L377 154L1146 154L1146 0L180 0L180 1456L1135 1456L1135 1301L377 1301L377 830L1044 830L1044 675M711 1560L553 1560L303 1820L306 1826L536 1826L711 1560Z"  horiz-adv-x="1197" vert-adv-y="2048"  />

      
      <glyph glyph-name="uni0401" unicode="&#x0401;" d="M1044 675L377 675L377 154L1146 154L1146 0L180 0L180 1456L1135 1456L1135 1301L377 1301L377 830L1044 830L1044 675M973 1605L754 1605L754 1805L973 1805L973 1605M503 1605L284 1605L284 1805L503 1805L503 1605Z"  horiz-adv-x="1197" vert-adv-y="2048"  />

      
      <glyph glyph-name="uni0402" unicode="&#x0402;" d="M1173 1301L655 1301L655 841Q734 863 810 877.50Q886 892 940 892Q1186 892 1323 771Q1460 650 1460 433Q1460 217 1333 104Q1206-9 968-6L963-4L961 137Q1123 137 1193 213Q1263 289 1263 433Q1261 576 1180.50 651.50Q1100 727 940 727Q878 727 801.50 714.50Q725 702 655 681L655 0L458 0L458 1301L41 1301L41 1456L1173 1456L1173 1301Z"  horiz-adv-x="1537" vert-adv-y="2048"  />

      
      <glyph glyph-name="uni0403" unicode="&#x0403;" d="M1073 1301L377 1301L377 0L180 0L180 1456L1073 1456L1073 1301M721 1822L951 1822L953 1816L683 1556L536 1556L721 1822Z"  horiz-adv-x="1140" vert-adv-y="2048"  />

      
      <glyph glyph-name="uni0404" unicode="&#x0404;" d="M1226 467L1228 461Q1232 256 1084 118Q936-20 693-20Q446-20 290.50 155Q135 330 135 599L135 858Q135 1127 290.50 1302.50Q446 1478 693 1478Q940 1478 1086 1346.50Q1232 1215 1228 998L1226 992L1037 992Q1037 1145 947 1234Q857 1323 693 1323Q528 1323 430 1190Q332 1057 332 860L332 813L894 813L894 659L332 659L332 599Q332 400 430 267Q528 134 693 134Q857 134 947 222.50Q1037 311 1037 467L1226 467Z"  horiz-adv-x="1386" vert-adv-y="2048"  />

      
      <glyph glyph-name="uni0405" unicode="&#x0405;" d="M973 367Q973 467 898 534.50Q823 602 632 648Q401 703 271.50 810Q142 917 142 1079Q142 1249 281.50 1363Q421 1477 643 1477Q882 1477 1023.50 1346Q1165 1215 1160 1042L1158 1036L970 1036Q970 1164 885.50 1243Q801 1322 643 1322Q496 1322 417.50 1255.50Q339 1189 339 1082Q339 987 424 923.50Q509 860 700 812Q930 755 1050 644Q1170 533 1170 369Q1170 193 1026 86Q882-21 650-21Q432-21 264.50 97Q97 215 102 413L104 419L292 419Q292 279 395 206Q498 133 650 133Q799 133 886 196Q973 259 973 367Z"  horiz-adv-x="1277" vert-adv-y="2048"  />

      
      <glyph glyph-name="uni0406" unicode="&#x0406;" d="M388 0L190 0L190 1456L388 1456L388 0Z"  horiz-adv-x="579" vert-adv-y="2048"  />

      
      <glyph glyph-name="uni0407" unicode="&#x0407;" d="M388 0L190 0L190 1456L388 1456L388 0M636 1605L417 1605L417 1805L636 1805L636 1605M166 1605L-53 1605L-53 1805L166 1805L166 1605Z"  horiz-adv-x="579" vert-adv-y="2048"  />

      
      <glyph glyph-name="uni0408" unicode="&#x0408;" d="M766 1456L963 1456L963 403Q963 208 839.50 93.50Q716-21 519-21Q309-21 185 85.50Q61 192 66 395L68 401L257 401Q257 266 325.50 199.50Q394 133 519 133Q628 133 697 206.50Q766 280 766 403L766 1456Z"  horiz-adv-x="1130" vert-adv-y="2048"  />

      
      <glyph glyph-name="uni0409" unicode="&#x0409;" d="M1271 1456L1271 889L1630 889Q1862 889 1991.50 765.50Q2121 642 2121 444Q2121 246 1991.50 123Q1862 0 1630 0L1074 0L1074 1301L570 1301L569 770Q568 369 460.50 184.50Q353 0 102 0L50 0L50 154L90 154Q240 154 306 296.50Q372 439 373 770L373 1456L1271 1456M1271 735L1271 154L1630 154Q1777 154 1850.50 238.50Q1924 323 1924 446Q1924 567 1850.50 651Q1777 735 1630 735L1271 735Z"  horiz-adv-x="2201" vert-adv-y="2048"  />

      
      <glyph glyph-name="uni040A" unicode="&#x040A;" d="M377 827L1085 827L1085 1456L1282 1456L1282 840L1642 840Q1875 840 2003.50 726Q2132 612 2132 424Q2132 235 2003 117.50Q1874 0 1642 0L1085 0L1085 673L377 673L377 0L180 0L180 1456L377 1456L377 827M1282 685L1282 165L1642 165Q1789 165 1862.50 239Q1936 313 1936 426Q1936 538 1862.50 611.50Q1789 685 1642 685L1282 685Z"  horiz-adv-x="2212" vert-adv-y="2048"  />

      
      <glyph glyph-name="uni040B" unicode="&#x040B;" d="M1198 1301L670 1301L670 868Q746 888 825 898Q904 908 1009 908Q1249 908 1373.50 802Q1498 696 1498 460L1498 0L1301 0L1301 460Q1301 624 1231.50 688Q1162 752 1009 752Q919 752 835.50 741Q752 730 670 710L670 0L473 0L473 1301L66 1301L66 1456L1198 1456L1198 1301Z"  horiz-adv-x="1670" vert-adv-y="2048"  />

      
      <glyph glyph-name="uni040C" unicode="&#x040C;" d="M547 657L377 657L377 0L180 0L180 1456L377 1456L377 812L529 812L1050 1456L1268 1456L1271 1451L706 752L1312 5L1309 0L1074 0L547 657M709 1822L939 1822L941 1816L671 1556L524 1556L709 1822Z"  horiz-adv-x="1317" vert-adv-y="2048"  />

      
      <glyph glyph-name="uni040D" unicode="&#x040D;" d="M1084 1456L1281 1456L1281 0L1084 0L1084 1110L1078 1112L377 0L180 0L180 1456L377 1456L377 347L383 345L1084 1456M816 1560L658 1560L408 1820L411 1826L641 1826L816 1560Z"  horiz-adv-x="1461" vert-adv-y="2048"  />

      
      <glyph glyph-name="uni040E" unicode="&#x040E;" d="M588 775L661 587L667 587L995 1456L1224 1456L715 239Q656 108 586.50 43.50Q517-21 365-21Q340-21 306.50-18Q273-15 264-12L269 137Q279 135 312.50 134Q346 133 363 133Q434 133 464.50 169Q495 205 533 285L573 369L85 1456L306 1456L588 775M940 1870L942 1864Q946 1748 865 1675Q784 1602 647 1602Q509 1602 428 1675Q347 1748 352 1864L354 1870L505 1870Q505 1804 539 1763Q573 1722 647 1722Q719 1722 754 1763.50Q789 1805 789 1870L940 1870Z"  horiz-adv-x="1297" vert-adv-y="2048"  />

      
      <glyph glyph-name="uni040F" unicode="&#x040F;" d="M180 1456L377 1456L377 154L1085 154L1085 1456L1282 1456L1282 0L837 0L837-359L640-359L640 0L180 0L180 1456Z"  horiz-adv-x="1463" vert-adv-y="2048"  />

      
      <glyph glyph-name="uni0410" unicode="&#x0410;" d="M969 375L359 375L221 0L20 0L583 1456L752 1456L1306 0L1105 0L969 375M420 540L910 540L670 1203L664 1203L420 540Z"  horiz-adv-x="1326" vert-adv-y="2048"  />

      
      <glyph glyph-name="uni0411" unicode="&#x0411;" d="M1056 1301L360 1301L360 880L719 880Q952 880 1081.50 760.50Q1211 641 1211 444Q1211 246 1081 123Q951 0 719 0L163 0L163 1456L1056 1456L1056 1301M360 725L360 154L719 154Q866 154 940 238.50Q1014 323 1014 446Q1014 565 940.50 645Q867 725 719 725L360 725Z"  horiz-adv-x="1292" vert-adv-y="2048"  />

      
      <glyph glyph-name="uni0412" unicode="&#x0412;" d="M180 0L180 1456L655 1456Q883 1456 1012 1357.50Q1141 1259 1141 1062Q1141 965 1079 888.50Q1017 812 916 775Q1048 747 1123.50 646Q1199 545 1199 411Q1199 211 1069.50 105.50Q940 0 718 0L180 0M377 683L377 154L718 154Q852 154 927 220.50Q1002 287 1002 409Q1002 537 939.50 610Q877 683 747 683L377 683M377 837L696 837Q806 837 875 897.50Q944 958 944 1066Q944 1184 869.50 1242.50Q795 1301 655 1301L377 1301L377 837Z"  horiz-adv-x="1309" vert-adv-y="2048"  />

      
      <glyph glyph-name="uni0413" unicode="&#x0413;" d="M1073 1301L377 1301L377 0L180 0L180 1456L1073 1456L1073 1301Z"  horiz-adv-x="1140" vert-adv-y="2048"  />

      
      <glyph glyph-name="uni0414" unicode="&#x0414;" d="M1293 154L1493 154L1473-357L1296-357L1296 0L245 0L245-359L78-359L48 154L173 154Q250 241 314 409.50Q378 578 384 867L417 1456L1293 1456L1293 154M583 867Q574 629 523 448Q472 267 392 154L1096 154L1096 1301L606 1301L583 867Z"  horiz-adv-x="1550" vert-adv-y="2048"  />

      
      <glyph glyph-name="uni0415" unicode="&#x0415;" d="M1044 675L377 675L377 154L1146 154L1146 0L180 0L180 1456L1135 1456L1135 1301L377 1301L377 830L1044 830L1044 675Z"  horiz-adv-x="1197" vert-adv-y="2048"  />

      
      <glyph glyph-name="uni0416" unicode="&#x0416;" d="M1191 668L1038 668L1038 0L841 0L841 668L679 668L274 0L28 0L515 770L69 1456L299 1456L677 823L841 823L841 1456L1038 1456L1038 823L1194 823L1572 1456L1802 1456L1355 771L1842 0L1597 0L1191 668Z"  horiz-adv-x="1869" vert-adv-y="2048"  />

      
      <glyph glyph-name="uni0417" unicode="&#x0417;" d="M1225 1062Q1225 961 1157 877.50Q1089 794 969 747Q1104 705 1175.50 618Q1247 531 1247 406Q1247 205 1087.50 92Q928-21 670-21Q444-21 282 86Q120 193 125 398L127 404L315 404Q315 290 414 211.50Q513 133 670 133Q848 133 949 207.50Q1050 282 1050 402Q1050 535 958 599.50Q866 664 686 664L503 664L503 820L686 820Q860 820 944 886Q1028 952 1028 1066Q1028 1178 937.50 1250Q847 1322 670 1322Q529 1322 432.50 1251Q336 1180 336 1075L148 1075L147 1081Q141 1257 293.50 1367Q446 1477 670 1477Q927 1477 1076 1369Q1225 1261 1225 1062Z"  horiz-adv-x="1385" vert-adv-y="2048"  />

      
      <glyph glyph-name="uni0418" unicode="&#x0418;" d="M1084 1456L1281 1456L1281 0L1084 0L1084 1110L1078 1112L377 0L180 0L180 1456L377 1456L377 347L383 345L1084 1456Z"  horiz-adv-x="1461" vert-adv-y="2048"  />

      
      <glyph glyph-name="uni0419" unicode="&#x0419;" d="M1084 1456L1281 1456L1281 0L1084 0L1084 1110L1078 1112L377 0L180 0L180 1456L377 1456L377 347L383 345L1084 1456M1027 1870L1029 1864Q1033 1748 952 1675Q871 1602 734 1602Q596 1602 515 1675Q434 1748 439 1864L441 1870L592 1870Q592 1804 626 1763Q660 1722 734 1722Q806 1722 841 1763.50Q876 1805 876 1870L1027 1870Z"  horiz-adv-x="1461" vert-adv-y="2048"  />

      
      <glyph glyph-name="uni041A" unicode="&#x041A;" d="M547 657L377 657L377 0L180 0L180 1456L377 1456L377 812L529 812L1050 1456L1268 1456L1271 1451L706 752L1312 5L1309 0L1074 0L547 657Z"  horiz-adv-x="1317" vert-adv-y="2048"  />

      
      <glyph glyph-name="uni041B" unicode="&#x041B;" d="M1271 1456L1271 0L1074 0L1074 1301L548 1301L547 770Q547 370 444 185Q341 0 102 0L49 0L49 154L90 154Q228 154 289 296.50Q350 439 351 770L352 1456L1271 1456Z"  horiz-adv-x="1451" vert-adv-y="2048"  />

      
      <glyph glyph-name="uni041C" unicode="&#x041C;" d="M432 1456L896 273L902 273L1366 1456L1618 1456L1618 0L1421 0L1421 576L1441 1168L1436 1169L964 0L833 0L363 1166L358 1165L377 576L377 0L180 0L180 1456L432 1456Z"  horiz-adv-x="1799" vert-adv-y="2048"  />

      
      <glyph glyph-name="uni041D" unicode="&#x041D;" d="M1281 0L1084 0L1084 643L377 643L377 0L180 0L180 1456L377 1456L377 798L1084 798L1084 1456L1281 1456L1281 0Z"  horiz-adv-x="1461" vert-adv-y="2048"  />

      
      <glyph glyph-name="uni041E" unicode="&#x041E;" d="M1282 598Q1282 331 1116.50 155Q951-21 687-21Q432-21 272.50 155Q113 331 113 598L113 857Q113 1123 272.50 1300Q432 1477 687 1477Q951 1477 1116.50 1300.50Q1282 1124 1282 857L1282 598M1085 859Q1085 1059 977 1187Q869 1315 687 1315Q515 1315 412.50 1187Q310 1059 310 859L310 598Q310 396 412.50 268Q515 140 687 140Q870 140 977.50 267.50Q1085 395 1085 598L1085 859Z"  horiz-adv-x="1396" vert-adv-y="2048"  />

      
      <glyph glyph-name="uni041F" unicode="&#x041F;" d="M1283 0L1085 0L1085 1301L377 1301L377 0L180 0L180 1456L1283 1456L1283 0Z"  horiz-adv-x="1463" vert-adv-y="2048"  />

      
      <glyph glyph-name="uni0420" unicode="&#x0420;" d="M377 584L377 0L180 0L180 1456L737 1456Q970 1456 1099 1336Q1228 1216 1228 1020Q1228 821 1099 702.50Q970 584 737 584L377 584M377 738L737 738Q885 738 958 817.50Q1031 897 1031 1018Q1031 1139 957.50 1220Q884 1301 737 1301L377 1301L377 738Z"  horiz-adv-x="1312" vert-adv-y="2048"  />

      
      <glyph glyph-name="uni0421" unicode="&#x0421;" d="M1209 466L1211 460Q1215 255 1067 117Q919-21 676-21Q429-21 273.50 154Q118 329 118 598L118 857Q118 1126 273.50 1301.50Q429 1477 676 1477Q923 1477 1069 1345.50Q1215 1214 1211 997L1209 991L1020 991Q1020 1144 930 1233Q840 1322 676 1322Q511 1322 413 1189Q315 1056 315 859L315 598Q315 399 413 266Q511 133 676 133Q840 133 930 221.50Q1020 310 1020 466L1209 466Z"  horiz-adv-x="1297" vert-adv-y="2048"  />

      
      <glyph glyph-name="uni0422" unicode="&#x0422;" d="M1166 1301L698 1301L698 0L501 0L501 1301L34 1301L34 1456L1166 1456L1166 1301Z"  horiz-adv-x="1200" vert-adv-y="2048"  />

      
      <glyph glyph-name="uni0423" unicode="&#x0423;" d="M588 775L661 587L667 587L995 1456L1224 1456L715 239Q656 108 586.50 43.50Q517-21 365-21Q340-21 306.50-18Q273-15 264-12L269 137Q279 135 312.50 134Q346 133 363 133Q434 133 464.50 169Q495 205 533 285L573 369L85 1456L306 1456L588 775Z"  horiz-adv-x="1287" vert-adv-y="2048"  />

      
      <glyph glyph-name="uni0424" unicode="&#x0424;" d="M900 1311L926 1311Q1178 1311 1347.50 1146.50Q1517 982 1517 725Q1517 466 1347.50 301Q1178 136 926 136L900 136L900-60L703-60L703 136L674 136Q421 136 253 300Q85 464 85 723Q85 980 253.50 1145.50Q422 1311 674 1311L703 1311L703 1516L900 1516L900 1311M674 1156Q485 1156 382.50 1039Q280 922 280 723Q280 522 382.50 406Q485 290 674 290L703 290L703 1156L674 1156M900 1156L900 290L928 290Q1114 290 1217.50 407Q1321 524 1321 725Q1321 923 1217.50 1039.50Q1114 1156 928 1156L900 1156Z"  horiz-adv-x="1591" vert-adv-y="2048"  />

      
      <glyph glyph-name="uni0425" unicode="&#x0425;" d="M650 888L990 1456L1228 1456L766 734L1238 0L1003 0L654 578L304 0L66 0L538 734L76 1456L312 1456L650 888Z"  horiz-adv-x="1295" vert-adv-y="2048"  />

      
      <glyph glyph-name="uni0426" unicode="&#x0426;" d="M1496-359L1299-359L1299 160L1496 160L1496-359M181 1456L379 1456L379 155L1087 155L1087 1456L1284 1456L1284 0L181 0L181 1456Z"  horiz-adv-x="1576" vert-adv-y="2048"  />

      
      <glyph glyph-name="uni0427" unicode="&#x0427;" d="M1228 1456L1228 0L1031 0L1031 603Q936 574 847 561Q758 548 636 548Q395 548 271 653.50Q147 759 147 996L147 1456L345 1456L345 996Q345 831 414 767.50Q483 704 636 704Q740 704 836 718Q932 732 1031 759L1031 1456L1228 1456Z"  horiz-adv-x="1409" vert-adv-y="2048"  />

      
      <glyph glyph-name="uni0428" unicode="&#x0428;" d="M377 1456L377 154L869 154L869 1456L1065 1456L1065 154L1555 154L1555 1456L1752 1456L1752 0L180 0L180 1456L377 1456Z"  horiz-adv-x="1932" vert-adv-y="2048"  />

      
      <glyph glyph-name="uni0429" unicode="&#x0429;" d="M377 1456L377 154L869 154L869 1456L1065 1456L1065 154L1555 154L1555 1456L1752 1456L1752 155L1907 155L1887-351L1712-351L1712 0L180 0L180 1456L377 1456Z"  horiz-adv-x="1994" vert-adv-y="2048"  />

      
      <glyph glyph-name="uni042A" unicode="&#x042A;" d="M22 1456L617 1456L617 860L976 860Q1210 860 1339 745Q1468 630 1468 434Q1468 238 1338.50 119Q1209 0 976 0L420 0L420 1301L22 1301L22 1456M617 705L617 154L976 154Q1124 154 1197.50 234Q1271 314 1271 436Q1271 554 1197.50 629.50Q1124 705 976 705L617 705Z"  horiz-adv-x="1548" vert-adv-y="2048"  />

      
      <glyph glyph-name="uni042B" unicode="&#x042B;" d="M377 880L736 880Q969 880 1098.50 760.50Q1228 641 1228 444Q1228 246 1098 123Q968 0 736 0L180 0L180 1456L377 1456L377 880M377 725L377 154L736 154Q883 154 957 238.50Q1031 323 1031 446Q1031 565 957.50 645Q884 725 736 725L377 725M1603 0L1405 0L1405 1456L1603 1456L1603 0Z"  horiz-adv-x="1782" vert-adv-y="2048"  />

      
      <glyph glyph-name="uni042C" unicode="&#x042C;" d="M360 860L719 860Q953 860 1082 745Q1211 630 1211 434Q1211 238 1081.50 119Q952 0 719 0L163 0L163 1456L360 1456L360 860M360 705L360 154L719 154Q867 154 940.50 234Q1014 314 1014 436Q1014 554 940.50 629.50Q867 705 719 705L360 705Z"  horiz-adv-x="1290" vert-adv-y="2048"  />

      
      <glyph glyph-name="uni042D" unicode="&#x042D;" d="M188 990L186 996Q181 1199 329.50 1338.50Q478 1478 720 1478Q967 1478 1123 1302.50Q1279 1127 1279 858L1279 599Q1279 329 1123 154.50Q967-20 720-20Q473-20 327 110.50Q181 241 186 459L188 465L377 465Q377 311 466 222.50Q555 134 720 134Q884 134 982.50 266.50Q1081 399 1081 597L1081 678L507 678L507 833L1081 833L1081 858Q1081 1056 982.50 1189.50Q884 1323 720 1323Q555 1323 466 1234Q377 1145 377 990L188 990Z"  horiz-adv-x="1385" vert-adv-y="2048"  />

      
      <glyph glyph-name="uni042E" unicode="&#x042E;" d="M1762 598Q1762 331 1596.50 155Q1431-21 1167-21Q912-21 752.50 155Q593 331 593 598L593 632L388 632L388 0L190 0L190 1456L388 1456L388 786L593 786L593 857Q593 1123 752.50 1300Q912 1477 1167 1477Q1431 1477 1596.50 1300.50Q1762 1124 1762 857L1762 598M1565 859Q1565 1059 1457 1187Q1349 1315 1167 1315Q995 1315 892.50 1187Q790 1059 790 859L790 598Q790 396 892.50 268Q995 140 1167 140Q1350 140 1457.50 267.50Q1565 395 1565 598L1565 859Z"  horiz-adv-x="1825" vert-adv-y="2048"  />

      
      <glyph glyph-name="uni042F" unicode="&#x042F;" d="M308 0L99 0L440 622Q299 676 225.50 776Q152 876 152 1018Q152 1226 289.50 1341Q427 1456 668 1456L1134 1456L1134 0L937 0L937 569L611 569L308 0M937 1301L668 1301Q512 1301 430.50 1226Q349 1151 349 1020Q349 889 431 807Q513 725 666 725L937 725L937 1301Z"  horiz-adv-x="1313" vert-adv-y="2048"  />

      
      <glyph glyph-name="uni0430" unicode="&#x0430;" d="M808 0Q798 49 792.50 86.50Q787 124 786 162Q731 84 642.50 31.50Q554-21 452-21Q283-21 194.50 65.50Q106 152 106 304Q106 459 231.50 546.50Q357 634 572 634L786 634L786 741Q786 836 728 891.50Q670 947 564 947Q469 947 409.50 898.50Q350 850 350 782L162 782L160 788Q154 906 271.50 1004Q389 1102 575 1102Q759 1102 871 1008.50Q983 915 983 739L983 218Q983 160 989 106Q995 52 1011 0L808 0M481 144Q588 144 674 199Q760 254 786 325L786 501L565 501Q446 501 374.50 441Q303 381 303 300Q303 228 348 186Q393 144 481 144Z"  horiz-adv-x="1126" vert-adv-y="2048"  />

      
      <glyph glyph-name="uni0431" unicode="&#x0431;" d="M619 1020Q826 1020 946 882.50Q1066 745 1066 530L1066 508Q1066 275 936 127Q806-21 582-21Q358-21 227.50 127Q97 275 97 508L97 648Q97 968 231.50 1158Q366 1348 592 1393Q718 1416 774.50 1448Q831 1480 831 1553L983 1553L985 1547Q988 1371 902 1316Q816 1261 629 1229Q493 1206 396 1124Q299 1042 277 883L281 878Q340 941 429 980.50Q518 1020 619 1020M580 866Q439 866 367 770Q295 674 295 530L295 508Q295 345 367 239Q439 133 582 133Q723 133 796 239Q869 345 869 508L869 530Q869 674 795.50 770Q722 866 580 866Z"  horiz-adv-x="1133" vert-adv-y="2048"  />

      
      <glyph glyph-name="uni0432" unicode="&#x0432;" d="M144 0L144 1082L571 1082Q785 1082 903 1007.50Q1021 933 1021 784Q1021 708 975 648.50Q929 589 845 558Q946 533 1002.50 464.50Q1059 396 1059 308Q1059 156 948.50 78Q838 0 640 0L144 0M341 474L341 152L640 152Q749 152 805 193.50Q861 235 861 313Q861 390 805 432Q749 474 640 474L341 474M341 625L572 625Q697 625 760.50 662Q824 699 824 774Q824 851 760 890Q696 929 571 929L341 929L341 625Z"  horiz-adv-x="1164" vert-adv-y="2048"  />

      
      <glyph glyph-name="uni0433" unicode="&#x0433;" d="M831 926L340 926L340 0L143 0L143 1082L831 1082L831 926Z"  horiz-adv-x="849" vert-adv-y="2048"  />

      
      <glyph glyph-name="uni0434" unicode="&#x0434;" d="M131 154Q214 250 258 354.50Q302 459 317 675L333 1082L1040 1082L1040 154L1184 154L1165-318L987-318L987 0L243 0L243-318L65-318L46 154L131 154M514 675Q503 495 462.50 368Q422 241 358 154L843 154L843 907L523 907L514 675Z"  horiz-adv-x="1247" vert-adv-y="2048"  />

      
      <glyph glyph-name="uni0435" unicode="&#x0435;" d="M592-21Q366-21 232.50 129.50Q99 280 99 520L99 564Q99 795 236.50 948.50Q374 1102 562 1102Q781 1102 893 970Q1005 838 1005 618L1005 495L303 495L300 490Q303 334 379 233.50Q455 133 592 133Q692 133 767.50 161.50Q843 190 898 240L975 112Q917 55 822 17Q727-21 592-21M562 947Q463 947 393 863.50Q323 780 307 654L309 649L808 649L808 675Q808 791 746 869Q684 947 562 947Z"  horiz-adv-x="1083" vert-adv-y="2048"  />

      
      <glyph glyph-name="uni0436" unicode="&#x0436;" d="M1005 469L879 469L879 0L682 0L682 469L555 469L269 0L21 0L407 573L55 1082L293 1082L559 636L682 636L682 1082L879 1082L879 636L1002 636L1269 1082L1507 1082L1154 573L1540 0L1292 0L1005 469Z"  horiz-adv-x="1568" vert-adv-y="2048"  />

      
      <glyph glyph-name="uni0437" unicode="&#x0437;" d="M531 632Q635 632 680 671.50Q725 711 725 786Q725 854 673.50 901Q622 948 518 948Q425 948 362 899Q299 850 299 780L112 780L110 786Q104 925 223.50 1012.50Q343 1100 518 1100Q708 1100 815 1018.50Q922 937 922 786Q922 713 878 652.50Q834 592 755 557Q846 524 894 460Q942 396 942 305Q942 153 825.50 67Q709-19 518-19Q342-19 215 66.50Q88 152 93 314L95 320L282 320Q282 244 348 188Q414 132 518 132Q625 132 684.50 181.50Q744 231 744 305Q744 392 692.50 432Q641 472 531 472L343 472L343 632L531 632Z"  horiz-adv-x="1040" vert-adv-y="2048"  />

      
      <glyph glyph-name="uni0438" unicode="&#x0438;" d="M823 1082L1020 1082L1020 0L823 0L823 768L817 770L339 0L143 0L143 1082L339 1082L339 314L345 312L823 1082Z"  horiz-adv-x="1164" vert-adv-y="2048"  />

      
      <glyph glyph-name="uni0439" unicode="&#x0439;" d="M823 1082L1020 1082L1020 0L823 0L823 768L817 770L339 0L143 0L143 1082L339 1082L339 314L345 312L823 1082M875 1527L877 1521Q881 1405 800 1332Q719 1259 582 1259Q444 1259 363 1332Q282 1405 287 1521L289 1527L440 1527Q440 1461 474 1420Q508 1379 582 1379Q654 1379 689 1420.50Q724 1462 724 1527L875 1527Z"  horiz-adv-x="1164" vert-adv-y="2048"  />

      
      <glyph glyph-name="uni043A" unicode="&#x043A;" d="M479 459L350 459L350 0L153 0L153 1082L350 1082L350 625L464 625L821 1082L1052 1082L1055 1077L631 564L1089 5L1086 0L844 0L479 459Z"  horiz-adv-x="1086" vert-adv-y="2048"  />

      
      <glyph glyph-name="uni043B" unicode="&#x043B;" d="M1020 1082L1020 0L823 0L823 926L457 926L457 620Q457 300 372 150Q287 0 82 0L26 0L30 168L71 169Q176 169 217.50 271.50Q259 374 259 620L259 1082L1020 1082Z"  horiz-adv-x="1133" vert-adv-y="2048"  />

      
      <glyph glyph-name="uni043C" unicode="&#x043C;" d="M759 258L765 258L1119 1082L1365 1082L1365 0L1168 0L1168 751L1162 753L830 0L694 0L356 770L350 768L350 0L153 0L153 1082L407 1082L759 258Z"  horiz-adv-x="1528" vert-adv-y="2048"  />

      
      <glyph glyph-name="uni043D" unicode="&#x043D;" d="M1019 0L822 0L822 460L340 460L340 0L143 0L143 1082L340 1082L340 614L822 614L822 1082L1019 1082L1019 0Z"  horiz-adv-x="1164" vert-adv-y="2048"  />

      
      <glyph glyph-name="uni043E" unicode="&#x043E;" d="M97 551Q97 791 227 946.50Q357 1102 580 1102Q805 1102 935.50 947Q1066 792 1066 551L1066 529Q1066 287 936 133Q806-21 582-21Q358-21 227.50 133.50Q97 288 97 529L97 551M294 529Q294 357 366.50 245Q439 133 582 133Q723 133 796 245Q869 357 869 529L869 551Q869 721 795.50 834Q722 947 580 947Q439 947 366.50 834Q294 721 294 551L294 529Z"  horiz-adv-x="1164" vert-adv-y="2048"  />

      
      <glyph glyph-name="uni043F" unicode="&#x043F;" d="M1020 0L823 0L823 926L340 926L340 0L143 0L143 1082L1020 1082L1020 0Z"  horiz-adv-x="1164" vert-adv-y="2048"  />

      
      <glyph glyph-name="uni0440" unicode="&#x0440;" d="M1065 500Q1065 266 953 122.50Q841-21 644-21Q544-21 468.50 12.50Q393 46 340 113L340-416L143-416L143 1082L294 1082L325 942Q378 1020 457 1061Q536 1102 641 1102Q842 1102 953.50 942.50Q1065 783 1065 521L1065 500M868 521Q868 705 795.50 823.50Q723 942 582 942Q497 942 437 903.50Q377 865 340 798L340 275Q377 208 437 170.50Q497 133 584 133Q724 133 796 235.50Q868 338 868 500L868 521Z"  horiz-adv-x="1164" vert-adv-y="2048"  />

      
      <glyph glyph-name="uni0441" unicode="&#x0441;" d="M583 133Q681 133 755.50 193.50Q830 254 830 342L1007 342L1009 336Q1014 196 884.50 87.50Q755-21 583-21Q347-21 222 133Q97 287 97 520L97 562Q97 793 222.50 947.50Q348 1102 583 1102Q773 1102 893.50 990Q1014 878 1010 715L1008 709L830 709Q830 808 760 877.50Q690 947 583 947Q428 947 361.50 835.50Q295 724 295 562L295 520Q295 354 361 243.50Q427 133 583 133Z"  horiz-adv-x="1087" vert-adv-y="2048"  />

      
      <glyph glyph-name="uni0442" unicode="&#x0442;" d="M977 929L620 929L620 0L423 0L423 929L71 929L71 1082L977 1082L977 929Z"  horiz-adv-x="1048" vert-adv-y="2048"  />

      
      <glyph glyph-name="uni0443" unicode="&#x0443;" d="M474 401L509 265L515 265L781 1082L1000 1082L545-166Q504-275 427.50-356Q351-437 221-437Q197-437 160-431.50Q123-426 103-421L123-266Q117-265 158.50-268Q200-271 211-271Q274-271 314-215Q354-159 381-91L428 22L26 1082L246 1082L474 401Z"  horiz-adv-x="1030" vert-adv-y="2048"  />

      
      <glyph glyph-name="uni0444" unicode="&#x0444;" d="M98 521Q98 784 200 943Q302 1102 492 1102Q532 1102 567.50 1095Q603 1088 635 1076L635 1560L832 1560L832 1070Q866 1085 906 1093.50Q946 1102 993 1102Q1183 1102 1285 943Q1387 784 1387 521L1387 500Q1387 264 1284.50 121.50Q1182-21 995-21Q948-21 907-13Q866-5 832 9L832-416L635-416L635 4Q603-8 567-14.50Q531-21 490-21Q302-21 200 121.50Q98 264 98 500L98 521M1190 521Q1190 709 1126.50 828Q1063 947 933 947Q903 947 878 942.50Q853 938 832 930L832 147Q852 140 877.50 136.50Q903 133 935 133Q1065 133 1127.50 234Q1190 335 1190 500L1190 521M295 500Q295 333 352.50 233Q410 133 540 133Q567 133 591 136.50Q615 140 635 147L635 933Q615 939 592 943Q569 947 542 947Q412 947 353.50 829Q295 711 295 521L295 500Z"  horiz-adv-x="1485" vert-adv-y="2048"  />

      
      </font>
</defs>
</svg>
