<?xml version="1.0" standalone="no"?>
  <!DOCTYPE svg PUBLIC "-//W3C//DTD SVG 1.1//EN" "http://www.w3.org/Graphics/SVG/1.1/DTD/svg11.dtd" >
  <svg>
  <metadata>
  Created by font-carrier
  </metadata>
  <defs>
  <font id="BaronNeueBlack" horiz-adv-x="2101" vert-adv-y="2101" >
    <font-face
      
      font-family="Baron Neue Black"
      
      font-weight="400"
      
      font-stretch="normal"
      
      units-per-em="2048"
      
      ascent="1536"
      
      descent="-512"
      
    />
      <missing-glyph />

      

      
      <glyph glyph-name="uni21" unicode="&#x21;" d="M102 150Q102 216 152.50 265.50Q203 315 272 315Q346 315 397.50 266Q449 217 449 150Q449 82 397.50 33Q346-16 272-16Q203-16 152.50 33.50Q102 83 102 150M117 432L117 1397Q117 1411 130 1422.50Q143 1434 162 1434L389 1434Q407 1434 419.50 1422.50Q432 1411 432 1397L432 432Q432 418 419.50 406.50Q407 395 389 395L162 395Q143 395 130 406.50Q117 418 117 432Z"  horiz-adv-x="565" vert-adv-y="2048"  />

      
      <glyph glyph-name="uni22" unicode="&#x22;" d="M25 965L25 1397Q25 1411 37.50 1422.50Q50 1434 68 1434L236 1434Q254 1434 266.50 1422.50Q279 1411 279 1397L279 965Q279 951 266.50 939.50Q254 928 236 928L68 928Q50 928 37.50 939.50Q25 951 25 965M358 965L358 1397Q358 1411 370 1422.50Q382 1434 401 1434L565 1434Q584 1434 597 1422.50Q610 1411 610 1397L610 965Q610 951 597 939.50Q584 928 565 928L401 928Q382 928 370 939.50Q358 951 358 965Z"  horiz-adv-x="651" vert-adv-y="2048"  />

      
      <glyph glyph-name="uni23" unicode="&#x23;" d="M-18 328L37 526Q40 534 54 542.50Q68 551 80 551L231 551Q242 592 262.50 659.50Q283 727 291 754L313 827L176 827Q152 827 139.50 842.50Q127 858 135 877L133 874L186 1067Q189 1076 202.50 1085Q216 1094 229 1094L383 1094Q398 1145 428 1250.50Q458 1356 473 1407Q476 1416 489.50 1425Q503 1434 516 1434L721 1434Q744 1434 758 1418.50Q772 1403 764 1386L766 1389L680 1094L817 1094Q831 1145 861.50 1250.50Q892 1356 907 1407Q910 1416 923.50 1425Q937 1434 950 1434L1155 1434Q1178 1434 1192 1418.50Q1206 1403 1198 1386L1200 1389L1114 1094L1231 1094Q1254 1094 1267.50 1078.50Q1281 1063 1274 1044L1276 1047L1219 854Q1216 844 1203 835.50Q1190 827 1178 827L1044 827Q1025 773 1016 739Q1011 722 991.50 658.50Q972 595 961 551L1079 551Q1103 551 1116 537Q1129 523 1122 504L1124 506Q1117 481 1096.50 413.50Q1076 346 1067 309Q1064 299 1050.50 291Q1037 283 1024 283L889 283L813 25Q810 15 798 6.50Q786-2 774-2L567-2Q545-2 532 11.50Q519 25 522 41L590 283L455 283Q412 132 381 25Q378 15 364.50 6.50Q351-2 340-2L135-2Q113-2 100 13Q87 28 94 45L92 43L156 283L23 283Q2 283-10.50 298Q-23 313-16 330L-18 328M502 526L678 526L774 854L598 854L502 526Z"  horiz-adv-x="1339" vert-adv-y="2048"  />

      
      <glyph glyph-name="uni24" unicode="&#x24;" d="M78 412Q78 427 89.50 436.50Q101 446 121 446L346 446Q364 446 376.50 436.50Q389 427 389 412Q392 348 435.50 313.50Q479 279 543 279Q607 279 651.50 316.50Q696 354 696 416Q696 482 647.50 525Q599 568 541 571Q426 571 322 618Q204 674 141 771Q78 868 78 997Q78 1161 172.50 1276Q267 1391 410 1430L410 1569Q410 1583 422.50 1594.50Q435 1606 453 1606L643 1606Q661 1606 673.50 1594.50Q686 1583 686 1569L686 1430Q827 1389 914 1281.50Q1001 1174 1004 1026Q1004 1009 991 998Q978 987 958 987L737 987Q719 987 705.50 998Q692 1009 692 1026Q689 1086 647 1119.50Q605 1153 543 1153Q476 1153 432.50 1113Q389 1073 389 997Q389 934 434 898Q479 862 543 862Q658 862 760 815Q880 759 944 653Q1008 547 1008 416Q1008 254 918 145.50Q828 37 686 0L686-129Q686-141 673.50-152.50Q661-164 643-164L453-164Q435-164 422.50-152.50Q410-141 410-129L410-2Q261 33 170 140.50Q79 248 78 412Z"  horiz-adv-x="1112" vert-adv-y="2048"  />

      
      <glyph glyph-name="uni25" unicode="&#x25;" d="M16 4Q-10 4-20 22.50Q-30 41-16 61Q156 281 512 740Q868 1199 1040 1419Q1043 1422 1056 1428Q1069 1434 1075 1434L1290 1434Q1316 1434 1326.50 1414.50Q1337 1395 1323 1376Q1151 1156 794.50 697Q438 238 266 18Q263 15 250 9.50Q237 4 231 4L16 4M12 1137Q12 1268 108 1361Q204 1454 338 1454Q471 1454 566.50 1361Q662 1268 662 1137Q662 1009 566 916Q470 823 338 823Q205 823 108.50 916Q12 1009 12 1137M252 1137Q252 1099 278 1071.50Q304 1044 338 1044Q372 1044 398 1071.50Q424 1099 424 1137Q424 1176 398 1204.50Q372 1233 338 1233Q304 1233 278 1204.50Q252 1176 252 1137M653 301Q653 433 748.50 525.50Q844 618 981 618Q1117 618 1212 525.50Q1307 433 1307 301Q1307 167 1212 74.50Q1117-18 981-18Q844-18 748.50 75Q653 168 653 301M920.50 366Q920.50 366 907.75 352.50Q895 339 895 301Q895 263 920.50 235Q946 207 981 207Q1016 207 1042.50 235Q1069 263 1069 301Q1069 339 1043 366Q1017 393 981 393Q946 393 920.50 366Z"  horiz-adv-x="1359" vert-adv-y="2048"  />

      
      <glyph glyph-name="uni26" unicode="&#x26;" d="M53 451Q53 647 205 805Q98 906 98 1067Q98 1221 211 1332.50Q324 1444 481 1444Q641 1444 753.50 1333Q866 1222 866 1067Q866 980 824.50 901Q783 822 715 766Q737 743 772.50 704.50Q808 666 836 637L836 821Q836 834 848.50 845Q861 856 879 856L1223 856Q1241 856 1253.50 845Q1266 834 1266 821L1266 635Q1266 621 1253.50 610.50Q1241 600 1223 600L1094 600L1094 500Q1094 466 1081 412L1272 223Q1281 212 1281 196Q1281 180 1272 172L1106 8Q1080-12 1053 8L922 137Q850 62 755 23Q660-16 555-16Q419-16 311.50 36Q204 88 135 182Q53 312 53 451M360 469Q360 394 416.50 339.50Q473 285 565 285Q650 285 715 350L432 625Q360 564 360 469M406.50 1151Q406.50 1151 390.75 1133.50Q375 1116 375 1067Q375 1018 406.50 983Q438 948 481 948Q526 948 558 983Q590 1018 590 1067Q590 1116 558 1151Q526 1186 481 1186Q438 1186 406.50 1151Z"  horiz-adv-x="1337" vert-adv-y="2048"  />

      
      <glyph glyph-name="uni27" unicode="&#x27;" d="M20 965L20 1397Q20 1411 32.50 1422.50Q45 1434 63 1434L270 1434Q289 1434 302 1422.50Q315 1411 315 1397L315 965Q315 951 302 939.50Q289 928 270 928L63 928Q45 928 32.50 939.50Q20 951 20 965Z"  horiz-adv-x="339" vert-adv-y="2048"  />

      
      <glyph glyph-name="uni28" unicode="&#x28;" d="M84 721Q84 1080 264 1413L264 1411Q267 1418 280.50 1425Q294 1432 303 1432L567 1432Q592 1432 603.50 1414.50Q615 1397 600 1378Q397 1067 397 723Q397 360 598 53L596 55Q613 35 602.50 17.50Q592 0 565 0L295 0L264 14Q84 351 84 721Z"  horiz-adv-x="636" vert-adv-y="2048"  />

      
      <glyph glyph-name="uni29" unicode="&#x29;" d="M53 0Q23 0 12.50 17.50Q2 35 20 55L18 55Q223 365 223 709Q223 845 182 997Q129 1207 20 1378Q5 1397 15.50 1414.50Q26 1432 55 1432L324 1432L356 1417Q445 1242 489 1071L489 1073Q535 903 535 713Q535 352 356 18L356 20Q352 13 338 6.50Q324 0 315 0L53 0Z"  horiz-adv-x="630" vert-adv-y="2048"  />

      
      <glyph glyph-name="uni2a" unicode="&#x2a;" d="M39 1051L39 1151Q39 1165 51.50 1175.50Q64 1186 84 1186L172 1186L94 1262Q81 1270 81.50 1288Q82 1306 94 1317L164 1386Q176 1394 192.50 1394Q209 1394 221 1386L289 1321L289 1397Q289 1411 300.50 1422.50Q312 1434 330 1434L430 1434Q448 1434 460.50 1422.50Q473 1411 473 1397L473 1321L539 1386Q551 1394 567 1394Q583 1394 594 1386L664 1317Q678 1306 678.50 1288Q679 1270 664 1262L588 1186L674 1186Q694 1186 706.50 1175.50Q719 1165 719 1151L719 1051Q719 1038 706 1027Q693 1016 674 1016L588 1016L664 942Q676 931 676 913.50Q676 896 664 887L594 819Q584 810 567.50 810Q551 810 539 819L473 883L473 805Q473 791 460.50 779.50Q448 768 430 768L330 768Q312 768 300.50 779.50Q289 791 289 805L289 883L221 819Q209 810 192.50 810Q176 810 164 819L94 887Q82 896 82 913.50Q82 931 94 942L170 1016L84 1016Q65 1016 52 1027Q39 1038 39 1051Z"  horiz-adv-x="784" vert-adv-y="2048"  />

      
      <glyph glyph-name="uni2b" unicode="&#x2b;" d="M20 616L20 815Q20 828 32.50 839Q45 850 63 850L303 850L303 1110Q303 1123 315.50 1134Q328 1145 346 1145L545 1145Q563 1145 575.50 1134Q588 1123 588 1110L588 850L840 850Q859 850 872 839Q885 828 885 815L885 616Q885 603 872 592.50Q859 582 840 582L588 582L588 319Q588 305 575.50 294Q563 283 545 283L346 283Q328 283 315.50 294Q303 305 303 319L303 582L63 582Q45 582 32.50 592.50Q20 603 20 616Z"  horiz-adv-x="956" vert-adv-y="2048"  />

      
      <glyph glyph-name="uni2c" unicode="&#x2c;" d="M0 141Q0 204 48.50 250.50Q97 297 164 297Q256 297 300 248.50Q344 200 344 123Q344 42 296.50-48Q249-138 186-180Q163-192 142-181Q121-170 121-147L121-12Q67 0 33.50 42Q0 84 0 141Z"  horiz-adv-x="380" vert-adv-y="2048"  />

      
      <glyph glyph-name="uni2d" unicode="&#x2d;" d="M47 616L47 823Q47 837 60 848.50Q73 860 92 860L776 860Q796 860 807.50 849Q819 838 819 823L819 616Q819 603 807.50 592.50Q796 582 776 582L92 582Q73 582 60 592.50Q47 603 47 616Z"  horiz-adv-x="907" vert-adv-y="2048"  />

      
      <glyph glyph-name="uni2e" unicode="&#x2e;" d="M12 145Q12 210 60.50 257.50Q109 305 176 305Q246 305 294 257.50Q342 210 342 145Q342 79 294 33.50Q246-12 176-12Q108-12 60 33.50Q12 79 12 145Z"  horiz-adv-x="368" vert-adv-y="2048"  />

      
      <glyph glyph-name="uni2f" unicode="&#x2f;" d="M-27 47Q72 260 288.50 729Q505 1198 604 1411Q607 1418 620.50 1426Q634 1434 643 1434L877 1434Q900 1434 910.50 1418.50Q921 1403 913 1384Q814 1171 594.50 702Q375 233 276 20Q273 13 260.50 5.50Q248-2 238-2L10-2Q-13-2-24 13.50Q-35 29-27 47Z"  horiz-adv-x="925" vert-adv-y="2048"  />

      
      <glyph glyph-name="uni30" unicode="&#x30;" d="M123 401L123 1032Q123 1133 160.50 1215Q198 1297 260.50 1348Q323 1399 401 1426.50Q479 1454 563 1454Q647 1454 724.50 1426.50Q802 1399 865 1348Q928 1297 966 1215Q1004 1133 1004 1032L1004 401Q1004 299 966 217Q928 135 865 84.50Q802 34 724.50 7Q647-20 563-20Q478-20 400.50 7Q323 34 260.50 84.50Q198 135 160.50 217Q123 299 123 401M438 393Q438 331 475.50 294.50Q513 258 563 258Q614 258 651 294Q688 330 688 393L688 1047Q688 1109 650.50 1144.50Q613 1180 563 1180Q512 1180 475 1144.50Q438 1109 438 1047L438 393Z"  horiz-adv-x="1157" vert-adv-y="2048"  />

      
      <glyph glyph-name="uni31" unicode="&#x31;" d="M-43 1214Q-55 1251-20 1260L-25 1260Q-1 1273 117 1337.50Q235 1402 297 1434L504 1434Q523 1434 534 1423Q545 1412 545 1397L545 35Q545 22 534 11Q523 0 504 0L274 0Q254 0 243.50 10.50Q233 21 233 35L233 1087Q202 1078 133 1049L135 1049L86 1030Q69 1027 54 1033Q39 1039 33 1051L-43 1214Z"  horiz-adv-x="679" vert-adv-y="2048"  />

      
      <glyph glyph-name="uni32" unicode="&#x32;" d="M39 35L39 250L535 936Q578 993 578 1049Q578 1094 549.50 1123.50Q521 1153 479 1153Q429 1153 390.50 1120Q352 1087 352 1024Q352 1012 340 1000.50Q328 989 309 989L96 989Q77 989 65 1000.50Q53 1012 53 1024Q53 1115 79 1191.50Q105 1268 156 1327Q207 1386 289.50 1419Q372 1452 479 1452Q589 1452 685.50 1403Q782 1354 842.50 1263.50Q903 1173 903 1063Q903 926 799 780L434 299L877 299Q896 299 909 287.50Q922 276 922 262L922 35Q922 22 909 11Q896 0 877 0L82 0Q64 0 51.50 11Q39 22 39 35Z"  horiz-adv-x="1003" vert-adv-y="2048"  />

      
      <glyph glyph-name="uni33" unicode="&#x33;" d="M25 412Q25 426 38 437.50Q51 449 70 449L293 449Q311 449 323.50 437.50Q336 426 336 412Q336 351 378 313.50Q420 276 477 276Q549 276 592 329Q635 382 635 451Q635 534 589.50 587.50Q544 641 469 647L285 647Q257 647 244 664.50Q231 682 246 702L246 700L506 1143L115 1143Q96 1143 83 1154.50Q70 1166 70 1180L70 1397Q70 1411 83 1422.50Q96 1434 115 1434L915 1434Q941 1434 953 1416Q965 1398 952 1378L952 1380L672 885Q808 838 879 721Q950 604 950 434Q950 340 923.50 263.50Q897 187 852.50 135Q808 83 747 47.50Q686 12 618.50-4Q551-20 477-20Q355-20 253 32Q151 84 88 184Q25 284 25 412Z"  horiz-adv-x="1009" vert-adv-y="2048"  />

      
      <glyph glyph-name="uni34" unicode="&#x34;" d="M31 449L31 674L596 1411Q603 1418 616 1426Q629 1434 635 1434L862 1434Q881 1434 894 1422.50Q907 1411 907 1397L907 35Q907 22 894 11Q881 0 862 0L635 0Q618 0 606 11Q594 22 594 35L594 412L74 412Q56 412 43.50 423.50Q31 435 31 449M362 682L596 682L596 975L362 682Z"  horiz-adv-x="1054" vert-adv-y="2048"  />

      
      <glyph glyph-name="uni35" unicode="&#x35;" d="M53 418Q53 432 65.50 443.50Q78 455 96 455L322 455Q341 455 353 443.50Q365 432 365 418Q365 352 401.50 317.50Q438 283 494 283Q561 283 601 333Q641 383 641 451Q641 536 603 590.50Q565 645 492 649L106 649Q87 649 75 660Q63 671 63 684L63 1397Q63 1411 75 1422.50Q87 1434 106 1434L838 1434Q857 1434 869 1422.50Q881 1411 881 1397L881 1186Q881 1173 869 1162Q857 1151 838 1151L377 1151L377 922L494 922Q724 922 838 793Q952 664 952 436Q952 299 887 195Q822 91 719 38.50Q616-14 494-14Q302-14 177.50 99.50Q53 213 53 418Z"  horiz-adv-x="1026" vert-adv-y="2048"  />

      
      <glyph glyph-name="uni36" unicode="&#x36;" d="M29 422Q29 502 49 569L344 1409Q356 1434 383 1434L627 1434Q646 1434 658 1419Q670 1404 664 1386L473 846L512 846Q629 846 720 783.50Q811 721 857 624Q903 527 903 416Q903 238 773 111Q643-16 461-16Q269-16 149 111.50Q29 239 29 422M324 414Q324 352 365 308Q406 264 463 264Q522 264 564 308.50Q606 353 606 414Q606 477 564 521Q522 565 463 565Q406 565 365 521Q324 477 324 414Z"  horiz-adv-x="966" vert-adv-y="2048"  />

      
      <glyph glyph-name="uni37" unicode="&#x37;" d="M2 1180L2 1397Q2 1411 15 1422.50Q28 1434 47 1434L860 1434Q883 1434 895 1418.50Q907 1403 901 1384L387 23L387 25Q380 0 348 0L106 0Q86 0 73.50 16Q61 32 68 49L479 1143L47 1143Q28 1143 15 1154.50Q2 1166 2 1180Z"  horiz-adv-x="892" vert-adv-y="2048"  />

      
      <glyph glyph-name="uni38" unicode="&#x38;" d="M41 424Q41 500 77.50 580.50Q114 661 170 719Q113 776 77 854.50Q41 933 41 1010Q41 1116 78.50 1202Q116 1288 179 1341.50Q242 1395 319.50 1423.50Q397 1452 481 1452Q566 1452 644.50 1423.50Q723 1395 786.50 1341.50Q850 1288 888 1202Q926 1116 926 1010Q926 928 889 849.50Q852 771 788 717Q852 658 889 580Q926 502 926 424Q926 317 888 230Q850 143 786 90Q722 37 644 8.50Q566-20 481-20Q397-20 319.50 8.50Q242 37 179 90Q116 143 78.50 230Q41 317 41 424M344 1010Q344 948 384 905Q424 862 481 862Q538 862 579.50 905.50Q621 949 621 1010Q621 1083 579 1125Q537 1167 481 1167Q425 1167 384.50 1125Q344 1083 344 1010M350 424Q350 352 389 311Q428 270 481 270Q535 270 574.50 311Q614 352 614 424Q614 485 575 529Q536 573 481 573Q427 573 388.50 528.50Q350 484 350 424Z"  horiz-adv-x="997" vert-adv-y="2048"  />

      
      <glyph glyph-name="uni39" unicode="&#x39;" d="M31 1018Q31 1196 160 1323Q289 1450 471 1450Q663 1450 784 1322.50Q905 1195 905 1012Q905 938 881 862L588 25Q585 15 573 7.50Q561 0 549 0L307 0Q284 0 273 14Q262 28 268 47L459 588L420 588Q304 588 213.50 650.50Q123 713 77 810Q31 907 31 1018M332 1020Q332 958 372 915Q412 872 469 872Q525 872 565.50 915.50Q606 959 606 1020Q606 1080 565.50 1122.50Q525 1165 469 1165Q412 1165 372 1122.50Q332 1080 332 1020Z"  horiz-adv-x="995" vert-adv-y="2048"  />

      
      <glyph glyph-name="uni3a" unicode="&#x3a;" d="M12 145Q12 210 60.50 257.50Q109 305 176 305Q246 305 294 257.50Q342 210 342 145Q342 79 294 33.50Q246-12 176-12Q108-12 60 33.50Q12 79 12 145M12 729Q12 794 60.50 841.50Q109 889 176 889Q246 889 294 841.50Q342 794 342 729Q342 663 294 617Q246 571 176 571Q108 571 60 617Q12 663 12 729Z"  horiz-adv-x="368" vert-adv-y="2048"  />

      
      <glyph glyph-name="uni3b" unicode="&#x3b;" d="M0 141Q0 204 48.50 250.50Q97 297 164 297Q256 297 300 248.50Q344 200 344 123Q344 42 296.50-48Q249-138 186-180Q163-192 142-181Q121-170 121-147L121-12Q67 0 33.50 42Q0 84 0 141M12 729Q12 794 60.50 841.50Q109 889 176 889Q246 889 294 841.50Q342 794 342 729Q342 663 294 617Q246 571 176 571Q108 571 60 617Q12 663 12 729Z"  horiz-adv-x="370" vert-adv-y="2048"  />

      
      <glyph glyph-name="uni3c" unicode="&#x3c;" d="M18 676Q7 685 6.50 701.50Q6 718 18 727L442 1178Q479 1201 512 1178L635 1047Q650 1036 650 1021.50Q650 1007 635 995L639 997L358 700L639 410L635 412Q650 400 650 385Q650 370 635 358L639 360L508 223Q479 207 446 223L18 676Z"  horiz-adv-x="714" vert-adv-y="2048"  />

      
      <glyph glyph-name="uni3d" unicode="&#x3d;" d="M39 328L39 526Q39 539 52 550Q65 561 84 561L764 561Q784 561 795.50 550Q807 539 807 526L807 328Q807 317 795.50 306Q784 295 764 295L84 295Q65 295 52 306.50Q39 318 39 328M39 676L39 870Q39 884 51.50 894.50Q64 905 84 905L764 905Q785 905 796 895Q807 885 807 870L807 676Q807 664 795.50 652.50Q784 641 764 641L84 641Q65 641 52 652.50Q39 664 39 676Z"  horiz-adv-x="874" vert-adv-y="2048"  />

      
      <glyph glyph-name="uni3e" unicode="&#x3e;" d="M55 358Q40 370 40 385Q40 400 55 412L51 410L332 700L51 997L55 995Q40 1007 40 1021.50Q40 1036 55 1047L51 1044L186 1182Q198 1191 216.50 1190Q235 1189 250 1178L674 727Q681 715 681.50 699Q682 683 674 676L246 223Q214 209 182 223L51 360L55 358Z"  horiz-adv-x="708" vert-adv-y="2048"  />

      
      <glyph glyph-name="uni3f" unicode="&#x3f;" d="M25 1040Q25 1220 152 1337Q279 1454 465 1454Q665 1454 792.50 1337Q920 1220 920 1008Q920 881 827.50 774.50Q735 668 602 625L602 412Q602 401 589.50 390Q577 379 559 379L352 379Q334 379 321.50 390Q309 401 309 412L309 823Q309 840 322 850Q335 860 354 860Q425 856 476.50 868Q528 880 554.50 904Q581 928 592.50 954Q604 980 604 1008Q604 1155 465 1155Q411 1155 374.50 1124Q338 1093 338 1040Q338 1027 325 1016.50Q312 1006 293 1006L68 1006Q50 1006 37.50 1016.50Q25 1027 25 1040M287 154Q287 229 339.50 273Q392 317 463 317Q534 317 584.50 274Q635 231 635 154Q635 80 583 36Q531-8 459-8Q389-8 338 34.50Q287 77 287 154Z"  horiz-adv-x="1003" vert-adv-y="2048"  />

      
      <glyph glyph-name="uni40" unicode="&#x40;" d="M55 717Q55 864 108.50 998Q162 1132 257.50 1233Q353 1334 494.50 1394Q636 1454 801 1454Q951 1454 1086 1403Q1221 1352 1323.50 1259.50Q1426 1167 1486 1026.50Q1546 886 1546 717L1546 383Q1546 369 1533 357.50Q1520 346 1501 346L801 346Q640 346 532 453Q424 560 424 717Q424 872 532.50 981Q641 1090 801 1090Q958 1090 1067 981Q1176 872 1176 717Q1176 650 1157 594L1241 594L1241 717Q1241 853 1178.50 958Q1116 1063 1016.50 1116Q917 1169 801 1169Q665 1169 560 1107Q455 1045 401.50 943Q348 841 348 717Q348 594 403 491.50Q458 389 562.50 327.50Q667 266 801 266L1483 266Q1501 266 1513.50 255.50Q1526 245 1526 231L1526 20Q1526 6 1513.50-5Q1501-16 1483-16L801-16Q635-16 494 43Q353 102 257.50 202Q162 302 108.50 435.50Q55 569 55 717M725.50 799.50Q725.50 799.50 709.75 782.25Q694 765 694 717Q694 669 725.50 634.50Q757 600 801 600Q845 600 877 635Q909 670 909 717Q909 764 877 799Q845 834 801 834Q757 834 725.50 799.50Z"  horiz-adv-x="1677" vert-adv-y="2048"  />

      
      <glyph glyph-name="uni41" unicode="&#x41;" d="M-4 49Q84 275 267.50 746Q451 1217 539 1442Q550 1465 579 1465Q608 1465 618 1442L1161 49Q1164 41 1164 34Q1164 24 1158 15Q1147 0 1124 0L877 0Q865 0 853 7.50Q841 15 838 25L838 23L782 164L373 164L322 23L322 25Q319 15 306.50 7.50Q294 0 279 0L35 0Q10 0-1 14Q-7 22-7 33Q-7 41-4 49M455 412L700 412L629 625Q592 751 580 823Q563 733 528 625L455 412Z"  horiz-adv-x="1167" vert-adv-y="2048"  />

      
      <glyph glyph-name="uni42" unicode="&#x42;" d="M127 35L127 1397Q127 1411 139 1422.50Q151 1434 170 1434L625 1434Q631 1434 642 1434Q653 1434 687 1430.50Q721 1427 753.50 1421Q786 1415 831 1400.50Q876 1386 914 1366.50Q952 1347 991 1314.50Q1030 1282 1057.50 1241.50Q1085 1201 1102.50 1143Q1120 1085 1120 1016Q1120 806 952 719Q1008 693 1048 653.50Q1088 614 1105 576Q1122 538 1131.50 503.50Q1141 469 1141 448L1141 426Q1141 342 1117 274Q1093 206 1056.50 163Q1020 120 968 87.50Q916 55 869.50 39Q823 23 769 13.50Q715 4 684.50 2Q654 0 625 0L170 0Q151 0 139 11Q127 22 127 35M438 295L625 295Q659 295 690 300.50Q721 306 753.50 319.50Q786 333 805.50 362Q825 391 825 432Q825 472 804.50 500.50Q784 529 754.50 541Q725 553 695.50 559Q666 565 646 565L625 565L438 565L438 295M438 866L625 866Q629 866 635.50 866.50Q642 867 660.50 869.50Q679 872 696 876.50Q713 881 734 891Q755 901 770 914.50Q785 928 795 950Q805 972 805 999Q805 1040 786.50 1070.50Q768 1101 741.50 1114.50Q715 1128 688.50 1135.50Q662 1143 644 1144L625 1145L438 1145L438 866Z"  horiz-adv-x="1234" vert-adv-y="2048"  />

      
      <glyph glyph-name="uni43" unicode="&#x43;" d="M82 717Q82 930 175 1098.50Q268 1267 433.50 1360.50Q599 1454 809 1454Q953 1454 1087 1397Q1221 1340 1321 1243Q1327 1233 1326.50 1215Q1326 1197 1317 1188L1157 1030Q1145 1021 1128.50 1021Q1112 1021 1102 1030Q977 1155 809 1155Q621 1155 510 1032.50Q399 910 399 717Q399 520 517 399.50Q635 279 809 279Q978 279 1102 403Q1112 412 1131 410.50Q1150 409 1165 397L1321 242Q1327 227 1327 209Q1327 195 1321 188Q1221 93 1087 36.50Q953-20 809-20Q608-20 443.50 69Q279 158 180.50 327.50Q82 497 82 717Z"  horiz-adv-x="1421" vert-adv-y="2048"  />

      
      <glyph glyph-name="uni44" unicode="&#x44;" d="M127 35L127 1397Q127 1411 139.50 1422.50Q152 1434 170 1434L397 1434Q461 1434 518.50 1430.50Q576 1427 644 1417Q712 1407 771 1390Q830 1373 892 1344.50Q954 1316 1003.50 1278.50Q1053 1241 1098 1186Q1143 1131 1173.50 1064.50Q1204 998 1221.50 909.50Q1239 821 1239 717Q1239 590 1210.50 485Q1182 380 1135 307Q1088 234 1019.50 178Q951 122 878.50 89Q806 56 719 35.50Q632 15 556 7.50Q480 0 397 0L170 0Q152 0 139.50 11Q127 22 127 35M442 301Q463 300 483 300Q504 300 522 301Q560 303 610 312Q660 321 701.50 337.50Q743 354 785 385.50Q827 417 856 460.50Q885 504 903.50 569.50Q922 635 922 717Q922 828 885.50 910Q849 992 783.50 1040.50Q718 1089 632 1112Q553 1133 459 1133Q451 1133 442 1133L442 301Z"  horiz-adv-x="1355" vert-adv-y="2048"  />

      
      <glyph glyph-name="uni45" unicode="&#x45;" d="M127 35L127 1397Q127 1411 139 1422.50Q151 1434 170 1434L1061 1434Q1079 1434 1091.50 1422.50Q1104 1411 1104 1397L1104 1178Q1104 1164 1091.50 1152.50Q1079 1141 1061 1141L440 1141L440 866L965 866Q983 866 994.50 854.50Q1006 843 1006 829L1006 608Q1006 595 994.50 584Q983 573 965 573L440 573L440 299L1077 299Q1096 299 1109 287.50Q1122 276 1122 262L1122 35Q1122 22 1109 11Q1096 0 1077 0L170 0Q151 0 139 11Q127 22 127 35Z"  horiz-adv-x="1204" vert-adv-y="2048"  />

      
      <glyph glyph-name="uni46" unicode="&#x46;" d="M127 35L127 1397Q127 1411 139 1422.50Q151 1434 170 1434L1077 1434Q1096 1434 1109 1422.50Q1122 1411 1122 1397L1122 1171Q1122 1157 1109 1146Q1096 1135 1077 1135L440 1135L440 860L965 860Q983 860 994.50 848.50Q1006 837 1006 823L1006 604Q1006 590 994.50 578.50Q983 567 965 567L440 567L440 35Q440 22 428 11Q416 0 397 0L170 0Q151 0 139 11Q127 22 127 35Z"  horiz-adv-x="1187" vert-adv-y="2048"  />

      
      <glyph glyph-name="uni47" unicode="&#x47;" d="M88 717Q88 873 145.50 1011Q203 1149 300.50 1245.50Q398 1342 531.50 1398Q665 1454 813 1454Q957 1454 1092 1396.50Q1227 1339 1325 1243Q1333 1233 1332 1215Q1331 1197 1321 1188L1161 1030Q1149 1020 1132 1020.50Q1115 1021 1106 1032Q983 1155 813 1155Q638 1155 520.50 1036.50Q403 918 403 717Q403 605 435 519.50Q467 434 524 382.50Q581 331 653.50 305Q726 279 813 279Q983 279 1110 412L1110 565L909 565Q889 565 876.50 575Q864 585 864 600L864 811Q864 824 877 835Q890 846 909 846L1382 846Q1400 846 1411.50 835Q1423 824 1423 811L1423 31Q1423 17 1411.50 5.50Q1400-6 1382-6L1184-6Q1166-6 1152.50 4Q1139 14 1139 29Q1138 44 1136.50 61Q1135 78 1135 102Q1002-20 782-20Q636-20 509.50 30Q383 80 289 172.50Q195 265 141.50 405.50Q88 546 88 717Z"  horiz-adv-x="1583" vert-adv-y="2048"  />

      
      <glyph glyph-name="uni48" unicode="&#x48;" d="M131 35L131 1397Q131 1411 143.50 1422.50Q156 1434 174 1434L401 1434Q420 1434 433 1422.50Q446 1411 446 1397L446 868L926 868L926 1397Q926 1411 938.50 1422.50Q951 1434 969 1434L1196 1434Q1215 1434 1228 1422.50Q1241 1411 1241 1397L1241 35Q1241 22 1228 11Q1215 0 1196 0L969 0Q951 0 938.50 11Q926 22 926 35L926 567L446 567L446 35Q446 22 433 11Q420 0 401 0L174 0Q156 0 143.50 11Q131 22 131 35Z"  horiz-adv-x="1404" vert-adv-y="2048"  />

      
      <glyph glyph-name="uni49" unicode="&#x49;" d="M29 35L29 244Q29 257 41.50 268Q54 279 72 279L190 279L190 1155L80 1155Q62 1155 49.50 1166Q37 1177 37 1190L37 1397Q37 1411 49.50 1422.50Q62 1434 80 1434L612 1434Q631 1434 643 1422.50Q655 1411 655 1397L655 1190Q655 1177 643 1166Q631 1155 612 1155L504 1155L504 279L621 279Q639 279 651.50 268Q664 257 664 244L664 35Q664 22 651.50 11Q639 0 621 0L72 0Q54 0 41.50 11Q29 22 29 35Z"  horiz-adv-x="716" vert-adv-y="2048"  />

      
      <glyph glyph-name="uni4a" unicode="&#x4a;" d="M31 35L31 262Q31 276 43.50 287.50Q56 299 74 299L246 299Q282 299 308.50 312.50Q335 326 347.50 346Q360 366 366.50 385.50Q373 405 374 418L375 432L375 1157L172 1157Q153 1157 141 1168Q129 1179 129 1192L129 1399Q129 1413 141 1424.50Q153 1436 172 1436L647 1436Q666 1436 677 1425Q688 1414 688 1399L688 432Q688 363 673 303.50Q658 244 632.50 203Q607 162 573.50 128.50Q540 95 503.50 74Q467 53 430.50 38Q394 23 360.50 16Q327 9 301.50 5Q276 1 261 0L246 0L74 0Q56 0 43.50 11Q31 22 31 35Z"  horiz-adv-x="831" vert-adv-y="2048"  />

      
      <glyph glyph-name="uni4b" unicode="&#x4b;" d="M127 35L127 1397Q127 1411 140 1422.50Q153 1434 172 1434L399 1434Q417 1434 429.50 1422.50Q442 1411 442 1397L442 827Q534 942 705.50 1151.50Q877 1361 924 1419Q927 1422 939.50 1428Q952 1434 958 1434L1243 1434Q1270 1434 1282 1415Q1286 1408 1287 1400Q1287 1388 1276 1376L731 705L1280 57Q1291 45 1291 33Q1290 26 1286 18Q1274 0 1247 0L948 0Q942 0 929 5.50Q916 11 913 14L526 494L508 471L508 473Q500 464 478 438.50Q456 413 442 399L442 35Q442 22 429.50 11Q417 0 399 0L172 0Q153 0 140 11Q127 22 127 35Z"  horiz-adv-x="1323" vert-adv-y="2048"  />

      
      <glyph glyph-name="uni4c" unicode="&#x4c;" d="M123 35L123 1397Q123 1411 135.50 1422.50Q148 1434 166 1434L395 1434Q413 1434 425.50 1422.50Q438 1411 438 1397L438 299L899 299Q918 299 931 287.50Q944 276 944 262L944 35Q944 22 931 11Q918 0 899 0L166 0Q148 0 135.50 11Q123 22 123 35Z"  horiz-adv-x="1026" vert-adv-y="2048"  />

      
      <glyph glyph-name="uni4d" unicode="&#x4d;" d="M133 35L133 1399Q133 1414 143.50 1425Q154 1436 174 1436L408 1436Q418 1436 430.50 1428Q443 1420 446 1413L926 438L1380 1413Q1383 1420 1397.50 1428Q1412 1436 1421 1436L1651 1436Q1670 1436 1683 1424.50Q1696 1413 1696 1399L1696 35Q1696 22 1683 11Q1670 0 1651 0L1425 0Q1406 0 1393 11Q1380 22 1380 35L1380 698Q1329 594 1225.50 387.50Q1122 181 1071 78Q1070 72 1056 63.50Q1042 55 1034 55L819 55Q810 55 796.50 63Q783 71 780 78L780 76L446 721L446 35Q446 22 433.50 11Q421 0 403 0L174 0Q154 0 143.50 10.50Q133 21 133 35Z"  horiz-adv-x="1875" vert-adv-y="2048"  />

      
      <glyph glyph-name="uni4e" unicode="&#x4e;" d="M129 35L129 1397Q129 1411 141.50 1422.50Q154 1434 172 1434L403 1434Q426 1434 438 1419Q545 1265 742.50 985Q940 705 1038 565L1038 1397Q1038 1411 1050 1422.50Q1062 1434 1081 1434L1307 1434Q1326 1434 1338 1422.50Q1350 1411 1350 1397L1350 35Q1350 22 1338 11Q1326 0 1307 0L1077 0Q1053 0 1042 14Q983 98 774.50 397Q566 696 444 870L444 35Q444 22 431.50 11Q419 0 401 0L172 0Q154 0 141.50 11Q129 22 129 35Z"  horiz-adv-x="1519" vert-adv-y="2048"  />

      
      <glyph glyph-name="uni4f" unicode="&#x4f;" d="M82 911Q82 1020 126 1119.50Q170 1219 243.50 1291.50Q317 1364 419 1407Q521 1450 633 1450Q781 1450 907.50 1377.50Q1034 1305 1108 1180.50Q1182 1056 1182 911Q1182 765 1108 642Q1034 519 907.50 448Q781 377 633 377Q484 377 357 448Q230 519 156 642Q82 765 82 911M135 35L135 260Q135 274 147 285.50Q159 297 178 297L1075 297Q1094 297 1107 285.50Q1120 274 1120 260L1120 35Q1120 22 1107 11Q1094 0 1075 0L178 0Q159 0 147 11Q135 22 135 35M395 911Q395 809 464.50 741.50Q534 674 633 674Q732 674 800 741.50Q868 809 868 911Q868 1012 799.50 1082.50Q731 1153 633 1153Q534 1153 464.50 1082.50Q395 1012 395 911Z"  horiz-adv-x="1306" vert-adv-y="2048"  />

      
      <glyph glyph-name="uni50" unicode="&#x50;" d="M127 35L127 829Q127 843 139 854.50Q151 866 170 866L315 866Q296 894 262 949.50Q228 1005 209 1032Q197 1053 168.50 1098Q140 1143 127 1165L127 1397Q127 1411 139 1422.50Q151 1434 170 1434L625 1434Q635 1434 653 1433Q671 1432 722.50 1423.50Q774 1415 820.50 1400Q867 1385 924.50 1352.50Q982 1320 1023 1276Q1064 1232 1092 1160.50Q1120 1089 1120 1001Q1120 931 1103 872Q1086 813 1057.50 771.50Q1029 730 992 696Q955 662 913.50 641.50Q872 621 831 605.50Q790 590 753 583Q716 576 687.50 572Q659 568 642 568L625 567L440 567L440 35Q440 22 427.50 11Q415 0 397 0L170 0Q151 0 139 11Q127 22 127 35M487 1135L655 868Q712 876 759.50 909Q807 942 807 1001Q807 1039 791 1066Q775 1093 754.50 1106Q734 1119 704 1126Q674 1133 659 1134Q644 1135 625 1135L487 1135Z"  horiz-adv-x="1193" vert-adv-y="2048"  />

      
      <glyph glyph-name="uni51" unicode="&#x51;" d="M88 721Q88 838 122 948.50Q156 1059 220.50 1150Q285 1241 372.50 1309.50Q460 1378 573.50 1416Q687 1454 813 1454Q970 1454 1106.50 1395Q1243 1336 1337.50 1236Q1432 1136 1486 1002Q1540 868 1540 721Q1540 615 1510.50 508Q1481 401 1427 317L1552 184Q1562 175 1562 159Q1562 139 1548 133L1384-25Q1374-32 1360-32Q1356-32 1353-32Q1334-30 1319-18L1208 98Q1029-18 813-18Q664-18 530 38.50Q396 95 299 192.50Q202 290 145 428Q88 566 88 721M401 721Q401 529 521 405Q641 281 813 281Q901 281 997 328L721 631L449 930Q401 836 401 721M678 1130Q1190 571 1200 559Q1227 635 1227 721Q1227 897 1104.50 1026Q982 1155 813 1155Q751 1155 678 1130Z"  horiz-adv-x="1683" vert-adv-y="2048"  />

      
      <glyph glyph-name="uni52" unicode="&#x52;" d="M129 35L129 829Q129 843 141.50 854.50Q154 866 172 866L319 866Q303 892 272.50 937.50Q242 983 233 997L129 1165L129 1397Q129 1411 141.50 1422.50Q154 1434 172 1434L627 1434Q637 1434 655 1433Q673 1432 724.50 1423.50Q776 1415 823 1400Q870 1385 927.50 1352.50Q985 1320 1026 1276Q1067 1232 1095.50 1160.50Q1124 1089 1124 1001Q1124 931 1107.50 871.50Q1091 812 1064 770.50Q1037 729 999 695.50Q961 662 923.50 641.50Q886 621 842 606L1186 53L1186 55Q1193 44 1193 34Q1192 26 1188 18Q1178 0 1153 0L885 0Q875 0 862 6.50Q849 13 846 20L848 18L504 567L442 567L442 35Q442 22 430 11Q418 0 399 0L172 0Q154 0 141.50 11Q129 22 129 35M498 1135L666 868Q726 872 767.50 902.50Q809 933 809 1001Q809 1135 627 1135L498 1135Z"  horiz-adv-x="1253" vert-adv-y="2048"  />

      
      <glyph glyph-name="uni53" unicode="&#x53;" d="M76 412Q76 426 88.50 437.50Q101 449 119 449L346 449Q363 449 376 437.50Q389 426 389 412Q392 349 436.50 314Q481 279 545 279Q610 279 655 317.50Q700 356 700 418Q700 483 652.50 524.50Q605 566 545 571Q433 571 322 621Q203 677 139.50 774Q76 871 76 1001Q76 1103 115.50 1189.50Q155 1276 220.50 1333Q286 1390 370.50 1422Q455 1454 545 1454Q741 1454 874 1334Q1007 1214 1010 1026Q1010 1014 997 1002.50Q984 991 965 991L741 991Q725 991 710.50 1003Q696 1015 696 1026Q693 1088 650.50 1121.50Q608 1155 545 1155Q478 1155 433.50 1114.50Q389 1074 389 1001Q389 937 435 900.50Q481 864 545 864Q662 864 766 815Q886 760 950 656Q1014 552 1014 418Q1014 316 975 231.50Q936 147 870 93Q804 39 720.50 9.50Q637-20 545-20Q342-15 210.50 99Q79 213 76 412Z"  horiz-adv-x="1112" vert-adv-y="2048"  />

      
      <glyph glyph-name="uni54" unicode="&#x54;" d="M6 1190L6 1397Q6 1411 18.50 1422.50Q31 1434 49 1434L848 1434Q867 1434 880 1422.50Q893 1411 893 1397L893 1190Q893 1177 880 1166Q867 1155 848 1155L606 1155L606 35Q606 22 593 11Q580 0 561 0L336 0Q318 0 305.50 11Q293 22 293 35L293 1155L49 1155Q31 1155 18.50 1166Q6 1177 6 1190Z"  horiz-adv-x="917" vert-adv-y="2048"  />

      
      <glyph glyph-name="uni55" unicode="&#x55;" d="M129 584L129 1397Q129 1411 141.50 1422.50Q154 1434 172 1434L1305 1434Q1324 1434 1336 1422.50Q1348 1411 1348 1397L1348 584Q1348 563 1345.50 531Q1343 499 1325 425Q1307 351 1276 289Q1201 140 1062.50 60Q924-20 739-20Q560-20 419.50 63Q279 146 201 291Q171 352 153 425.50Q135 499 132 531.50Q129 564 129 584M442 584Q442 504 485 420Q564 279 739 279Q916 279 991 420Q1010 456 1021.50 498.50Q1033 541 1034.50 559Q1036 577 1036 586L1036 1155L442 1155L442 584Z"  horiz-adv-x="1515" vert-adv-y="2048"  />

      
      <glyph glyph-name="uni56" unicode="&#x56;" d="M-4 1384Q-7 1390-7 1397Q-6 1408 2 1418Q16 1434 37 1434L1124 1434Q1146 1434 1158 1418Q1166 1408 1166 1397Q1166 1391 1163 1384L621-35Q612-58 582-58Q552-58 543-35L-4 1384M397 1163L582 639L766 1163L397 1163Z"  horiz-adv-x="1177" vert-adv-y="2048"  />

      
      <glyph glyph-name="uni57" unicode="&#x57;" d="M16 1384Q14 1390 14 1396Q14 1408 22 1418Q35 1434 55 1434L301 1434Q315 1434 327 1426.50Q339 1419 340 1409Q388 1278 472.50 1040Q557 802 598 688L872 1411L872 1409Q875 1420 886.50 1427Q898 1434 911 1434L1139 1434Q1153 1434 1165 1426.50Q1177 1419 1180 1409L1180 1411L1452 684L1710 1409Q1713 1419 1725 1426.50Q1737 1434 1751 1434L1995 1434Q2020 1434 2032 1418Q2039 1409 2039 1399Q2039 1392 2036 1384L1489-33Q1480-56 1451-56Q1422-56 1413-33L1024 981Q968 831 903.50 662Q839 493 759.50 286.50Q680 80 637-33Q628-56 596-56Q564-56 557-31L559-33L16 1384Z"  horiz-adv-x="2076" vert-adv-y="2048"  />

      
      <glyph glyph-name="uni58" unicode="&#x58;" d="M12 19Q8 26 7 34Q7 46 18 57L16 57L483 717Q439 777 358 891Q277 1005 254 1038L16 1376L18 1376Q8 1388 8 1399Q8 1406 12 1414Q23 1434 49 1434L328 1434Q353 1434 365 1419L676 983L987 1419Q992 1424 1005.50 1429Q1019 1434 1024 1434L1303 1434Q1332 1434 1342 1414Q1346 1407 1346 1400Q1346 1388 1335 1376L1337 1376L866 717Q909 657 1135 342Q1169 296 1236 199.50Q1303 103 1337 57L1335 57Q1346 45 1346 34Q1346 27 1342 19Q1332 0 1303 0L1024 0Q998 0 987 14L676 451L365 14Q351 0 328 0L49 0Q22 0 12 19Z"  horiz-adv-x="1380" vert-adv-y="2048"  />

      
      <glyph glyph-name="uni59" unicode="&#x59;" d="M-22 1414Q-12 1434 16 1434L293 1434Q318 1434 330 1419Q391 1331 501.50 1180Q612 1029 643 985L954 1419Q969 1434 989 1434L1268 1434Q1296 1434 1306 1414Q1311 1407 1311 1400Q1311 1388 1300 1376L1303 1376L799 670L799 35Q799 22 787 11Q775 0 756 0L528 0Q510 0 497.50 11Q485 22 485 35L485 670Q440 735 347 864Q254 993 209 1057Q172 1108 95.50 1216.50Q19 1325-18 1376L-16 1376Q-27 1388-27 1400Q-27 1407-22 1414Z"  horiz-adv-x="1320" vert-adv-y="2048"  />

      
      <glyph glyph-name="uni5a" unicode="&#x5a;" d="M31 1171L31 1397Q31 1411 43.50 1422.50Q56 1434 74 1434L866 1434Q892 1434 903.50 1418.50Q915 1403 907 1384Q836 1204 689 841.50Q542 479 471 299L868 299Q887 299 900 287.50Q913 276 913 262L913 35Q913 22 900 11Q887 0 868 0L76 0Q51 0 40 14.50Q29 29 37 49L471 1135L74 1135Q56 1135 43.50 1146Q31 1157 31 1171Z"  horiz-adv-x="972" vert-adv-y="2048"  />

      
      <glyph glyph-name="uni5b" unicode="&#x5b;" d="M119 35L119 1397Q119 1411 131 1422.50Q143 1434 160 1434L614 1434Q633 1434 646 1422.50Q659 1411 659 1397L659 1171Q659 1157 646.50 1146Q634 1135 614 1135L434 1135L434 299L614 299Q633 299 646 287.50Q659 276 659 262L659 35Q659 22 646 11Q633 0 614 0L160 0Q143 0 131 11Q119 22 119 35Z"  horiz-adv-x="704" vert-adv-y="2048"  />

      
      <glyph glyph-name="uni5c" unicode="&#x5c;" d="M-27 1384Q-35 1402-24 1418Q-13 1434 10 1434L244 1434Q254 1434 267 1426Q280 1418 283 1411L913 47Q921 28 910.50 13Q900-2 877-2L643-2Q634-2 620.50 5.50Q607 13 604 20L-27 1384Z"  horiz-adv-x="929" vert-adv-y="2048"  />

      
      <glyph glyph-name="uni5d" unicode="&#x5d;" d="M43 35L43 262Q43 276 55 287.50Q67 299 86 299L268 299L268 1135L86 1135Q67 1135 55 1146Q43 1157 43 1171L43 1397Q43 1411 55 1422.50Q67 1434 86 1434L541 1434Q560 1434 571 1423Q582 1412 582 1397L582 35Q582 22 571 11Q560 0 541 0L86 0Q67 0 55 11Q43 22 43 35Z"  horiz-adv-x="720" vert-adv-y="2048"  />

      
      <glyph glyph-name="uni5e" unicode="&#x5e;" d="M-16 973Q-30 983-30 1001.50Q-30 1020-16 1030L-18 1028L399 1423Q411 1432 429.50 1431.50Q448 1431 459 1423L879 1028L877 1030Q890 1019 889.50 1001.50Q889 984 877 973L750 854Q738 845 721 845Q704 845 692 854L430 1110L307 989L164 854Q152 845 136.50 845Q121 845 109 854L-16 973Z"  horiz-adv-x="915" vert-adv-y="2048"  />

      
      <glyph glyph-name="uni5f" unicode="&#x5f;" d="M47 35Q47 48 60 59Q73 70 92 70L991 70Q1010 70 1022 59Q1034 48 1034 35L1034-154Q1034-168 1022.50-178Q1011-188 991-188L92-188Q72-188 59.50-178Q47-168 47-154L47 35Z"  horiz-adv-x="1103" vert-adv-y="2048"  />

      
      <glyph glyph-name="uni60" unicode="&#x60;" d="M23 1264Q5 1268 0 1284Q-5 1300 6 1315L6 1313L117 1489Q126 1504 178 1485L518 1290L514 1290Q533 1282 538.50 1267.50Q544 1253 532 1239L532 1241L434 1075Q419 1057 369 1075L23 1264Z"  horiz-adv-x="542" vert-adv-y="2048"  />

      
      <glyph glyph-name="uni61" unicode="&#x61;" d="M-4 49Q83 274 264 743Q445 1212 532 1436Q542 1459 571.50 1459Q601 1459 612 1436L1149 49Q1152 41 1152 34Q1152 24 1146 15Q1135 0 1112 0L868 0Q856 0 844 7.50Q832 15 829 25L829 23L774 164L369 164L317 23L317 25Q314 15 302 7.50Q290 0 276 0L35 0Q10 0-1 14Q-7 22-7 33Q-7 41-4 49M451 410L692 410L623 623Q583 759 573 819Q556 727 522 623L451 410Z"  horiz-adv-x="1169" vert-adv-y="2048"  />

      
      <glyph glyph-name="uni62" unicode="&#x62;" d="M131 35L131 1382Q131 1396 142.50 1406.50Q154 1417 172 1417L616 1417Q626 1417 644 1416.50Q662 1416 712.50 1409Q763 1402 809.50 1389Q856 1376 912.50 1346Q969 1316 1009.50 1274Q1050 1232 1078 1163Q1106 1094 1106 1008Q1106 813 940 723Q994 697 1032.50 656.50Q1071 616 1087.50 576.50Q1104 537 1113 501Q1122 465 1122 442L1122 420Q1122 338 1098.50 271Q1075 204 1039.50 161Q1004 118 953 86.50Q902 55 856.50 39Q811 23 758.50 13.50Q706 4 675.50 2Q645 0 616 0L172 0Q154 0 142.50 11Q131 22 131 35M438 291L616 291Q650 291 681 296.50Q712 302 744 316Q776 330 795.50 358.50Q815 387 815 428Q815 468 797 497.50Q779 527 757 540.50Q735 554 702 561.50Q669 569 652.50 570Q636 571 616 571L438 571L438 291M438 850L616 850Q631 850 649 852Q667 854 694.50 863Q722 872 743.50 886.50Q765 901 781 929Q797 957 797 995Q797 1034 778.50 1062.50Q760 1091 733 1102.50Q706 1114 679.50 1120Q653 1126 634 1126L616 1126L438 1126L438 850Z"  horiz-adv-x="1234" vert-adv-y="2048"  />

      
      <glyph glyph-name="uni63" unicode="&#x63;" d="M86 702Q86 912 176.50 1080Q267 1248 430 1343Q593 1438 799 1438Q942 1438 1073.50 1383Q1205 1328 1303 1233Q1308 1224 1308 1211Q1308 1190 1298 1180L1143 1024Q1131 1015 1114.50 1015Q1098 1015 1087 1024Q961 1147 799 1147Q616 1147 507.50 1020Q399 893 399 702Q399 508 514 391Q629 274 799 274Q963 274 1087 395Q1098 404 1114.50 404Q1131 404 1143 395L1298 238Q1308 229 1308 210.50Q1308 192 1298 182Q1200 87 1071.50 33.50Q943-20 799-20Q653-20 523 31.50Q393 83 296 175.50Q199 268 142.50 404.50Q86 541 86 702Z"  horiz-adv-x="1421" vert-adv-y="2048"  />

      
      <glyph glyph-name="uni64" unicode="&#x64;" d="M131 35L131 1382Q131 1396 143.50 1406.50Q156 1417 174 1417L397 1417Q479 1417 551 1411Q623 1405 709.50 1386.50Q796 1368 865.50 1337Q935 1306 1003.50 1252Q1072 1198 1118 1126Q1164 1054 1192.50 948.50Q1221 843 1221 713Q1221 588 1193.50 484.50Q1166 381 1119.50 309Q1073 237 1006.50 181Q940 125 868.50 91.50Q797 58 713 36.50Q629 15 553.50 7.50Q478 0 397 0L174 0Q156 0 143.50 11Q131 22 131 35M440 285Q450 285 460 285Q490 285 518 287Q556 290 604.50 301Q653 312 694.50 330.50Q736 349 777 382Q818 415 846.50 459Q875 503 893 568Q911 633 911 713Q911 808 890 881Q869 954 831.50 1002Q794 1050 738.50 1080.50Q683 1111 619 1124Q555 1137 477 1137L440 1137L440 285Z"  horiz-adv-x="1355" vert-adv-y="2048"  />

      
      <glyph glyph-name="uni65" unicode="&#x65;" d="M131 35L131 1382Q131 1396 142.50 1406.50Q154 1417 172 1417L1063 1417Q1083 1417 1095.50 1406.50Q1108 1396 1108 1382L1108 1163Q1108 1150 1095 1139Q1082 1128 1063 1128L438 1128L438 848L952 848Q971 848 982 837.50Q993 827 993 813L993 598Q993 585 982 574Q971 563 952 563L438 563L438 287L1063 287Q1083 287 1095.50 276.50Q1108 266 1108 252L1108 35Q1108 22 1095 11Q1082 0 1063 0L172 0Q154 0 142.50 11Q131 22 131 35Z"  horiz-adv-x="1204" vert-adv-y="2048"  />

      
      <glyph glyph-name="uni66" unicode="&#x66;" d="M131 35L131 1370Q131 1384 142.50 1395.50Q154 1407 172 1407L1063 1407Q1082 1407 1095 1395.50Q1108 1384 1108 1370L1108 1149Q1108 1135 1095 1123.50Q1082 1112 1063 1112L438 1112L438 848L952 848Q971 848 982 837.50Q993 827 993 813L993 592Q993 579 982 568Q971 557 952 557L438 557L438 35Q438 22 426.50 11Q415 0 395 0L172 0Q154 0 142.50 11Q131 22 131 35Z"  horiz-adv-x="1187" vert-adv-y="2048"  />

      
      <glyph glyph-name="uni67" unicode="&#x67;" d="M94 709Q94 864 150 1000.50Q206 1137 302 1232.50Q398 1328 530 1383Q662 1438 809 1438Q952 1438 1084 1382.50Q1216 1327 1315 1231Q1323 1221 1322 1204Q1321 1187 1311 1178L1153 1020Q1141 1011 1125.50 1011Q1110 1011 1098 1020Q976 1145 809 1145Q636 1145 521 1027Q406 909 406 709Q406 598 437.50 513Q469 428 524.50 376.50Q580 325 651.50 299.50Q723 274 809 274Q982 274 1108 406L1108 567L788 567Q770 567 757.50 578Q745 589 745 602L745 801Q745 815 757.50 826.50Q770 838 788 838L1370 838Q1388 838 1400.50 826.50Q1413 815 1413 801L1413 31Q1413 18 1400.50 7Q1388-4 1370-4L1174-4Q1155-4 1142.50 5.50Q1130 15 1130 29Q1129 45 1128 55.50Q1127 66 1126.50 74.50Q1126 83 1126 100Q1051 35 969.50 6Q888-23 780-23Q635-23 510 26.50Q385 76 292.50 168Q200 260 147 399.50Q94 539 94 709Z"  horiz-adv-x="1583" vert-adv-y="2048"  />

      
      <glyph glyph-name="uni68" unicode="&#x68;" d="M135 35L135 1382Q135 1396 147.50 1406.50Q160 1417 178 1417L401 1417Q419 1417 431.50 1406.50Q444 1396 444 1382L444 864L913 864L913 1382Q913 1396 925.50 1406.50Q938 1417 956 1417L1182 1417Q1199 1417 1211 1406.50Q1223 1396 1223 1382L1223 35Q1223 22 1211 11Q1199 0 1182 0L956 0Q938 0 925.50 11Q913 22 913 35L913 575L444 575L444 35Q444 22 431.50 11Q419 0 401 0L178 0Q160 0 147.50 11Q135 22 135 35Z"  horiz-adv-x="1404" vert-adv-y="2048"  />

      
      <glyph glyph-name="uni69" unicode="&#x69;" d="M123 35L123 1382Q123 1396 135.50 1406.50Q148 1417 166 1417L389 1417Q408 1417 420 1406.50Q432 1396 432 1382L432 35Q432 22 420 11Q408 0 389 0L166 0Q148 0 135.50 11Q123 22 123 35Z"  horiz-adv-x="573" vert-adv-y="2048"  />

      
      <glyph glyph-name="uni6a" unicode="&#x6a;" d="M35 35L35 258Q35 272 47.50 282.50Q60 293 78 293L246 293Q281 293 307 306.50Q333 320 344.50 339Q356 358 363 377.50Q370 397 370 410L371 424L371 1382Q371 1396 382 1406.50Q393 1417 412 1417L637 1417Q655 1417 666.50 1406.50Q678 1396 678 1382L678 424Q678 337 654 267Q630 197 592 154Q554 111 508 79.50Q462 48 416 33.50Q370 19 332 10.50Q294 2 270 1L246 0L78 0Q60 0 47.50 11Q35 22 35 35Z"  horiz-adv-x="831" vert-adv-y="2048"  />

      
      <glyph glyph-name="uni6b" unicode="&#x6b;" d="M131 35L131 1382Q131 1396 143.50 1406.50Q156 1417 176 1417L399 1417Q418 1417 430 1406.50Q442 1396 442 1382L442 807L918 1405Q942 1417 950 1417L1231 1417Q1260 1418 1271 1400Q1275 1393 1275 1386Q1275 1374 1264 1360L727 696L1268 57Q1279 43 1279 31Q1279 24 1275 18Q1264 0 1235 0L942 0Q936 0 923 5.50Q910 11 907 14L522 487Q518 483 512.50 475.50Q507 468 502 463L502 465Q473 426 442 395L442 35Q442 22 430 11Q418 0 399 0L176 0Q157 0 144 11Q131 22 131 35Z"  horiz-adv-x="1323" vert-adv-y="2048"  />

      
      <glyph glyph-name="uni6c" unicode="&#x6c;" d="M127 35L127 1382Q127 1396 139 1406.50Q151 1417 170 1417L393 1417Q411 1417 423.50 1406.50Q436 1396 436 1382L436 293L887 293Q905 293 917.50 282.50Q930 272 930 258L930 35Q930 22 917.50 11Q905 0 887 0L170 0Q151 0 139 11Q127 22 127 35Z"  horiz-adv-x="1026" vert-adv-y="2048"  />

      
      <glyph glyph-name="uni6d" unicode="&#x6d;" d="M137 35L137 1382Q137 1396 149.50 1406.50Q162 1417 180 1417L408 1417Q418 1417 430.50 1410Q443 1403 446 1397L915 428L1362 1397Q1365 1404 1379 1410.50Q1393 1417 1403 1417L1628 1417Q1647 1417 1659 1406.50Q1671 1396 1671 1382L1671 35Q1671 22 1659 11Q1647 0 1628 0L1407 0Q1388 0 1375 11Q1362 22 1362 35L1362 707L1061 76Q1058 69 1045 61Q1032 53 1022 53L811 53Q801 53 789 60.50Q777 68 774 76L446 731L446 35Q446 22 434 11Q422 0 403 0L180 0Q162 0 149.50 11Q137 22 137 35Z"  horiz-adv-x="1875" vert-adv-y="2048"  />

      
      <glyph glyph-name="uni6e" unicode="&#x6e;" d="M135 35L135 1384Q135 1399 145.50 1409Q156 1419 176 1419L401 1419Q427 1419 436 1407L1024 543L1024 1384Q1024 1398 1036.50 1408.50Q1049 1419 1067 1419L1288 1419Q1307 1419 1319 1408.50Q1331 1398 1331 1384L1331 35Q1331 22 1319 11Q1307 0 1288 0L1065 0Q1039 0 1028 14L442 868L442 35Q442 22 429.50 11Q417 0 399 0L176 0Q156 0 145.50 10.50Q135 21 135 35Z"  horiz-adv-x="1519" vert-adv-y="2048"  />

      
      <glyph glyph-name="uni6f" unicode="&#x6f;" d="M109.50 496.50Q109.50 496.50 95.75 548.75Q82 601 82 711Q82 821 109.50 925.50Q137 1030 195 1123Q253 1216 335 1286Q417 1356 533.50 1397Q650 1438 788 1438Q924 1438 1040 1397Q1156 1356 1238.50 1286Q1321 1216 1379 1123Q1437 1030 1465 925.50Q1493 821 1493 711Q1493 601 1465 496Q1437 391 1379 298Q1321 205 1238.50 134.50Q1156 64 1040 23Q924-18 788-18Q650-18 533.50 23Q417 64 335 134.50Q253 205 195 298.50Q137 392 109.50 496.50M397 707Q397 623 422 546Q447 469 494.50 406.50Q542 344 618 307Q694 270 788 270Q863 270 927.50 294.50Q992 319 1037.50 361Q1083 403 1116 458.50Q1149 514 1164.50 577.50Q1180 641 1180 707Q1180 774 1164.50 838Q1149 902 1116 958.50Q1083 1015 1037.50 1057.50Q992 1100 927.50 1124.50Q863 1149 788 1149Q694 1149 618 1111.50Q542 1074 494.50 1011Q447 948 422 870Q397 792 397 707Z"  horiz-adv-x="1632" vert-adv-y="2048"  />

      
      <glyph glyph-name="uni70" unicode="&#x70;" d="M131 31L131 1382Q131 1396 142.50 1406.50Q154 1417 172 1417L618 1417Q640 1417 664 1415.50Q688 1414 739.50 1405Q791 1396 835.50 1380.50Q880 1365 932.50 1332.50Q985 1300 1021.50 1256Q1058 1212 1083 1141Q1108 1070 1108 983Q1108 896 1082 825.50Q1056 755 1017.50 711.50Q979 668 925 635.50Q871 603 826 588Q781 573 729.50 564Q678 555 656.50 554Q635 553 618 553L438 553L438 31Q438 18 426.50 7Q415-4 395-4L172-4Q154-4 142.50 7Q131 18 131 31M438 846L618 846Q630 846 642.50 847Q655 848 678.50 851.50Q702 855 721.50 864.50Q741 874 760 888Q779 902 790 926.50Q801 951 801 983Q801 1020 784 1048Q767 1076 745 1090Q723 1104 694 1112.50Q665 1121 648.50 1122.50Q632 1124 618 1124L438 1124L438 846Z"  horiz-adv-x="1187" vert-adv-y="2048"  />

      
      <glyph glyph-name="uni71" unicode="&#x71;" d="M140 433.50Q140 433.50 114 499.75Q88 566 88 711Q88 856 138 988Q188 1120 278.50 1220Q369 1320 504 1379Q639 1438 799 1438Q953 1438 1087.50 1378.50Q1222 1319 1314 1219.50Q1406 1120 1458.50 987.50Q1511 855 1511 711Q1511 609 1480.50 499Q1450 389 1397 301L1513 182Q1525 173 1525 155Q1525 137 1513 127L1358-27Q1348-36 1332-36Q1316-36 1305-27L1186 90Q1005-20 799-20Q643-20 508.50 40Q374 100 283 200.50Q192 301 140 433.50M397 711Q397 626 426 546.50Q455 467 506 406Q557 345 633.50 308.50Q710 272 799 272Q882 272 963 309L920 354Q912 362 899.50 375.50Q887 389 876.50 399Q866 409 856 418L858 416Q845 427 845.50 443.50Q846 460 858 471L1016 629Q1044 646 1071 629L1171 528Q1204 619 1204 711Q1204 828 1158.50 925.50Q1113 1023 1019 1085Q925 1147 799 1147Q676 1147 583 1085.50Q490 1024 443.50 925.50Q397 827 397 711Z"  horiz-adv-x="1693" vert-adv-y="2048"  />

      
      <glyph glyph-name="uni72" unicode="&#x72;" d="M129 35L129 1382Q129 1396 140.50 1406.50Q152 1417 170 1417L614 1417Q643 1417 668.50 1416Q694 1415 747.50 1406Q801 1397 844 1382Q887 1367 938 1335Q989 1303 1024 1259.50Q1059 1216 1082.50 1146Q1106 1076 1106 989Q1106 707 856 608Q868 582 916 478Q964 374 989 322L1114 49Q1117 41 1117 33Q1118 23 1112 15Q1102 0 1077 0L831 0Q822 0 809 8Q796 16 793 23L543 567L438 567L438 35Q438 22 425 11Q412 0 393 0L170 0Q152 0 140.50 11Q129 22 129 35M438 840L614 840Q634 840 653 842Q672 844 700 852.50Q728 861 748 875Q768 889 782.50 917Q797 945 797 983Q797 1029 774.50 1060.50Q752 1092 718 1105Q684 1118 659 1123Q634 1128 614 1128L438 1128L438 840Z"  horiz-adv-x="1226" vert-adv-y="2048"  />

      
      <glyph glyph-name="uni73" unicode="&#x73;" d="M80 406Q80 438 123 438L346 438Q362 438 375.50 429Q389 420 389 406Q392 343 435 308.50Q478 274 541 274Q603 274 647.50 311.50Q692 349 692 410Q692 472 644.50 514Q597 556 541 561Q426 561 322 608Q206 664 143 764Q80 864 80 993Q80 1125 145.50 1228Q211 1331 315.50 1383.50Q420 1436 541 1436Q732 1436 862 1319Q992 1202 995 1018Q995 1004 982.50 993.50Q970 983 952 983L731 983Q714 983 701 993.50Q688 1004 688 1018Q685 1078 643 1111.50Q601 1145 541 1145Q475 1145 432 1105.50Q389 1066 389 993Q389 928 434 887Q479 846 541 846Q654 846 756 799Q873 746 936 643Q999 540 999 410Q999 309 961 226Q923 143 858.50 90Q794 37 712.50 8.50Q631-20 541-20Q341-15 212 97Q83 209 80 406Z"  horiz-adv-x="1112" vert-adv-y="2048"  />

      
      <glyph glyph-name="uni74" unicode="&#x74;" d="M10 1165L10 1370Q10 1384 22.50 1395.50Q35 1407 53 1407L836 1407Q855 1407 867 1395.50Q879 1384 879 1370L879 1165Q879 1151 867.50 1142Q856 1133 836 1133L598 1133L598 35Q598 22 587 11Q576 0 557 0L334 0Q314 0 303.50 10.50Q293 21 293 35L293 1133L53 1133Q34 1133 22 1142Q10 1151 10 1165Z"  horiz-adv-x="917" vert-adv-y="2048"  />

      
      <glyph glyph-name="uni75" unicode="&#x75;" d="M131 463L131 1370Q131 1384 143.50 1395.50Q156 1407 174 1407L397 1407Q415 1407 427.50 1395.50Q440 1384 440 1370L440 467Q453 379 520 326.50Q587 274 676 274Q771 274 840 323.50Q909 373 909 463L909 1370Q909 1384 921.50 1395.50Q934 1407 952 1407L1178 1407Q1195 1407 1207 1395.50Q1219 1384 1219 1370L1219 463Q1219 314 1147 203.50Q1075 93 953 36.50Q831-20 676-20Q525-20 401.50 38Q278 96 204.50 207Q131 318 131 463Z"  horiz-adv-x="1398" vert-adv-y="2048"  />

      
      <glyph glyph-name="uni76" unicode="&#x76;" d="M4 1368Q1 1376 1 1383Q1 1393 7 1402Q18 1417 41 1417L281 1417Q295 1417 306.50 1410.50Q318 1404 319 1395Q348 1314 435.50 1073.50Q523 833 573 688Q601 766 691 1013Q781 1260 829 1395Q830 1404 842 1410.50Q854 1417 868 1417L1108 1417Q1132 1416 1144 1402Q1151 1393 1150 1383Q1150 1376 1147 1368L612-14Q602-34 574-34Q546-34 535-14L4 1368Z"  horiz-adv-x="1169" vert-adv-y="2048"  />

      
      <glyph glyph-name="uni77" unicode="&#x77;" d="M18 1368Q15 1375 15 1381Q15 1392 23 1402Q35 1417 57 1417L297 1417Q311 1417 323 1410.50Q335 1404 336 1395Q381 1269 463 1041.50Q545 814 590 688L846 1395Q853 1417 883 1417L1130 1417Q1143 1417 1154.50 1410.50Q1166 1404 1169 1395Q1213 1269 1296 1041.50Q1379 814 1423 688L1679 1395Q1682 1404 1694 1410.50Q1706 1417 1718 1417L1960 1417Q1985 1417 1995 1403Q2001 1395 2001 1385Q2001 1377 1997 1368L1462-31Q1453-56 1424.50-56Q1396-56 1386-31L1006 977Q947 817 820 480.50Q693 144 629-31Q618-56 589-56Q560-56 549-31L18 1368Z"  horiz-adv-x="2058" vert-adv-y="2048"  />

      
      <glyph glyph-name="uni78" unicode="&#x78;" d="M18 18Q14 25 14 34Q14 45 23 57L20 57L481 702Q402 812 20 1360L23 1360Q14 1372 14 1383Q14 1390 18 1398Q28 1416 57 1417L328 1417Q353 1417 365 1405Q425 1317 539 1154Q653 991 672 963L975 1405Q979 1409 992 1413Q1005 1417 1010 1417L1284 1417Q1308 1416 1320 1398Q1325 1389 1326 1381Q1326 1371 1319 1360L856 702Q893 654 958 561.50Q1023 469 1053 428Q1179 251 1319 57Q1326 46 1326 36Q1326 26 1320 18Q1308 0 1284 0L1010 0Q983 0 975 14Q923 89 823.50 234.50Q724 380 672 455Q622 385 518.50 234.50Q415 84 365 14Q351 0 328 0L57 0Q28 0 18 18Z"  horiz-adv-x="1380" vert-adv-y="2048"  />

      
      <glyph glyph-name="uni79" unicode="&#x79;" d="M4 1398Q14 1417 43 1417L315 1417Q338 1417 350 1405Q407 1321 512 1173Q617 1025 657 967L963 1405Q983 1417 995 1417L1270 1417Q1298 1417 1309 1398Q1313 1391 1313 1384Q1313 1372 1303 1360L1305 1360L811 657L811 35Q811 22 798.50 11Q786 0 768 0L545 0Q526 0 514 11Q502 22 502 35L502 657L330 901L6 1360L8 1360Q-1 1372-1 1383Q-1 1391 4 1398Z"  horiz-adv-x="1341" vert-adv-y="2048"  />

      
      <glyph glyph-name="uni7a" unicode="&#x7a;" d="M-18 16Q-24 24-24 33Q-24 43-16 55L-16 53L637 1124L76 1124Q59 1124 47 1135Q35 1146 35 1159L35 1382Q35 1396 47 1406.50Q59 1417 76 1417L1102 1417Q1128 1417 1140 1404Q1148 1396 1148 1387Q1148 1381 1145 1374L485 293L1102 293Q1122 293 1132.50 283Q1143 273 1143 258L1143 35Q1143 21 1132.50 10.50Q1122 0 1102 0L18 0Q-6 0-18 16Z"  horiz-adv-x="1193" vert-adv-y="2048"  />

      
      <glyph glyph-name="uni7b" unicode="&#x7b;" d="M-37 684Q-65 694-65 717Q-65 740-37 750L-39 750L186 860L186 1397Q186 1411 199 1422.50Q212 1434 231 1434L612 1434Q631 1434 642 1423Q653 1412 653 1397L653 1171Q653 1156 642 1145.50Q631 1135 612 1135L502 1135L502 299L612 299Q631 299 642 288Q653 277 653 262L653 35Q653 22 642 11Q631 0 612 0L231 0Q212 0 199 11Q186 22 186 35L186 571L104 612Q89 620 59 636Q29 652 6 663.50Q-17 675-39 684L-37 684Z"  horiz-adv-x="708" vert-adv-y="2048"  />

      
      <glyph glyph-name="uni7c" unicode="&#x7c;" d="M102 35L102 1397Q102 1411 115 1422.50Q128 1434 147 1434L375 1434Q393 1434 405.50 1422.50Q418 1411 418 1397L418 35Q418 22 405.50 11Q393 0 375 0L147 0Q128 0 115 11Q102 22 102 35Z"  horiz-adv-x="575" vert-adv-y="2048"  />

      
      <glyph glyph-name="uni7d" unicode="&#x7d;" d="M45 35L45 262Q45 277 56.50 288Q68 299 88 299L197 299L197 1135L88 1135Q68 1135 56.50 1145.50Q45 1156 45 1171L45 1397Q45 1412 56.50 1423Q68 1434 88 1434L467 1434Q486 1434 499 1422.50Q512 1411 512 1397L512 860Q526 852 596 821Q703 764 739 750L737 750Q763 740 763 717Q763 694 737 684L739 684L512 573L512 35Q512 22 499 11Q486 0 467 0L88 0Q68 0 56.50 11Q45 22 45 35Z"  horiz-adv-x="737" vert-adv-y="2048"  />

      
      <glyph glyph-name="uni7e" unicode="&#x7e;" d="M23 604Q46 721 120.50 783.50Q195 846 301 846Q397 846 508 795L518 793Q566 772 584 772Q609 772 629 819Q636 826 652 832.50Q668 839 680 836L868 780Q886 779 896.50 763Q907 747 899 735L899 737Q859 614 791.50 559Q724 504 627 504Q531 504 416 551L393 561L362 569Q355 571 345.50 574.50Q336 578 331 580Q326 582 324 582Q312 582 301 541Q293 527 277 518Q261 509 244 512L55 563Q41 566 31.50 578.50Q22 591 23 604M504 797L506 795L504 797Z"  horiz-adv-x="950" vert-adv-y="2048"  />

      
      <glyph glyph-name="unia2" unicode="&#xa2;" d="M193.50 358Q193.50 358 131.75 437Q70 516 70 717Q70 918 193.50 1074.50Q317 1231 512 1284L512 1425Q512 1439 524.50 1450.50Q537 1462 555 1462L731 1462Q750 1462 762 1450.50Q774 1439 774 1425L774 1300Q955 1268 1100 1133Q1110 1117 1110.50 1096.50Q1111 1076 1098 1061L973 936Q950 913 924 915Q898 917 879 942L883 940Q822 990 774 1006L774 426Q838 451 885 498Q926 539 969 502L1100 369Q1110 353 1110.50 332.50Q1111 312 1098 297Q1041 240 952.50 196Q864 152 774 133L774 35Q774 21 762 9.50Q750-2 731-2L555-2Q537-2 524.50 9.50Q512 21 512 35L512 147Q317 200 193.50 358M385 717Q385 632 418 564.50Q451 497 512 457L512 973Q453 931 419 863.50Q385 796 385 717Z"  horiz-adv-x="1187" vert-adv-y="2048"  />

      
      <glyph glyph-name="unia3" unicode="&#xa3;" d="M-18 508L-18 748Q-18 762-5.50 771Q7 780 27 780L201 780L207 799L207 797Q234 868 238 874L238 872Q357 1115 575 1266Q643 1309 720 1342Q797 1375 855.50 1392Q914 1409 970 1419Q1026 1429 1051 1431.50Q1076 1434 1085 1434Q1103 1434 1115.50 1422.50Q1128 1411 1128 1397L1128 1161Q1128 1147 1115.50 1135.50Q1103 1124 1085 1124Q1079 1124 1065.50 1123Q1052 1122 1015 1115.50Q978 1109 940 1097.50Q902 1086 850.50 1062Q799 1038 752 1006Q633 923 551 780L702 780Q722 780 735 771Q748 762 748 748L748 508Q748 493 735 483Q722 473 702 473L444 473Q422 332 420 309L1083 309Q1101 309 1113.50 297.50Q1126 286 1126 272L1126 35Q1126 22 1113.50 11Q1101 0 1083 0L135 0Q116 0 104 11Q92 22 92 35L92 154Q92 315 115 473L27 473Q7 473-5.50 483Q-18 493-18 508Z"  horiz-adv-x="1212" vert-adv-y="2048"  />

      
      <glyph glyph-name="unia5" unicode="&#xa5;" d="M-16 1376Q-33 1395-22.50 1414.50Q-12 1434 16 1434L293 1434Q318 1434 330 1419Q526 1131 643 963L954 1419Q969 1434 989 1434L1268 1434Q1296 1434 1306.50 1414.50Q1317 1395 1300 1376L1303 1376L905 821L1006 821Q1024 821 1036.50 809.50Q1049 798 1049 784L1049 625Q1049 611 1036.50 599.50Q1024 588 1006 588L799 588L799 504L1006 504Q1024 504 1036.50 492.50Q1049 481 1049 467L1049 313Q1049 299 1036.50 287.50Q1024 276 1006 276L799 276L799 35Q799 22 787 11Q775 0 756 0L528 0Q510 0 497.50 11Q485 22 485 35L485 276L272 276Q253 276 240 287.50Q227 299 227 313L227 467Q227 481 240 492.50Q253 504 272 504L485 504L485 588L270 588Q251 588 238 599.50Q225 611 225 625L225 784Q225 798 238 809.50Q251 821 270 821L371 821L-18 1376L-16 1376Z"  horiz-adv-x="1310" vert-adv-y="2048"  />

      
      <glyph glyph-name="unia8" unicode="&#xa8;" d="M49 1167Q49 1167 23.50 1191.50Q-2 1216-2 1282Q-2 1348 49 1397Q100 1446 166 1446Q235 1446 287.50 1397Q340 1348 340 1282Q340 1216 287.50 1167Q235 1118 166 1118Q100 1118 49 1167M475.50 1167Q475.50 1167 449.75 1191.50Q424 1216 424 1282Q424 1348 475.50 1397Q527 1446 596 1446Q664 1446 715 1397Q766 1348 766 1282Q766 1216 715 1167Q664 1118 596 1118Q527 1118 475.50 1167Z"  horiz-adv-x="770" vert-adv-y="2048"  />

      
      <glyph glyph-name="unia9" unicode="&#xa9;" d="M61 813Q61 981 144 1123.50Q227 1266 371 1350Q515 1434 686 1434Q858 1434 1003 1350Q1148 1266 1231.50 1123.50Q1315 981 1315 813Q1315 687 1265.50 573Q1216 459 1132 376.50Q1048 294 931.50 245.50Q815 197 686 197Q558 197 442 245.50Q326 294 242.50 376.50Q159 459 110 573Q61 687 61 813M299 813Q299 651 413 534.50Q527 418 686 418Q847 418 961 534Q1075 650 1075 813Q1075 977 961 1093.50Q847 1210 686 1210Q527 1210 413 1093.50Q299 977 299 813M383 815Q383 941 477.50 1033.50Q572 1126 700 1126Q835 1126 928 1036Q937 1026 937 1009Q937 992 928 983L856 918Q829 898 805 918Q755 965 700 965Q643 965 603 921Q563 877 563 815Q563 755 603 712.50Q643 670 700 670Q754 670 803 713Q814 722 829 722Q844 722 856 713L928 649Q937 638 937 622Q937 606 928 598Q836 506 700 506Q572 506 477.50 598.50Q383 691 383 815Z"  horiz-adv-x="1417" vert-adv-y="2048"  />

      
      <glyph glyph-name="uniab" unicode="&#xab;" d="M6 637Q0 646 0 659Q0 672 6 680Q70 760 191 916.50Q312 1073 360 1133Q370 1143 389.50 1146Q409 1149 422 1139L567 1024Q592 999 573 973L332 662L582 379L580 379Q592 367 589.50 352Q587 337 573 326L575 326L428 205Q415 196 398.50 198Q382 200 369 209L6 637M475 637Q468 646 468 659Q468 672 475 680L825 1133Q835 1143 853.50 1146Q872 1149 885 1139L1030 1024Q1044 1013 1046 998Q1048 983 1036 971L1040 973L813 657L1047 377Q1056 365 1053 351Q1050 337 1038 326L1040 326L891 205Q865 186 834 209L475 637Z"  horiz-adv-x="1032" vert-adv-y="2048"  />

      
      <glyph glyph-name="uniad" unicode="&#xad;" d="M47 616L47 823Q47 837 60 848.50Q73 860 92 860L776 860Q796 860 807.50 849Q819 838 819 823L819 616Q819 603 807.50 592.50Q796 582 776 582L92 582Q73 582 60 592.50Q47 603 47 616Z"  horiz-adv-x="907" vert-adv-y="2048"  />

      
      <glyph glyph-name="uniae" unicode="&#xae;" d="M44 549.50Q44 549.50 17 612.25Q-10 675-10 813Q-10 951 44 1076.50Q98 1202 189 1294Q280 1386 407.50 1440.50Q535 1495 676 1495Q818 1495 946 1440.50Q1074 1386 1166 1294Q1258 1202 1312 1076.50Q1366 951 1366 813Q1366 675 1312 549.50Q1258 424 1166 333Q1074 242 946 188.50Q818 135 676 135Q535 135 407.50 188.50Q280 242 189 333Q98 424 44 549.50M242 813Q242 693 300.50 590.50Q359 488 459 428.50Q559 369 676 369Q857 369 985.50 499.50Q1114 630 1114 813Q1114 998 986.50 1127.50Q859 1257 676 1257Q497 1257 369.50 1127Q242 997 242 813M451 530L451 1087Q451 1102 461.50 1112Q472 1122 492 1122L684 1122Q793 1122 859.50 1066.50Q926 1011 926 922Q926 878 898.50 834.50Q871 791 819 760L926 543Q934 524 922.50 509Q911 494 885 494L784 494Q755 494 741 522L651 735L633 735L633 530Q633 516 620.50 505Q608 494 590 494L492 494Q472 494 461.50 504.50Q451 515 451 530M621 874L684 874Q723 874 740.50 899Q758 924 742 949.50Q726 975 684 975L621 975L621 874Z"  horiz-adv-x="1382" vert-adv-y="2048"  />

      
      <glyph glyph-name="unib4" unicode="&#xb4;" d="M6 1253Q-6 1265-1 1281Q4 1297 23 1303Q89 1340 209.50 1405Q330 1470 383 1499Q435 1518 444 1503L559 1321Q563 1311 556 1297.50Q549 1284 537 1278L539 1278L174 1087Q119 1068 106 1085L6 1253Z"  horiz-adv-x="569" vert-adv-y="2048"  />

      
      <glyph glyph-name="unib8" unicode="&#xb8;" d="M41-104Q41-90 53.50-79Q66-68 84-68L268-68Q287-68 300-79Q313-90 313-104Q313-147 342-178Q371-209 412-209Q450-209 479-178Q508-147 508-104Q508-59 479.50-28.50Q451 2 412 2Q394 2 381.50 13Q369 24 369 37L369 225Q369 240 381 249Q393 258 412 258Q564 258 673 151.50Q782 45 782-104Q782-252 673-359.50Q564-467 412-467Q258-467 149.50-360Q41-253 41-104Z"  horiz-adv-x="878" vert-adv-y="2048"  />

      
      <glyph glyph-name="unibb" unicode="&#xbb;" d="M14 365L260 659L31 973L35 971Q24 984 26 998.50Q28 1013 41 1024L188 1139Q202 1148 218.50 1146Q235 1144 246 1133L602 680Q610 672 610 659Q610 646 602 637Q544 568 420.50 422.50Q297 277 238 209Q207 185 182 205L33 326Q23 335 17 347.50Q11 360 14 365M506 377Q584 471 739 657L512 973L516 971Q504 983 506 998Q508 1013 522 1024L668 1139Q679 1149 698 1146Q717 1143 727 1133L1083 680Q1090 672 1090 659Q1090 646 1083 637Q806 313 719 209Q688 186 659 205L512 326Q487 348 506 377Z"  horiz-adv-x="1095" vert-adv-y="2048"  />

      
      <glyph glyph-name="uni02C6" unicode="&#x02C6;" d="M29 1241Q19 1253 24 1270Q29 1287 47 1294L43 1294L375 1485Q380 1488 395 1488Q410 1488 416 1485L754 1305L750 1305Q769 1297 775 1282.50Q781 1268 770 1253L770 1255L682 1106Q661 1085 625 1092L395 1221Q366 1204 294 1160.50Q222 1117 184 1096Q173 1091 151.50 1095Q130 1099 119 1110L29 1243L29 1241Z"  horiz-adv-x="802" vert-adv-y="2048"  />

      
      <glyph glyph-name="uni02DA" unicode="&#x02DA;" d="M20 1165Q20 1234 46.50 1289.50Q73 1345 116 1379Q159 1413 214 1431.50Q269 1450 326.50 1450Q384 1450 439 1432Q494 1414 537 1379.50Q580 1345 606.50 1289.50Q633 1234 633 1165Q633 1094 606.50 1037Q580 980 537 945.50Q494 911 439 893Q384 875 326.50 876Q269 877 214 896Q159 915 116 950Q73 985 46.50 1041Q20 1097 20 1165M262.50 1236.50Q262.50 1236.50 247.75 1223.75Q233 1211 233 1165Q233 1119 262.50 1093Q292 1067 327.50 1066.50Q363 1066 392.50 1092.50Q422 1119 422 1165Q422 1209 392.50 1235Q363 1261 327.50 1261.50Q292 1262 262.50 1236.50Z"  horiz-adv-x="677" vert-adv-y="2048"  />

      
      <glyph glyph-name="uni02DC" unicode="&#x02DC;" d="M23 1225Q40 1336 105 1394Q170 1452 264 1452Q361 1452 436 1405L440 1405Q483 1386 504 1386Q522 1386 535 1421Q541 1431 559 1437Q577 1443 596 1440L743 1393L739 1393Q759 1388 769 1375Q779 1362 772 1346L774 1348Q741 1233 682 1183Q623 1133 535 1133Q463 1133 360 1176L334 1184Q293 1202 281 1202Q276 1202 268 1171Q260 1156 244 1147Q228 1138 211 1141L53 1184L55 1184Q41 1187 32 1199.50Q23 1212 23 1225Z"  horiz-adv-x="802" vert-adv-y="2048"  />

      
      <glyph glyph-name="uni0401" unicode="&#x0401;" d="M127 35L127 1397Q127 1411 139 1422.50Q151 1434 170 1434L1061 1434Q1079 1434 1091.50 1422.50Q1104 1411 1104 1397L1104 1178Q1104 1164 1091.50 1152.50Q1079 1141 1061 1141L440 1141L440 866L965 866Q983 866 994.50 854.50Q1006 843 1006 829L1006 608Q1006 595 994.50 584Q983 573 965 573L440 573L440 299L1077 299Q1096 299 1109 287.50Q1122 276 1122 262L1122 35Q1122 22 1109 11Q1096 0 1077 0L170 0Q151 0 139 11Q127 22 127 35M303 1566.50Q303 1566.50 277.50 1590.75Q252 1615 252 1681Q252 1747 303 1796Q354 1845 420 1845Q489 1845 541.50 1796Q594 1747 594 1681Q594 1615 541.50 1566.50Q489 1518 420 1518Q354 1518 303 1566.50M729.50 1566.50Q729.50 1566.50 703.75 1590.75Q678 1615 678 1681Q678 1747 729.50 1796Q781 1845 850 1845Q918 1845 969 1796Q1020 1747 1020 1681Q1020 1615 969 1566.50Q918 1518 850 1518Q781 1518 729.50 1566.50Z"  horiz-adv-x="1204" vert-adv-y="2048"  />

      
      <glyph glyph-name="uni0410" unicode="&#x0410;" d="M127 35L127 944Q127 962 129.50 987.50Q132 1013 150 1075Q168 1137 199 1190Q225 1236 262 1275.50Q299 1315 355.50 1353Q412 1391 495.50 1412.50Q579 1434 680 1434Q1020 1434 1165 1190Q1196 1138 1214 1076Q1232 1014 1234.50 988Q1237 962 1237 944L1237 35Q1237 22 1224 11Q1211 0 1192 0L965 0Q947 0 934.50 11Q922 22 922 35L922 248L442 248L442 35Q442 22 429 11Q416 0 397 0L170 0Q152 0 139.50 11Q127 22 127 35M442 524L922 524L922 942Q922 1002 893 1044L893 1042Q830 1135 680 1135Q529 1135 469 1038Q459 1019 452 995.50Q445 972 444 958L442 944L442 524Z"  horiz-adv-x="1398" vert-adv-y="2048"  />

      
      <glyph glyph-name="uni0411" unicode="&#x0411;" d="M127 35L127 1397Q127 1411 139 1422.50Q151 1434 170 1434L1014 1434Q1033 1434 1046 1422.50Q1059 1411 1059 1397L1059 1180Q1059 1166 1046 1154.50Q1033 1143 1014 1143L438 1143L438 885L625 885Q884 885 1012.50 770.50Q1141 656 1141 449Q1141 366 1117 296.50Q1093 227 1056 182Q1019 137 968 102Q917 67 868.50 48.50Q820 30 768.50 18.50Q717 7 684 3.50Q651 0 625 0L170 0Q151 0 139 11Q127 22 127 35M438 297L625 297Q659 297 690 303Q721 309 753.50 324Q786 339 805.50 371Q825 403 825 449Q825 493 806 523.50Q787 554 755 568Q723 582 691.50 588Q660 594 625 594L438 594L438 297Z"  horiz-adv-x="1234" vert-adv-y="2048"  />

      
      <glyph glyph-name="uni0412" unicode="&#x0412;" d="M127 35L127 1397Q127 1411 139 1422.50Q151 1434 170 1434L625 1434Q631 1434 642 1434Q653 1434 687 1430.50Q721 1427 753.50 1421Q786 1415 831 1400.50Q876 1386 914 1366.50Q952 1347 991 1314.50Q1030 1282 1057.50 1241.50Q1085 1201 1102.50 1143Q1120 1085 1120 1016Q1120 806 952 719Q1008 693 1048 653.50Q1088 614 1105 576Q1122 538 1131.50 503.50Q1141 469 1141 448L1141 426Q1141 342 1117 274Q1093 206 1056.50 163Q1020 120 968 87.50Q916 55 869.50 39Q823 23 769 13.50Q715 4 684.50 2Q654 0 625 0L170 0Q151 0 139 11Q127 22 127 35M438 295L625 295Q659 295 690 300.50Q721 306 753.50 319.50Q786 333 805.50 362Q825 391 825 432Q825 472 804.50 500.50Q784 529 754.50 541Q725 553 695.50 559Q666 565 646 565L625 565L438 565L438 295M438 866L625 866Q629 866 635.50 866.50Q642 867 660.50 869.50Q679 872 696 876.50Q713 881 734 891Q755 901 770 914.50Q785 928 795 950Q805 972 805 999Q805 1040 786.50 1070.50Q768 1101 741.50 1114.50Q715 1128 688.50 1135.50Q662 1143 644 1144L625 1145L438 1145L438 866Z"  horiz-adv-x="1234" vert-adv-y="2048"  />

      
      <glyph glyph-name="uni0413" unicode="&#x0413;" d="M125 35L125 1397Q125 1411 138 1422.50Q151 1434 170 1434L1014 1434Q1033 1434 1045 1422.50Q1057 1411 1057 1397L1057 1180Q1057 1166 1045 1154.50Q1033 1143 1014 1143L438 1143L438 35Q438 22 425.50 11Q413 0 395 0L170 0Q151 0 138 11Q125 22 125 35Z"  horiz-adv-x="1122" vert-adv-y="2048"  />

      
      <glyph glyph-name="uni0414" unicode="&#x0414;" d="M8-174L8 244Q8 257 19.50 268Q31 279 49 279L119 279Q180 283 180 371L180 944Q180 1169 317.50 1301.50Q455 1434 680 1434L1167 1434Q1186 1434 1197 1423Q1208 1412 1208 1397L1208 279L1323 279Q1342 279 1355 268Q1368 257 1368 244L1368-174Q1368-187 1355-198Q1342-209 1323-209L1110-209Q1091-209 1080-198Q1069-187 1069-174L1069 0L307 0L307-174Q307-187 294-198Q281-209 262-209L49-209Q31-209 19.50-198Q8-187 8-174M475 279L889 279L889 1143L688 1143Q598 1143 547 1091.50Q496 1040 496 944L496 371Q496 334 475 279Z"  horiz-adv-x="1462" vert-adv-y="2048"  />

      
      <glyph glyph-name="uni0415" unicode="&#x0415;" d="M125 35L125 1397Q125 1411 137 1422.50Q149 1434 168 1434L1057 1434Q1075 1434 1087.50 1422.50Q1100 1411 1100 1397L1100 1171Q1100 1157 1087.50 1146Q1075 1135 1057 1135L438 1135L438 1024L1038 1024Q1057 1024 1068 1013Q1079 1002 1079 987L1079 807Q1079 792 1068 781Q1057 770 1038 770L438 770L438 674L1038 674Q1079 674 1079 641L1079 451Q1079 436 1068 425Q1057 414 1038 414L438 414L438 299L1057 299Q1075 299 1087.50 287.50Q1100 276 1100 262L1100 35Q1100 22 1087.50 11Q1075 0 1057 0L168 0Q149 0 137 11Q125 22 125 35Z"  horiz-adv-x="1218" vert-adv-y="2048"  />

      
      <glyph glyph-name="uni0416" unicode="&#x0416;" d="M55 0Q26 0 15 19Q4 38 20 57L18 57L496 758L29 1376L31 1376Q14 1395 25.50 1414.50Q37 1434 66 1434L338 1434Q344 1434 358.50 1425.50Q373 1417 379 1411L637 1071Q657 1035 686 990Q715 945 745.50 902Q776 859 780 852L780 1397Q780 1411 792.50 1422.50Q805 1434 823 1434L1051 1434Q1070 1434 1083 1422.50Q1096 1411 1096 1397L1096 852Q1100 858 1130 901.50Q1160 945 1189 989.50Q1218 1034 1239 1071L1497 1411Q1503 1417 1517.50 1425.50Q1532 1434 1538 1434L1810 1434Q1839 1434 1850.50 1414.50Q1862 1395 1845 1376L1847 1376L1380 758L1858 57L1855 57Q1871 38 1860.50 19Q1850 0 1821 0L1540 0Q1532 0 1519 6.50Q1506 13 1503 20L1505 16L1169 532L1096 444L1096 35Q1096 22 1083 11Q1070 0 1051 0L823 0Q805 0 792.50 11Q780 22 780 35L780 444L707 532L371 16L373 20Q370 13 357 6.50Q344 0 336 0L55 0Z"  horiz-adv-x="1880" vert-adv-y="2048"  />

      
      <glyph glyph-name="uni0417" unicode="&#x0417;" d="M25 412Q25 426 37.50 437.50Q50 449 68 449L291 449Q308 449 322 437.50Q336 426 336 412Q337 343 381.50 306.50Q426 270 487 270Q543 270 584 318.50Q625 367 625 434Q625 508 583 550Q541 592 477 592L375 592Q357 592 344.50 602.50Q332 613 332 627L332 829Q332 843 344.50 854.50Q357 866 375 866L477 866Q525 866 558.50 906Q592 946 592 1016Q592 1082 556.50 1122.50Q521 1163 463 1163Q403 1163 364.50 1127.50Q326 1092 326 1038Q326 1024 313.50 1012.50Q301 1001 283 1001L74 1001Q56 1001 43.50 1012.50Q31 1024 31 1038Q31 1220 151 1337Q271 1454 463 1454Q661 1454 784 1335.50Q907 1217 907 1014Q907 936 872.50 861.50Q838 787 776 737Q850 684 896 603Q942 522 942 434Q942 318 904 228Q866 138 800.50 85.50Q735 33 655 6.50Q575-20 483-20Q279-20 152 98Q25 216 25 412Z"  horiz-adv-x="1009" vert-adv-y="2048"  />

      
      <glyph glyph-name="uni0418" unicode="&#x0418;" d="M133 35L133 1397Q133 1411 145.50 1422.50Q158 1434 176 1434L408 1434Q426 1434 438.50 1422.50Q451 1411 451 1397L451 543Q538 669 713 926Q888 1183 975 1309Q1038 1401 1051 1419Q1066 1434 1085 1434L1319 1434Q1338 1434 1350 1422.50Q1362 1411 1362 1397L1362 35Q1362 22 1350 11Q1338 0 1319 0L1087 0Q1068 0 1056 11Q1044 22 1044 35L1044 903L446 16L449 20Q445 13 432 6.50Q419 0 412 0L176 0Q158 0 145.50 11Q133 22 133 35Z"  horiz-adv-x="1519" vert-adv-y="2048"  />

      
      <glyph glyph-name="uni0419" unicode="&#x0419;" d="M133 35L133 1397Q133 1411 145.50 1422.50Q158 1434 176 1434L408 1434Q426 1434 438.50 1422.50Q451 1411 451 1397L451 543Q538 669 713 926Q888 1183 975 1309Q1038 1401 1051 1419Q1066 1434 1085 1434L1319 1434Q1338 1434 1350 1422.50Q1362 1411 1362 1397L1362 35Q1362 22 1350 11Q1338 0 1319 0L1087 0Q1068 0 1056 11Q1044 22 1044 35L1044 903L446 16L449 20Q445 13 432 6.50Q419 0 412 0L176 0Q158 0 145.50 11Q133 22 133 35M428 1792Q428 1806 440.50 1817.50Q453 1829 471 1829L647 1829Q664 1829 678 1817.50Q692 1806 692 1792Q693 1748 716 1724Q739 1700 770 1700Q800 1700 823.50 1724.50Q847 1749 850 1794Q850 1806 863 1817.50Q876 1829 893 1829L1069 1829Q1087 1829 1099.50 1817.50Q1112 1806 1112 1792Q1112 1624 1020 1544Q928 1464 780 1464Q710 1464 649 1482.50Q588 1501 537.50 1538.50Q487 1576 457.50 1641Q428 1706 428 1792Z"  horiz-adv-x="1523" vert-adv-y="2048"  />

      
      <glyph glyph-name="uni041A" unicode="&#x041A;" d="M127 35L127 1397Q127 1411 140 1422.50Q153 1434 172 1434L399 1434Q417 1434 429.50 1422.50Q442 1411 442 1397L442 827Q534 942 705.50 1151.50Q877 1361 924 1419Q927 1422 939.50 1428Q952 1434 958 1434L1243 1434Q1271 1434 1282.50 1415Q1294 1396 1276 1376L731 705L1280 57Q1298 37 1286.50 18.50Q1275 0 1247 0L948 0Q942 0 929 5.50Q916 11 913 14L526 494L508 471L508 473Q500 464 478 438.50Q456 413 442 399L442 35Q442 22 429.50 11Q417 0 399 0L172 0Q153 0 140 11Q127 22 127 35Z"  horiz-adv-x="1323" vert-adv-y="2048"  />

      
      <glyph glyph-name="uni041B" unicode="&#x041B;" d="M4 27L4 250Q4 265 19.50 276Q35 287 53 287Q63 283 82 285.50Q101 288 119.50 293Q138 298 152 319.50Q166 341 166 375L166 944Q166 1171 295.50 1302.50Q425 1434 651 1434L1135 1434Q1154 1434 1167 1422.50Q1180 1411 1180 1397L1180 35Q1180 22 1167 11Q1154 0 1135 0L903 0Q884 0 871 11Q858 22 858 35L858 1143L659 1143Q571 1143 525 1092Q479 1041 479 944L479 375Q479 344 476 313.50Q473 283 462 241Q451 199 433.50 163.50Q416 128 382.50 92.50Q349 57 305 33.50Q261 10 194-2.50Q127-15 45-10Q28-9 16 3Q4 15 4 27Z"  horiz-adv-x="1343" vert-adv-y="2048"  />

      
      <glyph glyph-name="uni041C" unicode="&#x041C;" d="M-14 49L553 1413L553 1411Q556 1421 569.50 1428.50Q583 1436 594 1436L840 1436Q850 1436 863 1428.50Q876 1421 879 1411L879 1413L1020 1073Q1152 1389 1161 1413Q1164 1420 1178 1428Q1192 1436 1200 1436L1448 1436Q1460 1436 1473 1428.50Q1486 1421 1487 1411L1487 1413L2058 49Q2064 29 2053 14.50Q2042 0 2017 0L1772 0Q1762 0 1749 7.50Q1736 15 1733 25L1733 23Q1662 194 1530 509Q1398 824 1327 995L1190 670Q1207 625 1247 532.50Q1287 440 1305 395L1448 49Q1458 29 1446.50 14.50Q1435 0 1409 0L1163 0Q1154 0 1139.50 8Q1125 16 1124 23L1020 264L920 23L920 25Q917 15 904.50 7.50Q892 0 881 0L633 0Q608 0 597 14.50Q586 29 594 49L852 672L743 936Q739 947 736 954.50Q733 962 732.50 965Q732 968 728.50 975.50Q725 983 719 997Q652 834 515 510Q378 186 311 23L311 25Q308 15 294.50 7.50Q281 0 270 0L27 0Q1 0-9.50 14.50Q-20 29-14 49Z"  horiz-adv-x="2093" vert-adv-y="2048"  />

      
      <glyph glyph-name="uni041D" unicode="&#x041D;" d="M127 35L127 1397Q127 1411 139.50 1422.50Q152 1434 170 1434L397 1434Q416 1434 429 1422.50Q442 1411 442 1397L442 1094L922 1094L922 1397Q922 1411 934.50 1422.50Q947 1434 965 1434L1192 1434Q1211 1434 1224 1422.50Q1237 1411 1237 1397L1237 35Q1237 22 1224 11Q1211 0 1192 0L965 0Q947 0 934.50 11Q922 22 922 35L922 340L442 340L442 35Q442 22 429 11Q416 0 397 0L170 0Q152 0 139.50 11Q127 22 127 35M442 639L922 639L922 795L442 795L442 639Z"  horiz-adv-x="1394" vert-adv-y="2048"  />

      
      <glyph glyph-name="uni041E" unicode="&#x041E;" d="M82 911Q82 1020 126 1119.50Q170 1219 243.50 1291.50Q317 1364 419 1407Q521 1450 633 1450Q781 1450 907.50 1377.50Q1034 1305 1108 1180.50Q1182 1056 1182 911Q1182 765 1108 642Q1034 519 907.50 448Q781 377 633 377Q484 377 357 448Q230 519 156 642Q82 765 82 911M135 35L135 260Q135 274 147 285.50Q159 297 178 297L1075 297Q1094 297 1107 285.50Q1120 274 1120 260L1120 35Q1120 22 1107 11Q1094 0 1075 0L178 0Q159 0 147 11Q135 22 135 35M395 911Q395 809 464.50 741.50Q534 674 633 674Q732 674 800 741.50Q868 809 868 911Q868 1012 799.50 1082.50Q731 1153 633 1153Q534 1153 464.50 1082.50Q395 1012 395 911Z"  horiz-adv-x="1306" vert-adv-y="2048"  />

      
      <glyph glyph-name="uni041F" unicode="&#x041F;" d="M131 35L131 1397Q131 1411 143.50 1422.50Q156 1434 174 1434L1196 1434Q1215 1434 1228 1422.50Q1241 1411 1241 1397L1241 35Q1241 22 1228 11Q1215 0 1196 0L969 0Q951 0 938.50 11Q926 22 926 35L926 1139L446 1139L446 35Q446 22 433 11Q420 0 401 0L174 0Q156 0 143.50 11Q131 22 131 35Z"  horiz-adv-x="1404" vert-adv-y="2048"  />

      
      <glyph glyph-name="uni0420" unicode="&#x0420;" d="M127 35L127 829Q127 843 139 854.50Q151 866 170 866L315 866Q296 894 262 949.50Q228 1005 209 1032Q197 1053 168.50 1098Q140 1143 127 1165L127 1397Q127 1411 139 1422.50Q151 1434 170 1434L625 1434Q635 1434 653 1433Q671 1432 722.50 1423.50Q774 1415 820.50 1400Q867 1385 924.50 1352.50Q982 1320 1023 1276Q1064 1232 1092 1160.50Q1120 1089 1120 1001Q1120 931 1103 872Q1086 813 1057.50 771.50Q1029 730 992 696Q955 662 913.50 641.50Q872 621 831 605.50Q790 590 753 583Q716 576 687.50 572Q659 568 642 568L625 567L440 567L440 35Q440 22 427.50 11Q415 0 397 0L170 0Q151 0 139 11Q127 22 127 35M487 1135L655 868Q712 876 759.50 909Q807 942 807 1001Q807 1039 791 1066Q775 1093 754.50 1106Q734 1119 704 1126Q674 1133 659 1134Q644 1135 625 1135L487 1135Z"  horiz-adv-x="1193" vert-adv-y="2048"  />

      
      <glyph glyph-name="uni0421" unicode="&#x0421;" d="M135 438.50Q135 438.50 106.50 504.75Q78 571 78 717Q78 863 135 995.50Q192 1128 289 1224Q386 1320 520.50 1377Q655 1434 803 1434Q953 1434 1084.50 1378.50Q1216 1323 1315 1223L1311 1225Q1324 1213 1324 1197.50Q1324 1182 1311 1171L1315 1174L1155 1012Q1142 1006 1123 1006Q1104 1006 1092 1012Q972 1135 803 1135Q634 1135 512.50 1012.50Q391 890 391 717Q391 544 512.50 421.50Q634 299 803 299Q972 299 1092 422Q1104 430 1123 430Q1142 430 1155 422L1315 258L1311 260Q1324 249 1324 234Q1324 219 1311 207L1315 209Q1216 110 1084 55Q952 0 803 0Q655 0 520.50 57Q386 114 289 210Q192 306 135 438.50M633 717Q633 645 682.50 593Q732 541 801 541Q870 541 918.50 593Q967 645 967 717Q967 790 918.50 841.50Q870 893 801 893Q732 893 682.50 841.50Q633 790 633 717Z"  horiz-adv-x="1406" vert-adv-y="2048"  />

      
      <glyph glyph-name="uni0422" unicode="&#x0422;" d="M10 1165L10 1370Q10 1384 22.50 1395.50Q35 1407 53 1407L836 1407Q855 1407 867 1395.50Q879 1384 879 1370L879 1165Q879 1151 867.50 1142Q856 1133 836 1133L598 1133L598 35Q598 22 587 11Q576 0 557 0L334 0Q314 0 303.50 10.50Q293 21 293 35L293 1133L53 1133Q34 1133 22 1142Q10 1151 10 1165Z"  horiz-adv-x="917" vert-adv-y="2048"  />

      
      <glyph glyph-name="uni0423" unicode="&#x0423;" d="M-14 1384Q-22 1402-10.50 1418Q1 1434 25 1434L287 1434Q299 1434 311 1426.50Q323 1419 326 1409L512 877Q546 967 614.50 1143Q683 1319 717 1409Q730 1434 754 1434L997 1434Q1020 1434 1031 1418.50Q1042 1403 1034 1384L506 23L506 25Q499 0 467 0L231 0Q208 0 196.50 15Q185 30 195 49L195 47L350 459L-14 1384Z"  horiz-adv-x="1040" vert-adv-y="2048"  />

      
      <glyph glyph-name="uni0424" unicode="&#x0424;" d="M79 511.50Q79 511.50 62 558.25Q45 605 45 707Q45 809 80 905Q115 1001 180 1080Q245 1159 349.50 1209Q454 1259 582 1266L582 1397Q582 1411 595 1422.50Q608 1434 627 1434L854 1434Q872 1434 884.50 1422.50Q897 1411 897 1397L897 1266Q1029 1259 1135.50 1209Q1242 1159 1308 1080.50Q1374 1002 1409 907Q1444 812 1444 709Q1444 629 1422.50 552.50Q1401 476 1355.50 407.50Q1310 339 1246 286Q1182 233 1092.50 199.50Q1003 166 897 160L897 16Q897 2 884.50-9Q872-20 854-20L627-20Q608-20 595-9Q582 2 582 16L582 160Q451 167 346 215.50Q241 264 177 341Q113 418 79 511.50M350 723Q350 655 375.50 594Q401 533 455 488.50Q509 444 582 434L582 989Q468 979 409 903Q350 827 350 723M897 434Q1005 448 1065.50 531Q1126 614 1126 721Q1126 825 1068 902Q1010 979 897 989L897 434Z"  horiz-adv-x="1527" vert-adv-y="2048"  />

      
      <glyph glyph-name="uni0425" unicode="&#x0425;" d="M49 0Q22 0 11.50 19Q1 38 18 57L16 57L483 717Q439 777 358 891Q277 1005 254 1038L16 1376L18 1376Q1 1395 12 1414.50Q23 1434 49 1434L328 1434Q353 1434 365 1419L676 983L987 1419Q992 1424 1005.50 1429Q1019 1434 1024 1434L1303 1434Q1331 1434 1341.50 1414.50Q1352 1395 1335 1376L1337 1376L866 717Q909 657 1135 342Q1169 296 1236 199.50Q1303 103 1337 57L1335 57Q1352 38 1341.50 19Q1331 0 1303 0L1024 0Q998 0 987 14L676 451L365 14Q351 0 328 0L49 0Z"  horiz-adv-x="1380" vert-adv-y="2048"  />

      
      <glyph glyph-name="uni0426" unicode="&#x0426;" d="M131 35L131 1397Q131 1411 143.50 1422.50Q156 1434 174 1434L403 1434Q421 1434 433.50 1422.50Q446 1411 446 1397L446 295L926 295L926 1397Q926 1412 937.50 1423Q949 1434 969 1434L1198 1434Q1217 1434 1228 1423Q1239 1412 1239 1397L1239 279L1331 279Q1349 279 1361.50 268Q1374 257 1374 244L1374-178Q1374-191 1361.50-202Q1349-213 1331-213L1120-213Q1101-213 1088-202Q1075-191 1075-178L1075 0L174 0Q156 0 143.50 11Q131 22 131 35Z"  horiz-adv-x="1433" vert-adv-y="2048"  />

      
      <glyph glyph-name="uni0427" unicode="&#x0427;" d="M74 948L74 1397Q74 1411 87 1422.50Q100 1434 119 1434L346 1434Q364 1434 376.50 1422.50Q389 1411 389 1397L389 952Q404 861 469.50 806.50Q535 752 621 752Q732 752 825 823L825 1397Q825 1411 837.50 1422.50Q850 1434 868 1434L1096 1434Q1115 1434 1127 1422.50Q1139 1411 1139 1397L1139 35Q1139 22 1127 11Q1115 0 1096 0L868 0Q850 0 837.50 11Q825 22 825 35L825 504Q726 459 588 459Q364 459 219 594Q74 729 74 948Z"  horiz-adv-x="1298" vert-adv-y="2048"  />

      
      <glyph glyph-name="uni0428" unicode="&#x0428;" d="M137 35L137 1397Q137 1411 150 1422.50Q163 1434 182 1434L408 1434Q427 1434 440 1422.50Q453 1411 453 1397L453 295L854 295L854 1397Q854 1411 867 1422.50Q880 1434 899 1434L1120 1434Q1139 1434 1152 1422.50Q1165 1411 1165 1397L1165 295L1567 295L1567 1397Q1567 1411 1579.50 1422.50Q1592 1434 1610 1434L1837 1434Q1856 1434 1869 1422.50Q1882 1411 1882 1397L1882 35Q1882 22 1869 11Q1856 0 1837 0L182 0Q163 0 150 11Q137 22 137 35Z"  horiz-adv-x="2068" vert-adv-y="2048"  />

      
      <glyph glyph-name="uni0429" unicode="&#x0429;" d="M139 35L139 1397Q139 1411 151 1422.50Q163 1434 182 1434L412 1434Q430 1434 441.50 1422.50Q453 1411 453 1397L453 295L856 295L856 1397Q856 1411 868 1422.50Q880 1434 899 1434L1122 1434Q1141 1434 1153 1422.50Q1165 1411 1165 1397L1165 295L1569 295L1569 1397Q1569 1411 1581 1422.50Q1593 1434 1612 1434L1839 1434Q1858 1434 1870 1422.50Q1882 1411 1882 1397L1882 279L1974 279Q1994 279 2004.50 268.50Q2015 258 2015 244L2015-178Q2015-192 2004.50-202.50Q1994-213 1974-213L1761-213Q1742-213 1730-202Q1718-191 1718-178L1718 0L182 0Q163 0 151 11Q139 22 139 35Z"  horiz-adv-x="2101" vert-adv-y="2048"  />

      
      <glyph glyph-name="uni042A" unicode="&#x042A;" d="M-16 1194L-16 1397Q-16 1411-3 1422.50Q10 1434 29 1434L494 1434Q513 1434 526 1422.50Q539 1411 539 1397L539 868L721 868Q744 868 766 867Q788 866 842.50 857.50Q897 849 942 834Q987 819 1042 786.50Q1097 754 1135 710Q1173 666 1199 594.50Q1225 523 1225 434Q1225 345 1198 273.50Q1171 202 1131.50 158Q1092 114 1035.50 81.50Q979 49 933 34Q887 19 833.50 10.50Q780 2 759.50 1Q739 0 721 0L268 0Q249 0 236 11Q223 22 223 35L223 1159L29 1159Q10 1159-3 1170Q-16 1181-16 1194M539 299L721 299Q734 299 745 300Q756 301 780.50 304Q805 307 824.50 316Q844 325 864 339Q884 353 895.50 377.50Q907 402 907 434Q907 472 891 500Q875 528 854 541.50Q833 555 803.50 562.50Q774 570 757 571.50Q740 573 721 573L539 573L539 299Z"  horiz-adv-x="1277" vert-adv-y="2048"  />

      
      <glyph glyph-name="uni042B" unicode="&#x042B;" d="M131 35L131 1397Q131 1411 144 1422.50Q157 1434 176 1434L401 1434Q420 1434 433 1422.50Q446 1411 446 1397L446 868L631 868Q653 868 675 867Q697 866 751 857.50Q805 849 850 834Q895 819 950 786.50Q1005 754 1043 710Q1081 666 1107 594.50Q1133 523 1133 434Q1133 345 1106 273.50Q1079 202 1039.50 158Q1000 114 944 81.50Q888 49 842 34Q796 19 742.50 10.50Q689 2 668.50 1Q648 0 631 0L176 0Q157 0 144 11Q131 22 131 35M446 299L631 299Q643 299 654 300Q665 301 689.50 304Q714 307 733 316Q752 325 772 339Q792 353 803.50 377.50Q815 402 815 434Q815 472 799 500Q783 528 762 541.50Q741 555 711.50 562.50Q682 570 665.50 571.50Q649 573 631 573L446 573L446 299M1247 35L1247 1397Q1247 1411 1259 1422.50Q1271 1434 1290 1434L1520 1434Q1537 1434 1549 1422.50Q1561 1411 1561 1397L1561 35Q1561 22 1549 11Q1537 0 1520 0L1290 0Q1271 0 1259 11Q1247 22 1247 35Z"  horiz-adv-x="1736" vert-adv-y="2048"  />

      
      <glyph glyph-name="uni042C" unicode="&#x042C;" d="M127 35L127 1397Q127 1411 139 1422.50Q151 1434 170 1434L397 1434Q416 1434 428 1422.50Q440 1411 440 1397L440 868L627 868Q649 868 670.50 867Q692 866 746 857.50Q800 849 845 834Q890 819 945 786.50Q1000 754 1038 710Q1076 666 1102 594.50Q1128 523 1128 434Q1128 345 1101 273.50Q1074 202 1034.50 158Q995 114 938.50 81.50Q882 49 836 34Q790 19 737 10.50Q684 2 664 1Q644 0 627 0L170 0Q151 0 139 11Q127 22 127 35M440 299L627 299Q638 299 649 300Q660 301 684 304Q708 307 727 316Q746 325 766 339Q786 353 797.50 377.50Q809 402 809 434Q809 472 793 500Q777 528 756.50 541.50Q736 555 706.50 562.50Q677 570 660.50 571.50Q644 573 627 573L440 573L440 299Z"  horiz-adv-x="1187" vert-adv-y="2048"  />

      
      <glyph glyph-name="uni042D" unicode="&#x042D;" d="M90 190Q76 201 76 217.50Q76 234 90 244Q115 270 176 330Q237 390 246 399Q259 411 278 413Q297 415 309 406Q434 281 602 281Q734 281 838.50 362.50Q943 444 983 573L471 573Q453 573 440.50 584Q428 595 428 608L428 831Q428 845 440.50 856.50Q453 868 471 868L991 868Q950 1000 843.50 1077.50Q737 1155 602 1155Q434 1155 309 1030Q297 1021 280.50 1021Q264 1021 252 1030L94 1188Q80 1199 78.50 1215.50Q77 1232 90 1243Q188 1340 322.50 1397Q457 1454 602 1454Q751 1454 884 1400.50Q1017 1347 1114.50 1252.50Q1212 1158 1268.50 1019Q1325 880 1325 717Q1325 511 1228.50 342Q1132 173 966 77.50Q800-18 602-18Q457-18 322.50 38.50Q188 95 90 190Z"  horiz-adv-x="1421" vert-adv-y="2048"  />

      
      <glyph glyph-name="uni042E" unicode="&#x042E;" d="M139 35L139 1397Q139 1411 152 1422.50Q165 1434 184 1434L412 1434Q430 1434 442.50 1422.50Q455 1411 455 1397L455 868L584 868Q602 963 637 1047.50Q672 1132 729 1207Q786 1282 860.50 1336Q935 1390 1035.50 1421Q1136 1452 1253 1452Q1420 1452 1555.50 1389Q1691 1326 1775 1221.50Q1859 1117 1903.50 987Q1948 857 1948 717Q1948 577 1903.50 447.50Q1859 318 1775 213.50Q1691 109 1555.50 46.50Q1420-16 1253-16Q1108-16 988.50 31.50Q869 79 788.50 161.50Q708 244 657 346Q606 448 584 567L455 567L455 35Q455 22 442.50 11Q430 0 412 0L184 0Q165 0 152 11Q139 22 139 35M881 717Q881 633 905 555Q929 477 973.50 413.50Q1018 350 1090.50 312Q1163 274 1253 274Q1343 274 1416.50 312Q1490 350 1535.50 413Q1581 476 1605.50 554Q1630 632 1630 717Q1630 801 1605.50 879Q1581 957 1535.50 1020Q1490 1083 1416.50 1121Q1343 1159 1253 1159Q1181 1159 1119.50 1134Q1058 1109 1014.50 1067Q971 1025 940.50 968Q910 911 895.50 847.50Q881 784 881 717Z"  horiz-adv-x="2060" vert-adv-y="2048"  />

      
      <glyph glyph-name="uni042F" unicode="&#x042F;" d="M82 0Q56 0 44.50 16.50Q33 33 47 53L393 606Q111 703 111 1001Q111 1089 138.50 1160.50Q166 1232 209.50 1276Q253 1320 306 1352.50Q359 1385 412.50 1400Q466 1415 509.50 1423.50Q553 1432 580 1433L608 1434L1061 1434Q1080 1434 1093 1422.50Q1106 1411 1106 1397L1106 1165L913 866L1061 866Q1080 866 1093 854.50Q1106 843 1106 829L1106 35Q1106 22 1093 11Q1080 0 1061 0L834 0Q816 0 803.50 11Q791 22 791 35L791 567L731 567Q551 282 387 18L389 20Q385 13 371 6.50Q357 0 348 0L82 0M424 1001Q424 941 464 910.50Q504 880 557 870L725 1135L608 1135Q604 1135 597.50 1134.50Q591 1134 572 1131.50Q553 1129 535.50 1124.50Q518 1120 496.50 1109.50Q475 1099 460 1085.50Q445 1072 434.50 1050Q424 1028 424 1001Z"  horiz-adv-x="1265" vert-adv-y="2048"  />

      
      <glyph glyph-name="uni0430" unicode="&#x0430;" d="M-23 49Q65 275 248.50 746Q432 1217 520 1442Q530 1465 559.50 1465Q589 1465 600 1442L1143 49Q1151 30 1140 15Q1129 0 1106 0L858 0Q846 0 834 7.50Q822 15 819 25L819 23L764 164L354 164L303 23L303 25Q300 15 287.50 7.50Q275 0 260 0L16 0Q-9 0-20 14.50Q-31 29-23 49M436 412L682 412L610 625Q573 751 561 823Q543 726 510 625L436 412Z"  horiz-adv-x="1144" vert-adv-y="2048"  />

      
      <glyph glyph-name="uni0431" unicode="&#x0431;" d="M131 35L131 1382Q131 1396 142.50 1406.50Q154 1417 172 1417L1001 1417Q1019 1417 1031.50 1406.50Q1044 1396 1044 1382L1044 1167Q1044 1154 1031.50 1143.50Q1019 1133 1001 1133L438 1133L438 868L616 868Q870 868 996 755Q1122 642 1122 438Q1122 356 1099 288.50Q1076 221 1039.50 177Q1003 133 953.50 99Q904 65 857 47Q810 29 759 17.50Q708 6 675 3Q642 0 616 0L172 0Q154 0 142.50 11Q131 22 131 35M438 291L616 291Q650 291 681 297Q712 303 744 317.50Q776 332 795.50 363Q815 394 815 438Q815 482 796.50 512.50Q778 543 746.50 557.50Q715 572 683.50 578Q652 584 616 584L438 584L438 291Z"  horiz-adv-x="1234" vert-adv-y="2048"  />

      
      <glyph glyph-name="uni0432" unicode="&#x0432;" d="M127 35L127 1397Q127 1411 139 1422.50Q151 1434 170 1434L625 1434Q631 1434 642 1434Q653 1434 687 1430.50Q721 1427 753.50 1421Q786 1415 831 1400.50Q876 1386 914 1366.50Q952 1347 991 1314.50Q1030 1282 1057.50 1241.50Q1085 1201 1102.50 1143Q1120 1085 1120 1016Q1120 806 952 719Q1008 693 1048 653.50Q1088 614 1105 576Q1122 538 1131.50 503.50Q1141 469 1141 448L1141 426Q1141 342 1117 274Q1093 206 1056.50 163Q1020 120 968 87.50Q916 55 869.50 39Q823 23 769 13.50Q715 4 684.50 2Q654 0 625 0L170 0Q151 0 139 11Q127 22 127 35M438 295L625 295Q659 295 690 300.50Q721 306 753.50 319.50Q786 333 805.50 362Q825 391 825 432Q825 472 804.50 500.50Q784 529 754.50 541Q725 553 695.50 559Q666 565 646 565L625 565L438 565L438 295M438 866L625 866Q629 866 635.50 866.50Q642 867 660.50 869.50Q679 872 696 876.50Q713 881 734 891Q755 901 770 914.50Q785 928 795 950Q805 972 805 999Q805 1040 786.50 1070.50Q768 1101 741.50 1114.50Q715 1128 688.50 1135.50Q662 1143 644 1144L625 1145L438 1145L438 866Z"  horiz-adv-x="1234" vert-adv-y="2048"  />

      
      <glyph glyph-name="uni0433" unicode="&#x0433;" d="M127 35L127 1382Q127 1396 139.50 1406.50Q152 1417 170 1417L999 1417Q1017 1417 1028.50 1406.50Q1040 1396 1040 1382L1040 1167Q1040 1154 1028.50 1143.50Q1017 1133 999 1133L434 1133L434 35Q434 22 422.50 11Q411 0 393 0L170 0Q152 0 139.50 11Q127 22 127 35Z"  horiz-adv-x="1122" vert-adv-y="2048"  />

      
      <glyph glyph-name="uni0434" unicode="&#x0434;" d="M-16-170L-16 233Q-16 247-3 258.50Q10 270 29 270L125 270Q314 764 365 895Q508 1261 571 1427Q582 1450 611 1450Q640 1450 649 1427L1100 270L1198 270Q1217 270 1228 259Q1239 248 1239 233L1239-170Q1239-183 1228-194Q1217-205 1198-205L993-205Q974-205 962-194Q950-183 950-170L950 0L276 0L276-170Q276-183 263.50-194Q251-205 233-205L29-205Q10-205-3-194Q-16-183-16-170M446 270L776 270L688 514L610 725L446 270Z"  horiz-adv-x="1263" vert-adv-y="2048"  />

      
      <glyph glyph-name="uni0435" unicode="&#x0435;" d="M131 35L131 1382Q131 1396 142.50 1406.50Q154 1417 172 1417L1063 1417Q1083 1417 1095.50 1406.50Q1108 1396 1108 1382L1108 1163Q1108 1150 1095 1139Q1082 1128 1063 1128L438 1128L438 848L952 848Q971 848 982 837.50Q993 827 993 813L993 598Q993 585 982 574Q971 563 952 563L438 563L438 287L1063 287Q1083 287 1095.50 276.50Q1108 266 1108 252L1108 35Q1108 22 1095 11Q1082 0 1063 0L172 0Q154 0 142.50 11Q131 22 131 35Z"  horiz-adv-x="1204" vert-adv-y="2048"  />

      
      <glyph glyph-name="uni0436" unicode="&#x0436;" d="M55 0Q26 0 15 19Q4 38 20 57L18 57L489 750L29 1360L31 1360Q14 1379 25.50 1398Q37 1417 66 1417L334 1417Q340 1417 354.50 1409Q369 1401 375 1395L629 1059Q649 1023 678.50 978Q708 933 737.50 891.50Q767 850 772 842L772 1380Q772 1394 784 1405.50Q796 1417 813 1417L1038 1417Q1057 1417 1070 1405.50Q1083 1394 1083 1380L1083 842Q1087 849 1116.50 891.50Q1146 934 1175 978.50Q1204 1023 1225 1059L1481 1395Q1487 1401 1500.50 1409Q1514 1417 1520 1417L1790 1417Q1819 1417 1830.50 1398Q1842 1379 1825 1360L1827 1360L1364 750L1837 57L1835 57Q1851 38 1840 19Q1829 0 1800 0L1522 0Q1514 0 1502 6.50Q1490 13 1487 20L1489 16L1155 526L1083 440L1083 35Q1083 22 1070 11Q1057 0 1038 0L813 0Q796 0 784 11Q772 22 772 35L772 440L698 526L367 16L369 20Q366 13 353 6.50Q340 0 332 0L55 0Z"  horiz-adv-x="1855" vert-adv-y="2048"  />

      
      <glyph glyph-name="uni0437" unicode="&#x0437;" d="M47 408Q47 423 59 431.50Q71 440 90 440L313 440Q331 440 343.50 431.50Q356 423 356 408Q357 339 402 303.50Q447 268 508 268Q565 268 607 315.50Q649 363 649 430Q649 503 606 544.50Q563 586 498 586L395 586Q376 586 364 594.50Q352 603 352 618L352 819Q352 833 364.50 843.50Q377 854 395 854L498 854Q546 854 579 893Q612 932 612 1001Q612 1068 578 1107.50Q544 1147 485 1147Q424 1147 385 1113Q346 1079 346 1026Q346 1012 334 1001.50Q322 991 303 991L96 991Q78 991 65.50 1001.50Q53 1012 53 1026Q53 1203 173 1318.50Q293 1434 485 1434Q683 1434 805.50 1316.50Q928 1199 928 999Q928 923 894 850Q860 777 797 729Q870 674 916.50 594Q963 514 963 430Q963 315 925 226Q887 137 822 84.50Q757 32 676.50 6Q596-20 504-20Q302-20 174.50 97.50Q47 215 47 408Z"  horiz-adv-x="1024" vert-adv-y="2048"  />

      
      <glyph glyph-name="uni0438" unicode="&#x0438;" d="M139 35L139 1382Q139 1397 149.50 1407Q160 1417 180 1417L406 1417Q424 1417 436.50 1406.50Q449 1396 449 1382L449 535Q507 620 623 792.50Q739 965 754 987L1036 1405Q1052 1417 1071 1417L1300 1417Q1318 1417 1330.50 1406.50Q1343 1396 1343 1382L1343 35Q1343 22 1330.50 11Q1318 0 1300 0L1073 0Q1055 0 1042.50 11Q1030 22 1030 35L1030 897L444 16L446 20Q442 13 430 6.50Q418 0 410 0L180 0Q160 0 149.50 10.50Q139 21 139 35Z"  horiz-adv-x="1523" vert-adv-y="2048"  />

      
      <glyph glyph-name="uni0439" unicode="&#x0439;" d="M139 35L139 1382Q139 1397 149.50 1407Q160 1417 180 1417L406 1417Q424 1417 436.50 1406.50Q449 1396 449 1382L449 535Q507 620 623 792.50Q739 965 754 987L1036 1405Q1052 1417 1071 1417L1300 1417Q1318 1417 1330.50 1406.50Q1343 1396 1343 1382L1343 35Q1343 22 1330.50 11Q1318 0 1300 0L1073 0Q1055 0 1042.50 11Q1030 22 1030 35L1030 897L444 16L446 20Q442 13 430 6.50Q418 0 410 0L180 0Q160 0 149.50 10.50Q139 21 139 35M426 1788Q426 1802 438.50 1813.50Q451 1825 469 1825L645 1825Q662 1825 676 1813.50Q690 1802 690 1788Q691 1744 714 1720Q737 1696 768 1696Q798 1696 821.50 1720.50Q845 1745 848 1790Q848 1802 861 1813.50Q874 1825 891 1825L1067 1825Q1085 1825 1097.50 1813.50Q1110 1802 1110 1788Q1110 1620 1018 1540Q926 1460 778 1460Q708 1460 647 1478.50Q586 1497 535.50 1534.50Q485 1572 455.50 1637Q426 1702 426 1788Z"  horiz-adv-x="1529" vert-adv-y="2048"  />

      
      <glyph glyph-name="uni043A" unicode="&#x043A;" d="M131 35L131 1382Q131 1396 143.50 1406.50Q156 1417 176 1417L399 1417Q418 1417 430 1406.50Q442 1396 442 1382L442 807L918 1405Q942 1417 950 1417L1231 1417Q1260 1417 1271 1399.50Q1282 1382 1264 1360L727 696L1268 57Q1286 35 1275 17.50Q1264 0 1235 0L942 0Q936 0 923 5.50Q910 11 907 14L522 487Q518 483 512.50 475.50Q507 468 502 463L502 465Q473 426 442 395L442 35Q442 22 430 11Q418 0 399 0L176 0Q157 0 144 11Q131 22 131 35Z"  horiz-adv-x="1323" vert-adv-y="2048"  />

      
      <glyph glyph-name="uni043B" unicode="&#x043B;" d="M-18 49L512 1425Q522 1450 551 1450Q580 1450 590 1425L1126 49Q1132 29 1121 14.50Q1110 0 1085 0L846 0Q833 0 821.50 7Q810 14 807 25L553 725Q523 641 434 398.50Q345 156 299 25Q296 15 284 7.50Q272 0 258 0L18 0Q-4 0-15 15Q-26 30-18 49Z"  horiz-adv-x="1144" vert-adv-y="2048"  />

      
      <glyph glyph-name="uni043C" unicode="&#x043C;" d="M137 35L137 1382Q137 1396 149.50 1406.50Q162 1417 180 1417L408 1417Q418 1417 430.50 1410Q443 1403 446 1397L915 428L1362 1397Q1365 1404 1379 1410.50Q1393 1417 1403 1417L1628 1417Q1647 1417 1659 1406.50Q1671 1396 1671 1382L1671 35Q1671 22 1659 11Q1647 0 1628 0L1407 0Q1388 0 1375 11Q1362 22 1362 35L1362 707L1061 76Q1058 69 1045 61Q1032 53 1022 53L811 53Q801 53 789 60.50Q777 68 774 76L446 731L446 35Q446 22 434 11Q422 0 403 0L180 0Q162 0 149.50 11Q137 22 137 35Z"  horiz-adv-x="1875" vert-adv-y="2048"  />

      
      <glyph glyph-name="uni043D" unicode="&#x043D;" d="M131 35L131 1397Q131 1411 143.50 1422.50Q156 1434 174 1434L401 1434Q420 1434 433 1422.50Q446 1411 446 1397L446 868L926 868L926 1397Q926 1411 938.50 1422.50Q951 1434 969 1434L1196 1434Q1215 1434 1228 1422.50Q1241 1411 1241 1397L1241 35Q1241 22 1228 11Q1215 0 1196 0L969 0Q951 0 938.50 11Q926 22 926 35L926 567L446 567L446 35Q446 22 433 11Q420 0 401 0L174 0Q156 0 143.50 11Q131 22 131 35Z"  horiz-adv-x="1404" vert-adv-y="2048"  />

      
      <glyph glyph-name="uni043E" unicode="&#x043E;" d="M109.50 496.50Q109.50 496.50 95.75 548.75Q82 601 82 711Q82 821 109.50 925.50Q137 1030 195 1123Q253 1216 335 1286Q417 1356 533.50 1397Q650 1438 788 1438Q924 1438 1040 1397Q1156 1356 1238.50 1286Q1321 1216 1379 1123Q1437 1030 1465 925.50Q1493 821 1493 711Q1493 601 1465 496Q1437 391 1379 298Q1321 205 1238.50 134.50Q1156 64 1040 23Q924-18 788-18Q650-18 533.50 23Q417 64 335 134.50Q253 205 195 298.50Q137 392 109.50 496.50M397 707Q397 623 422 546Q447 469 494.50 406.50Q542 344 618 307Q694 270 788 270Q863 270 927.50 294.50Q992 319 1037.50 361Q1083 403 1116 458.50Q1149 514 1164.50 577.50Q1180 641 1180 707Q1180 774 1164.50 838Q1149 902 1116 958.50Q1083 1015 1037.50 1057.50Q992 1100 927.50 1124.50Q863 1149 788 1149Q694 1149 618 1111.50Q542 1074 494.50 1011Q447 948 422 870Q397 792 397 707Z"  horiz-adv-x="1632" vert-adv-y="2048"  />

      
      <glyph glyph-name="uni043F" unicode="&#x043F;" d="M135 35L135 1382Q135 1396 147.50 1406.50Q160 1417 178 1417L1182 1417Q1199 1417 1211 1406.50Q1223 1396 1223 1382L1223 35Q1223 22 1211 11Q1199 0 1182 0L956 0Q938 0 925.50 11Q913 22 913 35L913 1126L444 1126L444 35Q444 22 431.50 11Q419 0 401 0L178 0Q160 0 147.50 11Q135 22 135 35Z"  horiz-adv-x="1404" vert-adv-y="2048"  />

      
      <glyph glyph-name="uni0440" unicode="&#x0440;" d="M131 31L131 1382Q131 1396 142.50 1406.50Q154 1417 172 1417L618 1417Q640 1417 664 1415.50Q688 1414 739.50 1405Q791 1396 835.50 1380.50Q880 1365 932.50 1332.50Q985 1300 1021.50 1256Q1058 1212 1083 1141Q1108 1070 1108 983Q1108 896 1082 825.50Q1056 755 1017.50 711.50Q979 668 925 635.50Q871 603 826 588Q781 573 729.50 564Q678 555 656.50 554Q635 553 618 553L438 553L438 31Q438 18 426.50 7Q415-4 395-4L172-4Q154-4 142.50 7Q131 18 131 31M438 846L618 846Q630 846 642.50 847Q655 848 678.50 851.50Q702 855 721.50 864.50Q741 874 760 888Q779 902 790 926.50Q801 951 801 983Q801 1020 784 1048Q767 1076 745 1090Q723 1104 694 1112.50Q665 1121 648.50 1122.50Q632 1124 618 1124L438 1124L438 846Z"  horiz-adv-x="1187" vert-adv-y="2048"  />

      
      <glyph glyph-name="uni0441" unicode="&#x0441;" d="M86 702Q86 912 176.50 1080Q267 1248 430 1343Q593 1438 799 1438Q942 1438 1073.50 1383Q1205 1328 1303 1233Q1309 1223 1308 1206Q1307 1189 1298 1180L1143 1024Q1131 1015 1114.50 1015Q1098 1015 1087 1024Q961 1147 799 1147Q616 1147 507.50 1020Q399 893 399 702Q399 508 514 391Q629 274 799 274Q963 274 1087 395Q1098 404 1114.50 404Q1131 404 1143 395L1298 238Q1308 229 1308 210.50Q1308 192 1298 182Q1200 87 1071.50 33.50Q943-20 799-20Q653-20 523 31.50Q393 83 296 175.50Q199 268 142.50 404.50Q86 541 86 702Z"  horiz-adv-x="1421" vert-adv-y="2048"  />

      
      <glyph glyph-name="uni0442" unicode="&#x0442;" d="M10 1165L10 1370Q10 1384 22.50 1395.50Q35 1407 53 1407L836 1407Q855 1407 867 1395.50Q879 1384 879 1370L879 1165Q879 1151 867.50 1142Q856 1133 836 1133L598 1133L598 35Q598 22 587 11Q576 0 557 0L334 0Q314 0 303.50 10.50Q293 21 293 35L293 1133L53 1133Q34 1133 22 1142Q10 1151 10 1165Z"  horiz-adv-x="917" vert-adv-y="2048"  />

      
      <glyph glyph-name="uni0443" unicode="&#x0443;" d="M-10 1368Q-18 1387-6.50 1402Q5 1417 29 1417L285 1417Q295 1417 307.50 1410.50Q320 1404 324 1395Q475 949 508 856Q543 953 611 1138Q679 1323 705 1395Q708 1404 719.50 1410.50Q731 1417 743 1417L981 1417Q1005 1417 1016.50 1402.50Q1028 1388 1020 1368L500 23L500 25Q493 0 463 0L231 0Q212 0 200 15.50Q188 31 195 49L344 451Q279 625 154.50 944Q30 1263-10 1368Z"  horiz-adv-x="1046" vert-adv-y="2048"  />

      
      <glyph glyph-name="uni0444" unicode="&#x0444;" d="M49 692Q49 772 70 850Q91 928 135 999Q179 1070 241 1124.50Q303 1179 390 1213.50Q477 1248 578 1253L578 1382Q578 1396 590.50 1406.50Q603 1417 621 1417L844 1417Q862 1417 874.50 1406.50Q887 1396 887 1382L887 1253Q991 1248 1079.50 1214Q1168 1180 1230 1125.50Q1292 1071 1336.50 1000.50Q1381 930 1402 852Q1423 774 1423 694Q1423 594 1389 502Q1355 410 1290.50 334.50Q1226 259 1121.50 211Q1017 163 887 156L887 16Q887 2 874.50-9Q862-20 844-20L621-20Q603-20 590.50-9Q578 2 578 16L578 156Q449 163 346 210.50Q243 258 179.50 333.50Q116 409 82.50 500.50Q49 592 49 692M350 709Q350 604 410.50 522Q471 440 578 426L578 981Q520 975 475 950Q430 925 403.50 886.50Q377 848 363.50 803Q350 758 350 709M887 426Q992 440 1052 521.50Q1112 603 1112 707Q1112 756 1098.50 801.50Q1085 847 1059 885.50Q1033 924 988.50 949.50Q944 975 887 981L887 426Z"  horiz-adv-x="1527" vert-adv-y="2048"  />

      
      <glyph glyph-name="uni0445" unicode="&#x0445;" d="M57 0Q28 0 18 18.50Q8 37 23 57L20 57L481 702Q402 812 20 1360L23 1360Q8 1380 18 1398.50Q28 1417 57 1417L328 1417Q353 1417 365 1405Q425 1317 539 1154Q653 991 672 963L975 1405Q979 1409 992 1413Q1005 1417 1010 1417L1284 1417Q1309 1417 1320.50 1398.50Q1332 1380 1319 1360L856 702Q893 654 958 561.50Q1023 469 1053 428Q1179 251 1319 57Q1332 37 1320.50 18.50Q1309 0 1284 0L1010 0Q983 0 975 14Q923 89 823.50 234.50Q724 380 672 455Q622 385 518.50 234.50Q415 84 365 14Q351 0 328 0L57 0Z"  horiz-adv-x="1380" vert-adv-y="2048"  />

      
      <glyph glyph-name="uni0446" unicode="&#x0446;" d="M137 35L137 1382Q137 1396 148.50 1406.50Q160 1417 178 1417L403 1417Q422 1417 433 1406.50Q444 1396 444 1382L444 289L915 289L915 1382Q915 1396 927 1406.50Q939 1417 958 1417L1180 1417Q1200 1417 1212.50 1406.50Q1225 1396 1225 1382L1225 274L1313 274Q1331 274 1343.50 263Q1356 252 1356 238L1356-174Q1356-187 1343.50-198Q1331-209 1313-209L1104-209Q1086-209 1074.50-198Q1063-187 1063-174L1063 0L178 0Q160 0 148.50 11Q137 22 137 35Z"  horiz-adv-x="1433" vert-adv-y="2048"  />

      
      <glyph glyph-name="uni0447" unicode="&#x0447;" d="M78 930L78 1382Q78 1396 90.50 1406.50Q103 1417 123 1417L344 1417Q363 1417 375 1406.50Q387 1396 387 1382L387 934Q404 844 467 791.50Q530 739 614 739Q729 739 813 805L813 1382Q813 1396 825.50 1406.50Q838 1417 856 1417L1081 1417Q1098 1417 1110 1406.50Q1122 1396 1122 1382L1122 35Q1122 22 1110 11Q1098 0 1081 0L856 0Q838 0 825.50 11Q813 22 813 35L813 494Q707 449 584 449Q363 449 220.50 581.50Q78 714 78 930Z"  horiz-adv-x="1298" vert-adv-y="2048"  />

      
      <glyph glyph-name="uni0448" unicode="&#x0448;" d="M145 35L145 1382Q145 1396 157 1406.50Q169 1417 186 1417L412 1417Q431 1417 442 1406.50Q453 1396 453 1382L453 289L846 289L846 1382Q846 1396 858.50 1406.50Q871 1417 891 1417L1108 1417Q1127 1417 1139 1406.50Q1151 1396 1151 1382L1151 289L1546 289L1546 1382Q1546 1396 1558 1406.50Q1570 1417 1589 1417L1812 1417Q1830 1417 1842.50 1406.50Q1855 1396 1855 1382L1855 35Q1855 22 1842.50 11Q1830 0 1812 0L186 0Q169 0 157 11Q145 22 145 35Z"  horiz-adv-x="2070" vert-adv-y="2048"  />

      
      <glyph glyph-name="uni0449" unicode="&#x0449;" d="M147 35L147 1382Q147 1396 159 1406.50Q171 1417 190 1417L414 1417Q432 1417 444.50 1406.50Q457 1396 457 1382L457 289L850 289L850 1382Q850 1396 862 1406.50Q874 1417 891 1417L1112 1417Q1130 1417 1142.50 1406.50Q1155 1396 1155 1382L1155 289L1546 289L1546 1382Q1546 1396 1558.50 1406.50Q1571 1417 1591 1417L1815 1417Q1833 1417 1844 1406.50Q1855 1396 1855 1382L1855 274L1946 274Q1964 274 1976.50 263Q1989 252 1989 238L1989-174Q1989-187 1976.50-198Q1964-209 1946-209L1739-209Q1720-209 1708-198Q1696-187 1696-174L1696 0L190 0Q171 0 159 11Q147 22 147 35Z"  horiz-adv-x="2101" vert-adv-y="2048"  />

      
      </font>
</defs>
</svg>
